<?xml version="1.0" encoding="UTF-8" standalone="no"?>
<svg
   xmlns:dc="http://purl.org/dc/elements/1.1/"
   xmlns:cc="http://creativecommons.org/ns#"
   xmlns:rdf="http://www.w3.org/1999/02/22-rdf-syntax-ns#"
   xmlns:svg="http://www.w3.org/2000/svg"
   xmlns="http://www.w3.org/2000/svg"
   xmlns:sodipodi="http://sodipodi.sourceforge.net/DTD/sodipodi-0.dtd"
   xmlns:inkscape="http://www.inkscape.org/namespaces/inkscape"
   version="1.1"
   id="Layer_1"
   width="75.28125"
   height="79.625"
   viewBox="-3.5 -3.5 75.28125 79.625"
   enable-background="new -3.5 -3.5 695 185"
   xml:space="preserve"
   inkscape:version="0.48.5 r10040"
   sodipodi:docname="AngularJS_logo.svg"><metadata
   id="metadata4350"><rdf:RDF><cc:Work
       rdf:about=""><dc:format>image/svg+xml</dc:format><dc:type
         rdf:resource="http://purl.org/dc/dcmitype/StillImage" /><dc:title></dc:title></cc:Work></rdf:RDF></metadata><defs
   id="defs4348" /><sodipodi:namedview
   pagecolor="#0000ff"
   bordercolor="#666666"
   borderopacity="1"
   objecttolerance="10"
   gridtolerance="10"
   guidetolerance="10"
   inkscape:pageopacity="1"
   inkscape:pageshadow="2"
   inkscape:window-width="1920"
   inkscape:window-height="1027"
   id="namedview4346"
   showgrid="false"
   fit-margin-top="0"
   fit-margin-left="0"
   fit-margin-right="0"
   fit-margin-bottom="0"
   inkscape:zoom="22.855319"
   inkscape:cx="30.299265"
   inkscape:cy="45.728905"
   inkscape:window-x="-8"
   inkscape:window-y="-8"
   inkscape:window-maximized="1"
   inkscape:current-layer="g4917" />
<filter
   id="googleDropShadow"
   color-interpolation-filters="sRGB">
	<feOffset
   result="offOut"
   in="SourceGraphic"
   dx="0.3"
   dy="0.5"
   id="feOffset4288" />
	<feGaussianBlur
   stdDeviation="0.25"
   result="blurOut"
   in="offOut"
   id="feGaussianBlur4290" />
	<feColorMatrix
   type="matrix"
   result="blurTransOut"
   in="blurOut"
   values="1 0 0 0 0 0 1 0 0 0 0 0 1 0 0 0 0 0 .8 0"
   id="feColorMatrix4292" />
	<feBlend
   in="SourceGraphic"
   mode="normal"
   in2="blurTransOut"
   id="feBlend4294" />
</filter>
<g
   id="g4296"
   transform="translate(-96,-101.84375)">
	
	
	
	
	
	
	
	
	
	
	
	
	
	
	
	
	
</g>
<g
   id="g4332"
   transform="translate(-96,-101.84375)">
	
	
	
	<g
   id="g4890"
   transform="translate(7.640194,8.11443)"><g
     id="g4917"
     transform="translate(-8.759769,-9.275785)"><path
       inkscape:connector-curvature="0"
       d="m 131.15049,119.51781 -0.039,0.0156 -18.30371,6.52309 -0.0937,0.0312 0.008,0.10156 2.79673,24.21746 0.008,0.0625 0.0547,0.0312 15.50698,8.6011 0.0625,0.0313 0.0625,-0.0313 15.74135,-8.71828 0.0547,-0.0312 0.008,-0.0625 3.04672,-24.21747 0.0156,-0.10155 -0.10155,-0.0313 -18.78806,-6.40591 -0.039,-0.0156 z m 0,0.26561 18.64744,6.35903 -3.02327,24.05342 -15.62417,8.65578 -15.38981,-8.53861 -2.7811,-24.0534 18.17091,-6.47622 z m 0.0469,-2.57017 -0.0469,0.0156 -20.67077,7.27305 -0.0937,0.0313 0.0156,0.10155 3.26545,27.0845 0.008,0.0625 0.0547,0.0313 17.42876,9.57761 0.0625,0.0313 0.0547,-0.0313 17.52251,-9.71042 0.0547,-0.0313 0.008,-0.0625 3.26544,-27.07668 0.008,-0.10155 -0.0937,-0.0313 -20.80358,-7.14805 -0.039,-0.0156 z m 0,0.26561 20.66296,7.10118 -3.24203,26.91262 -17.40531,9.64793 -17.30377,-9.51512 -3.24201,-26.92044 20.53016,-7.22617 z"
       style="font-size:medium;font-style:normal;font-variant:normal;font-weight:normal;font-stretch:normal;text-indent:0;text-align:start;text-decoration:none;line-height:normal;letter-spacing:normal;word-spacing:normal;text-transform:none;direction:ltr;block-progression:tb;writing-mode:lr-tb;text-anchor:start;baseline-shift:baseline;color:#000000;fill:#ffffff;fill-opacity:1;fill-rule:nonzero;stroke:none;stroke-width:0;marker:none;visibility:visible;display:inline;overflow:visible;enable-background:accumulate;font-family:Sans;-inkscape-font-specification:Sans"
       id="polygon4336" /><path
       style="font-size:medium;font-style:normal;font-variant:normal;font-weight:normal;font-stretch:normal;text-indent:0;text-align:start;text-decoration:none;line-height:normal;letter-spacing:normal;word-spacing:normal;text-transform:none;direction:ltr;block-progression:tb;writing-mode:lr-tb;text-anchor:start;baseline-shift:baseline;color:#000000;fill:#ffffff;fill-opacity:1;fill-rule:nonzero;stroke:none;stroke-width:0;marker:none;visibility:visible;display:inline;overflow:visible;enable-background:accumulate;font-family:Sans;-inkscape-font-specification:Sans"
       d="m 131.15049,120.78337 -0.11718,0.24217 -12.78057,28.42817 -0.0781,0.17968 0.1953,0 4.76538,-0.0859 0.0859,0 0.0313,-0.0781 2.53111,-6.3356 5.3669,0 5.91375,0 2.77329,6.42153 0.0313,0.0781 0.0859,0 4.56226,0.0859 0.19531,0 -0.0859,-0.17969 -13.36648,-28.5141 -0.10936,-0.24217 z m 0.008,0.60153 13.16337,28.08444 -4.28103,-0.0859 -2.77329,-6.42154 -0.0312,-0.0781 -0.0859,0 -5.99968,0 -5.45283,0 -0.0859,0 -0.0313,0.0781 -2.53111,6.3356 -4.47632,0.0859 12.58527,-27.99851 z m 0.0156,8.50736 -0.10937,0.25779 -3.80449,9.02297 -0.0703,0.17186 0.18748,0 3.76543,0 0.008,0 0.22655,0.008 0.008,0 4.11697,0 0.1953,0 -0.0859,-0.17968 -4.32008,-9.03077 -0.11719,-0.24999 z m 0.0156,0.60934 4.11696,8.6011 -3.91385,0 -0.008,0 -0.22655,-0.008 -0.008,0 -3.58574,0 3.6248,-8.59328 z"
       id="path4340"
       inkscape:connector-curvature="0" /></g></g>
	
</g>

</svg>