<?xml version="1.0" encoding="UTF-8" standalone="no"?>
<!-- Created with Inkscape (http://www.inkscape.org/) -->

<svg
   xmlns:dc="http://purl.org/dc/elements/1.1/"
   xmlns:cc="http://creativecommons.org/ns#"
   xmlns:rdf="http://www.w3.org/1999/02/22-rdf-syntax-ns#"
   xmlns:svg="http://www.w3.org/2000/svg"
   xmlns="http://www.w3.org/2000/svg"
   version="1.1"
   width="40"
   height="40"
   id="svg6889">
  <defs
     id="defs6891">
    <clipPath
       id="clipPath3064">
      <path
         d="m 197.501,209.335 176.899,0 0,85.329 -176.899,0 0,-85.329 z"
         id="path3066" />
    </clipPath>
    <clipPath
       id="clipPath3108">
      <path
         d="m 197.501,209.335 176.899,0 0,85.329 -176.899,0 0,-85.329 z"
         id="path3110" />
    </clipPath>
    <clipPath
       id="clipPath3212">
      <path
         d="m 197.501,209.335 176.899,0 0,85.329 -176.899,0 0,-85.329 z"
         id="path3214" />
    </clipPath>
    <clipPath
       id="clipPath3252">
      <path
         d="m 197.501,209.335 176.899,0 0,85.329 -176.899,0 0,-85.329 z"
         id="path3254" />
    </clipPath>
    <clipPath
       id="clipPath3272">
      <path
         d="m 197.501,209.335 176.899,0 0,85.329 -176.899,0 0,-85.329 z"
         id="path3274" />
    </clipPath>
    <clipPath
       id="clipPath3296">
      <path
         d="m 197.501,209.335 176.899,0 0,85.329 -176.899,0 0,-85.329 z"
         id="path3298" />
    </clipPath>
    <clipPath
       id="clipPath3320">
      <path
         d="m 197.501,209.335 176.899,0 0,85.329 -176.899,0 0,-85.329 z"
         id="path3322" />
    </clipPath>
    <clipPath
       id="clipPath3426">
      <path
         d="m 194.085,309.167 171.59,0 0,84.16 -171.59,0 0,-84.16 z"
         id="path3428" />
    </clipPath>
    <clipPath
       id="clipPath3434">
      <path
         d="m 202.431,405.229 123.731,0 0,-102.954 -123.731,0 0,102.954 z"
         id="path3436" />
    </clipPath>
    <clipPath
       id="clipPath3482">
      <path
         d="m 194.085,309.167 171.59,0 0,84.16 -171.59,0 0,-84.16 z"
         id="path3484" />
    </clipPath>
    <clipPath
       id="clipPath3502">
      <path
         d="m 194.085,309.167 171.59,0 0,84.16 -171.59,0 0,-84.16 z"
         id="path3504" />
    </clipPath>
    <clipPath
       id="clipPath3534">
      <path
         d="m 194.085,309.167 171.59,0 0,84.16 -171.59,0 0,-84.16 z"
         id="path3536" />
    </clipPath>
    <clipPath
       id="clipPath3558">
      <path
         d="m 194.085,309.167 171.59,0 0,84.16 -171.59,0 0,-84.16 z"
         id="path3560" />
    </clipPath>
    <clipPath
       id="clipPath3578">
      <path
         d="m 194.085,309.167 171.59,0 0,84.16 -171.59,0 0,-84.16 z"
         id="path3580" />
    </clipPath>
    <clipPath
       id="clipPath3602">
      <path
         d="m 194.085,309.167 171.59,0 0,84.16 -171.59,0 0,-84.16 z"
         id="path3604" />
    </clipPath>
    <clipPath
       id="clipPath3626">
      <path
         d="m 194.085,309.167 171.59,0 0,84.16 -171.59,0 0,-84.16 z"
         id="path3628" />
    </clipPath>
    <clipPath
       id="clipPath3654">
      <path
         d="m 194.085,309.167 171.59,0 0,84.16 -171.59,0 0,-84.16 z"
         id="path3656" />
    </clipPath>
    <clipPath
       id="clipPath3670">
      <path
         d="m 194.085,309.167 171.59,0 0,84.16 -171.59,0 0,-84.16 z"
         id="path3672" />
    </clipPath>
    <clipPath
       id="clipPath3686">
      <path
         d="m 194.085,309.167 171.59,0 0,84.16 -171.59,0 0,-84.16 z"
         id="path3688" />
    </clipPath>
    <clipPath
       id="clipPath3722">
      <path
         d="m 194.085,309.167 171.59,0 0,84.16 -171.59,0 0,-84.16 z"
         id="path3724" />
    </clipPath>
    <clipPath
       id="clipPath3742">
      <path
         d="m 194.085,309.167 171.59,0 0,84.16 -171.59,0 0,-84.16 z"
         id="path3744" />
    </clipPath>
    <clipPath
       id="clipPath3758">
      <path
         d="m 194.085,309.167 171.59,0 0,84.16 -171.59,0 0,-84.16 z"
         id="path3760" />
    </clipPath>
    <clipPath
       id="clipPath3774">
      <path
         d="m 194.085,309.167 171.59,0 0,84.16 -171.59,0 0,-84.16 z"
         id="path3776" />
    </clipPath>
    <clipPath
       id="clipPath3838">
      <path
         d="m 194.085,309.167 171.59,0 0,84.16 -171.59,0 0,-84.16 z"
         id="path3840" />
    </clipPath>
    <clipPath
       id="clipPath3858">
      <path
         d="m 194.085,309.167 171.59,0 0,84.16 -171.59,0 0,-84.16 z"
         id="path3860" />
    </clipPath>
    <clipPath
       id="clipPath3882">
      <path
         d="m 194.085,309.167 171.59,0 0,84.16 -171.59,0 0,-84.16 z"
         id="path3884" />
    </clipPath>
    <clipPath
       id="clipPath3922">
      <path
         d="m 194.085,309.167 171.59,0 0,84.16 -171.59,0 0,-84.16 z"
         id="path3924" />
    </clipPath>
    <clipPath
       id="clipPath3950">
      <path
         d="m 194.085,309.167 171.59,0 0,84.16 -171.59,0 0,-84.16 z"
         id="path3952" />
    </clipPath>
    <clipPath
       id="clipPath4006">
      <path
         d="m 194.085,309.167 171.59,0 0,84.16 -171.59,0 0,-84.16 z"
         id="path4008" />
    </clipPath>
    <clipPath
       id="clipPath4030">
      <path
         d="m 194.085,309.167 171.59,0 0,84.16 -171.59,0 0,-84.16 z"
         id="path4032" />
    </clipPath>
    <clipPath
       id="clipPath4050">
      <path
         d="m 194.085,309.167 171.59,0 0,84.16 -171.59,0 0,-84.16 z"
         id="path4052" />
    </clipPath>
    <clipPath
       id="clipPath4094">
      <path
         d="m 194.085,309.167 171.59,0 0,84.16 -171.59,0 0,-84.16 z"
         id="path4096" />
    </clipPath>
    <clipPath
       id="clipPath4122">
      <path
         d="m 194.085,309.167 171.59,0 0,84.16 -171.59,0 0,-84.16 z"
         id="path4124" />
    </clipPath>
    <clipPath
       id="clipPath4158">
      <path
         d="m 194.085,309.167 171.59,0 0,84.16 -171.59,0 0,-84.16 z"
         id="path4160" />
    </clipPath>
    <clipPath
       id="clipPath4234">
      <path
         d="m 194.085,309.167 171.59,0 0,84.16 -171.59,0 0,-84.16 z"
         id="path4236" />
    </clipPath>
    <clipPath
       id="clipPath4278">
      <path
         d="m 194.085,309.167 171.59,0 0,84.16 -171.59,0 0,-84.16 z"
         id="path4280" />
    </clipPath>
  </defs>
  <metadata
     id="metadata6894">
    <rdf:RDF>
      <cc:Work
         rdf:about="">
        <dc:format>image/svg+xml</dc:format>
        <dc:type
           rdf:resource="http://purl.org/dc/dcmitype/StillImage" />
        <dc:title></dc:title>
      </cc:Work>
    </rdf:RDF>
  </metadata>
  <g
     id="layer3">
    <path
       d="m 37.369918,16.986066 c -0.179993,-0.139914 -0.67953,0.499537 -0.67953,0.499537 C 35.971143,16.566324 34.632123,16.206702 34.632123,16.206702 29.056698,6.1751633 21.66312,5.8752956 21.66312,5.8752956 16.487397,4.7363087 14.449172,8.0935146 14.449172,8.0935146 14.189384,8.2133888 11.201638,9.871952 11.022009,9.871952 c -0.779729,0 -1.1291493,0.599735 -1.1291493,0.599735 0,0 -0.5993709,0.439418 -0.6594902,0.439418 -0.7793644,0 -1.1189472,0.65949 -1.1189472,0.65949 -3.4570403,1.97847 -4.3366035,2.617921 -6.2746303,3.856742 -0.99980168,0.639086 -1.59880826,1.378736 -1.65892753,2.83763 -0.0211328,0.519576 -0.37966232,7.693809 0.91927833,8.613088 0,0 5.0026522,3.387812 6.1547561,3.876418 0.6594902,0.279827 1.1393513,0.02004 1.2792653,-0.259789 0.1515734,-0.303511 0.5993709,-1.078867 0.5993709,-1.078867 l 1.2588609,0.61941 c 0,0 0.259788,-0.139913 0.499537,0.199669 0.240112,0.339947 1.340842,0.224446 1.398775,0.239749 1.718682,0.459821 3.257371,2.897749 8.932631,2.557801 l 0.339947,0.319908 c 0,0 -0.140278,0.839484 1.538689,0.839484 0.07688,0 0.320636,0.351971 0.802319,0.03899 0.01858,-0.01202 0.03753,-0.02514 0.05684,-0.03899 0,0 0.264889,-0.185095 0.264889,-0.424843 0,-0.239749 0.01494,-0.734184 0.01494,-0.734184 0,0 5.39361,0.0022 10.650949,-2.298014 0.319907,-0.140278 0.299868,-0.299867 0.299868,-0.299867 0,0 0.699569,-0.379663 0.739284,-0.459457 0.04008,-0.08016 0.439782,0.01967 0.579696,-0.120239 0.139914,-0.139914 2.284897,-1.944221 2.597881,-4.456113 0.01968,-0.159954 0.579331,0 0.659126,-0.639451 0,0 0.319907,-3.890263 -0.119874,-5.735378 0,0 0.220073,0 0.220073,-0.259789 0,0 0,-0.439417 -0.279828,-0.519576 -0.279828,-0.0798 -0.539616,0.159954 -0.539616,0.159954 0,0 0.07979,-0.439417 -0.04008,-0.619411 -0.119874,-0.179993 -0.59937,-0.259788 -0.779364,-0.179993 -0.179629,0.07979 -0.07979,0.399702 -0.07979,0.399702 l 0.07979,0.179993 -0.859159,-0.04008 0.04008,-0.459822 c 0,0 0.259423,-0.139549 0.279463,-0.299503 0.02004,-0.159954 -0.319543,-0.399702 -0.319543,-0.399702 z"
       id="path3444"
       style="fill:none;stroke:#ffffff;stroke-width:0.23974837;stroke-linecap:butt;stroke-linejoin:miter;stroke-miterlimit:10;stroke-opacity:1;stroke-dasharray:none" />
    <path
       d="m 22.522352,27.027552 c 4.825938,-0.119874 9.472247,-1.388937 9.472247,-1.388937 0,0 -0.02004,-0.699206 -0.02004,-1.019113 0,-0.319543 0.359623,-0.449619 0.359623,-0.549454 0,-1.129878 -0.179994,-2.967341 -0.179994,-2.967341 -3.616994,-0.519941 -4.121631,-1.124049 -4.121631,-1.124049 l -0.134813,0.03461 c 0,0 -0.149752,0.479862 -0.459457,1.029315 -0.649288,1.152469 -1.378736,1.998146 -4.296524,2.19818 -2.917425,0.200033 -6.034882,1.118947 -6.034882,1.118947 l -0.8843,-0.57423 -0.569494,0.314442 c 0,0 -1.004174,-0.3895 -2.422988,-0.269626 l -0.09,0.129712 0.06996,1.658563 c 0,0 2.263035,2.093608 7.793644,2.048427 l -0.0102,-0.359622 c 0,0 0.189831,-0.339947 0.719609,-0.289666 0.529414,0.04992 0.809242,0.0098 0.809242,0.0098 z"
       id="path3448"
       style="fill:none;stroke:#ffffff;stroke-width:0.23974837;stroke-linecap:butt;stroke-linejoin:miter;stroke-miterlimit:10;stroke-opacity:1;stroke-dasharray:none" />
    <path
       d="M 32.663854,24.040134 C 33.263225,16.936222 26.33457,9.7321114 20.194388,8.0035912 13.060234,5.9952431 12.190873,14.478255 12.190873,14.478255 c 0,0 -0.194568,0.08963 -0.194568,0.299503 l 0,0.419742"
       id="path3452"
       style="fill:none;stroke:#ffffff;stroke-width:0.11987419;stroke-linecap:butt;stroke-linejoin:miter;stroke-miterlimit:10;stroke-opacity:1;stroke-dasharray:none" />
    <path
       d="m 12.580628,14.478145 c 0,0 0.85005,-8.1408783 7.61365,-6.0549217 6.414545,1.9784707 11.060854,7.8982147 12.019847,12.6942757"
       id="path3456"
       style="fill:none;stroke:#ffffff;stroke-width:0.11987419;stroke-linecap:butt;stroke-linejoin:miter;stroke-miterlimit:10;stroke-opacity:1;stroke-dasharray:none" />
    <path
       d="M 14.55899,8.0335414 C 13.94468,8.9477187 13.614935,9.5172122 13.210132,10.491509"
       id="path3460"
       style="fill:none;stroke:#ffffff;stroke-width:0.11987419;stroke-linecap:butt;stroke-linejoin:miter;stroke-miterlimit:10;stroke-opacity:1;stroke-dasharray:none" />
    <path
       d="m 13.689701,10.206689 -0.674429,0.404803 c 0,0 -0.479497,1.753297 -1.348858,2.457967 -0.610302,0.494436 -0.194932,0.929117 -0.194932,0.929117"
       id="path3464"
       style="fill:none;stroke:#ffffff;stroke-width:0.11987419;stroke-linecap:butt;stroke-linejoin:miter;stroke-miterlimit:10;stroke-opacity:1;stroke-dasharray:none" />
    <path
       d="m 13.464892,10.641333 -0.269626,0.119874 c 0,0 -0.704671,2.128222 -1.408977,2.607719"
       id="path3468"
       style="fill:none;stroke:#ffffff;stroke-width:0.11987419;stroke-linecap:butt;stroke-linejoin:miter;stroke-miterlimit:10;stroke-opacity:1;stroke-dasharray:none" />
    <path
       d="m 11.576454,13.923591 0,-0.404803 c 0,0 0.554555,-0.404439 0.854422,-0.494436"
       id="path3472"
       style="fill:none;stroke:#ffffff;stroke-width:0.11987419;stroke-linecap:butt;stroke-linejoin:miter;stroke-miterlimit:10;stroke-opacity:1;stroke-dasharray:none" />
    <path
       d="m 13.015272,10.611383 0.179993,0.149752"
       id="path3476"
       style="fill:none;stroke:#ffffff;stroke-width:0.11987419;stroke-linecap:butt;stroke-linejoin:miter;stroke-miterlimit:10;stroke-opacity:1;stroke-dasharray:none" />
    <path
       d="m 34.612229,16.306609 c 0,0 0.299868,0.689368 0.329745,0.839484"
       id="path3488"
       style="fill:none;stroke:#ffffff;stroke-width:0.11987419;stroke-linecap:butt;stroke-linejoin:miter;stroke-miterlimit:10;stroke-opacity:1;stroke-dasharray:none" />
    <path
       d="m 12.086047,14.598056 c 0,0 0.317721,-0.02769 0.624512,-0.229911 0.379662,-0.249586 2.852568,-1.658563 2.857669,-1.718318 0.195297,-2.326798 1.718318,-4.4663152 1.718318,-4.4663152"
       id="path3492"
       style="fill:none;stroke:#ffffff;stroke-width:0.11987419;stroke-linecap:butt;stroke-linejoin:miter;stroke-miterlimit:10;stroke-opacity:1;stroke-dasharray:none" />
    <path
       d="m 20.194279,8.4231872 3.147335,1.8083148"
       id="path3496"
       style="fill:none;stroke:#ffffff;stroke-width:0.11987419;stroke-linecap:butt;stroke-linejoin:miter;stroke-miterlimit:10;stroke-opacity:1;stroke-dasharray:none" />
    <path
       d="m 33.567647,17.933692 -1.573303,0.910898 c 0,0 0.939318,4.076451 1.478934,5.415471 0.257602,0.639086 -0.359623,0.479497 -0.359623,0.479497"
       id="path3508"
       style="fill:none;stroke:#ffffff;stroke-width:0.11987419;stroke-linecap:butt;stroke-linejoin:miter;stroke-miterlimit:10;stroke-opacity:1;stroke-dasharray:none" />
    <path
       d="m 33.756895,16.334228 c -0.508645,0.152302 -0.743657,0.430308 -0.743657,0.430308"
       id="path3512"
       style="fill:none;stroke:#ffffff;stroke-width:0.11987419;stroke-linecap:butt;stroke-linejoin:miter;stroke-miterlimit:10;stroke-opacity:1;stroke-dasharray:none" />
    <path
       d="m 36.119291,23.591353 c 0.145744,-0.08526 0.250315,-0.146837 0.291487,-0.17052 0.239749,-0.139914 0.619411,-0.559656 0.339948,-1.039153 -0.51484,-0.882478 -1.478935,-5.275557 -1.478935,-5.275557 l -0.239748,-0.02004 -0.720702,0.417192"
       id="path3516"
       style="fill:none;stroke:#ffffff;stroke-width:0.11987419;stroke-linecap:butt;stroke-linejoin:miter;stroke-miterlimit:10;stroke-opacity:1;stroke-dasharray:none" />
    <path
       d="m 33.063593,24.979379 c 0.359623,0.200033 0.689368,0 0.689368,0 0,0 0.851507,-0.499537 1.594071,-0.934946"
       id="path3520"
       style="fill:none;stroke:#ffffff;stroke-width:0.11987419;stroke-linecap:butt;stroke-linejoin:miter;stroke-miterlimit:10;stroke-opacity:1;stroke-dasharray:none" />
    <path
       d="m 33.650685,18.115944 -1.396589,0.808513 c 0,0 0.939318,4.076451 1.478934,5.415471 0.257602,0.639086 -0.329745,0.719245 -0.329745,0.719245"
       id="path3524"
       style="fill:none;stroke:#ffffff;stroke-width:0.11987419;stroke-linecap:butt;stroke-linejoin:miter;stroke-miterlimit:10;stroke-opacity:1;stroke-dasharray:none" />
    <path
       d="M 35.291686,17.165914 34.38261,17.692413"
       id="path3528"
       style="fill:none;stroke:#ffffff;stroke-width:0.11987419;stroke-linecap:butt;stroke-linejoin:miter;stroke-miterlimit:10;stroke-opacity:1;stroke-dasharray:none" />
    <path
       d="M 21.573123,5.9053192 C 35.011784,11.031125 36.311089,23.811389 36.081179,24.070084 35.921225,24.250078 35.383431,24.466143 35.371771,24.140041 35.211818,19.743683 31.015128,10.071767 21.692997,6.7444385 17.362952,5.199191 15.128337,8.6329124 15.128337,8.6329124"
       id="path3540"
       style="fill:none;stroke:#ffffff;stroke-width:0.11987419;stroke-linecap:butt;stroke-linejoin:miter;stroke-miterlimit:10;stroke-opacity:1;stroke-dasharray:none" />
    <path
       d="m 29.066863,11.480635 c 0,0 0.06996,-0.484598 0.549454,-0.529414"
       id="path3544"
       style="fill:none;stroke:#ffffff;stroke-width:0.11987419;stroke-linecap:butt;stroke-linejoin:miter;stroke-miterlimit:10;stroke-opacity:1;stroke-dasharray:none" />
    <path
       d="M 17.571475,6.729609 C 17.121856,6.5197381 17.316788,6.0253026 17.316788,6.0253026"
       id="path3548"
       style="fill:none;stroke:#ffffff;stroke-width:0.11987419;stroke-linecap:butt;stroke-linejoin:miter;stroke-miterlimit:10;stroke-opacity:1;stroke-dasharray:none" />
    <path
       d="m 31.994453,18.844517 0.259788,0.0798"
       id="path3552"
       style="fill:none;stroke:#ffffff;stroke-width:0.11987419;stroke-linecap:butt;stroke-linejoin:miter;stroke-miterlimit:10;stroke-opacity:1;stroke-dasharray:none" />
    <path
       d="m 24.051094,10.171747 c -5.845051,0.329745 -7.993313,1.488772 -7.993313,1.488772 l -0.26999,-0.104936 c 0,0 1.708845,-1.183803 7.823521,-1.6636639"
       id="path3564"
       style="fill:none;stroke:#ffffff;stroke-width:0.11987419;stroke-linecap:butt;stroke-linejoin:miter;stroke-miterlimit:10;stroke-opacity:1;stroke-dasharray:none" />
    <path
       d="m 16.057745,11.660483 0,0.8843"
       id="path3568"
       style="fill:none;stroke:#ffffff;stroke-width:0.11987419;stroke-linecap:butt;stroke-linejoin:miter;stroke-miterlimit:10;stroke-opacity:1;stroke-dasharray:none" />
    <path
       d="m 25.62979,11.29084 0.08963,1.199106 0.139914,0.0798 0,0.489699"
       id="path3572"
       style="fill:none;stroke:#ffffff;stroke-width:0.11987419;stroke-linecap:butt;stroke-linejoin:miter;stroke-miterlimit:10;stroke-opacity:1;stroke-dasharray:none" />
    <path
       d="m 27.637992,14.887831 c 0,0 0.599371,-0.02004 0.979398,0.119874 0.379662,0.139914 0.61941,0.179994 0.839119,0.219709"
       id="path3584"
       style="fill:none;stroke:#ffffff;stroke-width:0.11987419;stroke-linecap:butt;stroke-linejoin:miter;stroke-miterlimit:10;stroke-opacity:1;stroke-dasharray:none" />
    <path
       d="m 27.742928,15.127616 c 0,0 0.494435,-0.04008 0.874462,0.09983 0.379662,0.139914 0.829282,0.229911 1.04899,0.269991"
       id="path3588"
       style="fill:none;stroke:#ffffff;stroke-width:0.11987419;stroke-linecap:butt;stroke-linejoin:miter;stroke-miterlimit:10;stroke-opacity:1;stroke-dasharray:none" />
    <path
       d="m 34.732103,16.586364 c 0,0 0.919278,0.119874 1.938391,1.33902"
       id="path3592"
       style="fill:none;stroke:#ffffff;stroke-width:0.11987419;stroke-linecap:butt;stroke-linejoin:miter;stroke-miterlimit:10;stroke-opacity:1;stroke-dasharray:none" />
    <path
       d="m 23.34165,10.231684 0,1.148825"
       id="path3596"
       style="fill:none;stroke:#ffffff;stroke-width:0.11987419;stroke-linecap:butt;stroke-linejoin:miter;stroke-miterlimit:10;stroke-opacity:1;stroke-dasharray:none" />
    <path
       d="m 12.29089,12.329956 -1.518649,0.879199 c 0,0 -0.9393184,0.529778 0.04008,1.188904 0,0 -1.0110966,0.930573 -1.6188478,1.74856 -0.5195763,0.69957 -1.0362377,2.039683 -1.2789009,2.498047 -0.3596226,0.67953 -0.9251081,1.570024 -1.1991062,2.437927 -0.2397484,0.759325 -0.3395828,1.099272 -0.2794636,2.038226 l -0.080159,0.220073 -1.7583976,-0.899603 c 0,0 -1.4854926,-0.572408 -1.7387223,1.159391 -0.2495861,1.70848 1.2588612,3.037299 1.6585632,3.317126 0.3997021,0.279828 1.8425647,1.191091 2.1384243,1.338656 0.1198742,0.06012 0.139914,0.279828 0.139914,0.279828 0,0 -0.139914,1.998511 0.8992386,2.278338"
       id="path3608"
       style="fill:none;stroke:#ffffff;stroke-width:0.11987419;stroke-linecap:butt;stroke-linejoin:miter;stroke-miterlimit:10;stroke-opacity:1;stroke-dasharray:none" />
    <path
       d="m 11.351645,15.182525 c 0,0 -1.5864201,1.246109 -2.5479641,3.821764 -0.4193775,1.124048 -0.9440548,1.453793 -1.2887386,3.017623 -0.1909242,0.866082 -0.1799935,1.738358 -0.1799935,1.738358 l -0.6394504,0.499536 c 0,0 -1.6173906,-0.820536 -2.0181858,-1.038788 -0.4397816,-0.240112 -1.4188148,-0.06012 -1.1991062,1.158663 0.2259027,1.251574 0.9192783,1.758762 1.2391857,2.01855 0.3195431,0.259788 1.9183514,1.219146 1.9183514,1.219146 l 0,0.63945"
       id="path3612"
       style="fill:none;stroke:#ffffff;stroke-width:0.11987419;stroke-linecap:butt;stroke-linejoin:miter;stroke-miterlimit:10;stroke-opacity:1;stroke-dasharray:none" />
    <path
       d="m 4.5773321,23.210852 c 0,0 -0.1949322,1.738722 1.138987,2.647799 1.2501165,0.852236 1.6786029,1.118947 1.6786029,1.118947 0,0 -0.1869163,1.529215 0.6594902,1.698642 0.2998677,0.06012 0.2798279,0.399703 0.2798279,0.399703 l 0.1599537,-0.09983 0.6194107,0.359623"
       id="path3616"
       style="fill:none;stroke:#ffffff;stroke-width:0.11987419;stroke-linecap:butt;stroke-linejoin:miter;stroke-miterlimit:10;stroke-opacity:1;stroke-dasharray:none" />
    <path
       d="M 6.6356338,27.617231 7.4149982,27.037535"
       id="path3620"
       style="fill:none;stroke:#ffffff;stroke-width:0.11987419;stroke-linecap:butt;stroke-linejoin:miter;stroke-miterlimit:10;stroke-opacity:1;stroke-dasharray:none" />
    <path
       d="m 7.3749551,27.137515 c 0,0 -0.2998676,2.338093 0.9593579,2.01855 l 0,1.538689"
       id="path3632"
       style="fill:none;stroke:#ffffff;stroke-width:0.11987419;stroke-linecap:butt;stroke-linejoin:miter;stroke-miterlimit:10;stroke-opacity:1;stroke-dasharray:none" />
    <path
       d="m 11.531492,13.209155 c 0,0 -1.25376,0.414641 -0.359623,0.924015 l -0.389864,0.299868"
       id="path3636"
       style="fill:none;stroke:#ffffff;stroke-width:0.11987419;stroke-linecap:butt;stroke-linejoin:miter;stroke-miterlimit:10;stroke-opacity:1;stroke-dasharray:none" />
    <path
       d="m 12.415756,13.309099 c 0,0 -1.094171,0.629613 -1.094171,0.869361 l 0,1.10911 c 0,0 0.509739,0.134813 1.214045,-0.419742"
       id="path3640"
       style="fill:none;stroke:#ffffff;stroke-width:0.11987419;stroke-linecap:butt;stroke-linejoin:miter;stroke-miterlimit:10;stroke-opacity:1;stroke-dasharray:none" />
    <path
       d="m 11.321694,14.178387 c 0,0 0.225903,0.197483 0.458364,0.004 0.0069,-0.0062 0.01421,-0.01239 0.02113,-0.01895 0.239748,-0.224809 0.374925,-0.344684 0.4948,-0.419742"
       id="path3644"
       style="fill:none;stroke:#ffffff;stroke-width:0.11987419;stroke-linecap:butt;stroke-linejoin:miter;stroke-miterlimit:10;stroke-opacity:1;stroke-dasharray:none" />
    <path
       d="m 11.786289,15.257473 0,-1.064293"
       id="path3648"
       style="fill:none;stroke:#ffffff;stroke-width:0.11987419;stroke-linecap:butt;stroke-linejoin:miter;stroke-miterlimit:10;stroke-opacity:1;stroke-dasharray:none" />
    <path
       d="m 11.306683,14.538082 c 0,0 -1.244651,1.035873 -2.0232868,2.367971 -0.5694935,0.974296 -0.7043064,1.603545 -0.9593579,2.008348 -0.2546871,0.404803 -1.393674,2.113283 -1.4537933,3.327328 l -0.059755,1.214045 -0.1497516,0.104936 0,0.699205"
       id="path3660"
       style="fill:none;stroke:#ffffff;stroke-width:0.11987419;stroke-linecap:butt;stroke-linejoin:miter;stroke-miterlimit:10;stroke-opacity:1;stroke-dasharray:none" />
    <path
       d="m 6.3558423,24.060174 0,-0.701756 0.3097053,0.172342"
       id="path3664"
       style="fill:none;stroke:#ffffff;stroke-width:0.11987419;stroke-linecap:butt;stroke-linejoin:miter;stroke-miterlimit:10;stroke-opacity:1;stroke-dasharray:none" />
    <path
       d="m 6.4357828,23.120928 c 0,0 -1.3586956,-0.729447 -1.6385235,-0.859159 C 4.5174315,22.131693 3.4181597,21.79211 3.0086199,23.021094"
       id="path3676"
       style="fill:none;stroke:#ffffff;stroke-width:0.11987419;stroke-linecap:butt;stroke-linejoin:miter;stroke-miterlimit:10;stroke-opacity:1;stroke-dasharray:none" />
    <path
       d="m 6.4257629,23.170882 0.3895,0.189831"
       id="path3680"
       style="fill:none;stroke:#ffffff;stroke-width:0.11987419;stroke-linecap:butt;stroke-linejoin:miter;stroke-miterlimit:10;stroke-opacity:1;stroke-dasharray:none" />
    <path
       d="m 2.9386993,15.427338 c 0,0 -1.95843086,1.278901 -2.17813948,4.076451 0,0 -0.17052012,5.241308 0.0400795,6.295034 0.15958934,0.799405 0.51957628,1.198742 0.89923858,1.418451"
       id="path3692"
       style="fill:none;stroke:#ffffff;stroke-width:0.11987419;stroke-linecap:butt;stroke-linejoin:miter;stroke-miterlimit:10;stroke-opacity:1;stroke-dasharray:none" />
    <path
       d="m 1.5598547,15.667122 c 0,0 0.8992386,-0.159954 1.1189472,-0.04008"
       id="path3696"
       style="fill:none;stroke:#ffffff;stroke-width:0.11987419;stroke-linecap:butt;stroke-linejoin:miter;stroke-miterlimit:10;stroke-opacity:1;stroke-dasharray:none" />
    <path
       d="m 0.22098024,17.905308 c 0,0 0.23974837,0.899239 0.59937093,1.059192"
       id="path3700"
       style="fill:none;stroke:#ffffff;stroke-width:0.11987419;stroke-linecap:butt;stroke-linejoin:miter;stroke-miterlimit:10;stroke-opacity:1;stroke-dasharray:none" />
    <path
       d="m 2.6189741,15.707093 5.7051368,3.207454"
       id="path3704"
       style="fill:none;stroke:#ffffff;stroke-width:0.11987419;stroke-linecap:butt;stroke-linejoin:miter;stroke-miterlimit:10;stroke-opacity:1;stroke-dasharray:none" />
    <path
       d="m 0.8404638,18.904418 6.0301453,3.337166"
       id="path3708"
       style="fill:none;stroke:#ffffff;stroke-width:0.11987419;stroke-linecap:butt;stroke-linejoin:miter;stroke-miterlimit:10;stroke-opacity:1;stroke-dasharray:none" />
    <path
       d="M 0.80045716,25.798641 6.9154981,29.675423"
       id="path3712"
       style="fill:none;stroke:#ffffff;stroke-width:0.11987419;stroke-linecap:butt;stroke-linejoin:miter;stroke-miterlimit:10;stroke-opacity:1;stroke-dasharray:none" />
    <path
       d="m 0.44076173,25.159227 0.3199074,0.499537"
       id="path3716"
       style="fill:none;stroke:#ffffff;stroke-width:0.11987419;stroke-linecap:butt;stroke-linejoin:miter;stroke-miterlimit:10;stroke-opacity:1;stroke-dasharray:none" />
    <path
       d="m 6.5157232,28.196708 c 0,0 -0.025869,1.258132 0.060119,1.558729 0.1198742,0.419742 0.2597881,0.779364 0.5592914,0.939318"
       id="path3728"
       style="fill:none;stroke:#ffffff;stroke-width:0.11987419;stroke-linecap:butt;stroke-linejoin:miter;stroke-miterlimit:10;stroke-opacity:1;stroke-dasharray:none" />
    <path
       d="m 2.0393878,15.347397 c 0,0 0.9793976,0.06486 1.06903,0.06996 0.1799934,0.0102 0.3399471,-0.110037 0.3399471,-0.110037 0,0 2.865321,-1.796291 2.9575039,-1.888109 0.069957,-0.07032 0.1887381,-0.222988 -0.010202,-0.24995 -0.1847302,-0.02514 -1.0089108,0.03498 -1.0089108,0.03498"
       id="path3732"
       style="fill:none;stroke:#ffffff;stroke-width:0.11987419;stroke-linecap:butt;stroke-linejoin:miter;stroke-miterlimit:10;stroke-opacity:1;stroke-dasharray:none" />
    <path
       d="M 6.5257066,13.209155 7.694571,12.44983"
       id="path3736"
       style="fill:none;stroke:#ffffff;stroke-width:0.11987419;stroke-linecap:butt;stroke-linejoin:miter;stroke-miterlimit:10;stroke-opacity:1;stroke-dasharray:none" />
    <path
       d="m 6.8754186,12.339976 0.9892353,0.09983 c 0,0 0.1796291,0.02988 0.2896656,-0.03971 0.1100365,-0.06996 0.7542236,-0.509738 0.7542236,-0.509738"
       id="path3748"
       style="fill:none;stroke:#ffffff;stroke-width:0.11987419;stroke-linecap:butt;stroke-linejoin:miter;stroke-miterlimit:10;stroke-opacity:1;stroke-dasharray:none" />
    <path
       d="M 12.540695,9.6621907 14.009427,8.8729886"
       id="path3752"
       style="fill:none;stroke:#ffffff;stroke-width:0.11987419;stroke-linecap:butt;stroke-linejoin:miter;stroke-miterlimit:10;stroke-opacity:1;stroke-dasharray:none" />
    <path
       d="m 11.931194,10.181694 c 0,0 0.499537,-0.2798279 0.609573,-0.3497849 C 12.623837,9.7790771 12.660641,9.6919952 12.510527,9.65228 12.360776,9.612201 11.751203,9.582323 11.751203,9.582323"
       id="path3764"
       style="fill:none;stroke:#ffffff;stroke-width:0.11987419;stroke-linecap:butt;stroke-linejoin:miter;stroke-miterlimit:10;stroke-opacity:1;stroke-dasharray:none" />
    <path
       d="m 5.3716716,13.264137 0.5545547,0.434681"
       id="path3768"
       style="fill:none;stroke:#ffffff;stroke-width:0.11987419;stroke-linecap:butt;stroke-linejoin:miter;stroke-miterlimit:10;stroke-opacity:1;stroke-dasharray:none" />
    <path
       d="m 8.1743228,11.610529 c 0,0 -0.014939,0.18473 0.089997,0.214972 0.1049355,0.02988 0.599371,0.05976 0.599371,0.05976"
       id="path3780"
       style="fill:none;stroke:#ffffff;stroke-width:0.11987419;stroke-linecap:butt;stroke-linejoin:miter;stroke-miterlimit:10;stroke-opacity:1;stroke-dasharray:none" />
    <path
       d="m 9.9428497,10.521496 c 0,0 -0.029877,0.189831 0.069957,0.200033 0.09983,0.0098 0.729447,0.06959 0.729447,0.06959 l -0.739285,0.509738"
       id="path3784"
       style="fill:none;stroke:#ffffff;stroke-width:0.11987419;stroke-linecap:butt;stroke-linejoin:miter;stroke-miterlimit:10;stroke-opacity:1;stroke-dasharray:none" />
    <path
       d="m 10.692227,10.751297 c 0,0 -0.119874,-0.42958 0.169791,-0.649653 0.289666,-0.2197081 0.509739,0.02004 0.509739,0.02004"
       id="path3788"
       style="fill:none;stroke:#ffffff;stroke-width:0.11987419;stroke-linecap:butt;stroke-linejoin:miter;stroke-miterlimit:10;stroke-opacity:1;stroke-dasharray:none" />
    <path
       d="m 10.862055,10.101863 c 0,0 0.899239,0.04992 1.009275,0.06996 0.109672,0.02004 0.279828,0.04008 0.36946,0.229911 0,0 0.379663,0.09983 0.519577,0.3895"
       id="path3792"
       style="fill:none;stroke:#ffffff;stroke-width:0.11987419;stroke-linecap:butt;stroke-linejoin:miter;stroke-miterlimit:10;stroke-opacity:1;stroke-dasharray:none" />
    <path
       d="M 12.510671,11.800396 C 12.110969,10.781283 12.98033,10.811161 12.98033,10.811161"
       id="path3796"
       style="fill:none;stroke:#ffffff;stroke-width:0.11987419;stroke-linecap:butt;stroke-linejoin:miter;stroke-miterlimit:10;stroke-opacity:1;stroke-dasharray:none" />
    <path
       d="m 10.742144,10.791267 1.044254,0.06741 0.149751,-0.03753 c 0,0 0.427029,0.06012 0.47221,0.352336"
       id="path3800"
       style="fill:none;stroke:#ffffff;stroke-width:0.11987419;stroke-linecap:butt;stroke-linejoin:miter;stroke-miterlimit:10;stroke-opacity:1;stroke-dasharray:none" />
    <path
       d="m 12.235908,10.386537 c 0,0 -0.41209,-0.149752 -0.397152,0.457271"
       id="path3804"
       style="fill:none;stroke:#ffffff;stroke-width:0.11987419;stroke-linecap:butt;stroke-linejoin:miter;stroke-miterlimit:10;stroke-opacity:1;stroke-dasharray:none" />
    <path
       d="m 10.160153,11.450648 c 0,0 1.723419,0.352335 2.248096,-0.172342"
       id="path3808"
       style="fill:none;stroke:#ffffff;stroke-width:0.11987419;stroke-linecap:butt;stroke-linejoin:miter;stroke-miterlimit:10;stroke-opacity:1;stroke-dasharray:none" />
    <path
       d="m 8.8112956,11.870317 c 0,0 -0.1049355,-0.427029 0.1646904,-0.68208 0.2699902,-0.254688 0.5173901,0.03753 0.5173901,0.03753"
       id="path3812"
       style="fill:none;stroke:#ffffff;stroke-width:0.11987419;stroke-linecap:butt;stroke-linejoin:miter;stroke-miterlimit:10;stroke-opacity:1;stroke-dasharray:none" />
    <path
       d="M 8.9636707,11.220883 9.958007,11.2708 c 0,0 0.157039,0.06012 0.16469,0.179994 0,0 -0.2623382,0.07506 -0.1348125,0.464558"
       id="path3816"
       style="fill:none;stroke:#ffffff;stroke-width:0.11987419;stroke-linecap:butt;stroke-linejoin:miter;stroke-miterlimit:10;stroke-opacity:1;stroke-dasharray:none" />
    <path
       d="m 8.8537435,11.905332 1.0216633,0.06996 0.1723422,-0.06012 c 0,0 1.813416,0.29258 2.435377,-0.157039"
       id="path3820"
       style="fill:none;stroke:#ffffff;stroke-width:0.11987419;stroke-linecap:butt;stroke-linejoin:miter;stroke-miterlimit:10;stroke-opacity:1;stroke-dasharray:none" />
    <path
       d="m 15.688066,7.9735679 c 0,0 1.968269,-0.9793976 2.078305,-1.0191128"
       id="path3824"
       style="fill:none;stroke:#ffffff;stroke-width:0.11987419;stroke-linecap:butt;stroke-linejoin:miter;stroke-miterlimit:10;stroke-opacity:1;stroke-dasharray:none" />
    <path
       d="m 17.166818,6.9144849 0.649653,0.04008"
       id="path3828"
       style="fill:none;stroke:#ffffff;stroke-width:0.11987419;stroke-linecap:butt;stroke-linejoin:miter;stroke-miterlimit:10;stroke-opacity:1;stroke-dasharray:none" />
    <path
       d="M 16.237556,8.0185298 18.965149,6.3698043"
       id="path3832"
       style="fill:none;stroke:#ffffff;stroke-width:0.11987419;stroke-linecap:butt;stroke-linejoin:miter;stroke-miterlimit:10;stroke-opacity:1;stroke-dasharray:none" />
    <path
       d="m 6.0686908,24.080359 c 0.2721763,0.349421 0.3046043,0.779 0.072872,0.959722 -0.2317324,0.180358 -0.6401791,0.04372 -0.9123555,-0.305697 -0.2721763,-0.349421 -0.3049686,-0.779 -0.072872,-0.959722 0.2317325,-0.180358 0.6401792,-0.04372 0.9123555,0.305697 z"
       id="path3844"
       style="fill:none;stroke:#ffffff;stroke-width:0.11987419;stroke-linecap:butt;stroke-linejoin:miter;stroke-miterlimit:10;stroke-opacity:1;stroke-dasharray:none" />
    <path
       d="M 6.6837656,24.249786 C 6.8593867,24.664791 6.8295093,25.075788 6.5759153,25.273635 6.238883,25.535974 5.6336823,25.323188 5.2248712,24.798147 4.8499456,24.316828 4.7697866,23.740776 5.0175508,23.445645"
       id="path3848"
       style="fill:none;stroke:#ffffff;stroke-width:0.11987419;stroke-linecap:butt;stroke-linejoin:miter;stroke-miterlimit:10;stroke-opacity:1;stroke-dasharray:none" />
    <path
       d="M 5.1568454,23.97025 5.986127,24.9992 6.136243,24.849449 5.306597,23.840538 5.1568454,23.97025 z"
       id="path3852"
       style="fill:none;stroke:#ffffff;stroke-width:0.11987419;stroke-linecap:butt;stroke-linejoin:miter;stroke-miterlimit:10;stroke-opacity:1;stroke-dasharray:none" />
    <path
       d="M 10.792135,29.375665 C 9.8127374,29.515579 8.7739492,28.916208 8.5342009,28.756254 8.2940881,28.596301 8.2343332,28.336512 8.1942537,27.877055 c -0.04008,-0.459821 -0.079795,-3.876782 -0.02004,-4.656146 0.053561,-0.697748 0.4397816,-1.638888 0.4397816,-1.638888 0,0 2.4780077,1.35906 2.4379277,2.757835"
       id="path3864"
       style="fill:none;stroke:#ffffff;stroke-width:0.11987419;stroke-linecap:butt;stroke-linejoin:miter;stroke-miterlimit:10;stroke-opacity:1;stroke-dasharray:none" />
    <path
       d="m 8.3941407,22.3416 c 0,0 1.7583973,0.539616 1.9985103,0.599371"
       id="path3868"
       style="fill:none;stroke:#ffffff;stroke-width:0.11987419;stroke-linecap:butt;stroke-linejoin:miter;stroke-miterlimit:10;stroke-opacity:1;stroke-dasharray:none" />
    <path
       d="m 8.7538362,22.481442 0.02004,5.675259 c 0,0 0.9790332,0.979398 1.9383908,0.999073"
       id="path3872"
       style="fill:none;stroke:#ffffff;stroke-width:0.11987419;stroke-linecap:butt;stroke-linejoin:miter;stroke-miterlimit:10;stroke-opacity:1;stroke-dasharray:none" />
    <path
       d="M 8.7738031,28.156664 8.4342203,28.73636"
       id="path3876"
       style="fill:none;stroke:#ffffff;stroke-width:0.11987419;stroke-linecap:butt;stroke-linejoin:miter;stroke-miterlimit:10;stroke-opacity:1;stroke-dasharray:none" />
    <path
       d="M 12.710522,30.594701 C 12.31082,30.414708 11.871403,30.075125 11.311747,29.935211 10.752091,29.795297 10.772131,28.776184 10.492303,28.696025 9.8353633,28.50838 9.0334087,27.937065 9.0334087,27.937065 l 0,-4.696226 c 0,0 0.02004,-0.219709 0.2000332,-0.119875 0.1799934,0.09983 1.3390201,0.67953 1.3390201,0.67953 0,0 0.239748,0.139914 0.359623,0.339583 0.119874,0.199669 0.239748,0.579696 0.599371,0.739285 0.359622,0.159954 1.219146,0.559656 1.778437,0.899239"
       id="path3888"
       style="fill:none;stroke:#ffffff;stroke-width:0.11987419;stroke-linecap:butt;stroke-linejoin:miter;stroke-miterlimit:10;stroke-opacity:1;stroke-dasharray:none" />
    <path
       d="m 9.0454693,23.387056 c 0.00874,0.0036 0.018218,0.008 0.028056,0.01385 0.1799934,0.09983 1.3390197,0.679165 1.3390197,0.679165 0,0 0.239749,0.139914 0.359623,0.339947 0.119874,0.199669 0.239748,0.579332 0.599371,0.739285 0.359622,0.159954 1.219146,0.559292 1.778437,0.899239 0,0 2.690429,2.202916 8.505602,1.888474"
       id="path3892"
       style="fill:none;stroke:#ffffff;stroke-width:0.11987419;stroke-linecap:butt;stroke-linejoin:miter;stroke-miterlimit:10;stroke-opacity:1;stroke-dasharray:none" />
    <path
       d="m 9.992949,17.905308 c 0,0 -0.6594902,1.378735 -0.7192451,1.558729 -0.060119,0.179629 0,0.299867 0.079795,0.299867 0.079795,0 0.6594901,0.03972 0.6594901,0.03972 0,0 0.259788,0.04008 0.259788,-0.17963 0,-0.220072 0.179629,-1.658563 0.199669,-1.738722 0.02004,-0.07979 -0.259788,-0.399702 -0.4794967,0.02004 z"
       id="path3896"
       style="fill:none;stroke:#ffffff;stroke-width:0.11987419;stroke-linecap:butt;stroke-linejoin:miter;stroke-miterlimit:10;stroke-opacity:1;stroke-dasharray:none" />
    <path
       d="m 8.9337932,20.263295 c -0.04008,0.22481 -0.099834,0.559656 -0.099834,0.559656 0,0 -0.060119,0.279463 0.1497516,0.309705 0.1009275,0.01421 0.8493214,0.169792 0.9892353,0.209871 0.1399139,0.03972 0.3596219,0.01494 0.3796619,-0.240113 0.01239,-0.159225 0.02004,-0.399337 0.0098,-0.569493 -0.0102,-0.169792 -0.02988,-0.344684 -0.269626,-0.3895 -0.158496,-0.02988 -0.8791985,-0.09983 -0.8791985,-0.09983 0,0 -0.2397484,-0.0051 -0.2798279,0.219709 z"
       id="path3900"
       style="fill:none;stroke:#ffffff;stroke-width:0.11987419;stroke-linecap:butt;stroke-linejoin:miter;stroke-miterlimit:10;stroke-opacity:1;stroke-dasharray:none" />
    <path
       d="m 13.100205,24.070121 c 0,0 -0.02004,-1.398775 -0.309705,-2.13806 -0.325373,-0.830739 -0.939318,-2.288176 -0.239749,-3.796987 0,0 0.709408,-2.257935 4.066614,-3.307289 0,0 1.74856,-0.599371 5.235477,-0.509374 0,0 3.007422,0.05975 3.51716,0.559291 0.509374,0.499536 0.669328,1.249023 0.749123,1.508812 0.08016,0.259788 0.24157,0.608479 0.280192,0.769162 0.04955,0.209871 0.02988,0.889401 -0.07032,1.149189 -0.09983,0.259788 -0.169792,1.06903 -0.169792,1.388937 0,0.319908 0.04008,2.048064 -2.357768,2.308216 0,0 -3.702255,0.249586 -6.619679,1.138987"
       id="path3904"
       style="fill:none;stroke:#ffffff;stroke-width:0.11987419;stroke-linecap:butt;stroke-linejoin:miter;stroke-miterlimit:10;stroke-opacity:1;stroke-dasharray:none" />
    <path
       d="m 11.891224,25.029296 c 0,0 -0.02988,-1.993409 -0.434681,-3.012522 -0.404438,-1.019113 -1.5736671,-4.645945 1.124049,-7.17897 0,0 2.248096,-2.188342 6.95416,-2.338093 1.528123,-0.04846 4.391257,0.06012 5.845051,0.419742 1.453793,0.359622 2.047334,1.416264 2.158464,1.753661 0.3895,1.183803 0.674429,1.138987 0.65949,1.768235 0,0 -0.0153,1.199106 -0.150116,2.03859 -0.134813,0.839119 -0.149752,1.318616 -0.209871,1.528487"
       id="path3908"
       style="fill:none;stroke:#ffffff;stroke-width:0.11987419;stroke-linecap:butt;stroke-linejoin:miter;stroke-miterlimit:10;stroke-opacity:1;stroke-dasharray:none" />
    <path
       d="m 16.34752,23.800349 -0.159954,-0.119874 0,-1.558729 c 0,0 0.964095,0.314806 0.964095,1.10911 l 0,1.019112"
       id="path3912"
       style="fill:none;stroke:#ffffff;stroke-width:0.11987419;stroke-linecap:butt;stroke-linejoin:miter;stroke-miterlimit:10;stroke-opacity:1;stroke-dasharray:none" />
    <path
       d="m 15.648132,24.169992 0,-0.504638 0.529414,-0.284564"
       id="path3916"
       style="fill:none;stroke:#ffffff;stroke-width:0.11987419;stroke-linecap:butt;stroke-linejoin:miter;stroke-miterlimit:10;stroke-opacity:1;stroke-dasharray:none" />
    <path
       d="m 13.704677,23.020985 c 0,0 1.608646,-0.134813 1.943492,0.704306"
       id="path3928"
       style="fill:none;stroke:#ffffff;stroke-width:0.11987419;stroke-linecap:butt;stroke-linejoin:miter;stroke-miterlimit:10;stroke-opacity:1;stroke-dasharray:none" />
    <path
       d="m 13.045259,25.613838 c 0,0 0.06486,-2.173038 -0.45472,-3.591853 -0.519577,-1.419179 -1.660385,-4.128555 0.779364,-6.674697 1.838557,-1.918351 5.475591,-2.1581 6.674332,-2.217855 0.91855,-0.04591 3.077743,-0.04008 5.01577,0.379663 0,0 1.31898,0.319543 1.918715,1.45853 0,0 0.575324,0.993972 0.639451,1.538689 0.07979,0.67953 0.159953,0.919278 0.139914,1.478934 -0.02004,0.559656 -0.139914,0.939318 -0.159954,1.458894 0,0 0.03498,0.914177 -0.284929,1.673502"
       id="path3932"
       style="fill:none;stroke:#ffffff;stroke-width:0.11987419;stroke-linecap:butt;stroke-linejoin:miter;stroke-miterlimit:10;stroke-opacity:1;stroke-dasharray:none" />
    <path
       d="m 7.9744718,20.643031 c 0,0 -0.4995365,1.698643 -0.459457,3.756908 0.039715,2.058265 0.1446506,3.167375 0.1595894,3.337166 0.050281,0.559656 0.4099041,0.669692 0.5694934,1.04899"
       id="path3936"
       style="fill:none;stroke:#ffffff;stroke-width:0.11987419;stroke-linecap:butt;stroke-linejoin:miter;stroke-miterlimit:10;stroke-opacity:1;stroke-dasharray:none" />
    <path
       d="m 15.088513,12.929509 c 0,0 0.239748,0.279828 0.719245,0 l 0,-1.298941"
       id="path3940"
       style="fill:none;stroke:#ffffff;stroke-width:0.11987419;stroke-linecap:butt;stroke-linejoin:miter;stroke-miterlimit:10;stroke-opacity:1;stroke-dasharray:none" />
    <path
       d="m 15.568155,12.649645 0,0.339947"
       id="path3944"
       style="fill:none;stroke:#ffffff;stroke-width:0.11987419;stroke-linecap:butt;stroke-linejoin:miter;stroke-miterlimit:10;stroke-opacity:1;stroke-dasharray:none" />
    <path
       d="m 15.867877,12.649791 c 0,0 3.256643,-1.238821 7.493776,-1.238821 0.939318,0 1.199107,0.859159 1.199107,0.859159"
       id="path3956"
       style="fill:none;stroke:#ffffff;stroke-width:0.11987419;stroke-linecap:butt;stroke-linejoin:miter;stroke-miterlimit:10;stroke-opacity:1;stroke-dasharray:none" />
    <path
       d="m 19.534825,12.499784 c 0,0 -0.03753,-0.269626 0.07506,-0.284929 0.100928,-0.01312 2.412787,-0.172342 2.652535,-0.172342 0.240113,0 0.275091,0.05757 0.344684,0.134813 0.06996,0.07761 0.232461,0.382577 0.232461,0.382577"
       id="path3960"
       style="fill:none;stroke:#ffffff;stroke-width:0.11987419;stroke-linecap:butt;stroke-linejoin:miter;stroke-miterlimit:10;stroke-opacity:1;stroke-dasharray:none" />
    <path
       d="m 23.241743,12.609748 -0.279828,-0.42958 c 0,0 -0.09983,-0.200033 0.150116,-0.20987 0.249586,-0.0102 0.879199,0.0098 1.138987,0.20987 0.259788,0.199669 0.619411,0.589534 0.629248,0.619411"
       id="path3964"
       style="fill:none;stroke:#ffffff;stroke-width:0.11987419;stroke-linecap:butt;stroke-linejoin:miter;stroke-miterlimit:10;stroke-opacity:1;stroke-dasharray:none" />
    <path
       d="m 24.071097,12.070204 c 0,0 0.909441,0.359623 1.408977,0.869361"
       id="path3968"
       style="fill:none;stroke:#ffffff;stroke-width:0.11987419;stroke-linecap:butt;stroke-linejoin:miter;stroke-miterlimit:10;stroke-opacity:1;stroke-dasharray:none" />
    <path
       d="m 13.045259,17.235835 c 0,0 2.023287,-2.42809 6.719513,-2.627759 1.637066,-0.06959 3.124745,-0.0572 4.915935,0.319543 0.379662,0.08016 0.474395,0.22481 0.579331,0.389865 0.104935,0.16469 0.316992,1.172872 0.584432,1.453793 0.299868,0.314806 -0.0098,1.013647 -0.07469,1.214045 -0.179993,0.554555 -0.220073,1.713581 -0.374925,1.948229 -0.233555,0.354521 -0.59427,0.589533 -3.672013,0.969195 -4.991357,0.615767 -5.535345,1.219146 -5.535345,1.219146"
       id="path3972"
       style="fill:none;stroke:#ffffff;stroke-width:0.11987419;stroke-linecap:butt;stroke-linejoin:miter;stroke-miterlimit:10;stroke-opacity:1;stroke-dasharray:none" />
    <path
       d="m 20.312295,19.213941 c -0.844949,1.468368 -2.234615,2.253197 -3.103612,1.752932 -0.868997,-0.500265 -0.888308,-2.095794 -0.04299,-3.564162 0.844584,-1.468003 2.23425,-2.252833 3.103247,-1.752932 0.868997,0.500265 0.888308,2.095794 0.04336,3.564162 z"
       id="path3976"
       style="fill:none;stroke:#ffffff;stroke-width:0.11987419;stroke-linecap:butt;stroke-linejoin:miter;stroke-miterlimit:10;stroke-opacity:1;stroke-dasharray:none" />
    <path
       d="m 19.710847,15.521743 c 0.104207,0.0255 0.203677,0.06522 0.297317,0.119145 0.868997,0.500266 0.910534,2.057173 0.09291,3.478174 -0.817622,1.420636 -2.185063,2.166844 -3.054059,1.666943 -0.0634,-0.0368 -0.122789,-0.07907 -0.177443,-0.126432"
       id="path3980"
       style="fill:none;stroke:#ffffff;stroke-width:0.11987419;stroke-linecap:butt;stroke-linejoin:miter;stroke-miterlimit:10;stroke-opacity:1;stroke-dasharray:none" />
    <path
       d="m 13.736412,19.407889 c 0.583339,0.650381 0.527592,2.00179 -0.189831,3.248263 -0.142829,0.248128 -0.302783,0.475853 -0.473667,0.679894"
       id="path3984"
       style="fill:none;stroke:#ffffff;stroke-width:0.11987419;stroke-linecap:butt;stroke-linejoin:miter;stroke-miterlimit:10;stroke-opacity:1;stroke-dasharray:none" />
    <path
       d="m 12.230516,19.473073 c 0.532693,-0.276549 1.061743,-0.328652 1.473833,-0.09145 0.868997,0.500265 0.888308,2.095794 0.04336,3.564162 -0.194568,0.33849 -0.418285,0.640543 -0.658033,0.899238"
       id="path3988"
       style="fill:none;stroke:#ffffff;stroke-width:0.11987419;stroke-linecap:butt;stroke-linejoin:miter;stroke-miterlimit:10;stroke-opacity:1;stroke-dasharray:none" />
    <path
       d="m 12.21554,19.293225 c 0.537066,-0.273998 1.072309,-0.322458 1.490958,-0.08162 0.882478,0.508281 0.913084,2.110368 0.06813,3.578372 -0.194568,0.338489 -0.419013,0.640543 -0.65949,0.898145"
       id="path3992"
       style="fill:none;stroke:#ffffff;stroke-width:0.11987419;stroke-linecap:butt;stroke-linejoin:miter;stroke-miterlimit:10;stroke-opacity:1;stroke-dasharray:none" />
    <path
       d="m 20.318161,19.209386 c -0.894138,1.553628 -2.368699,2.381816 -3.293807,1.849487 -0.924744,-0.532328 -0.949156,-2.22332 -0.05502,-3.776947 0.894138,-1.553628 2.3687,-2.381452 3.293443,-1.849488 0.924744,0.532329 0.949521,2.22332 0.05538,3.776948 z"
       id="path3996"
       style="fill:none;stroke:#ffffff;stroke-width:0.11987419;stroke-linecap:butt;stroke-linejoin:miter;stroke-miterlimit:10;stroke-opacity:1;stroke-dasharray:none" />
    <path
       d="M 20.484017,15.587218 19.724692,14.60782"
       id="path4000"
       style="fill:none;stroke:#ffffff;stroke-width:0.11987419;stroke-linecap:butt;stroke-linejoin:miter;stroke-miterlimit:10;stroke-opacity:1;stroke-dasharray:none" />
    <path
       d="m 13.936883,17.656997 c -0.10785,0.480225 -0.153395,1.031501 -0.04737,1.607189"
       id="path4012"
       style="fill:none;stroke:#ffffff;stroke-width:0.11987419;stroke-linecap:butt;stroke-linejoin:miter;stroke-miterlimit:10;stroke-opacity:1;stroke-dasharray:none" />
    <path
       d="m 14.62891,16.006851 c 0,0 -0.168698,0.24157 -0.351242,0.64273"
       id="path4016"
       style="fill:none;stroke:#ffffff;stroke-width:0.11987419;stroke-linecap:butt;stroke-linejoin:miter;stroke-miterlimit:10;stroke-opacity:1;stroke-dasharray:none" />
    <path
       d="m 14.369122,20.52312 c 0,0 0.38367,0.423385 1.059192,0.499537 0.619411,0.06996 2.028388,0.189831 2.028388,0.189831"
       id="path4020"
       style="fill:none;stroke:#ffffff;stroke-width:0.11987419;stroke-linecap:butt;stroke-linejoin:miter;stroke-miterlimit:10;stroke-opacity:1;stroke-dasharray:none" />
    <path
       d="m 12.760476,17.715441 1.214045,1.693542"
       id="path4024"
       style="fill:none;stroke:#ffffff;stroke-width:0.11987419;stroke-linecap:butt;stroke-linejoin:miter;stroke-miterlimit:10;stroke-opacity:1;stroke-dasharray:none" />
    <path
       d="m 13.959473,16.45647 c 0,0 0.188738,0.153395 0.339583,0.209871 0.08016,0.02988 0.349785,0.06996 0.349785,0.06996 l -0.329745,0.929116 c 0,0 -0.349421,0 -0.489335,-0.09 -0.139914,-0.09 -0.419742,-0.299503 -0.569493,-0.519576"
       id="path4036"
       style="fill:none;stroke:#ffffff;stroke-width:0.11987419;stroke-linecap:butt;stroke-linejoin:miter;stroke-miterlimit:10;stroke-opacity:1;stroke-dasharray:none" />
    <path
       d="m 14.214269,16.651329 c 0,0 -0.249586,0.354522 -0.384763,0.924015"
       id="path4040"
       style="fill:none;stroke:#ffffff;stroke-width:0.11987419;stroke-linecap:butt;stroke-linejoin:miter;stroke-miterlimit:10;stroke-opacity:1;stroke-dasharray:none" />
    <path
       d="m 16.027758,23.440654 -0.479497,-0.259788 -0.04008,-1.098908 1.798477,-0.859523"
       id="path4044"
       style="fill:none;stroke:#ffffff;stroke-width:0.11987419;stroke-linecap:butt;stroke-linejoin:miter;stroke-miterlimit:10;stroke-opacity:1;stroke-dasharray:none" />
    <path
       d="m 13.98946,22.561346 c 0,0 0.959358,0.02004 1.49861,0.279828"
       id="path4056"
       style="fill:none;stroke:#ffffff;stroke-width:0.11987419;stroke-linecap:butt;stroke-linejoin:miter;stroke-miterlimit:10;stroke-opacity:1;stroke-dasharray:none" />
    <path
       d="m 19.624749,20.203358 c 0,0 2.877709,-1.059192 3.057338,-1.099272 0.179994,-0.03971 0.639451,-0.279463 0.659491,-0.479497 0.02004,-0.199668 0.119874,-1.039152 0.119874,-1.039152 l 0.299867,-0.299503 0,-2.418253 -0.06012,-0.09983"
       id="path4060"
       style="fill:none;stroke:#ffffff;stroke-width:0.11987419;stroke-linecap:butt;stroke-linejoin:miter;stroke-miterlimit:10;stroke-opacity:1;stroke-dasharray:none" />
    <path
       d="m 21.083497,20.603024 c 0,0 1.928189,-0.649653 2.318053,-0.839119 0.3895,-0.189831 0.799405,-0.579696 1.258862,-0.579696 l 0.02004,-0.399702 0,-3.856742"
       id="path4064"
       style="fill:none;stroke:#ffffff;stroke-width:0.11987419;stroke-linecap:butt;stroke-linejoin:miter;stroke-miterlimit:10;stroke-opacity:1;stroke-dasharray:none" />
    <path
       d="m 23.101829,18.944388 0.879199,0.459457"
       id="path4068"
       style="fill:none;stroke:#ffffff;stroke-width:0.11987419;stroke-linecap:butt;stroke-linejoin:miter;stroke-miterlimit:10;stroke-opacity:1;stroke-dasharray:none" />
    <path
       d="m 20.983627,16.666305 2.432827,1.2738"
       id="path4072"
       style="fill:none;stroke:#ffffff;stroke-width:0.11987419;stroke-linecap:butt;stroke-linejoin:miter;stroke-miterlimit:10;stroke-opacity:1;stroke-dasharray:none" />
    <path
       d="m 24.690508,18.869476 0.839119,0.479497"
       id="path4076"
       style="fill:none;stroke:#ffffff;stroke-width:0.11987419;stroke-linecap:butt;stroke-linejoin:miter;stroke-miterlimit:10;stroke-opacity:1;stroke-dasharray:none" />
    <path
       d="m 24.300862,14.867791 0,3.192516 -0.344684,0.119874 -0.104935,0.194568 -0.04482,0.884299"
       id="path4080"
       style="fill:none;stroke:#ffffff;stroke-width:0.11987419;stroke-linecap:butt;stroke-linejoin:miter;stroke-miterlimit:10;stroke-opacity:1;stroke-dasharray:none" />
    <path
       d="m 23.416562,18.090111 0.434681,0.284929"
       id="path4084"
       style="fill:none;stroke:#ffffff;stroke-width:0.11987419;stroke-linecap:butt;stroke-linejoin:miter;stroke-miterlimit:10;stroke-opacity:1;stroke-dasharray:none" />
    <path
       d="m 24.106003,18.135073 0,1.228984"
       id="path4088"
       style="fill:none;stroke:#ffffff;stroke-width:0.11987419;stroke-linecap:butt;stroke-linejoin:miter;stroke-miterlimit:10;stroke-opacity:1;stroke-dasharray:none" />
    <path
       d="m 15.508182,22.081776 c 0,0 0.174892,0.129712 0.579331,-0.06486 0.404803,-0.194932 1.723784,-0.839484 1.723784,-0.839484"
       id="path4100"
       style="fill:none;stroke:#ffffff;stroke-width:0.11987419;stroke-linecap:butt;stroke-linejoin:miter;stroke-miterlimit:10;stroke-opacity:1;stroke-dasharray:none" />
    <path
       d="m 19.145143,20.593004 c 0,0 4.028356,-1.474562 4.151509,-1.54379"
       id="path4104"
       style="fill:none;stroke:#ffffff;stroke-width:0.11987419;stroke-linecap:butt;stroke-linejoin:miter;stroke-miterlimit:10;stroke-opacity:1;stroke-dasharray:none" />
    <path
       d="m 19.614765,20.882743 0.0098,0.289666 -0.0098,-0.289666 z"
       id="path4108"
       style="fill:none;stroke:#ffffff;stroke-width:0.11987419;stroke-linecap:butt;stroke-linejoin:miter;stroke-miterlimit:10;stroke-opacity:1;stroke-dasharray:none" />
    <path
       d="m 19.694706,20.862812 1.099272,-0.509739 0.239748,0.04008 -0.150116,0.259788 -0.779364,0.319907 -0.40954,-0.110036 z"
       id="path4112"
       style="fill:none;stroke:#ffffff;stroke-width:0.11987419;stroke-linecap:butt;stroke-linejoin:miter;stroke-miterlimit:10;stroke-opacity:1;stroke-dasharray:none" />
    <path
       d="m 21.063531,20.403173 0,0.299868 -0.209871,0.279463"
       id="path4116"
       style="fill:none;stroke:#ffffff;stroke-width:0.11987419;stroke-linecap:butt;stroke-linejoin:miter;stroke-miterlimit:10;stroke-opacity:1;stroke-dasharray:none" />
    <path
       d="m 21.173494,32.972692 c 0.699205,-0.149752 0.288208,0.458728 1.289103,0.479497 0.479132,0.0102 0.549454,-0.299504 0.489334,-0.369461 l 0.399702,-0.02988"
       id="path4128"
       style="fill:none;stroke:#ffffff;stroke-width:0.11987419;stroke-linecap:butt;stroke-linejoin:miter;stroke-miterlimit:10;stroke-opacity:1;stroke-dasharray:none" />
    <path
       d="m 21.82792,27.082606 c 0,0 0.96118,-0.0368 1.483671,0.509739 0.329745,0.344683 0.104935,0.479496 0.419742,0.659125 0.314806,0.179994 0.419741,0.614674 0.43468,0.974297 0.01494,0.359623 0.02988,3.357206 0.01494,3.926699"
       id="path4132"
       style="fill:none;stroke:#ffffff;stroke-width:0.11987419;stroke-linecap:butt;stroke-linejoin:miter;stroke-miterlimit:10;stroke-opacity:1;stroke-dasharray:none" />
    <path
       d="m 20.993646,27.507303 c 0,0 0.309705,-0.229911 0.579331,-0.110036 0.239384,0.106392 0.104936,0.629612 1.394039,0.899238 0.711593,0.149023 0.884299,0.734548 0.869361,0.809606 -0.0153,0.07469 0.04482,3.999572 0.04482,4.496193 0,0.704307 -0.284929,0.719245 -0.284929,0.719245"
       id="path4136"
       style="fill:none;stroke:#ffffff;stroke-width:0.11987419;stroke-linecap:butt;stroke-linejoin:miter;stroke-miterlimit:10;stroke-opacity:1;stroke-dasharray:none" />
    <path
       d="m 21.663047,33.012735 c 0,0 0.319907,0.859159 1.688805,0.63945 l 0,-4.666348 c 0,0 0.01967,-0.3895 -0.399702,-0.3895 -0.94952,0 -1.309143,-0.689368 -1.309143,-0.689368 l 0,-0.469659"
       id="path4140"
       style="fill:none;stroke:#ffffff;stroke-width:0.11987419;stroke-linecap:butt;stroke-linejoin:miter;stroke-miterlimit:10;stroke-opacity:1;stroke-dasharray:none" />
    <path
       d="m 22.832094,27.846959 -0.434681,0 0,-0.269626 0.434681,0 0,0.269626 z"
       id="path4144"
       style="fill:none;stroke:#ffffff;stroke-width:0.11987419;stroke-linecap:butt;stroke-linejoin:miter;stroke-miterlimit:10;stroke-opacity:1;stroke-dasharray:none" />
    <path
       d="m 21.685528,28.004326 0.03753,5.118154"
       id="path4148"
       style="fill:none;stroke:#ffffff;stroke-width:0.11987419;stroke-linecap:butt;stroke-linejoin:miter;stroke-miterlimit:10;stroke-opacity:1;stroke-dasharray:none" />
    <path
       d="m 22.877019,28.61634 0.0098,4.656147"
       id="path4152"
       style="fill:none;stroke:#ffffff;stroke-width:0.11987419;stroke-linecap:butt;stroke-linejoin:miter;stroke-miterlimit:10;stroke-opacity:1;stroke-dasharray:none" />
    <path
       d="m 22.901978,27.297469 c 0,0 4.58619,-0.05502 9.222296,-1.353959"
       id="path4164"
       style="fill:none;stroke:#ffffff;stroke-width:0.11987419;stroke-linecap:butt;stroke-linejoin:miter;stroke-miterlimit:10;stroke-opacity:1;stroke-dasharray:none" />
    <path
       d="m 32.394082,24.140078 c 0,0 0.379662,-0.219709 0.839484,-0.379662"
       id="path4168"
       style="fill:none;stroke:#ffffff;stroke-width:0.11987419;stroke-linecap:butt;stroke-linejoin:miter;stroke-miterlimit:10;stroke-opacity:1;stroke-dasharray:none" />
    <path
       d="m 32.064374,25.718737 c 0,0 -0.04482,0.449619 0.629613,0.374561 0.263796,-0.02915 0.629248,-0.214607 0.719245,-0.344684"
       id="path4172"
       style="fill:none;stroke:#ffffff;stroke-width:0.11987419;stroke-linecap:butt;stroke-linejoin:miter;stroke-miterlimit:10;stroke-opacity:1;stroke-dasharray:none" />
    <path
       d="m 33.413232,24.190031 c 0,0 -0.764426,0.254687 -0.779364,0.61431 -0.01494,0.359987 0,0.869361 0,0.869361 0,0 0.06012,0.344684 0.524677,0.165055 0,0 0.464558,-0.29003 0.61431,0.03971"
       id="path4176"
       style="fill:none;stroke:#ffffff;stroke-width:0.11987419;stroke-linecap:butt;stroke-linejoin:miter;stroke-miterlimit:10;stroke-opacity:1;stroke-dasharray:none" />
    <path
       d="m 11.351645,16.561369 c 0,0 -1.066844,1.757305 -0.344684,5.050748 0.374561,1.70848 0.359623,0.914177 0.434681,3.192515"
       id="path4180"
       style="fill:none;stroke:#ffffff;stroke-width:0.11987419;stroke-linecap:butt;stroke-linejoin:miter;stroke-miterlimit:10;stroke-opacity:1;stroke-dasharray:none" />
    <path
       d="m 21.078542,27.712073 c 0,0 0.112587,0.04992 0.544717,-0.0077"
       id="path4184"
       style="fill:none;stroke:#ffffff;stroke-width:0.11987419;stroke-linecap:butt;stroke-linejoin:miter;stroke-miterlimit:10;stroke-opacity:1;stroke-dasharray:none" />
    <path
       d="m 33.518131,24.489753 c 0,0 -0.457271,0.134813 -0.479497,0.524677 -0.02587,0.448891 0.0572,0.499172 0.157039,0.487149 0.187645,-0.02259 1.656377,-0.809607 2.233522,-1.206758"
       id="path4188"
       style="fill:none;stroke:#ffffff;stroke-width:0.11987419;stroke-linecap:butt;stroke-linejoin:miter;stroke-miterlimit:10;stroke-opacity:1;stroke-dasharray:none" />
    <path
       d="m 23.451577,27.757035 c 0,0 5.295597,-0.149752 9.401926,-1.698643"
       id="path4192"
       style="fill:none;stroke:#ffffff;stroke-width:0.11987419;stroke-linecap:butt;stroke-linejoin:miter;stroke-miterlimit:10;stroke-opacity:1;stroke-dasharray:none" />
    <path
       d="m 23.511515,27.91688 c 0,0 5.5951,-0.04008 10.461118,-2.108183 0.160682,-0.06813 0.577145,-0.347234 0.347234,-0.337396"
       id="path4196"
       style="fill:none;stroke:#ffffff;stroke-width:0.11987419;stroke-linecap:butt;stroke-linejoin:miter;stroke-miterlimit:10;stroke-opacity:1;stroke-dasharray:none" />
    <path
       d="m 34.394925,25.538889 c 0,0 0.697019,4.796061 0.68208,5.005931"
       id="path4200"
       style="fill:none;stroke:#ffffff;stroke-width:0.11987419;stroke-linecap:butt;stroke-linejoin:miter;stroke-miterlimit:10;stroke-opacity:1;stroke-dasharray:none" />
    <path
       d="m 34.19256,25.6588 c 0,0 -0.08016,-0.169791 0.09,-0.289666 0.169791,-0.119874 0.289665,-0.179993 0.289665,-0.179993 0,0 0.179994,-0.02004 0.189831,0.189831 0.0098,0.209871 0,2.687878 0,2.687878"
       id="path4204"
       style="fill:none;stroke:#ffffff;stroke-width:0.11987419;stroke-linecap:butt;stroke-linejoin:miter;stroke-miterlimit:10;stroke-opacity:1;stroke-dasharray:none" />
    <path
       d="m 35.101782,29.925191 0,-4.8161 c 0,0 0.02004,-0.15959 0.149752,-0.299504 0.130076,-0.139914 0.369824,-0.289665 0.529778,-0.09"
       id="path4208"
       style="fill:none;stroke:#ffffff;stroke-width:0.11987419;stroke-linecap:butt;stroke-linejoin:miter;stroke-miterlimit:10;stroke-opacity:1;stroke-dasharray:none" />
    <path
       d="m 35.601391,29.745344 c -0.159954,0.09983 -0.499537,0.309705 -0.499537,0.309705 l 0,-4.815736 c 0,0 0.02004,-0.159953 0.149752,-0.299867 0.129712,-0.139914 0.229911,-0.229911 0.469659,-0.159954 0,0 3.210734,-2.18907 2.473999,-5.233656"
       id="path4212"
       style="fill:none;stroke:#ffffff;stroke-width:0.11987419;stroke-linecap:butt;stroke-linejoin:miter;stroke-miterlimit:10;stroke-opacity:1;stroke-dasharray:none" />
    <path
       d="m 35.101782,29.365608 c 0,0 0.369825,0.524677 1.059192,0.514475"
       id="path4216"
       style="fill:none;stroke:#ffffff;stroke-width:0.11987419;stroke-linecap:butt;stroke-linejoin:miter;stroke-miterlimit:10;stroke-opacity:1;stroke-dasharray:none" />
    <path
       d="m 36.130878,23.86025 c 0,0 0.399702,-0.399702 0.449619,-0.539616"
       id="path4220"
       style="fill:none;stroke:#ffffff;stroke-width:0.11987419;stroke-linecap:butt;stroke-linejoin:miter;stroke-miterlimit:10;stroke-opacity:1;stroke-dasharray:none" />
    <path
       d="m 36.780385,23.040879 c 0,0 0.05757,0.317721 -0.06012,0.469659 -0.239749,0.309705 -0.648924,0.749487 -0.599371,0.959358"
       id="path4224"
       style="fill:none;stroke:#ffffff;stroke-width:0.11987419;stroke-linecap:butt;stroke-linejoin:miter;stroke-miterlimit:10;stroke-opacity:1;stroke-dasharray:none" />
    <path
       d="m 38.299143,20.068473 0.719245,5.815173"
       id="path4228"
       style="fill:none;stroke:#ffffff;stroke-width:0.11987419;stroke-linecap:butt;stroke-linejoin:miter;stroke-miterlimit:10;stroke-opacity:1;stroke-dasharray:none" />
    <path
       d="m 37.840378,19.374077 c 0.194568,0.483505 0.653296,2.11547 -1.039881,3.946739"
       id="path4240"
       style="fill:none;stroke:#ffffff;stroke-width:0.11987419;stroke-linecap:butt;stroke-linejoin:miter;stroke-miterlimit:10;stroke-opacity:1;stroke-dasharray:none" />
    <path
       d="m 36.485654,21.777026 0,-2.892648 0.314806,0 c 0,0 0.634714,2.333357 -0.04992,3.49712"
       id="path4244"
       style="fill:none;stroke:#ffffff;stroke-width:0.11987419;stroke-linecap:butt;stroke-linejoin:miter;stroke-miterlimit:10;stroke-opacity:1;stroke-dasharray:none" />
    <path
       d="m 36.485654,18.884451 c 0,0 0.554555,1.873535 0.09,3.0424"
       id="path4248"
       style="fill:none;stroke:#ffffff;stroke-width:0.11987419;stroke-linecap:butt;stroke-linejoin:miter;stroke-miterlimit:10;stroke-opacity:1;stroke-dasharray:none" />
    <path
       d="m 36.710464,17.535593 c 0,0 -0.07506,0.419742 -0.04482,1.31898"
       id="path4252"
       style="fill:none;stroke:#ffffff;stroke-width:0.11987419;stroke-linecap:butt;stroke-linejoin:miter;stroke-miterlimit:10;stroke-opacity:1;stroke-dasharray:none" />
    <path
       d="m 37.559822,17.245854 c 0,0 -0.462736,0.159225 -0.479497,0.649653 -0.0102,0.289665 0.01968,0.419377 0.01968,0.419377 0,0 0.172342,0.04919 0.307519,0.352335 0.132262,0.297317 0.604472,0.581882 1.001623,0.586983 0.209871,0.0026 0.511925,0.154853 0.511925,0.154853 0,0 -0.07469,-0.846771 0.127526,-1.004174"
       id="path4256"
       style="fill:none;stroke:#ffffff;stroke-width:0.11987419;stroke-linecap:butt;stroke-linejoin:miter;stroke-miterlimit:10;stroke-opacity:1;stroke-dasharray:none" />
    <path
       d="m 37.210073,18.384878 c 0,0 0.04992,1.06903 -0.189831,1.548891"
       id="path4260"
       style="fill:none;stroke:#ffffff;stroke-width:0.11987419;stroke-linecap:butt;stroke-linejoin:miter;stroke-miterlimit:10;stroke-opacity:1;stroke-dasharray:none" />
    <path
       d="m 37.230113,18.814494 c 0,0 0.09145,0.321365 0.769527,0.649653 0.309705,0.149751 0.509374,0.03972 0.779364,0.209506 0,0 0.109672,0.09 0.119874,0.299868 0.0098,0.209871 -0.05028,4.645944 -0.05028,4.645944"
       id="path4264"
       style="fill:none;stroke:#ffffff;stroke-width:0.11987419;stroke-linecap:butt;stroke-linejoin:miter;stroke-miterlimit:10;stroke-opacity:1;stroke-dasharray:none" />
    <path
       d="m 38.37912,18.844517 -0.459457,0 0,-0.289666 0.459457,0 0,0.289666 z"
       id="path4268"
       style="fill:none;stroke:#ffffff;stroke-width:0.11987419;stroke-linecap:butt;stroke-linejoin:miter;stroke-miterlimit:10;stroke-opacity:1;stroke-dasharray:none" />
    <path
       d="m 38.658948,19.633828 0,3.267209"
       id="path4272"
       style="fill:none;stroke:#ffffff;stroke-width:0.11987419;stroke-linecap:butt;stroke-linejoin:miter;stroke-miterlimit:10;stroke-opacity:1;stroke-dasharray:none" />
    <path
       d="m 39.787915,18.514735 c 0,0 -0.48897,0.140278 -0.469659,0.65949 0.02004,0.529414 0.05903,4.198876 0.03024,5.665058 -0.0102,0.509738 -0.389865,0.259788 -0.389865,0.259788"
       id="path4284"
       style="fill:none;stroke:#ffffff;stroke-width:0.11987419;stroke-linecap:butt;stroke-linejoin:miter;stroke-miterlimit:10;stroke-opacity:1;stroke-dasharray:none" />
    <path
       d="m 38.314118,18.239972 c 0,0 0.239748,0.269626 0.61431,0.269626"
       id="path4288"
       style="fill:none;stroke:#ffffff;stroke-width:0.11987419;stroke-linecap:butt;stroke-linejoin:miter;stroke-miterlimit:10;stroke-opacity:1;stroke-dasharray:none" />
    <path
       d="m 36.695489,17.59553 c 0,0 0.157403,0.179993 0.367274,0.179993"
       id="path4292"
       style="fill:none;stroke:#ffffff;stroke-width:0.11987419;stroke-linecap:butt;stroke-linejoin:miter;stroke-miterlimit:10;stroke-opacity:1;stroke-dasharray:none" />
    <path
       d="m 38.913635,18.959399 c 0,0 0.329745,0.149752 0.374561,0.16469"
       id="path4296"
       style="fill:none;stroke:#ffffff;stroke-width:0.11987419;stroke-linecap:butt;stroke-linejoin:miter;stroke-miterlimit:10;stroke-opacity:1;stroke-dasharray:none" />
    <path
       d="m 39.531843,18.914438 c 0,0 0.101292,5.320738 -0.0036,6.115041 l -0.104935,0.16469"
       id="path4300"
       style="fill:none;stroke:#ffffff;stroke-width:0.11987419;stroke-linecap:butt;stroke-linejoin:miter;stroke-miterlimit:10;stroke-opacity:1;stroke-dasharray:none" />
    <path
       d="m 38.733787,18.472288 0,-0.352335 c -0.284929,0.02259 -0.56585,-0.251044 -0.56585,-0.251044"
       id="path4304"
       style="fill:none;stroke:#ffffff;stroke-width:0.11987419;stroke-linecap:butt;stroke-linejoin:miter;stroke-miterlimit:10;stroke-opacity:1;stroke-dasharray:none" />
    <path
       d="m 37.83954,20.652978 c 0,0.06085 -0.04919,0.110036 -0.110036,0.110036 l -0.439418,0 c -0.06085,0 -0.110036,-0.04919 -0.110036,-0.110036 0,-0.06085 0.04919,-0.110036 0.110036,-0.110036 l 0.439418,0 c 0.06085,0 0.110036,0.04919 0.110036,0.110036 z"
       id="path4308"
       style="fill:none;stroke:#ffffff;stroke-width:0.11987419;stroke-linecap:butt;stroke-linejoin:miter;stroke-miterlimit:10;stroke-opacity:1;stroke-dasharray:none" />
    <path
       d="m 37.799643,21.132584 c 0,0.06085 -0.04919,0.110036 -0.110036,0.110036 l -0.439418,0 c -0.06085,0 -0.110036,-0.04919 -0.110036,-0.110036 0,-0.06085 0.04919,-0.110036 0.110036,-0.110036 l 0.439418,0 c 0.06085,0 0.110036,0.04919 0.110036,0.110036 z"
       id="path4312"
       style="fill:none;stroke:#ffffff;stroke-width:0.11987419;stroke-linecap:butt;stroke-linejoin:miter;stroke-miterlimit:10;stroke-opacity:1;stroke-dasharray:none" />
    <path
       d="m 37.749617,21.60217 c 0,0.06085 -0.04919,0.110036 -0.110036,0.110036 l -0.439418,0 c -0.06085,0 -0.110036,-0.04919 -0.110036,-0.110036 0,-0.06085 0.04919,-0.110036 0.110036,-0.110036 l 0.439418,0 c 0.06085,0 0.110036,0.04919 0.110036,0.110036 z"
       id="path4316"
       style="fill:none;stroke:#ffffff;stroke-width:0.11987419;stroke-linecap:butt;stroke-linejoin:miter;stroke-miterlimit:10;stroke-opacity:1;stroke-dasharray:none" />
    <path
       d="m 37.679732,22.051789 c 0,0.06085 -0.04919,0.110036 -0.110036,0.110036 l -0.439418,0 c -0.06085,0 -0.110036,-0.04919 -0.110036,-0.110036 0,-0.06085 0.04919,-0.110036 0.110036,-0.110036 l 0.439418,0 c 0.06085,0 0.110036,0.04919 0.110036,0.110036 z"
       id="path4320"
       style="fill:none;stroke:#ffffff;stroke-width:0.11987419;stroke-linecap:butt;stroke-linejoin:miter;stroke-miterlimit:10;stroke-opacity:1;stroke-dasharray:none" />
    <path
       d="m 37.829593,20.183391 c 0,0.06085 -0.04919,0.110036 -0.110036,0.110036 l -0.439418,0 c -0.06085,0 -0.110036,-0.04919 -0.110036,-0.110036 0,-0.06085 0.04919,-0.110036 0.110036,-0.110036 l 0.439418,0 c 0.06085,0 0.110036,0.04919 0.110036,0.110036 z"
       id="path4324"
       style="fill:none;stroke:#ffffff;stroke-width:0.11987419;stroke-linecap:butt;stroke-linejoin:miter;stroke-miterlimit:10;stroke-opacity:1;stroke-dasharray:none" />
    <path
       d="m 37.90957,19.713732 c 0,0.06085 -0.04919,0.110036 -0.110036,0.110036 l -0.439418,0 c -0.06085,0 -0.110036,-0.04919 -0.110036,-0.110036 0,-0.06085 0.04919,-0.110036 0.110036,-0.110036 l 0.439418,0 c 0.06085,0 0.110036,0.04919 0.110036,0.110036 z"
       id="path4328"
       style="fill:none;stroke:#ffffff;stroke-width:0.11987419;stroke-linecap:butt;stroke-linejoin:miter;stroke-miterlimit:10;stroke-opacity:1;stroke-dasharray:none" />
    <path
       d="m 32.07443,24.539743 c 0,0 0.139914,0.249586 0.559291,0.264889"
       id="path4332"
       style="fill:none;stroke:#ffffff;stroke-width:0.11987419;stroke-linecap:butt;stroke-linejoin:miter;stroke-miterlimit:10;stroke-opacity:1;stroke-dasharray:none" />
  </g>
</svg>
