<?xml version="1.0" encoding="UTF-8" standalone="no"?>
<!-- Created with Inkscape (http://www.inkscape.org/) -->

<svg
   xmlns:dc="http://purl.org/dc/elements/1.1/"
   xmlns:cc="http://creativecommons.org/ns#"
   xmlns:rdf="http://www.w3.org/1999/02/22-rdf-syntax-ns#"
   xmlns:svg="http://www.w3.org/2000/svg"
   xmlns="http://www.w3.org/2000/svg"
   version="1.1"
   width="160"
   height="160"
   viewBox="0 0 160 160"
   id="svg5115">
  <defs
     id="defs5117">
    <clipPath
       id="clipPath3064">
      <path
         d="m 197.501,209.335 176.899,0 0,85.329 -176.899,0 0,-85.329 z"
         id="path3066" />
    </clipPath>
    <clipPath
       id="clipPath3108">
      <path
         d="m 197.501,209.335 176.899,0 0,85.329 -176.899,0 0,-85.329 z"
         id="path3110" />
    </clipPath>
    <clipPath
       id="clipPath3212">
      <path
         d="m 197.501,209.335 176.899,0 0,85.329 -176.899,0 0,-85.329 z"
         id="path3214" />
    </clipPath>
    <clipPath
       id="clipPath3252">
      <path
         d="m 197.501,209.335 176.899,0 0,85.329 -176.899,0 0,-85.329 z"
         id="path3254" />
    </clipPath>
    <clipPath
       id="clipPath3272">
      <path
         d="m 197.501,209.335 176.899,0 0,85.329 -176.899,0 0,-85.329 z"
         id="path3274" />
    </clipPath>
    <clipPath
       id="clipPath3296">
      <path
         d="m 197.501,209.335 176.899,0 0,85.329 -176.899,0 0,-85.329 z"
         id="path3298" />
    </clipPath>
    <clipPath
       id="clipPath3320">
      <path
         d="m 197.501,209.335 176.899,0 0,85.329 -176.899,0 0,-85.329 z"
         id="path3322" />
    </clipPath>
  </defs>
  <metadata
     id="metadata5120">
    <rdf:RDF>
      <cc:Work
         rdf:about="">
        <dc:format>image/svg+xml</dc:format>
        <dc:type
           rdf:resource="http://purl.org/dc/dcmitype/StillImage" />
        <dc:title></dc:title>
      </cc:Work>
    </rdf:RDF>
  </metadata>
  <g
     transform="matrix(0.97487609,0,0,0.97487609,-64.26864,52.762425)"
     id="g10719">
    <path
       d="m 97.08589,13.54213 c 0,0 -21.02125,9.44875 -24.00125,11.0475 -5.48375,2.94 -6.5175,7.55 -6.67625,11.04625 -0.15875,3.4975 -0.95375,28.055 1.8275,34.4925 2.7825,6.4375 38.705,23.2075 60.56,32.585 0,0 4.84875,1.98625 10.2525,0.3175 5.405,-1.66875 22.65125,-7.55 24.16125,-8.50375 1.50875,-0.95375 4.21125,-2.86125 4.21125,-6.4375 l 0,-5.245 c 0,0 5.8025,-1.51 9.6175,-8.98125 0.4225,-0.8275 3.41625,0.795 6.9925,-2.54375 3.1,-2.89125 14.545,-7.1525 23.2075,-12.08 8.18125,-4.6525 13.74875,-12.95375 13.74875,-12.95375 0,0 4.1325,-0.23875 5.96125,-3.1 0,0 2.12625,-0.5975 2.6225,-3.49625 0.47625,-2.78125 0.0788,-17.64375 -0.23875,-21.14 0,0 -0.0337,-3.0375 -3.49625,-2.54375 -0.5575,0.07875 -1.1125,-6.99375 -1.43125,-9.14 -0.5825,-3.92875 -2.30375,-8.02625 -4.68875,-10.80875 0,0 0.23875,-0.3175 0.23875,-1.58875 0,-1.2725 -0.16,-5.08625 -0.16,-5.08625 0,0 1.11125,-1.54 -0.15875,-4.76875 -1.0925,-2.78125 -1.9075,-3.4975 -1.9075,-3.4975 0,0 -2.45375,-28.43625 -29.8825,-28.92875 -13.27125,-0.23875 -27.02125,6.27875 -27.02125,6.27875 0,0 -31.3525,10.72875 -42.7975,50.54625 l -0.51625,-0.2775 -0.835,0.3375 c 0,0 -0.10625,1.69125 -1.1325,4.7675 -0.41625,1.2525 -2.08625,-0.05875 -3.04,1.1325 -1.13375,1.41875 -1.7875,2.20625 -1.7875,2.20625 l -6.67625,1.96625 c 0,0 -1.44625,-2.22625 -2.44375,-4.47 -0.95375,-2.14625 -2.4075,-2.14 -4.51,-1.1325 z"
       id="path8388"
       style="fill:none;stroke:#ffffff;stroke-width:0.41140729;stroke-linecap:butt;stroke-linejoin:miter;stroke-miterlimit:10;stroke-opacity:1;stroke-dasharray:none" />
    <path
       d="m 170.16339,-10.896495 c 15.00125,-3.63625 32.2275,-0.95375 31.75,-1.37125 -0.47625,-0.4175 -0.4175,-1.0725 -0.4175,-1.0725 0,0 0.06,-3.93375 0.06,-4.65 0,-0.715 0.6375,0.0625 0.675,-1.0525 0.16,-4.66875 -3.2425,-18.7475 -6.3375,-18.915 -39.57875,-2.14625 -59.4675,38.545 -59.4675,38.545 0,0 8.62375,-5.225 20.485,-8.08625 0.41,-0.09875 0.11875,-3.3975 0.11875,-3.3975 0,0 -0.89375,-0.23875 -0.47625,-1.72875 0.4175,-1.49 2.04625,-0.61625 2.44375,-0.25875 0.3975,0.3575 0.9725,0.61625 1.01375,1.2925 0.04,0.675 0.2575,-0.89375 0.2575,-1.57 0,-0.67625 -0.115,-2.42375 2.0275,-2.225 1.7075,0.15875 0.95375,1.47 0.3175,1.8275 l 0,0.91375 4.51,0 c 0,0 0.02,-2.14625 -0.06,-2.245 -0.12375,-0.155 -0.57625,-0.49625 -0.795,-0.655 -0.2175,-0.15875 -0.2775,-0.875 0,-1.1525 0.27875,-0.27875 1.07375,-1.1125 2.425,-0.08 1.35,1.03375 1.36125,1.75125 1.43,2.54375 0.08,0.91375 0.04,3.3375 0.04,3.3375 z"
       id="path8392"
       style="fill:none;stroke:#ffffff;stroke-width:0.41140729;stroke-linecap:butt;stroke-linejoin:miter;stroke-miterlimit:10;stroke-opacity:1;stroke-dasharray:none" />
    <path
       d="m 127.68389,33.013505 c 0,0 10.65,-13.11375 30.43875,-17.88125 0,0 0.1,2.70125 3.65625,2.065 3.795,-0.6775 4.85625,0.09375 6.99375,-2.145 1.66875,-1.74875 33.2825,-3.03 38.1475,-2.54375 0.795,0.08 0.15875,2.46375 3.17875,3.4975 2.47375,0.84625 3.985,2.665 5.465,2.96 0.3975,0.08 -0.1,2.20625 -0.1,2.20625 l -0.04,5.5625 c 0,0 -4.8925,10.31875 -27.5775,18.67625 -3.02,1.1125 -8.50375,5.0075 -8.50375,5.0075 0,0 -1.51,0.795 -1.51,0.3975 0,-0.3975 -0.3775,-2.1775 -2.14625,-5.48375 -1.8275,-3.4175 -2.78125,-6.19875 -10.33125,-6.3575 0,0 -22.17375,-0.08 -37.67125,-5.96125 z"
       id="path8396"
       style="fill:none;stroke:#ffffff;stroke-width:0.41140729;stroke-linecap:butt;stroke-linejoin:miter;stroke-miterlimit:10;stroke-opacity:1;stroke-dasharray:none" />
    <path
       d="m 72.329515,25.264755 c 1.76875,-0.54375 3.95125,0.3525 3.65625,0.23875 -0.99875,-0.385 10.2125,3.775 18.5175,7.27125 0,0 0.795,-0.59625 1.8675,-0.19875 1.0725,0.3975 3.06,1.43125 3.06,1.43125"
       id="path8400"
       style="fill:none;stroke:#ffffff;stroke-width:0.47625002;stroke-linecap:butt;stroke-linejoin:miter;stroke-miterlimit:10;stroke-opacity:1;stroke-dasharray:none" />
    <path
       d="m 97.04614,13.740755 c 0,0 1.9075,-0.59625 3.61625,4.01375 1.46875,3.965 7.51,8.14625 7.51,8.14625 0,0 -3.05875,1.23125 -1.27125,3.3775"
       id="path8404"
       style="fill:none;stroke:#ffffff;stroke-width:0.47625002;stroke-linecap:butt;stroke-linejoin:miter;stroke-miterlimit:10;stroke-opacity:1;stroke-dasharray:none" />
    <path
       d="m 103.96039,19.542255 c 0,0 2.74125,3.46875 6.95375,6.27875 0.23875,0.15875 -4.60875,1.43 -1.8075,3.07"
       id="path8408"
       style="fill:none;stroke:#ffffff;stroke-width:0.47625002;stroke-linecap:butt;stroke-linejoin:miter;stroke-miterlimit:10;stroke-opacity:1;stroke-dasharray:none" />
    <path
       d="m 100.62264,13.85988 c 0,0 -19.805,8.43 -24.75625,11.445 -2.7425,1.66875 -5.48375,7.51 -5.48375,7.51"
       id="path8412"
       style="fill:none;stroke:#ffffff;stroke-width:0.47625002;stroke-linecap:butt;stroke-linejoin:miter;stroke-miterlimit:10;stroke-opacity:1;stroke-dasharray:none" />
    <path
       d="m 66.48814,34.92088 c 0,0 0.63625,-3.65625 5.56375,-1.27125 4.9275,2.38375 52.055,25.51125 52.055,25.51125 0,0 5.56375,2.225 5.48375,9.61625 -0.0788,7.39125 0.4775,18.58375 0.4775,27.18 0,6.12 -3.25875,4.37125 -6.3575,3.25875 -3.1,-1.1125 -46.73125,-21.4575 -51.8975,-25.82875"
       id="path8416"
       style="fill:none;stroke:#ffffff;stroke-width:0.47625002;stroke-linecap:butt;stroke-linejoin:miter;stroke-miterlimit:10;stroke-opacity:1;stroke-dasharray:none" />
    <path
       d="m 135.23414,103.58713 c 0,0 4.76875,-1.27125 4.61,-5.96 -0.73875,-21.7775 -0.63625,-25.115 -1.1925,-31.4725 -0.915,-10.4575 -8.6625,-14.06625 -8.6625,-14.06625 0,0 0.4075,-0.4175 0.2175,-0.75625 -0.18875,-0.3375 -11.83125,-7.1225 -12.15875,-7.30125 -0.3275,-0.17875 -0.29125,-0.03375 -0.855,0.18875 -0.42625,0.16875 -4.2125,-2.46375 -4.2125,-2.46375 0,0 0.5375,-0.55625 -0.0588,-0.885 -0.59625,-0.3275 -3.12875,-1.7275 -3.12875,-1.7275"
       id="path8420"
       style="fill:none;stroke:#ffffff;stroke-width:0.47625002;stroke-linecap:butt;stroke-linejoin:miter;stroke-miterlimit:10;stroke-opacity:1;stroke-dasharray:none" />
    <path
       d="m 70.213515,33.03338 c 0,0 8.59375,10.9175 12.21875,14.0975 1.9375,1.69875 0.4175,3.725 0.4175,3.725 0,0 -7.28125,9.95375 -11.0375,22.53125"
       id="path8424"
       style="fill:none;stroke:#ffffff;stroke-width:0.47625002;stroke-linecap:butt;stroke-linejoin:miter;stroke-miterlimit:10;stroke-opacity:1;stroke-dasharray:none" />
    <path
       d="m 71.495015,73.267505 c 4.02375,-14.455 9.70625,-21.965 10.63,-23.545 0.92375,-1.57875 0.17875,-2.34375 0.17875,-2.34375 0,0 -1.1225,-1.34125 -1.45,-1.78875"
       id="path8428"
       style="fill:none;stroke:#ffffff;stroke-width:0.47625002;stroke-linecap:butt;stroke-linejoin:miter;stroke-miterlimit:10;stroke-opacity:1;stroke-dasharray:none" />
    <path
       d="m 124.96176,59.796505 c -0.26875,-0.18 -5.90125,1.98625 -13.1725,1.9075 -2.22625,-0.025 -1.07375,2.08625 -1.01375,2.265 0.06,0.17875 15.4975,36.121255 15.4975,36.121255 l -13.51,-36.041255 c 0,0 -0.775,-1.585 1.1325,-1.67 8.06625,-0.3575 11.245,-2.46375 11.06625,-2.5825 z"
       id="path8432"
       style="fill:none;stroke:#ffffff;stroke-width:0.47625002;stroke-linecap:butt;stroke-linejoin:miter;stroke-miterlimit:10;stroke-opacity:1;stroke-dasharray:none" />
    <path
       d="m 126.27314,100.09038 c 0,0 1.1325,2.365 5.48375,3.14"
       id="path8436"
       style="fill:none;stroke:#ffffff;stroke-width:0.47625002;stroke-linecap:butt;stroke-linejoin:miter;stroke-miterlimit:10;stroke-opacity:1;stroke-dasharray:none" />
    <path
       d="m 94.503015,32.77513 c -5.245,4.62875 -6.3775,8.84125 -6.3775,8.84125 0,0 0.2375,13.77 0.2975,15.915 0.06,2.14625 0.95375,2.80125 1.66875,3.27875 0.71625,0.47625 12.875005,6.31875 12.875005,6.31875 0,0 2.0275,1.19125 2.14625,-0.895 0.11875,-2.08625 0.77499,-15.915 0.77499,-15.915 0,0 4.35126,-6.4575 7.0925,-8.56375"
       id="path8440"
       style="fill:none;stroke:#ffffff;stroke-width:0.47625002;stroke-linecap:butt;stroke-linejoin:miter;stroke-miterlimit:10;stroke-opacity:1;stroke-dasharray:none" />
    <path
       d="m 129.35289,67.347005 c 0,0 4.8475,0.47625 9.29875,-1.1925 4.45,-1.66875 26.22625,-11.12625 26.22625,-11.12625 l 1.2725,-0.795"
       id="path8444"
       style="fill:none;stroke:#ffffff;stroke-width:0.47625002;stroke-linecap:butt;stroke-linejoin:miter;stroke-miterlimit:10;stroke-opacity:1;stroke-dasharray:none" />
    <path
       d="m 130.06814,96.43488 c 0,0 7.07375,0.95375 9.775,0.3975 2.7025,-0.55625 25.67125,-8.8225 27.7375,-9.77625"
       id="path8448"
       style="fill:none;stroke:#ffffff;stroke-width:0.47625002;stroke-linecap:butt;stroke-linejoin:miter;stroke-miterlimit:10;stroke-opacity:1;stroke-dasharray:none" />
    <path
       d="m 125.29964,59.71638 c 0,0 3.1,-5.40375 6.3575,-6.755 3.25875,-1.35125 25.3525,-11.0075 25.3525,-11.0075"
       id="path8452"
       style="fill:none;stroke:#ffffff;stroke-width:0.47625002;stroke-linecap:butt;stroke-linejoin:miter;stroke-miterlimit:10;stroke-opacity:1;stroke-dasharray:none" />
    <path
       d="m 114.80902,33.092255 c 0,0 3.56625,1.84375 6.21875,3.1 2.265,1.0725 6.35875,0.27875 7.39125,-0.3575 0,0 12.26625,3.84375 23.00875,5.84125 9.2975,1.72875 10.68875,5.2925 11.50375,6.735 1.31125,2.325 2.14625,4.71 2.205,10.73 l 0.64125,0.745 0,3.63625"
       id="path8456"
       style="fill:none;stroke:#ffffff;stroke-width:0.47625002;stroke-linecap:butt;stroke-linejoin:miter;stroke-miterlimit:10;stroke-opacity:1;stroke-dasharray:none" />
    <path
       d="m 80.89789,30.395755 c 0,0 0.71,-0.64125 2.10125,-0.045 1.39125,0.59625 1.74875,0.77 2.00625,0.91375 0.25875,0.145 0.835,0.71625 0,1.63 -0.83375,0.91375 -0.88875,0.93375 -1.1075,1.1525 -0.21875,0.2175 -1.0775,0.715 -2.03125,0.2375 -0.95375,-0.47625 -1.76875,-0.91875 -1.9075,-0.9975 -0.2075,-0.11875 -1.55,-0.75 -0.4475,-1.68375 0.59375,-0.5025 1.38625,-1.2075 1.38625,-1.2075 z"
       id="path8460"
       style="fill:none;stroke:#ffffff;stroke-width:0.47625002;stroke-linecap:butt;stroke-linejoin:miter;stroke-miterlimit:10;stroke-opacity:1;stroke-dasharray:none" />
    <path
       d="m 79.512015,32.86938 c 0.05375,-0.0675 0.02625,-0.2575 0.105,-0.3275 0.58125,-0.5175 1.28125,-1.2375 1.28125,-1.2375 0,0 0.71,-0.64 2.10125,-0.04375 1.39,0.595 1.7475,0.77 2.00625,0.91375 0.0825,0.045 0.19625,0.13375 0.2875,0.26375"
       id="path8464"
       style="fill:none;stroke:#ffffff;stroke-width:0.47625002;stroke-linecap:butt;stroke-linejoin:miter;stroke-miterlimit:10;stroke-opacity:1;stroke-dasharray:none" />
    <path
       d="m 86.07739,34.193755 c -0.2675,0.36 -0.63125,0.54375 -0.8125,0.40875 -0.1825,-0.135 -0.1125,-0.5375 0.155,-0.89625 0.26625,-0.36125 0.63125,-0.54375 0.8125,-0.40875 0.18125,0.135 0.1125,0.53625 -0.155,0.89625 z"
       id="path8468"
       style="fill:none;stroke:#ffffff;stroke-width:0.47625002;stroke-linecap:butt;stroke-linejoin:miter;stroke-miterlimit:10;stroke-opacity:1;stroke-dasharray:none" />
    <path
       d="m 117.03414,44.29888 c 0,0 -3.4025,2.96375 -4.76875,5.45375 -0.50625,0.92375 0.3875,1.28125 0.3875,1.28125 l 11.505,5.93125 c 0,0 0.80375,0.4175 1.16125,-0.03 0.3575,-0.44625 4.1025,-4.52 4.67,-4.8475"
       id="path8472"
       style="fill:none;stroke:#ffffff;stroke-width:0.47625002;stroke-linecap:butt;stroke-linejoin:miter;stroke-miterlimit:10;stroke-opacity:1;stroke-dasharray:none" />
    <path
       d="m 117.09377,44.328755 c 0.4475,0.26875 12.72625,7.42125 12.815,7.66"
       id="path8476"
       style="fill:none;stroke:#ffffff;stroke-width:0.47625002;stroke-linecap:butt;stroke-linejoin:miter;stroke-miterlimit:10;stroke-opacity:1;stroke-dasharray:none" />
    <path
       d="m 105.35139,32.37763 c 0,0 1.55,-1.55 4.76875,-1.63 0.15875,-0.0038 2.74125,1.55 2.74125,1.55 l -1.43,1.51 c 0,0 -0.755,0.15875 -1.1925,0.4375 -0.4375,0.27875 -3.61625,3.21875 -3.61625,3.21875 l -3.735,-1.9075 c 0,0 0.755,-0.91375 1.2325,-1.47 0.31375,-0.3675 1.15125,-0.51625 1.23125,-1.70875 z"
       id="path8480"
       style="fill:none;stroke:#ffffff;stroke-width:0.47625002;stroke-linecap:butt;stroke-linejoin:miter;stroke-miterlimit:10;stroke-opacity:1;stroke-dasharray:none" />
    <path
       d="m 115.32564,31.82138 c 0,0 3.8925,2.26875 5.48375,2.94125 2.5425,1.0725 3.59875,0.9075 6.3975,0.03875 1.1525,-0.3575 2.15875,0.0975 2.305,0.15875 3.29875,1.39125 15.5775,4.61 25.07375,6.27875 0,0 8.7825,1.39125 11.0075,9.18 0.53625,1.87375 0.755,4.61 0.99375,8.305 l 0.63625,0.715 0,3.3975 -7.51125,3.33875 c 0,0 -5.84125,2.98 -6.19875,9.4775 -0.3575,6.49625 5.7225,5.245 5.7225,5.245 l 8.46375,-2.92125 0.11875,0.53625 c 0,0 3.875,-0.89375 4.47125,-4.41"
       id="path8484"
       style="fill:none;stroke:#ffffff;stroke-width:0.47625002;stroke-linecap:butt;stroke-linejoin:miter;stroke-miterlimit:10;stroke-opacity:1;stroke-dasharray:none" />
    <path
       d="m 137.93627,102.9515 c 0,0 21.37875,-8.0075 22.73,-8.6425 1.35125,-0.63625 5.18625,-1.9675 5.245,-7.2525 0.0712,-6.2775 0,-5.08625 0,-5.08625"
       id="path8488"
       style="fill:none;stroke:#ffffff;stroke-width:0.47625002;stroke-linecap:butt;stroke-linejoin:miter;stroke-miterlimit:10;stroke-opacity:1;stroke-dasharray:none" />
    <path
       d="m 166.58652,58.72363 -8.48375,3.815 c 0,0 -8.785,3.94 -8.04625,14.7425 0.63625,9.29875 9,7.07375 9,7.07375 l 8.58375,-3.21875 c 0,0 5.36375,-1.9675 5.36375,-7.15375 l -0.47625,-21.01125"
       id="path8492"
       style="fill:none;stroke:#ffffff;stroke-width:0.47625002;stroke-linecap:butt;stroke-linejoin:miter;stroke-miterlimit:10;stroke-opacity:1;stroke-dasharray:none" />
    <path
       d="m 167.22264,81.314379 0,1.53"
       id="path8496"
       style="fill:none;stroke:#ffffff;stroke-width:0.47625002;stroke-linecap:butt;stroke-linejoin:miter;stroke-miterlimit:10;stroke-opacity:1;stroke-dasharray:none" />
    <path
       d="m 167.22264,59.43888 -8.6425,4.05375 c 0,0 -7.45125,4.41 -7.45125,12.27875 0,7.8675 4.66875,8.80125 5.44375,8.86125"
       id="path8508"
       style="fill:none;stroke:#ffffff;stroke-width:0.47625002;stroke-linecap:butt;stroke-linejoin:miter;stroke-miterlimit:10;stroke-opacity:1;stroke-dasharray:none" />
    <path
       d="m 167.81877,78.512879 0,2.38375"
       id="path8512"
       style="fill:none;stroke:#ffffff;stroke-width:0.47625002;stroke-linecap:butt;stroke-linejoin:miter;stroke-miterlimit:10;stroke-opacity:1;stroke-dasharray:none" />
    <path
       d="m 166.68627,78.453249 0,2.92125"
       id="path8516"
       style="fill:none;stroke:#ffffff;stroke-width:0.47625002;stroke-linecap:butt;stroke-linejoin:miter;stroke-miterlimit:10;stroke-opacity:1;stroke-dasharray:none" />
    <path
       d="m 158.36089,67.26738 c 0,0 2.35875,2.40875 0.59625,6.19875 -1.58875,3.4175 -4.68875,3.57625 -5.44375,3.4175"
       id="path8528"
       style="fill:none;stroke:#ffffff;stroke-width:0.47625002;stroke-linecap:butt;stroke-linejoin:miter;stroke-miterlimit:10;stroke-opacity:1;stroke-dasharray:none" />
    <path
       d="m 156.45577,68.683005 c 0.36125,-0.0225 0.71625,0.04125 1.045,0.19875 1.31625,0.63125 1.70875,2.5475 0.8775,4.2775 -0.83,1.73125 -2.57125,2.6225 -3.88625,1.99125 -0.3675,-0.1775 -0.66375,-0.45375 -0.88,-0.7975"
       id="path8532"
       style="fill:none;stroke:#ffffff;stroke-width:0.47625002;stroke-linecap:butt;stroke-linejoin:miter;stroke-miterlimit:10;stroke-opacity:1;stroke-dasharray:none" />
    <path
       d="m 154.94377,71.121749 3.4975,1.1925"
       id="path8536"
       style="fill:none;stroke:#ffffff;stroke-width:0.47625002;stroke-linecap:butt;stroke-linejoin:miter;stroke-miterlimit:10;stroke-opacity:1;stroke-dasharray:none" />
    <path
       d="m 154.4669,72.035879 3.775,1.31125"
       id="path8540"
       style="fill:none;stroke:#ffffff;stroke-width:0.47625002;stroke-linecap:butt;stroke-linejoin:miter;stroke-miterlimit:10;stroke-opacity:1;stroke-dasharray:none" />
    <path
       d="m 154.16889,79.04938 c 0,0 0.715,0.3575 1.55,0.11875 0.83375,-0.2375 6.97375,-2.38375 6.97375,-2.38375 0,0 1.43,-0.73 3.04,0.06 1.05375,0.51625 1.9975,1.0425 1.9975,1.0425"
       id="path8552"
       style="fill:none;stroke:#ffffff;stroke-width:0.47625002;stroke-linecap:butt;stroke-linejoin:miter;stroke-miterlimit:10;stroke-opacity:1;stroke-dasharray:none" />
    <path
       d="m 162.49428,65.121509 0.3175,11.56375"
       id="path8556"
       style="fill:none;stroke:#ffffff;stroke-width:0.47625002;stroke-linecap:butt;stroke-linejoin:miter;stroke-miterlimit:10;stroke-opacity:1;stroke-dasharray:none" />
    <path
       d="m 161.14289,-41.29562 c 0,0 -29.32625,11.445 -42.7975,56.865 0,0 -2.14625,7.27125 -3.3375,9.06 l -0.4475,-0.23875 -0.98375,1.55 0.5375,0.2975 c 0,0 -0.74625,1.9675 -2.56375,2.265 -1.81875,0.29875 -5.09625,0.56625 -7.00375,1.9375 0,0 -0.78875,0.0575 -1.37125,0.4775 -0.745,0.53625 -2.77125,2.32375 -3.87375,3.42625 0,0 -0.5375,-0.3275 -0.745,-0.3275 -0.20875,0 -2.56375,3.16 -2.89125,4.53 -0.22875,0.95375 -0.50625,2.98125 1.8475,1.43125 2.355,-1.55 4.2625,-3.4275 4.2625,-3.4275 0,0 0.88375,-0.66625 0.9925,-0.915"
       id="path8568"
       style="fill:none;stroke:#ffffff;stroke-width:0.47625002;stroke-linecap:butt;stroke-linejoin:miter;stroke-miterlimit:10;stroke-opacity:1;stroke-dasharray:none" />
    <path
       d="m 101.59614,36.490505 c -0.89375,-1.52 -2.295,-2.14625 -2.295,-2.14625"
       id="path8572"
       style="fill:none;stroke:#ffffff;stroke-width:0.47625002;stroke-linecap:butt;stroke-linejoin:miter;stroke-miterlimit:10;stroke-opacity:1;stroke-dasharray:none" />
    <path
       d="m 96.052765,40.424505 c 0,0 0.65625,-3.3375 3.24875,-5.96"
       id="path8576"
       style="fill:none;stroke:#ffffff;stroke-width:0.47625002;stroke-linecap:butt;stroke-linejoin:miter;stroke-miterlimit:10;stroke-opacity:1;stroke-dasharray:none" />
    <path
       d="m 104.18902,30.55963 c 0,0 1.0725,0.62625 1.1625,1.81875"
       id="path8580"
       style="fill:none;stroke:#ffffff;stroke-width:0.47625002;stroke-linecap:butt;stroke-linejoin:miter;stroke-miterlimit:10;stroke-opacity:1;stroke-dasharray:none" />
    <path
       d="m 108.88789,39.76888 c -0.835,-0.99375 -2.46375,-2.14625 -2.46375,-2.14625 0,0 -0.63625,-0.39625 -0.755,-0.39625 -0.11875,0 -2.14625,2.70125 -2.5425,4.25125 -0.185,0.72 -0.31875,2.5825 1.58875,1.70875 1.9075,-0.875 4.1375,-3.00125 4.41125,-3.3775 0.3175,-0.4375 1.43,-1.51 1.58875,-2.06625 0,0 1.82875,-1.51 1.82875,-2.22625 0,-0.555 2.50375,-1.98625 2.6625,-3.49625 0,0 0.2475,-3.075 1.32125,-4.1875 l 0.67,0.3725 0.93875,-1.58 -0.655,-0.4175 c 0,0 2.76875,-5.155 4.0825,-10.99625 1.0725,-4.76875 15.97375,-56.26875 65.4475,-60.2025 0,0 13.05375,-0.53625 21.5775,11.20625"
       id="path8584"
       style="fill:none;stroke:#ffffff;stroke-width:0.47625002;stroke-linecap:butt;stroke-linejoin:miter;stroke-miterlimit:10;stroke-opacity:1;stroke-dasharray:none" />
    <path
       d="m 103.44402,43.14663 c 0,0 0.795,-3.06 2.98,-5.52375"
       id="path8588"
       style="fill:none;stroke:#ffffff;stroke-width:0.47625002;stroke-linecap:butt;stroke-linejoin:miter;stroke-miterlimit:10;stroke-opacity:1;stroke-dasharray:none" />
    <path
       d="m 111.15327,33.92738 c 0,0 1.43,0.715 1.31125,1.9075"
       id="path8592"
       style="fill:none;stroke:#ffffff;stroke-width:0.47625002;stroke-linecap:butt;stroke-linejoin:miter;stroke-miterlimit:10;stroke-opacity:1;stroke-dasharray:none" />
    <path
       d="m 114.88839,26.77463 c 0,0 -1.11625,1.85625 -1.35125,3.97375 -0.15875,1.43 -0.675,1.55 -0.675,1.55"
       id="path8596"
       style="fill:none;stroke:#ffffff;stroke-width:0.47625002;stroke-linecap:butt;stroke-linejoin:miter;stroke-miterlimit:10;stroke-opacity:1;stroke-dasharray:none" />
    <path
       d="m 110.11989,30.748505 c 0,0 3.13875,-0.3175 3.61625,-1.23125"
       id="path8600"
       style="fill:none;stroke:#ffffff;stroke-width:0.47625002;stroke-linecap:butt;stroke-linejoin:miter;stroke-miterlimit:10;stroke-opacity:1;stroke-dasharray:none" />
    <path
       d="m 112.3849,30.390877 1.0725,0.51625"
       id="path8604"
       style="fill:none;stroke:#ffffff;stroke-width:0.47625002;stroke-linecap:butt;stroke-linejoin:miter;stroke-miterlimit:10;stroke-opacity:1;stroke-dasharray:none" />
    <path
       d="m 102.40489,34.065255 c 0.0625,0.05375 0.0175,0.20875 -0.0987,0.34625 -0.1175,0.1375 -0.26375,0.20625 -0.32625,0.1525 -0.0625,-0.0525 -0.0187,-0.2075 0.0987,-0.34625 0.1175,-0.1375 0.26375,-0.20625 0.32625,-0.1525 z"
       id="path8616"
       style="fill:none;stroke:#ffffff;stroke-width:0.47625002;stroke-linecap:butt;stroke-linejoin:miter;stroke-miterlimit:10;stroke-opacity:1;stroke-dasharray:none" />
    <path
       d="m 109.22977,37.582005 c 0.0625,0.05375 0.0175,0.20875 -0.0987,0.34625 -0.1175,0.1375 -0.26375,0.20625 -0.32625,0.1525 -0.0625,-0.0525 -0.0188,-0.2075 0.0987,-0.34625 0.1175,-0.1375 0.26375,-0.20625 0.32625,-0.1525 z"
       id="path8620"
       style="fill:none;stroke:#ffffff;stroke-width:0.47625002;stroke-linecap:butt;stroke-linejoin:miter;stroke-miterlimit:10;stroke-opacity:1;stroke-dasharray:none" />
    <path
       d="m 115.00765,24.628877 2.47375,1.58"
       id="path8624"
       style="fill:none;stroke:#ffffff;stroke-width:0.47625002;stroke-linecap:butt;stroke-linejoin:miter;stroke-miterlimit:10;stroke-opacity:1;stroke-dasharray:none" />
    <path
       d="m 114.11352,26.238247 2.41375,1.595"
       id="path8628"
       style="fill:none;stroke:#ffffff;stroke-width:0.47625002;stroke-linecap:butt;stroke-linejoin:miter;stroke-miterlimit:10;stroke-opacity:1;stroke-dasharray:none" />
    <path
       d="m 123.41202,32.49688 3.3975,2.10625 c 2.38375,-21.22 9.06,-33.3 9.06,-33.3"
       id="path8640"
       style="fill:none;stroke:#ffffff;stroke-width:0.47625002;stroke-linecap:butt;stroke-linejoin:miter;stroke-miterlimit:10;stroke-opacity:1;stroke-dasharray:none" />
    <path
       d="m 123.11402,33.450497 2.5625,1.8475"
       id="path8644"
       style="fill:none;stroke:#ffffff;stroke-width:0.47625002;stroke-linecap:butt;stroke-linejoin:miter;stroke-miterlimit:10;stroke-opacity:1;stroke-dasharray:none" />
    <path
       d="m 122.61339,11.52613 6.62,3.20875 c 0,0 -1.39125,7.98625 -2.74125,11.325 -2.43375,6.01125 -4.01375,6.835 -4.01375,9.14"
       id="path8656"
       style="fill:none;stroke:#ffffff;stroke-width:0.47625002;stroke-linecap:butt;stroke-linejoin:miter;stroke-miterlimit:10;stroke-opacity:1;stroke-dasharray:none" />
    <path
       d="m 122.44389,12.29313 5.5975,2.75875 c 0,0 -1.1125,7.03375 -2.46375,10.37125 -2.43375,6.0125 -3.97375,6.995 -4.29125,9.37875"
       id="path8660"
       style="fill:none;stroke:#ffffff;stroke-width:0.47625002;stroke-linecap:butt;stroke-linejoin:miter;stroke-miterlimit:10;stroke-opacity:1;stroke-dasharray:none" />
    <path
       d="m 116.83565,9.5286273 2.90125,1.4299997"
       id="path8664"
       style="fill:none;stroke:#ffffff;stroke-width:0.47625002;stroke-linecap:butt;stroke-linejoin:miter;stroke-miterlimit:10;stroke-opacity:1;stroke-dasharray:none" />
    <path
       d="m 118.2264,9.3696273 1.75375,0.8624997"
       id="path8668"
       style="fill:none;stroke:#ffffff;stroke-width:0.47625002;stroke-linecap:butt;stroke-linejoin:miter;stroke-miterlimit:10;stroke-opacity:1;stroke-dasharray:none" />
    <path
       d="m 128.0414,15.051997 0.95375,-0.3175"
       id="path8672"
       style="fill:none;stroke:#ffffff;stroke-width:0.47625002;stroke-linecap:butt;stroke-linejoin:miter;stroke-miterlimit:10;stroke-opacity:1;stroke-dasharray:none" />
    <path
       d="m 115.68326,14.336755 c 0,0 -2.305,9.895 -5.16625,12.71625 -0.72125,0.71125 -0.3575,1.47 -0.3575,1.47"
       id="path8684"
       style="fill:none;stroke:#ffffff;stroke-width:0.47625002;stroke-linecap:butt;stroke-linejoin:miter;stroke-miterlimit:10;stroke-opacity:1;stroke-dasharray:none" />
    <path
       d="m 111.01402,17.23763 c 0,0 -1.9675,3.875 -1.1325,7.74875"
       id="path8688"
       style="fill:none;stroke:#ffffff;stroke-width:0.47625002;stroke-linecap:butt;stroke-linejoin:miter;stroke-miterlimit:10;stroke-opacity:1;stroke-dasharray:none" />
    <path
       d="m 105.82828,21.469757 2.6825,-0.23875 -0.23875,2.56375"
       id="path8692"
       style="fill:none;stroke:#ffffff;stroke-width:0.47625002;stroke-linecap:butt;stroke-linejoin:miter;stroke-miterlimit:10;stroke-opacity:1;stroke-dasharray:none" />
    <path
       d="m 104.93414,20.69488 3.695,-0.4175 c 0,0 0.18,-1.0725 1.3125,-2.6825"
       id="path8704"
       style="fill:none;stroke:#ffffff;stroke-width:0.47625002;stroke-linecap:butt;stroke-linejoin:miter;stroke-miterlimit:10;stroke-opacity:1;stroke-dasharray:none" />
    <path
       d="m 98.36764,34.225505 c 0,0 -1.23125,-0.67625 -2.10625,-0.99375 -0.87375,-0.3175 -1.43,0.12 -1.43,0.12 -4.72875,4.33125 -6.01125,8.44375 -6.01125,8.44375 0,0 0.25875,14.8825 0.25875,15.77625 0,0.89375 0.19875,1.88625 1.47,2.6425 1.85,1.09875 12.73625,6.3775 13.2325,6.53625 0.4975,0.15875 1.2325,0.19875 1.29125,-0.3975"
       id="path8708"
       style="fill:none;stroke:#ffffff;stroke-width:0.47625002;stroke-linecap:butt;stroke-linejoin:miter;stroke-miterlimit:10;stroke-opacity:1;stroke-dasharray:none" />
    <path
       d="m 102.49026,36.16263 c 0,0 1.60875,0.775 2.7125,1.37125"
       id="path8712"
       style="fill:none;stroke:#ffffff;stroke-width:0.47625002;stroke-linecap:butt;stroke-linejoin:miter;stroke-miterlimit:10;stroke-opacity:1;stroke-dasharray:none" />
    <path
       d="m 109.40464,39.76888 c 0,0 3.51625,1.81875 3.3975,2.11625"
       id="path8716"
       style="fill:none;stroke:#ffffff;stroke-width:0.47625002;stroke-linecap:butt;stroke-linejoin:miter;stroke-miterlimit:10;stroke-opacity:1;stroke-dasharray:none" />
    <path
       d="m 125.85589,33.808255 c 0,0 1.78875,-23.8425 14.305,-42.55875 4.24625,-6.34875 20.2075,-28.3125 48.8775,-30.995 1.48875,-0.14 24.43875,-2.325 25.75,22.57 0.4625,8.7825 0.795,7.47125 1.66875,7.71"
       id="path8720"
       style="fill:none;stroke:#ffffff;stroke-width:0.47625002;stroke-linecap:butt;stroke-linejoin:miter;stroke-miterlimit:10;stroke-opacity:1;stroke-dasharray:none" />
    <path
       d="m 208.58939,-33.785245 3.63625,1.9075 c 0,0 2.08625,7.63 5.36375,13.05375"
       id="path8724"
       style="fill:none;stroke:#ffffff;stroke-width:0.47625002;stroke-linecap:butt;stroke-linejoin:miter;stroke-miterlimit:10;stroke-opacity:1;stroke-dasharray:none" />
    <path
       d="m 209.54314,-32.41437 1.9075,1.0725 c 0,0 1.1325,4.1725 3.15875,9.00125 2.02625,4.8275 4.2325,7.2125 4.47125,10.66875 0,0 -0.5075,-1.4 -4.2325,-3.12875"
       id="path8728"
       style="fill:none;stroke:#ffffff;stroke-width:0.47625002;stroke-linecap:butt;stroke-linejoin:miter;stroke-miterlimit:10;stroke-opacity:1;stroke-dasharray:none" />
    <path
       d="m 211.45051,-31.341493 0.775,-0.53625"
       id="path8732"
       style="fill:none;stroke:#ffffff;stroke-width:0.47625002;stroke-linecap:butt;stroke-linejoin:miter;stroke-miterlimit:10;stroke-opacity:1;stroke-dasharray:none" />
    <path
       d="m 216.33826,-8.15462 c 0,0 -2.5975,0.17875 -2.50375,-5.365 0.17875,-10.61 -3.755,-23.7825 -18.00125,-24.67625"
       id="path8744"
       style="fill:none;stroke:#ffffff;stroke-width:0.47625002;stroke-linecap:butt;stroke-linejoin:miter;stroke-miterlimit:10;stroke-opacity:1;stroke-dasharray:none" />
    <path
       d="m 202.39039,-19.062495 c 0,0 -0.06,4.1125 1.9675,5.06625 l 10.9075,5.48375"
       id="path8748"
       style="fill:none;stroke:#ffffff;stroke-width:0.47625002;stroke-linecap:butt;stroke-linejoin:miter;stroke-miterlimit:10;stroke-opacity:1;stroke-dasharray:none" />
    <path
       d="m 215.17589,-12.326995 c 0,0 2.38375,1.1625 2.325,2.6525 -0.06,1.49 0,4.65 0,4.65 0,0 -0.06,1.0725 -1.1625,0.05875 -1.1025,-1.0125 -1.55,0.14875 -1.58,0.4475"
       id="path8752"
       style="fill:none;stroke:#ffffff;stroke-width:0.47625002;stroke-linecap:butt;stroke-linejoin:miter;stroke-miterlimit:10;stroke-opacity:1;stroke-dasharray:none" />
    <path
       d="m 215.56339,-10.41962 c 0,0 0.95375,0.4175 0.92375,1.58 -0.03,1.1625 0,1.55 0,1.55 0,0 0,0.92375 -1.1925,0.17875 -1.19125,-0.74625 -6.82375,-3.875 -9.89375,-4.73875 0,0 -1.46125,-0.4475 -1.43125,-2.265"
       id="path8756"
       style="fill:none;stroke:#ffffff;stroke-width:0.47625002;stroke-linecap:butt;stroke-linejoin:miter;stroke-miterlimit:10;stroke-opacity:1;stroke-dasharray:none" />
    <path
       d="m 205.07264,-13.548995 c 0,0 -0.23875,1.40125 0.4475,1.72875"
       id="path8760"
       style="fill:none;stroke:#ffffff;stroke-width:0.47625002;stroke-linecap:butt;stroke-linejoin:miter;stroke-miterlimit:10;stroke-opacity:1;stroke-dasharray:none" />
    <path
       d="m 202.27114,-12.048745 c 0,0 0.55625,0.715 2.34375,1.1925 1.78875,0.47625 1.9875,1.70875 2.1075,2.10625"
       id="path8764"
       style="fill:none;stroke:#ffffff;stroke-width:0.47625002;stroke-linecap:butt;stroke-linejoin:miter;stroke-miterlimit:10;stroke-opacity:1;stroke-dasharray:none" />
    <path
       d="m 216.87464,-4.51862 c 0,0 1.0725,1.69875 2.6225,0.4175"
       id="path8768"
       style="fill:none;stroke:#ffffff;stroke-width:0.47625002;stroke-linecap:butt;stroke-linejoin:miter;stroke-miterlimit:10;stroke-opacity:1;stroke-dasharray:none" />
    <path
       d="m 157.01052,41.87488 c 0,0 6.99375,-0.08 9.4975,-0.02 2.5025,0.06 9.17875,1.55 11.08625,8.345"
       id="path8772"
       style="fill:none;stroke:#ffffff;stroke-width:0.47625002;stroke-linecap:butt;stroke-linejoin:miter;stroke-miterlimit:10;stroke-opacity:1;stroke-dasharray:none" />
    <path
       d="m 166.14977,54.23363 4.29125,-1.82875 c 0,0 2.385,-0.595 3.57625,-0.595 1.1925,0 3.6175,-0.3975 4.3325,-0.755"
       id="path8776"
       style="fill:none;stroke:#ffffff;stroke-width:0.47625002;stroke-linecap:butt;stroke-linejoin:miter;stroke-miterlimit:10;stroke-opacity:1;stroke-dasharray:none" />
    <path
       d="m 166.32851,55.08763 3.93375,-1.66875 c 0,0 2.6225,-0.775 3.63625,-0.775 1.01375,0 3.93375,0.1 6.08,-1.27125 2.14625,-1.37125 5.20875,-3.77125 9.5775,-5.365 13.39125,-4.8875 24.35875,-13.66875 26.98125,-18.955 1.26125,-2.5425 2.99,-4.03375 3.49625,-5.96"
       id="path8780"
       style="fill:none;stroke:#ffffff;stroke-width:0.47625002;stroke-linecap:butt;stroke-linejoin:miter;stroke-miterlimit:10;stroke-opacity:1;stroke-dasharray:none" />
    <path
       d="m 215.68251,26.536255 c 0.775,-1.1925 2.92125,-4.29125 2.92125,-4.29125 0,0 0.2975,-1.1325 2.5025,-1.37125 0,0 4.09375,-0.59625 5.285,-2.44375"
       id="path8784"
       style="fill:none;stroke:#ffffff;stroke-width:0.47625002;stroke-linecap:butt;stroke-linejoin:miter;stroke-miterlimit:10;stroke-opacity:1;stroke-dasharray:none" />
    <path
       d="m 215.66251,21.648505 c 0,0 0.47,-1.72625 2.14625,-2.265 1.1125,-0.3575 0.87375,-3.1 8.10625,-3.13875"
       id="path8788"
       style="fill:none;stroke:#ffffff;stroke-width:0.47625002;stroke-linecap:butt;stroke-linejoin:miter;stroke-miterlimit:10;stroke-opacity:1;stroke-dasharray:none" />
    <path
       d="m 216.61627,25.026255 0,-2.185 c 0,-0.795 0.5175,-1.9075 1.78875,-2.66375 1.27125,-0.75375 1.90625,-0.43625 4.0125,-1.0725 2.10625,-0.635 3.4175,-1.55 3.97375,-2.5425 l 0,1.8675 c 0,0 0.4775,0.11875 0.5575,1.23125 0.0788,1.1125 0.2775,19.63125 0.19875,20.585 -0.08,0.95375 -0.3975,1.43 -0.35875,2.78125"
       id="path8792"
       style="fill:none;stroke:#ffffff;stroke-width:0.47625002;stroke-linecap:butt;stroke-linejoin:miter;stroke-miterlimit:10;stroke-opacity:1;stroke-dasharray:none" />
    <path
       d="m 221.76239,44.12013 c 0,0 3.63625,0.715 5.245,-2.86125"
       id="path8796"
       style="fill:none;stroke:#ffffff;stroke-width:0.47625002;stroke-linecap:butt;stroke-linejoin:miter;stroke-miterlimit:10;stroke-opacity:1;stroke-dasharray:none" />
    <path
       d="m 220.66952,46.285505 c 0,0 1.1125,-2.5425 1.1925,-3.02 0.08,-0.47625 0,-22.3325 0,-22.3325"
       id="path8800"
       style="fill:none;stroke:#ffffff;stroke-width:0.47625002;stroke-linecap:butt;stroke-linejoin:miter;stroke-miterlimit:10;stroke-opacity:1;stroke-dasharray:none" />
    <path
       d="m 224.56389,19.979505 0.55625,22.73 c 0,0 0.63625,1.1125 -3.2575,0.55625"
       id="path8804"
       style="fill:none;stroke:#ffffff;stroke-width:0.47625002;stroke-linecap:butt;stroke-linejoin:miter;stroke-miterlimit:10;stroke-opacity:1;stroke-dasharray:none" />
    <path
       d="m 219.43777,19.890127 0,1.52"
       id="path8808"
       style="fill:none;stroke:#ffffff;stroke-width:0.47625002;stroke-linecap:butt;stroke-linejoin:miter;stroke-miterlimit:10;stroke-opacity:1;stroke-dasharray:none" />
    <path
       d="m 221.50914,17.416497 -0.22375,0.89375 1.61,0 0.17875,-0.89375 -1.565,0 z"
       id="path8812"
       style="fill:none;stroke:#ffffff;stroke-width:0.47625002;stroke-linecap:butt;stroke-linejoin:miter;stroke-miterlimit:10;stroke-opacity:1;stroke-dasharray:none" />
    <path
       d="m 229.05439,29.25813 c 0,0.91125 -0.32875,1.64875 -0.735,1.64875 -0.40625,0 -0.735,-0.7375 -0.735,-1.64875 0,-0.91125 0.32875,-1.64875 0.735,-1.64875 0.40625,0 0.735,0.7375 0.735,1.64875 z"
       id="path8824"
       style="fill:none;stroke:#ffffff;stroke-width:0.47625002;stroke-linecap:butt;stroke-linejoin:miter;stroke-miterlimit:10;stroke-opacity:1;stroke-dasharray:none" />
    <path
       d="m 217.94764,19.353757 0.98375,0.4475"
       id="path8828"
       style="fill:none;stroke:#ffffff;stroke-width:0.47625002;stroke-linecap:butt;stroke-linejoin:miter;stroke-miterlimit:10;stroke-opacity:1;stroke-dasharray:none" />
    <path
       d="m 165.61326,76.81413 c 0,0 4.2325,-1.37125 5.7525,-2.265 1.52,-0.89375 4.25125,-0.865 5.6725,-0.92375 l -0.4775,-21.14"
       id="path8840"
       style="fill:none;stroke:#ffffff;stroke-width:0.47625002;stroke-linecap:butt;stroke-linejoin:miter;stroke-miterlimit:10;stroke-opacity:1;stroke-dasharray:none" />
    <path
       d="m 159.15626,42.789005 8.345,0.11875 c 0,0 7.98625,0.31875 9.3375,8.58375"
       id="path8844"
       style="fill:none;stroke:#ffffff;stroke-width:0.47625002;stroke-linecap:butt;stroke-linejoin:miter;stroke-miterlimit:10;stroke-opacity:1;stroke-dasharray:none" />
    <path
       d="m 161.06364,43.98113 c 0,0 4.8875,0.2775 6.27875,0.63625 1.39,0.3575 5.04625,2.265 5.125,7.1525"
       id="path8848"
       style="fill:none;stroke:#ffffff;stroke-width:0.47625002;stroke-linecap:butt;stroke-linejoin:miter;stroke-miterlimit:10;stroke-opacity:1;stroke-dasharray:none" />
    <path
       d="m 187.60801,-47.57412 c 0,0 0.55625,1.31125 0.0787,2.5425"
       id="path8852"
       style="fill:none;stroke:#ffffff;stroke-width:0.47625002;stroke-linecap:butt;stroke-linejoin:miter;stroke-miterlimit:10;stroke-opacity:1;stroke-dasharray:none" />
    <path
       d="m 135.39289,2.256755 c 0,0 10.65,-5.88125 22.01375,-8.7425"
       id="path8856"
       style="fill:none;stroke:#ffffff;stroke-width:0.47625002;stroke-linecap:butt;stroke-linejoin:miter;stroke-miterlimit:10;stroke-opacity:1;stroke-dasharray:none" />
    <path
       d="m 157.24889,-7.99562 c 0,0 -0.18625,8.26625 -0.15875,10.41125 0.0788,6.4375 0.2775,11.48375 0.3175,12.4775"
       id="path8860"
       style="fill:none;stroke:#ffffff;stroke-width:0.47625002;stroke-linecap:butt;stroke-linejoin:miter;stroke-miterlimit:10;stroke-opacity:1;stroke-dasharray:none" />
    <path
       d="m 156.77151,-12.92262 c 0,0 0.3975,0.715 0.87375,0.95375 0.4775,0.23875 0.63625,1.03375 0.63625,1.8275 0,0.795 -0.51625,18.00125 0.11875,25.075"
       id="path8864"
       style="fill:none;stroke:#ffffff;stroke-width:0.47625002;stroke-linecap:butt;stroke-linejoin:miter;stroke-miterlimit:10;stroke-opacity:1;stroke-dasharray:none" />
    <path
       d="m 218.36489,-3.56487 c 0,0 4.59,6.735 4.59,11.98125 0,4.30625 -1.31125,7.9275 -2.0275,8.52375"
       id="path8868"
       style="fill:none;stroke:#ffffff;stroke-width:0.47625002;stroke-linecap:butt;stroke-linejoin:miter;stroke-miterlimit:10;stroke-opacity:1;stroke-dasharray:none" />
    <path
       d="m 222.65651,16.582005 c 0,0 1.9075,-4.1125 1.61,-8.52375"
       id="path8872"
       style="fill:none;stroke:#ffffff;stroke-width:0.47625002;stroke-linecap:butt;stroke-linejoin:miter;stroke-miterlimit:10;stroke-opacity:1;stroke-dasharray:none" />
    <path
       d="m 159.77189,-11.37337 c 0,0 0.17875,0.35375 0.17875,2.265 0,0.59625 0.775,-0.11875 1.61,-0.11875 0.83375,0 4.35125,-0.3575 5.78125,-2.7425"
       id="path8876"
       style="fill:none;stroke:#ffffff;stroke-width:0.47625002;stroke-linecap:butt;stroke-linejoin:miter;stroke-miterlimit:10;stroke-opacity:1;stroke-dasharray:none" />
    <path
       d="m 162.57339,-12.446245 c 0,0 -2.265,0.3375 -2.6225,2.6625"
       id="path8880"
       style="fill:none;stroke:#ffffff;stroke-width:0.47625002;stroke-linecap:butt;stroke-linejoin:miter;stroke-miterlimit:10;stroke-opacity:1;stroke-dasharray:none" />
    <path
       d="m 164.42127,-11.522373 -0.02,0.90375 -1.70875,-0.01 0,-0.86375 1.72875,-0.03 z"
       id="path8884"
       style="fill:none;stroke:#ffffff;stroke-width:0.47625002;stroke-linecap:butt;stroke-linejoin:miter;stroke-miterlimit:10;stroke-opacity:1;stroke-dasharray:none" />
    <path
       d="m 161.08328,-9.0288731 0,1.29125"
       id="path8888"
       style="fill:none;stroke:#ffffff;stroke-width:0.47625002;stroke-linecap:butt;stroke-linejoin:miter;stroke-miterlimit:10;stroke-opacity:1;stroke-dasharray:none" />
    <path
       d="m 162.33489,-13.678245 c 0,0 -1.0725,-0.125 -1.0725,0.815 l 0,0.85375"
       id="path8900"
       style="fill:none;stroke:#ffffff;stroke-width:0.47625002;stroke-linecap:butt;stroke-linejoin:miter;stroke-miterlimit:10;stroke-opacity:1;stroke-dasharray:none" />
    <path
       d="m 158.32176,-11.293995 c 0,0 1.31125,-0.15875 1.39,-0.55625"
       id="path8904"
       style="fill:none;stroke:#ffffff;stroke-width:0.47625002;stroke-linecap:butt;stroke-linejoin:miter;stroke-miterlimit:10;stroke-opacity:1;stroke-dasharray:none" />
    <path
       d="m 160.66601,-14.432995 c 0,0 0.3575,0.87375 1.1525,0.87375"
       id="path8908"
       style="fill:none;stroke:#ffffff;stroke-width:0.47625002;stroke-linecap:butt;stroke-linejoin:miter;stroke-miterlimit:10;stroke-opacity:1;stroke-dasharray:none" />
    <path
       d="m 166.66664,-16.658495 c 0,0 -0.08,0.47625 0.3975,0.755 0.47625,0.27875 1.35,0.95375 1.35,0.95375 l 0,2.6225 -1.0125,-0.06 0,2.08625 c 0,0 -1.61,1.9075 -5.245,2.325 -1.62625,0.1875 -1.9675,0.715 -1.9675,1.72875 0,1.0125 0.2975,19.78875 0.3575,20.62375 0.06,0.83375 0.58375,1.47 1.43125,1.37125 1.0125,-0.12 4.0525,-0.17875 5.6625,-0.95375 0.53625,-0.25875 2.38375,-0.4775 2.38375,-0.4775"
       id="path8912"
       style="fill:none;stroke:#ffffff;stroke-width:0.47625002;stroke-linecap:butt;stroke-linejoin:miter;stroke-miterlimit:10;stroke-opacity:1;stroke-dasharray:none" />
    <path
       d="m 168.41477,-14.949745 c 0,0 1.1125,0.04 1.35125,-0.3975"
       id="path8916"
       style="fill:none;stroke:#ffffff;stroke-width:0.47625002;stroke-linecap:butt;stroke-linejoin:miter;stroke-miterlimit:10;stroke-opacity:1;stroke-dasharray:none" />
    <path
       d="m 165.79214,-9.16787 c 0,0 18.00125,-4.35125 37.91,-1.72875 0,0 2.5625,0.4175 2.5025,1.9075"
       id="path8920"
       style="fill:none;stroke:#ffffff;stroke-width:0.47625002;stroke-linecap:butt;stroke-linejoin:miter;stroke-miterlimit:10;stroke-opacity:1;stroke-dasharray:none" />
    <path
       d="m 170.02414,-10.71762 c 0,0 -2.08625,0.3575 -2.86125,0.715"
       id="path8924"
       style="fill:none;stroke:#ffffff;stroke-width:0.47625002;stroke-linecap:butt;stroke-linejoin:miter;stroke-miterlimit:10;stroke-opacity:1;stroke-dasharray:none" />
    <path
       d="m 213.23877,-5.88962 c 0.13875,0.3975 0.55625,0.51625 0.55625,0.51625 0.3775,0.25875 8.66375,6.04 3.4375,23.505 -0.37875,1.26375 -0.23875,1.66875 -0.23875,1.66875"
       id="path8928"
       style="fill:none;stroke:#ffffff;stroke-width:0.47625002;stroke-linecap:butt;stroke-linejoin:miter;stroke-miterlimit:10;stroke-opacity:1;stroke-dasharray:none" />
    <path
       d="m 215.86139,19.02588 c 5.42375,-19.9675 -2.7225,-23.12375 -3.21875,-24.14 -0.37375,-0.7675 0.755,-0.775 0.99375,-0.5375"
       id="path8932"
       style="fill:none;stroke:#ffffff;stroke-width:0.47625002;stroke-linecap:butt;stroke-linejoin:miter;stroke-miterlimit:10;stroke-opacity:1;stroke-dasharray:none" />
    <path
       d="m 219.00102,8.1377573 0.3975,9.5762497"
       id="path8936"
       style="fill:none;stroke:#ffffff;stroke-width:0.47625002;stroke-linecap:butt;stroke-linejoin:miter;stroke-miterlimit:10;stroke-opacity:1;stroke-dasharray:none" />
    <path
       d="m 219.19939,13.899755 c 0,0 1.31125,0.65625 2.265,2.44375"
       id="path8948"
       style="fill:none;stroke:#ffffff;stroke-width:0.47625002;stroke-linecap:butt;stroke-linejoin:miter;stroke-miterlimit:10;stroke-opacity:1;stroke-dasharray:none" />
    <path
       d="m 215.14614,-4.160995 c 0,0 1.66875,-0.11875 1.9075,-0.06 l -0.06,2.86125"
       id="path8952"
       style="fill:none;stroke:#ffffff;stroke-width:0.47625002;stroke-linecap:butt;stroke-linejoin:miter;stroke-miterlimit:10;stroke-opacity:1;stroke-dasharray:none" />
    <path
       d="m 160.90439,-6.127995 c 0,0 0.47625,0.17875 1.49,0 1.01375,-0.17875 23.245,-3.88875 35.585,-3.3375 6.67625,0.2975 9.5375,2.7025 11.6825,1.54875 0,0 0.19875,-0.635 -0.1975,-0.79375"
       id="path8956"
       style="fill:none;stroke:#ffffff;stroke-width:0.47625002;stroke-linecap:butt;stroke-linejoin:miter;stroke-miterlimit:10;stroke-opacity:1;stroke-dasharray:none" />
    <path
       d="m 208.17214,-8.45262 c 0,0 0.2975,-0.53625 0.89375,-0.4175 0.59625,0.12 1.37125,0.4175 1.37125,1.61 0,1.19125 0.65625,20.86125 0.65625,20.86125 0,0 0.20875,1.37125 -0.59625,1.1925 -0.65125,-0.14375 -1.64875,-0.55625 -1.82875,-2.16625"
       id="path8960"
       style="fill:none;stroke:#ffffff;stroke-width:0.47625002;stroke-linecap:butt;stroke-linejoin:miter;stroke-miterlimit:10;stroke-opacity:1;stroke-dasharray:none" />
    <path
       d="m 162.15614,-7.975745 0,1.37125 -0.3775,-0.08 c 0,0 -0.87375,0 -0.87375,0.55625 0,0.55625 0.47625,21.81625 0.47625,21.81625"
       id="path8964"
       style="fill:none;stroke:#ffffff;stroke-width:0.47625002;stroke-linecap:butt;stroke-linejoin:miter;stroke-miterlimit:10;stroke-opacity:1;stroke-dasharray:none" />
    <path
       d="m 162.15614,-6.60487 c 0.3775,0.08 0.95375,-0.23875 0.95375,-0.23875 0,0 22.3275,-4.0625 35.2275,-3.3375 5.305,0.2975 9.715,2.44375 10.72875,1.31125"
       id="path8968"
       style="fill:none;stroke:#ffffff;stroke-width:0.47625002;stroke-linecap:butt;stroke-linejoin:miter;stroke-miterlimit:10;stroke-opacity:1;stroke-dasharray:none" />
    <path
       d="m 206.84126,12.270505 c 0,0 1.98625,0.11875 3.4175,0.755 0,0 0.47625,0.08 0.715,-0.3175"
       id="path8972"
       style="fill:none;stroke:#ffffff;stroke-width:0.47625002;stroke-linecap:butt;stroke-linejoin:miter;stroke-miterlimit:10;stroke-opacity:1;stroke-dasharray:none" />
    <path
       d="m 213.63589,-5.571495 c 0,0 0.02,-0.855 -0.11875,-0.95375 -0.24625,-0.17625 -0.21875,-0.22875 -0.99375,-0.55625 -0.98625,-0.4175 -0.89375,0.775 -0.89375,0.775 0,0 0.655,19.49125 0.655,20.385 0,0.68625 0.17875,1.43 0.65625,1.78875 0.47625,0.3575 0.86375,0.47625 0.86375,0.47625 0,0 0.3575,0.09 0.3575,-0.14875"
       id="path8976"
       style="fill:none;stroke:#ffffff;stroke-width:0.47625002;stroke-linecap:butt;stroke-linejoin:miter;stroke-miterlimit:10;stroke-opacity:1;stroke-dasharray:none" />
    <path
       d="m 212.55326,-5.38287 c 0,0 0.715,19.55125 0.835,20.29625 0.0825,0.51375 1.9075,2.5625 2.205,3.815"
       id="path8980"
       style="fill:none;stroke:#ffffff;stroke-width:0.47625002;stroke-linecap:butt;stroke-linejoin:miter;stroke-miterlimit:10;stroke-opacity:1;stroke-dasharray:none" />
    <path
       d="m 172.03126,52.087755 c 0.05,-3.4975 -2.87125,-3.22875 -2.87125,-3.22875 l -3.785,0.56625"
       id="path8984"
       style="fill:none;stroke:#ffffff;stroke-width:0.47625002;stroke-linecap:butt;stroke-linejoin:miter;stroke-miterlimit:10;stroke-opacity:1;stroke-dasharray:none" />
    <path
       d="m 170.22301,49.087377 -4.2525,2.84125"
       id="path8988"
       style="fill:none;stroke:#ffffff;stroke-width:0.47625002;stroke-linecap:butt;stroke-linejoin:miter;stroke-miterlimit:10;stroke-opacity:1;stroke-dasharray:none" />
    <path
       d="m 209.58314,-7.836495 c 0,0 0.635,16.09375 0.43625,20.66375"
       id="path9000"
       style="fill:none;stroke:#ffffff;stroke-width:0.47625002;stroke-linecap:butt;stroke-linejoin:miter;stroke-miterlimit:10;stroke-opacity:1;stroke-dasharray:none" />
    <path
       d="m 97.27889,77.474005 c -0.155,-0.35875 -0.38875,-0.6125 -0.7025,-0.76125 -0.1575,-0.075 -0.2975,-0.10625 -0.42125,-0.08875 -0.12375,0.015 -0.23,0.07125 -0.3175,0.16625 -0.08875,0.09375 -0.1575,0.225 -0.20875,0.3925 -0.05125,0.1675 -0.0825,0.36625 -0.0925,0.595 -0.01,0.22875 0.0012,0.44625 0.035,0.655 0.035,0.2075 0.09,0.39875 0.16625,0.5725 0.07625,0.17125 0.1725,0.32375 0.28875,0.455 0.1175,0.13125 0.255,0.235 0.41125,0.30875 0.15875,0.07625 0.3,0.10625 0.42375,0.08875 0.12375,-0.01625 0.22875,-0.07125 0.3175,-0.16625 0.08875,-0.09375 0.1575,-0.225 0.20875,-0.3925 0.05125,-0.1675 0.0825,-0.36625 0.0925,-0.595 0.02,-0.4575 -0.04625,-0.86625 -0.20125,-1.23 m 0.33,2.995 c -0.32375,0.27625 -0.72375,0.30125 -1.205,0.0725 -0.2375,-0.11375 -0.4525,-0.27375 -0.64875,-0.47875 -0.195,-0.20375 -0.3625,-0.4425 -0.4975,-0.715 -0.1375,-0.27125 -0.23875,-0.5675 -0.30625,-0.8875 -0.06875,-0.32125 -0.095,-0.65375 -0.07875,-1 0.015,-0.345 0.07125,-0.64 0.16625,-0.8825 0.09375,-0.2425 0.21875,-0.43125 0.37125,-0.565 0.1525,-0.13375 0.3325,-0.20625 0.5375,-0.22 0.20625,-0.015 0.4275,0.035 0.665,0.14875 0.2375,0.1125 0.4525,0.2725 0.64875,0.48 0.19625,0.2075 0.36125,0.44625 0.4975,0.71875 0.13625,0.27125 0.23875,0.5675 0.30625,0.8875 0.0675,0.32125 0.095,0.65125 0.07875,0.99375 -0.03125,0.69 -0.21,1.1725 -0.535,1.4475"
       id="path9004"
       style="fill:none;stroke:#ffffff;stroke-width:0.29999998;stroke-linecap:butt;stroke-linejoin:miter;stroke-miterlimit:10;stroke-opacity:1;stroke-dasharray:none" />
    <path
       d="m 99.47439,81.97888 c -0.18375,-0.0875 -0.34375,-0.2075 -0.4825,-0.35875 -0.13875,-0.1525 -0.25375,-0.325 -0.345,-0.51625 -0.0925,-0.19125 -0.15875,-0.40125 -0.2025,-0.625 -0.0425,-0.22625 -0.05875,-0.455 -0.04875,-0.685 0.01125,-0.2325 0.04625,-0.43625 0.1075,-0.6075 0.06125,-0.17375 0.145,-0.31 0.24875,-0.41125 0.105,-0.1 0.23,-0.16 0.37625,-0.17625 0.14625,-0.01625 0.31,0.01875 0.49375,0.1075 0.29,0.13875 0.525,0.32875 0.70125,0.5725 l -0.0825,0.64375 c -0.1875,-0.26375 -0.38625,-0.4475 -0.5975,-0.54875 -0.18875,-0.08875 -0.34,-0.07 -0.4525,0.06 -0.11125,0.12875 -0.175,0.345 -0.1875,0.64875 -0.01375,0.3025 0.02625,0.56875 0.1225,0.7975 0.09625,0.22875 0.23875,0.3875 0.4275,0.47875 0.21125,0.10125 0.4175,0.11125 0.62125,0.03125 l 0.0212,0.695 c -0.19,0.0675 -0.43125,0.0325 -0.72125,-0.10625"
       id="path9008"
       style="fill:none;stroke:#ffffff;stroke-width:0.29999998;stroke-linecap:butt;stroke-linejoin:miter;stroke-miterlimit:10;stroke-opacity:1;stroke-dasharray:none" />
    <path
       d="m 102.60714,83.408505 -0.55,-0.2625 -0.001,-0.19375 c -0.1725,0.09 -0.35125,0.09125 -0.5375,0.0013 -0.67,-0.31875 -0.9825,-0.98625 -0.93625,-2.00125 l 0.0775,-1.7 0.5875,0.28 -0.0775,1.7 c -0.0125,0.295 0.015,0.53125 0.0825,0.7075 0.0675,0.1775 0.18375,0.30375 0.3475,0.3825 0.18375,0.0875 0.33625,0.07 0.45875,-0.0525 l 0.10375,-2.30125 0.5875,0.28125 -0.1425,3.15875 z"
       id="path9012"
       style="fill:none;stroke:#ffffff;stroke-width:0.29999998;stroke-linecap:butt;stroke-linejoin:miter;stroke-miterlimit:10;stroke-opacity:1;stroke-dasharray:none" />
    <path
       d="m 103.91826,83.439755 -0.0812,0.62 -0.21375,-0.10125 c -0.20125,-0.09625 -0.35,-0.24625 -0.44375,-0.4475 -0.095,-0.2025 -0.13625,-0.425 -0.125,-0.67 l 0.18,-3.97375 0.5875,0.28 -0.165,3.6525 c -0.006,0.12125 -0.007,0.2175 -0.006,0.2875 0.002,0.07 0.0112,0.12375 0.0287,0.165 0.0175,0.04125 0.045,0.075 0.0825,0.1 0.0375,0.02875 0.09,0.05625 0.15625,0.0875 z"
       id="path9016"
       style="fill:none;stroke:#ffffff;stroke-width:0.29999998;stroke-linecap:butt;stroke-linejoin:miter;stroke-miterlimit:10;stroke-opacity:1;stroke-dasharray:none" />
    <path
       d="m 106.20164,85.12313 -0.55,-0.2625 -0.001,-0.19375 c -0.1725,0.09 -0.35125,0.09 -0.5375,0.0012 -0.67,-0.31875 -0.98125,-0.98625 -0.93625,-2.00125 l 0.0775,-1.70125 0.5875,0.28125 -0.0775,1.7 c -0.0125,0.295 0.015,0.53125 0.0825,0.7075 0.0675,0.17625 0.18375,0.30375 0.3475,0.3825 0.18375,0.08625 0.33625,0.07 0.45875,-0.0525 l 0.10375,-2.30125 0.5875,0.28 -0.1425,3.16 z"
       id="path9020"
       style="fill:none;stroke:#ffffff;stroke-width:0.29999998;stroke-linecap:butt;stroke-linejoin:miter;stroke-miterlimit:10;stroke-opacity:1;stroke-dasharray:none" />
    <path
       d="m 107.35752,85.74013 c -0.36,-0.1725 -0.62375,-0.3775 -0.79125,-0.6175 l 0.0837,-0.64375 c 0.035,0.055 0.0812,0.11625 0.13875,0.1825 0.0563,0.065 0.11625,0.12875 0.18,0.19 0.0637,0.06 0.13,0.115 0.19875,0.1675 0.0688,0.0525 0.13375,0.09375 0.1975,0.12375 0.1325,0.0625 0.2275,0.07375 0.28375,0.0325 0.0575,-0.04125 0.0888,-0.11 0.0925,-0.2075 0.004,-0.0925 -0.0113,-0.1725 -0.0475,-0.24 -0.0362,-0.06625 -0.0888,-0.13375 -0.1575,-0.20375 -0.07,-0.07 -0.155,-0.14875 -0.25375,-0.2375 -0.0988,-0.0875 -0.21,-0.20375 -0.3325,-0.34875 -0.0925,-0.1175 -0.16,-0.2375 -0.20125,-0.36375 -0.0425,-0.12625 -0.065,-0.285 -0.0662,-0.47375 0.006,-0.13 0.0288,-0.24875 0.0675,-0.35125 0.0375,-0.105 0.0937,-0.1875 0.1675,-0.2475 0.0738,-0.05875 0.16625,-0.09 0.27875,-0.09625 0.11125,-0.005 0.245,0.03 0.4,0.10375 0.145,0.06875 0.28625,0.16125 0.425,0.27375 0.13875,0.11375 0.24125,0.21875 0.30875,0.315 l -0.0838,0.645 c -0.0325,-0.05875 -0.0725,-0.12 -0.11875,-0.185 -0.0475,-0.06625 -0.0988,-0.12875 -0.155,-0.1875 -0.055,-0.06 -0.11375,-0.1125 -0.17625,-0.1625 -0.0625,-0.04875 -0.12375,-0.08625 -0.18375,-0.11625 -0.11375,-0.05375 -0.20875,-0.06875 -0.285,-0.04875 -0.0775,0.02125 -0.11875,0.09 -0.12375,0.20875 -0.005,0.10125 0.0162,0.18875 0.0637,0.2625 0.0463,0.07375 0.11,0.1525 0.19,0.2325 l 0.0787,0.07125 c 0.0187,0.0175 0.0487,0.04375 0.0913,0.07875 0.0412,0.035 0.0737,0.06125 0.0962,0.08125 0.095,0.085 0.1825,0.17125 0.26125,0.26 0.0787,0.08875 0.14375,0.185 0.1975,0.2875 0.0538,0.10375 0.0925,0.215 0.1175,0.33375 0.025,0.12 0.035,0.25125 0.0288,0.395 -0.0275,0.61875 -0.35125,0.78125 -0.97125,0.48625"
       id="path9024"
       style="fill:none;stroke:#ffffff;stroke-width:0.29999998;stroke-linecap:butt;stroke-linejoin:miter;stroke-miterlimit:10;stroke-opacity:1;stroke-dasharray:none" />
    <path
       d="m 108.42928,83.021249 0.10625,0.05 -0.02,0.4125 0.0875,0.04125 0.0175,-0.41125 0.10375,0.0475 0.015,-0.1075 -0.30375,-0.145 -0.006,0.1125 z m 0.2775,0.555 0.09,0.04125 0.0438,-0.2925 0.0725,0.21875 0.0125,0.0037 0.09,-0.13875 0.015,0.32 0.09,0.0425 -0.03,-0.55 -0.0563,-0.02625 -0.10625,0.16875 -0.0888,-0.2625 -0.0538,-0.025 -0.0787,0.5 z"
       id="path9028"
       style="fill:#0d0d0d;fill-opacity:1;fill-rule:nonzero;stroke:none" />
    <path
       d="m 89.76964,73.23638 c -0.72625,-0.34625 -1.3525,0.15875 -1.39625,1.12625 -0.04375,0.97 0.51125,2.0375 1.2375,2.38375 0.7275,0.3475 1.3525,-0.1575 1.39625,-1.12625 0.04375,-0.96875 -0.51,-2.03625 -1.2375,-2.38375 m 3.85375,3.6325 c 0,0 -1.63375,2.1375 -4.0625,0.98 -2.4275,-1.15875 -3.8025,-4.7325 -3.8025,-4.7325 0,0 1.63375,-2.13875 4.06125,-0.98125 2.42875,1.15875 3.80375,4.73375 3.80375,4.73375 z"
       id="path9040"
       style="fill:none;stroke:#ffffff;stroke-width:0.39999998;stroke-linecap:butt;stroke-linejoin:miter;stroke-miterlimit:10;stroke-opacity:1;stroke-dasharray:none" />
    <path
       d="m 89.72564,74.21663 c -0.32125,-0.15375 -0.5975,0.07 -0.61625,0.49875 -0.02,0.4275 0.225,0.89875 0.54625,1.0525 0.32125,0.1525 0.5975,-0.07125 0.61625,-0.4975 0.02,-0.42875 -0.225,-0.9 -0.54625,-1.05375"
       id="path9044"
       style="fill:none;stroke:#ffffff;stroke-width:0.39999998;stroke-linecap:butt;stroke-linejoin:miter;stroke-miterlimit:10;stroke-opacity:1;stroke-dasharray:none" />
  </g>
</svg>
