<?xml version="1.0" encoding="UTF-8" standalone="no"?>
<!-- Created with Inkscape (http://www.inkscape.org/) -->

<svg
   xmlns:dc="http://purl.org/dc/elements/1.1/"
   xmlns:cc="http://creativecommons.org/ns#"
   xmlns:rdf="http://www.w3.org/1999/02/22-rdf-syntax-ns#"
   xmlns:svg="http://www.w3.org/2000/svg"
   xmlns="http://www.w3.org/2000/svg"
   xmlns:sodipodi="http://sodipodi.sourceforge.net/DTD/sodipodi-0.dtd"
   xmlns:inkscape="http://www.inkscape.org/namespaces/inkscape"
   version="1.1"
   width="160"
   height="160"
   viewBox="0 0 160 160"
   id="svg37485"
   inkscape:version="0.48.2 r9819"
   sodipodi:docname="bubble-topic-hci.svg">
  <sodipodi:namedview
     pagecolor="#ffffff"
     bordercolor="#666666"
     borderopacity="1"
     objecttolerance="10"
     gridtolerance="10"
     guidetolerance="10"
     inkscape:pageopacity="0"
     inkscape:pageshadow="2"
     inkscape:window-width="1078"
     inkscape:window-height="714"
     id="namedview3365"
     showgrid="false"
     inkscape:zoom="2.95"
     inkscape:cx="7.7659648"
     inkscape:cy="43.813192"
     inkscape:window-x="0"
     inkscape:window-y="0"
     inkscape:window-maximized="0"
     inkscape:current-layer="svg37485" />
  <defs
     id="defs37487">
    <clipPath
       id="clipPath36809">
      <path
         d="m 573.31,79.807 149.38,0 0,170.584 -149.38,0 0,-170.584 z"
         id="path36811" />
    </clipPath>
  </defs>
  <metadata
     id="metadata37490">
    <rdf:RDF>
      <cc:Work
         rdf:about="">
        <dc:format>image/svg+xml</dc:format>
        <dc:type
           rdf:resource="http://purl.org/dc/dcmitype/StillImage" />
        <dc:title />
      </cc:Work>
    </rdf:RDF>
  </metadata>
  <g
     transform="matrix(4.7978498,0,0,4.7978498,-15.476885,-4859.5848)"
     id="layer1">
    <path
       d="m 11.445428,1022.2984 0,-7.2392 25.06514,0 0,48.1558 -25.06514,0 0,-10.3386"
       id="path40780"
       style="fill:none;stroke:#ffffff;stroke-width:0.127;stroke-linecap:butt;stroke-linejoin:miter;stroke-miterlimit:10;stroke-opacity:1;stroke-dasharray:none"
       inkscape:connector-curvature="0" />
    <path
       d="m 6.1069293,1050.822 c 0,0 -0.5393894,-0.024 -0.6763723,-0.041 -0.1376372,-0.015 -0.4178441,-0.1606 -0.596874,-0.2857"
       id="path41068"
       style="fill:#ffffff;fill-opacity:1;fill-rule:nonzero;stroke:none"
       inkscape:connector-curvature="0" />
    <path
       d="m 8.7767047,1027.28 c -0.049607,0 -0.095583,-0.014 -0.1369875,-0.03 -0.1172706,-0.057 -0.1606333,-0.1761 -0.1744289,-0.2252 -0.030884,-0.1117 -0.1402665,-0.458 -0.2168085,-0.609 -0.018725,-0.035 -0.036795,-0.067 -0.052891,-0.098 -0.055193,-0.1004 -0.099207,-0.1809 -0.1136664,-0.3205 -0.018059,-0.1777 0.049609,-0.3318 0.122203,-0.3587 0.095259,-0.036 0.1938131,0.059 0.2729789,0.1359 0.022671,0.023 0.043036,0.041 0.05978,0.053 l -0.056831,0.076 c -0.019049,-0.014 -0.042378,-0.035 -0.067995,-0.061 -0.047308,-0.046 -0.1353337,-0.13 -0.1747593,-0.1152 -0.019051,0.014 -0.076861,0.1128 -0.062096,0.2611 0.012847,0.1197 0.048943,0.1849 0.1031545,0.2842 0.01675,0.031 0.034483,0.063 0.0542,0.1003 0.085738,0.1696 0.1990687,0.5378 0.223705,0.6268 0.00961,0.038 0.042373,0.1256 0.1248326,0.1653 0.067013,0.033 0.1560339,0.027 0.2634523,-0.019 l 0.036466,0.086 c -0.073911,0.031 -0.141906,0.047 -0.2043237,0.047"
       id="path41076"
       style="fill:#ffffff;fill-opacity:1;fill-rule:nonzero;stroke:none"
       inkscape:connector-curvature="0" />
    <path
       d="m 9.0174266,1027.3325 c -0.1363237,-0.1241 -0.3307952,-0.5949 -0.4336141,-0.8587 -0.1034702,-0.2644 -0.4319709,-1.261 -0.4171885,-1.7472 0.014179,-0.4864 0.046969,-2.2246 1.7406939,-2.3747 0,0 1.9732681,-0.6948 2.8881271,0.9855 0.807768,1.4829 0.05059,2.6711 -0.150779,3.2899 -0.201367,0.6186 -0.398465,0.8896 -0.62447,1.0465 l -0.01418,-0.076 c 0,0 -0.461533,0.2927 -0.58439,0.3024 l 0.03482,-0.077 c 0,0 -0.62381,0.162 -0.741741,0.158 l -0.02989,-0.1181 c 0,0 -0.7594804,0.085 -1.0623501,0.024 -0.00624,0 -0.1218788,-0.1917 -0.1218788,-0.1917 L 9.01737,1027.3328 z"
       id="path41080"
       style="fill:none;stroke:#ffffff;stroke-width:0.1;stroke-miterlimit:10;stroke-dasharray:none"
       inkscape:connector-curvature="0" />
    <path
       d="m 12.662043,1027.3798 c -0.06865,0 -0.146514,-0.035 -0.237173,-0.1061 l 0.05815,-0.073 c 0.08475,0.066 0.154721,0.095 0.202351,0.083 0.05553,-0.014 0.08705,-0.089 0.112349,-0.1476 0.0091,-0.023 0.01806,-0.041 0.02662,-0.057 0.01709,-0.032 0.04402,-0.097 0.07556,-0.1731 0.0647,-0.1559 0.152422,-0.3693 0.252612,-0.5286 0.156363,-0.2469 0.09459,-0.4986 0.08737,-0.5267 -0.03744,-0.1404 -0.06799,-0.1537 -0.0772,-0.1538 -0.0358,0 -0.06603,0.022 -0.108072,0.07 l -0.06997,-0.063 c 0.03679,-0.039 0.0979,-0.1083 0.186913,-0.099 0.09033,0.014 0.131064,0.1182 0.159321,0.2241 0.01447,0.052 0.0749,0.3259 -0.09854,0.6008 -0.09591,0.1527 -0.181987,0.3607 -0.245058,0.5138 -0.03449,0.083 -0.06078,0.1485 -0.08048,0.1832 -0.0076,0.014 -0.01478,0.029 -0.02267,0.047 -0.03185,0.076 -0.0749,0.1758 -0.175746,0.2024 -0.01448,0 -0.03055,0 -0.04631,0"
       id="path41084"
       style="fill:#ffffff;fill-opacity:1;fill-rule:nonzero;stroke:none"
       inkscape:connector-curvature="0" />
    <path
       d="m 9.0235679,1028.5035 -0.1409309,-0.014 c 0.031211,-0.455 0.01806,-1.4394 0.011806,-1.6508 l 0.1415813,0 c 0.00624,0.2123 0.019712,1.2046 -0.012555,1.6645"
       id="path41088"
       style="fill:#ffffff;fill-opacity:1;fill-rule:nonzero;stroke:none"
       inkscape:connector-curvature="0" />
    <path
       d="m 12.397211,1028.8053 -0.01709,-0.596 c -0.02168,-0.7208 -0.023,-0.7796 -0.0057,-1.1338 l 0.141256,0 c -0.01742,0.349 -0.01577,0.4074 0.0057,1.1226 l 0.01675,0.5963 -0.140931,0 z"
       id="path41092"
       style="fill:#ffffff;fill-opacity:1;fill-rule:nonzero;stroke:none"
       inkscape:connector-curvature="0" />
    <path
       d="m 12.679518,1029.4192 c -0.03185,-0.062 -0.05847,-0.1197 -0.08704,-0.1791 l -0.08245,-0.178 c -0.02726,-0.061 -0.05387,-0.118 -0.08015,-0.1815 -0.0089,-0.02 -0.01083,-0.031 -0.01742,-0.044 l -0.01839,-0.043 c -0.01343,-0.028 -0.02726,-0.058 -0.04206,-0.085 l 0.0062,0.014 c -0.04598,-0.054 -0.113325,-0.1128 -0.178372,-0.1584 -0.06768,-0.049 -0.139277,-0.09 -0.213194,-0.1285 -0.149136,-0.076 -0.308457,-0.13 -0.47139,-0.1695 -0.328494,-0.081 -0.66783,-0.092 -1.009136,-0.078 -0.340649,0.014 -0.6835968,0.046 -1.0035522,0.1432 -0.079828,0.025 -0.157349,0.054 -0.2312597,0.091 -0.075544,0.035 -0.1396158,0.082 -0.2233768,0.127 -0.14815,0.058 -0.2095793,0.2047 -0.2736359,0.3665 l -6.561e-4,0 -0.00134,0 c -0.038435,0.077 -0.077849,0.1512 -0.1189094,0.2263 l -0.061759,0.1139 -0.032844,0.057 -0.018386,0.03 c -0.00701,0.014 -0.011825,0.018 -0.026936,0.034 l -0.084091,-0.085 c -3.158e-4,0 0.00654,-0.014 0.010829,-0.016 l 0.01543,-0.025 0.030219,-0.053 0.05978,-0.1106 0.1143157,-0.2259 -0.00192,0 c 0.030548,-0.077 0.062739,-0.1655 0.113991,-0.2449 0.025303,-0.039 0.056485,-0.078 0.093949,-0.1105 0.018723,-0.018 0.039098,-0.033 0.060779,-0.046 0.023641,-0.014 0.047311,-0.024 0.061749,-0.033 0.06636,-0.037 0.1448589,-0.09 0.224691,-0.1301 0.080481,-0.039 0.1649033,-0.072 0.2493272,-0.099 0.3406474,-0.106 0.6908252,-0.1374 1.0377152,-0.1543 0.346561,-0.015 0.703635,0 1.046584,0.084 0.171802,0.043 0.339664,0.1015 0.498984,0.1824 0.07916,0.041 0.156364,0.087 0.22896,0.1403 0.07325,0.054 0.140931,0.1083 0.205638,0.1857 l 0.003,0 0.0035,0 c 0.01448,0.032 0.02922,0.059 0.04336,0.09 l 0.02005,0.047 c 0.0065,0.014 0.01374,0.037 0.01774,0.046 0.02233,0.058 0.0496,0.118 0.07523,0.177 l 0.07983,0.1782 c 0.02662,0.059 0.05452,0.1195 0.08179,0.1739 l -0.105456,0.057 z"
       id="path41096"
       style="fill:#ffffff;fill-opacity:1;fill-rule:nonzero;stroke:none"
       inkscape:connector-curvature="0" />
    <path
       d="m 15.240628,1038.4361 0,-0.095 c 0.743057,0 1.747593,-0.2919 2.231137,-0.4333 0.123178,-0.035 0.212538,-0.062 0.254913,-0.071 0.08279,-0.015 0.138951,-0.03 0.160305,-0.066 0.02957,-0.05 0.01181,-0.1664 -0.05322,-0.3636 -0.102828,-0.3107 -0.275606,-1.6728 -0.513765,-4.0494 -0.127137,-1.2719 -0.638594,-1.9234 -0.643521,-1.9296 l -0.0089,-0.014 c -0.06373,-0.058 -0.479273,-0.2812 -0.654359,-0.3561 -0.178702,-0.077 -1.24631,-0.539 -1.24631,-0.539 -0.0161,-0.014 -1.106371,-0.6524 -2.217996,-1.1228 -1.219375,-0.2628 -2.515944,-0.2737 -3.8440485,-0.028 -0.7019921,0.1692 -2.199601,0.9418 -3.0040846,1.357 -0.2335602,0.1211 -0.4020772,0.2086 -0.4638345,0.2353 -0.2558978,0.1094 -0.4648204,0.2761 -0.4960274,0.3143 l -0.015442,0.014 c -0.013468,0 -0.3298084,0.1707 -0.3603585,0.5989 l -0.00329,0.015 c -0.00493,0.014 -0.4589073,1.0479 -0.4589073,1.7216 0,0.4054 -0.137968,1.4386 -0.2483419,2.2692 -0.080153,0.6016 -0.1497937,1.1212 -0.1448668,1.2346 l 6.568e-4,0.014 -0.00329,0.014 c -0.091978,0.2292 -0.1869136,0.494 -0.1869136,0.5399 0,0.037 0.039419,0.043 0.051246,0.044 l 0.012155,0 c 0.00854,0 0.8783952,0.3137 1.4427492,0.3775 0.4973414,0.058 1.3277767,0.1181 1.3359884,0.1181 l -0.00699,0.095 c -0.00891,0 -0.8406177,-0.062 -1.3399297,-0.1182 -0.5581129,-0.063 -1.3770504,-0.3524 -1.4585172,-0.3813 -0.048617,0 -0.1310691,-0.041 -0.1310691,-0.1374 0,-0.086 0.1501222,-0.4671 0.1892131,-0.5657 -9.702e-4,-0.1373 0.064058,-0.6261 0.1458519,-1.2405 0.1103737,-0.8276 0.2476851,-1.8583 0.2476851,-2.2566 0,-0.6708 0.4185023,-1.6495 0.4635062,-1.7526 0.035149,-0.4435 0.345248,-0.6334 0.4027346,-0.6638 0.055188,-0.058 0.2657526,-0.2221 0.5249349,-0.3341 0.058475,-0.025 0.2256756,-0.1105 0.457264,-0.2308 0.808426,-0.4173 2.3122749,-1.194 3.028394,-1.3664 1.3425579,-0.2477 2.6512829,-0.2373 3.8916789,0.033 1.125423,0.4743 2.220297,1.1204 2.232452,1.1277 9.6e-4,0 1.062679,0.4599 1.241051,0.5361 0.0065,0 0.605088,0.2812 0.697724,0.3977 l 0.0013,0 c 0.02201,0.027 0.533804,0.6778 0.664216,1.9798 0.2375,2.3696 0.40832,3.7253 0.509168,4.0298 0.07884,0.2366 0.09132,0.3593 0.04468,0.4392 -0.04336,0.077 -0.134683,0.095 -0.222721,0.1128 -0.0381,0.014 -0.126146,0.033 -0.247027,0.067 -0.487487,0.1418 -1.501222,0.4377 -2.257416,0.4377"
       id="path41104"
       style="fill:#ffffff;fill-opacity:1;fill-rule:nonzero;stroke:none"
       inkscape:connector-curvature="0" />
    <path
       d="m 4.7881213,1031.4096 c 0.2338873,-0.08 0.4585781,-0.1824 0.6862254,-0.2766 l 0.6829406,-0.2891 c 0.4569368,-0.1856 0.914529,-0.3731 1.3898611,-0.5157 0.1189093,-0.034 0.2437438,-0.063 0.3659443,-0.08 0.1231775,-0.018 0.246699,-0.032 0.369555,-0.043 0.2473581,-0.023 0.494057,-0.034 0.7414149,-0.042 0.4943835,-0.014 0.9907394,-0.014 1.4821674,0.018 0.491429,0.014 0.983514,-0.034 1.482824,-0.018 0.250315,0.02 0.493072,0.071 0.733859,0.1271 0.241772,0.057 0.480588,0.121 0.718089,0.1907 0.236845,0.07 0.472704,0.1448 0.70725,0.2225 0.234217,0.08 0.468106,0.1579 0.697395,0.2556 l 0.672756,0.3096 0.335066,0.1588 0.166547,0.082 c 0.05452,0.028 0.111367,0.053 0.162276,0.09 l -0.0022,0 c -0.104463,-0.063 -0.22042,-0.1094 -0.331779,-0.162 l -0.339008,-0.1495 -0.680313,-0.2926 c -0.226005,-0.091 -0.46252,-0.1671 -0.696737,-0.2431 -0.234874,-0.076 -0.47106,-0.1447 -0.708891,-0.2119 -0.237174,-0.065 -0.47599,-0.1285 -0.715463,-0.1833 -0.239472,-0.054 -0.481244,-0.1049 -0.724001,-0.1225 -0.487488,-0.014 -0.98253,0.033 -1.478884,0.024 -0.494056,-0.027 -0.985485,-0.038 -1.4788848,-0.025 -0.2457133,0 -0.4917561,0.018 -0.7377987,0.038 -0.122204,0.014 -0.2444002,0.024 -0.3662714,0.039 -0.122203,0.014 -0.2391449,0.039 -0.3580608,0.072 -0.4730321,0.1343 -0.9329243,0.3156 -1.3931447,0.4946 l -0.6895113,0.27 c -0.2296189,0.089 -0.4575933,0.1857 -0.693124,0.2599"
       id="path41108"
       style="fill:#ffffff;fill-opacity:1;fill-rule:nonzero;stroke:none"
       inkscape:connector-curvature="0" />
    <path
       d="m 10.901015,1030.2021 c -0.08771,0.3802 -0.140265,0.7697 -0.180672,1.1596 -0.0391,0.3902 -0.06274,0.7821 -0.07031,1.175 -0.0065,0.3919 0.0019,0.7844 0.03252,1.1763 0.03153,0.391 0.08378,0.7819 0.178703,1.1631 l -3.15e-4,0 c -0.101508,-0.3796 -0.160635,-0.7698 -0.199396,-1.1616 -0.03712,-0.3911 -0.05322,-0.7849 -0.05289,-1.1786 9.6e-4,-0.3939 0.01742,-0.7873 0.04993,-1.1799 0.03417,-0.3923 0.08048,-0.7843 0.162606,-1.1719 l 0.07983,0.018 z"
       id="path41112"
       style="fill:#ffffff;fill-opacity:1;fill-rule:nonzero;stroke:none"
       inkscape:connector-curvature="0" />
    <path
       d="m 10.194883,1030.1829 c 0.03219,0.1499 0.04894,0.2976 0.06669,0.4461 0.01643,0.1485 0.03022,0.2974 0.04205,0.4458 0.0243,0.297 0.04138,0.5942 0.05158,0.8925 0.0099,0.2974 0.01374,0.5953 0.0076,0.8932 -0.0078,0.2983 -0.02364,0.5952 -0.06176,0.8906 0.03121,-0.296 0.04073,-0.5933 0.04073,-0.8906 0,-0.2979 -0.01049,-0.5945 -0.02726,-0.8915 -0.01709,-0.297 -0.04106,-0.593 -0.07194,-0.889 -0.01543,-0.1477 -0.03284,-0.295 -0.05257,-0.4423 -0.02038,-0.1463 -0.04106,-0.2941 -0.0749,-0.4354 l 0.07983,-0.019 z"
       id="path41116"
       style="fill:#ffffff;fill-opacity:1;fill-rule:nonzero;stroke:none"
       inkscape:connector-curvature="0" />
    <path
       d="m 5.4400186,1049.2949 c -0.00722,-0.085 -0.021015,-0.1674 -0.027264,-0.2529 -0.00293,-0.043 -0.00756,-0.083 0,-0.133 9.703e-4,0 0.00192,0 0.0035,-0.014 l 0.00192,0 0,0 0.00271,0 9.703e-4,-2e-4 0.00271,0 c 0.00947,-0.014 0.01543,-0.014 0.020371,-0.014 0.01049,0 0.020699,-0.014 0.030558,-0.014 l 0.059456,-0.024 c 0.078519,-0.031 0.1557064,-0.063 0.2286331,-0.1038 0.070623,-0.041 0.1422303,-0.09 0.1800145,-0.1671 -0.022999,0.085 -0.09263,0.1477 -0.1626051,0.195 -0.071278,0.051 -0.1504511,0.084 -0.228632,0.1182 l -0.05781,0.025 c -0.00914,0 -0.018409,0.014 -0.025955,0.014 -0.00428,0 -0.00722,0 -0.00587,0 0,0 -0.00135,0 -0.00192,0 l -3.147e-4,0 c 6.565e-4,0 -0.00271,0 0.00158,0 l -6.576e-4,3e-4 c 0,-3e-4 -3.158e-4,0 -9.702e-4,0 -0.00587,0.034 -0.00395,0.08 -0.00485,0.1197 -6.565e-4,0.085 0.00237,0.1697 -0.015431,0.2543"
       id="path41120"
       style="fill:#ffffff;fill-opacity:1;fill-rule:nonzero;stroke:none"
       inkscape:connector-curvature="0" />
    <path
       d="m 5.782441,1048.7623 c 0.022673,0.059 0.036141,0.1209 0.048616,0.1829 0.010829,0.062 0.020045,0.1241 0.022999,0.1888 -0.00226,0.058 0.016096,0.1167 0.029892,0.1757 0.00654,0.032 0.015104,0.061 0.023315,0.09 0.00959,0.03 0.01577,0.061 0.036141,0.084 -0.031212,-0.014 -0.048943,-0.044 -0.066033,-0.071 -0.01675,-0.028 -0.030219,-0.057 -0.042051,-0.086 -0.01128,-0.031 -0.021681,-0.061 -0.029249,-0.091 -0.00395,-0.015 -0.00756,-0.033 -0.00959,-0.049 -9.702e-4,-0.014 -0.00192,-0.019 -0.00158,-0.028 l 6.575e-4,-0.023 c -0.00428,-0.1225 -0.012847,-0.2473 -0.013141,-0.3735"
       id="path41124"
       style="fill:#ffffff;fill-opacity:1;fill-rule:nonzero;stroke:none"
       inkscape:connector-curvature="0" />
    <path
       d="m 6.0767698,1048.3329 c -0.075564,-0.4195 -0.3322361,-0.8542 -0.5372175,-1.1045 -0.075892,-0.091 -0.1304147,-0.1589 -0.1560347,-0.2062 -0.079828,-0.1485 -0.3192974,-0.7279 -0.053534,-1.9529 0.2450566,-1.1258 0.4191582,-4.1519 0.4332841,-4.6038 0.00699,-0.2419 0.104463,-0.816 0.1908567,-1.3223 0.052565,-0.3091 0.097571,-0.576 0.109054,-0.6922 l 0.1882274,0.019 c -0.012555,0.1225 -0.058802,0.3923 -0.1116822,0.7047 -0.080482,0.4757 -0.1810004,1.0677 -0.1882274,1.2966 -0.00947,0.2991 -0.1741028,3.4291 -0.4368982,4.6381 -0.2591835,1.1917 -0.016096,1.7282 0.035149,1.8234 0.017089,0.032 0.071943,0.099 0.1353484,0.1761 0.2174639,0.265 0.4931989,0.7235 0.5769645,1.1912 l -0.185271,0.033 z"
       id="path41132"
       style="fill:#ffffff;fill-opacity:1;fill-rule:nonzero;stroke:none"
       inkscape:connector-curvature="0" />
    <path
       d="m 3.8675798,1039.7389 c 0.039419,0.1609 0.058473,0.3263 0.061428,0.4924 0,0.083 -0.00395,0.1663 -0.01741,0.249 -0.01248,0.083 -0.034821,0.1657 -0.077196,0.2389 0.018068,-0.082 0.02168,-0.163 0.025951,-0.244 0.00263,-0.081 0.00329,-0.1618 0.00196,-0.2435 -3.153e-4,-0.163 -0.00722,-0.3265 0.00525,-0.4928"
       id="path41136"
       style="fill:#ffffff;fill-opacity:1;fill-rule:nonzero;stroke:none"
       inkscape:connector-curvature="0" />
    <path
       d="m 4.1534687,1040.9302 c 0.041062,0.014 0.074896,0 0.1061043,-0.019 0.030878,-0.018 0.058801,-0.041 0.082453,-0.07 0.025294,-0.027 0.045004,-0.058 0.061757,-0.09 0.016095,-0.034 0.027923,-0.068 0.03285,-0.1094 0.017739,0.037 0.018069,0.083 0.00756,0.124 -0.010174,0.041 -0.032192,0.082 -0.060115,0.1128 -0.029237,0.033 -0.064714,0.059 -0.1077466,0.073 -0.040733,0.014 -0.093949,0.014 -0.1228573,-0.02"
       id="path41140"
       style="fill:#ffffff;fill-opacity:1;fill-rule:nonzero;stroke:none"
       inkscape:connector-curvature="0" />
    <path
       d="m 17.681018,1037.8929 c -9.61e-4,0.2614 0.0046,0.359 0.0091,0.6175 0.0065,0.2585 0.01675,0.518 0.05551,0.767 0.04369,0.2504 0.09921,0.5106 0.144534,0.7664 0.04664,0.2583 0.08869,0.517 0.122853,0.7776 0.03252,0.2609 0.0588,0.5235 0.05815,0.7913 -0.003,0.2641 -0.01675,0.5246 -0.02957,0.7858 -0.02759,0.5214 -0.06176,1.0416 -0.09459,1.5623 l -0.09888,1.561 c -0.01418,0.2592 -0.03121,0.5216 -0.03352,0.7766 0.0039,0.2635 -0.01152,0.5285 -0.04172,0.789 -0.01284,0.1285 -0.02957,0.2586 -0.02005,0.3771 0.01128,0.1255 0.03252,0.2543 0.0519,0.3827 l 0.127461,0.7716 c 0.01971,0.13 0.0404,0.2586 0.05257,0.3923 0.0022,0.035 0.0059,0.067 0.003,0.1083 -6.57e-4,0.014 -0.003,0.038 -0.0059,0.054 -0.0033,0.018 -0.0065,0.034 -0.01049,0.052 -0.01675,0.067 -0.03843,0.1315 -0.06143,0.1942 -0.04567,0.124 -0.09525,0.2434 -0.135333,0.3648 -0.03975,0.1212 -0.07293,0.2435 -0.07653,0.3622 l -9.61e-4,0.022 -0.01284,0.015 -0.04664,0.058 0.0096,-0.015 c -0.0253,0.061 -0.06636,0.1004 -0.106111,0.1344 -0.03975,0.033 -0.08279,0.059 -0.124831,0.084 l -0.247686,0.1359 -0.49307,0.2705 -0.0057,0 -0.0027,0 c -0.02989,0.014 -0.05126,0.014 -0.07884,0 -0.02595,0 -0.05289,-0.014 -0.07457,-0.03 -0.04567,-0.034 -0.06405,-0.083 -0.07325,-0.1241 -0.0035,-0.015 -0.0033,-0.019 -0.0048,-0.031 -6.58e-4,-0.014 -6.58e-4,-0.027 6.56e-4,-0.038 0.0024,-0.025 0.0085,-0.047 0.0184,-0.068 0.01839,-0.043 0.04894,-0.076 0.07949,-0.1015 0.06307,-0.052 0.134019,-0.084 0.203997,-0.1094 0.07128,-0.027 0.142896,-0.043 0.215822,-0.061 -0.06307,0.041 -0.129101,0.076 -0.191514,0.1105 -0.06241,0.037 -0.122528,0.077 -0.169174,0.1226 -0.04631,0.049 -0.06965,0.1005 -0.0542,0.153 0.01418,0.062 0.04927,0.083 0.09263,0.07 l -0.0083,0 0.488472,-0.2789 0.242757,-0.1404 c 0.03843,-0.024 0.0749,-0.047 0.106426,-0.073 0.03153,-0.027 0.0588,-0.057 0.06768,-0.083 l 0.0039,-0.014 0.0065,-0.014 0.04599,-0.058 -0.01374,0.038 c 0.0035,-0.1432 0.03942,-0.2748 0.08048,-0.4009 0.04073,-0.127 0.09066,-0.2491 0.133694,-0.3698 0.02168,-0.059 0.04269,-0.1211 0.05651,-0.1791 0.0033,-0.014 0.0065,-0.029 0.0089,-0.043 0.0027,-0.015 0.0035,-0.024 0.0046,-0.041 0.0019,-0.025 -9.6e-4,-0.057 -0.0033,-0.086 -0.01181,-0.1255 -0.03252,-0.2549 -0.05223,-0.3832 l -0.128421,-0.7712 c -0.02037,-0.13 -0.04206,-0.2577 -0.0542,-0.3922 -0.01181,-0.1417 0.0076,-0.2726 0.01938,-0.4026 0.02826,-0.2586 0.04138,-0.5145 0.0358,-0.7729 6.57e-4,-0.2665 0.0161,-0.5255 0.02859,-0.7872 l 0.08902,-1.562 c 0.02989,-0.5206 0.06078,-1.0409 0.08475,-1.5612 0.01181,-0.2596 0.02364,-0.5212 0.0243,-0.7782 -6.57e-4,-0.254 -0.02792,-0.5112 -0.06175,-0.7675 -0.03449,-0.2563 -0.07785,-0.5114 -0.126148,-0.7664 -0.04664,-0.2572 -0.102826,-0.5071 -0.150121,-0.7706 -0.04269,-0.2654 -0.0542,-0.5298 -0.06208,-0.7918 -0.007,-0.2623 -0.0039,-0.3291 -0.0048,-0.5898 l 0.186585,-0.033 z"
       id="path41144"
       style="fill:#ffffff;fill-opacity:1;fill-rule:nonzero;stroke:none"
       inkscape:connector-curvature="0" />
    <path
       d="m 16.048824,1048.7009 c 0.09362,0.054 0.186257,0.086 0.284478,0.1153 0.09723,0.03 0.19841,0.054 0.301228,0.1083 0.02596,0.014 0.05158,0.033 0.07457,0.057 0.01049,0.014 0.02168,0.025 0.02989,0.039 l 0.003,0 0.003,0 6.58e-4,0 0.0039,0.014 c 0.0027,0 0.0062,0.015 0.0089,0.024 0.01872,0.063 0.0085,0.1227 -0.003,0.1761 -0.01418,0.053 -0.03186,0.1016 -0.04796,0.1511 -0.01345,0.049 -0.03284,0.1004 -0.0048,0.1461 -0.02135,-0.015 -0.03417,-0.044 -0.03711,-0.072 -0.0043,-0.028 -0.0022,-0.056 -6.56e-4,-0.083 0.0043,-0.056 0.01543,-0.1061 0.01872,-0.1554 0.0059,-0.05 0.0033,-0.097 -0.01128,-0.136 -0.01448,-0.038 -0.04369,-0.059 -0.08574,-0.082 -0.08378,-0.041 -0.188883,-0.063 -0.286447,-0.1094 -0.09757,-0.043 -0.198082,-0.106 -0.251299,-0.2034"
       id="path41148"
       style="fill:#ffffff;fill-opacity:1;fill-rule:nonzero;stroke:none"
       inkscape:connector-curvature="0" />
    <path
       d="m 16.405307,1048.8797 c -0.04501,0.1837 -0.06306,0.3807 -0.07325,0.5755 l -0.0013,0.019 c 0,0.014 -6.56e-4,0.014 -0.0013,0.02 -0.0027,0.019 -0.0057,0.033 -0.0096,0.047 -0.0078,0.028 -0.01839,0.053 -0.03022,0.077 -0.02267,0.049 -0.05059,0.091 -0.07983,0.1344 -0.02989,0.043 -0.06209,0.083 -0.09789,0.1197 -0.03614,0.037 -0.07357,0.073 -0.125481,0.1004 l -0.03055,-0.058 c 0.03548,-0.023 0.06799,-0.058 0.09821,-0.095 0.02989,-0.037 0.05618,-0.077 0.08015,-0.1181 0.04664,-0.081 0.09199,-0.1705 0.08311,-0.2491 -0.0053,-0.2012 -0.0033,-0.4016 0.02858,-0.6069 l 0.159321,0.033 z"
       id="path41152"
       style="fill:#ffffff;fill-opacity:1;fill-rule:nonzero;stroke:none"
       inkscape:connector-curvature="0" />
    <path
       d="m 6.659655,1068.2422 c -0.6937817,0.208 -0.837334,0.816 -0.8629563,1.0503 -0.026271,0.2347 -0.021015,0.5992 0,0.7768 0.021015,0.177 0.1090539,0.3175 0.1402654,0.3594 0.031538,0.041 0.4119323,0.3226 0.4326276,0.4529 0.021353,0.1314 0.06733,0.5113 0.1412556,0.6731 0.072598,0.1612 0.4579217,0.5152 1.4949796,0.4216 0.5945756,-0.072 0.6464784,-0.4216 0.6464784,-0.4216 0,0 0.1120092,-0.6659 0.037464,-1.0114 l -0.1228538,-0.705"
       id="path41156"
       style="fill:#ffffff;fill-opacity:1;fill-rule:nonzero;stroke:none"
       inkscape:connector-curvature="0" />
    <path
       d="m 7.6800571,1072.0855 c -0.8067837,0 -1.1671421,-0.2966 -1.2555064,-0.4924 -0.066687,-0.1484 -0.1100466,-0.4428 -0.1363232,-0.6189 -0.00462,-0.03 -0.00823,-0.057 -0.011517,-0.077 -0.01577,-0.065 -0.2398025,-0.2565 -0.3140411,-0.3186 -0.063731,-0.054 -0.086731,-0.073 -0.1011693,-0.092 -0.013446,-0.019 -0.1323784,-0.1831 -0.1586628,-0.4056 -0.021353,-0.183 -0.026936,-0.5548 0,-0.7973 0.023327,-0.2066 0.1583357,-0.8996 0.9296407,-1.131 l 0.0542,0.181 c -0.660602,0.1977 -0.7765603,0.7929 -0.7962708,0.97 -0.025301,0.2238 -0.020371,0.5834 0,0.7553 0.020687,0.177 0.1179346,0.3094 0.1222029,0.3141 0.00564,0 0.041059,0.037 0.07227,0.063 0.2315884,0.1963 0.3606855,0.3234 0.3777689,0.4325 0.00328,0.02 0.00699,0.049 0.012554,0.08 0.022673,0.1553 0.065367,0.4448 0.1215385,0.5683 0.059118,0.1315 0.4267147,0.4547 1.4007012,0.3669 0.5042398,-0.062 0.559427,-0.332 0.5617267,-0.3436 9.606e-4,0 0.1080726,-0.6523 0.038435,-0.9746 l -0.1231775,-0.7094 0.1852725,-0.033 0.123192,0.7057 c 0.076533,0.3534 -0.032844,1.0136 -0.038108,1.0412 -0.00192,0.016 -0.069646,0.4199 -0.7276172,0.5003 -0.1198984,0.014 -0.2322461,0.015 -0.3370362,0.015"
       id="path41160"
       style="fill:#979797;fill-opacity:1;fill-rule:nonzero;stroke:none"
       inkscape:connector-curvature="0" />
    <path
       d="m 13.681527,1072.1405 c -0.291703,0 -0.566326,-0.076 -0.765394,-0.2815 -0.190853,-0.2019 -0.156033,-0.4058 -0.144209,-0.4538 l 0.04862,-0.356 c -0.02889,-0.1168 -0.152421,-0.7182 0.165233,-1.1513 l 0.151436,0.1105 c -0.29269,0.3996 -0.131729,1.0034 -0.13009,1.0097 l 0.0053,0.019 -0.05815,0.4141 c -9.61e-4,0 -0.03515,0.1359 0.09821,0.2773 0.444125,0.4577 1.484796,0.1015 1.917424,-0.181 0.149136,-0.098 0.224362,-0.206 0.311085,-0.3303 0.136324,-0.1962 0.291375,-0.4192 0.754881,-0.6593 0.64155,-0.3312 0.492742,-1.2073 0.411932,-1.678 l -0.01314,-0.083 c -0.06603,-0.4025 -0.585707,-0.6478 -0.745354,-0.6558 l 0.0091,-0.1882 c 0.237829,0.014 0.838975,0.3033 0.922084,0.8137 l 0.01345,0.083 c 0.08179,0.4817 0.251954,1.4824 -0.511138,1.8775 -0.422117,0.2183 -0.5568,0.4112 -0.686883,0.5991 -0.09395,0.1359 -0.182643,0.2622 -0.362659,0.3807 -0.284478,0.1864 -0.864927,0.4343 -1.391832,0.4343"
       id="path41164"
       style="fill:#979797;fill-opacity:1;fill-rule:nonzero;stroke:none"
       inkscape:connector-curvature="0" />
    <path
       d="m 5.2188099,1048.0638 c -0.0053,0.1016 -0.020371,0.2026 -0.043686,0.3011 -0.023654,0.099 -0.056174,0.1956 -0.096578,0.2888 -0.042051,0.092 -0.091976,0.1853 -0.1580064,0.2654 -0.065039,0.08 -0.1504511,0.1547 -0.2519557,0.1778 0.080809,-0.062 0.1353409,-0.1418 0.1846137,-0.2243 0.047635,-0.085 0.089348,-0.1713 0.1277853,-0.2616 0.038758,-0.089 0.075226,-0.18 0.1136583,-0.2724 0.037122,-0.091 0.075226,-0.1846 0.1241702,-0.2748"
       id="path41168"
       style="fill:#ffffff;fill-opacity:1;fill-rule:nonzero;stroke:none"
       inkscape:connector-curvature="0" />
    <path
       d="m 4.7064245,1049.6975 c 0.014776,0.038 0.025617,0.078 0.029892,0.1225 0.00395,0.043 0.00226,0.089 -0.015116,0.1359 l -0.022665,-0.062 c 0.08048,0.033 0.1570211,0.067 0.2312607,0.1197 0.018398,0.014 0.036795,0.028 0.0542,0.047 0.00891,0.014 0.017732,0.02 0.025289,0.034 0.00135,0 6.565e-4,2e-4 0.00328,0.014 l 0.00226,0 0.00192,0 0.00293,0 c 0,0 -6.576e-4,0 -0.00158,0 -0.00169,0 0.012476,0.014 0.029238,0.014 0.01675,0 0.036468,0 0.056174,0.014 l 0.1241723,0.014 c 0.043687,0 0.08804,0.014 0.1373124,0.033 0.023643,0.014 0.051245,0.033 0.066021,0.062 0.00993,0.019 0.020371,0.039 0.029238,0.062 0.00778,0.023 0.01577,0.046 0.017089,0.076 0.00226,0.028 -0.00699,0.065 -0.028899,0.091 -0.044014,0.049 -0.094593,0.058 -0.1386264,0.066 -0.045672,0.014 -0.087374,0.014 -0.1307395,0.014 -0.087058,0 -0.1714757,0 -0.2562271,-0.014 -0.042052,0 -0.084419,-0.014 -0.1271266,-0.019 -0.021353,0 -0.042706,-0.014 -0.065705,-0.014 -0.00621,0 -0.011494,0 -0.018725,0 -0.00621,0 -0.018068,-0.014 -0.020367,-0.014 -0.01412,-0.014 -0.021352,-0.014 -0.030878,-0.019 -0.070299,-0.052 -0.1327115,-0.1049 -0.1977538,-0.1588 l 0.00625,0 c -0.067999,-0.043 -0.1143161,-0.1038 -0.1514362,-0.1653 -0.03679,-0.062 -0.064384,-0.127 -0.086065,-0.1952 l 0.00296,0 c -0.058143,-0.1226 -0.089679,-0.2463 -0.1235145,-0.3701 -0.03285,-0.1241 -0.060115,-0.2495 -0.090336,-0.3696 -0.00427,-0.014 -0.00821,-0.03 -0.012481,-0.041 -0.00263,-0.014 -0.00263,-0.014 -0.00362,-0.014 -0.00131,0 -0.00329,-0.014 -0.00395,-0.019 -0.00131,-0.014 -0.00229,-0.019 -0.00229,-0.028 -0.00196,-0.038 -3.416e-4,-0.07 0.00162,-0.1016 0.00493,-0.065 0.012481,-0.13 0.022337,-0.1932 0.0092,-0.063 0.019709,-0.127 0.031537,-0.1894 l 0.017081,-0.092 c 0.00362,-0.024 0.00525,-0.058 0.00591,-0.086 0.00558,-0.249 -0.00625,-0.5035 -0.019053,-0.7559 -0.00658,-0.1256 -0.01412,-0.252 -0.02628,-0.3764 -0.00329,-0.031 -0.00625,-0.062 -0.010174,-0.091 -0.00229,-0.014 -0.00459,-0.03 -0.00756,-0.039 l -0.011491,-0.044 c -0.017739,-0.059 -0.036463,-0.1256 -0.045333,-0.1937 -0.00625,-0.049 -0.00953,-0.096 -0.010174,-0.1434 -0.00166,-0.085 0.00329,-0.1685 0.00985,-0.2502 l 0.00756,-0.095 c 0.00196,-0.028 0.00229,-0.059 0.00229,-0.09 0,-0.061 -0.00296,-0.1225 -0.00756,-0.1853 -0.020367,-0.2478 -0.064058,-0.4971 -0.109389,-0.7453 -0.046318,-0.2484 -0.096906,-0.4962 -0.1471666,-0.7454 -0.023652,-0.1241 -0.051245,-0.2477 -0.070954,-0.3769 -0.01971,-0.127 -0.034821,-0.2542 -0.048289,-0.3817 -0.050916,-0.5073 -0.076868,-1.015 -0.098877,-1.5222 -0.021353,-0.5075 -0.035478,-1.0156 -0.043689,-1.5235 l -0.00229,-0.1906 c -6.569e-4,-0.063 -0.00263,-0.1314 0.00427,-0.1991 0.011491,-0.1344 0.038106,-0.2614 0.066685,-0.3865 0.029237,-0.1256 0.062085,-0.2487 0.092964,-0.3709 0.029894,-0.121 0.059786,-0.2438 0.073254,-0.3591 0.01248,-0.1195 0.00854,-0.2398 0.00131,-0.3659 -0.00625,-0.1255 -0.012805,-0.2549 -0.016753,-0.3827 -0.00689,-0.2556 -0.00427,-0.5112 0.00196,-0.7661 l 0.1967684,0 c -0.00888,0.2523 -0.012805,0.5053 -0.00789,0.7555 0.00296,0.1256 0.00789,0.2507 0.013796,0.3777 0.00625,0.127 0.010513,0.2609 -0.00525,0.3956 -0.016753,0.1359 -0.048946,0.2603 -0.080153,0.3848 -0.032521,0.1225 -0.065699,0.2446 -0.094936,0.3662 -0.029237,0.121 -0.055188,0.2421 -0.066356,0.3615 -0.00953,0.1138 -0.00263,0.2459 -0.00395,0.3714 0.00493,0.5067 0.015111,1.0137 0.032521,1.5191 0.018068,0.506 0.040732,1.0126 0.08738,1.5141 0.012155,0.1255 0.025951,0.2511 0.043689,0.3732 0.018395,0.1227 0.044675,0.247 0.06767,0.3722 0.047961,0.2486 0.097563,0.498 0.1412527,0.7488 0.037778,0.2111 0.073583,0.4225 0.095264,0.6384 0.00427,0.039 0.00789,0.082 0.01084,0.1226 0.00459,0.065 0.00721,0.1299 0.00721,0.1951 0,0.033 -0.00166,0.065 -0.00362,0.1004 l -0.00854,0.095 c -0.01084,0.124 -0.017739,0.2482 -0.00329,0.3659 0.00756,0.059 0.05223,0.224 0.05223,0.224 0.00558,0.019 0.00721,0.037 0.00953,0.053 0.00493,0.033 0.00789,0.066 0.010513,0.097 0.011491,0.1286 0.018395,0.2547 0.02431,0.3822 0.010513,0.2545 0.020695,0.5079 0.013469,0.766 -0.00229,0.033 -0.00296,0.063 -0.00888,0.1015 l -0.018725,0.095 c -0.011167,0.062 -0.022009,0.1241 -0.031536,0.1855 -0.00953,0.062 -0.017738,0.124 -0.022667,0.1844 -0.00229,0.03 -0.00362,0.062 -0.00229,0.089 0,0 6.568e-4,0.014 9.99e-4,0.019 l 0.00131,0 c 0,3e-4 0.00229,0.014 0.00166,0.014 0.00625,0.019 0.010175,0.034 0.01412,0.05 0.030221,0.1255 0.056501,0.2477 0.087709,0.3698 0.031863,0.1212 0.064058,0.2442 0.1130016,0.3515 l 0.00196,0 0.00131,0 c 0.019053,0.061 0.043689,0.1211 0.075553,0.1747 0.030879,0.053 0.069969,0.1015 0.1159585,0.1329 l 0.00395,0 0.00162,0 c 0.062415,0.054 0.1261421,0.1083 0.189541,0.1548 0.00756,0 0.01675,0.014 0.02168,0.014 0.00587,0 0.00328,0 0.00721,0 0.00293,0 0.00688,0 0.010828,0 0.01675,0 0.036129,0.014 0.055847,0.014 0.038758,0.014 0.078835,0.014 0.1195724,0.018 0.080482,0.014 0.1619487,0.014 0.2417731,0.014 0.039423,0 0.080809,0 0.1166193,-0.014 0.036129,0 0.071616,-0.019 0.083111,-0.034 0.00564,-0.014 0.00756,-0.014 0.00756,-0.025 -6.565e-4,-0.014 -0.00462,-0.028 -0.01128,-0.046 -0.00621,-0.018 -0.014472,-0.033 -0.023643,-0.052 -0.00428,-0.014 -0.010829,-0.014 -0.024635,-0.02 -0.026621,-0.014 -0.065694,-0.02 -0.104463,-0.024 l -0.1238418,-0.014 c -0.022335,0 -0.044014,0 -0.068323,-0.014 -0.022999,0 -0.049936,-0.014 -0.079828,-0.043 -0.00428,0 -0.00823,-0.014 -0.010829,-0.018 l -0.00293,0 -0.00328,-0.014 -0.00169,0 c 0.00259,0 6.565e-4,0 6.565e-4,0 -0.00169,0 -0.00621,-0.014 -0.011494,-0.014 -0.010152,-0.014 -0.024635,-0.024 -0.040077,-0.034 -0.061758,-0.044 -0.136983,-0.08 -0.2102363,-0.1105 l -0.044675,-0.018 0.02168,-0.043 0,0 c 0.02168,-0.025 0.038105,-0.059 0.047959,-0.096 0.010174,-0.038 0.014458,-0.078 0.014458,-0.1195"
       id="path41172"
       style="fill:#ffffff;fill-opacity:1;fill-rule:nonzero;stroke:none"
       inkscape:connector-curvature="0" />
    <path
       d="m 5.4885706,1049.4224 c 0.046981,0.047 0.082783,0.1049 0.1153052,0.1644 0.031212,0.059 0.058475,0.1211 0.082456,0.1854 l -0.014788,-0.02 c 0.039751,0.034 0.077527,0.071 0.1156301,0.1061 0.036795,0.037 0.074572,0.073 0.1061098,0.1166 -0.039423,-0.034 -0.083775,-0.06 -0.1281101,-0.088 -0.044352,-0.027 -0.08936,-0.052 -0.1340343,-0.077 l -0.00721,0 -0.00654,-0.015 c -0.010829,-0.063 -0.026271,-0.127 -0.045988,-0.1897 -0.021353,-0.062 -0.045006,-0.1225 -0.082783,-0.1778"
       id="path41176"
       style="fill:#ffffff;fill-opacity:1;fill-rule:nonzero;stroke:none"
       inkscape:connector-curvature="0" />
    <path
       d="m 4.9437612,1049.8095 c 0.021025,0.02 0.037123,0.046 0.051899,0.07 0.01446,0.025 0.026609,0.052 0.036795,0.08 0.020371,0.054 0.036795,0.1137 0.032193,0.1797 l -0.065039,-0.014 c 0.013795,-0.047 0.010828,-0.1049 0.00158,-0.1591 -0.00462,-0.028 -0.011833,-0.054 -0.020699,-0.082 -0.00947,-0.027 -0.020033,-0.053 -0.036795,-0.077"
       id="path41180"
       style="fill:#ffffff;fill-opacity:1;fill-rule:nonzero;stroke:none"
       inkscape:connector-curvature="0" />
    <path
       d="m 5.1423368,1049.7143 c 0.051899,0.063 0.1097195,0.1241 0.1478229,0.2023 0.039423,0.077 0.050906,0.1667 0.051899,0.2512 l -0.065039,0 c 0.00914,-0.078 0.00914,-0.159 -0.01675,-0.2349 -0.025955,-0.077 -0.074572,-0.1448 -0.1179313,-0.2153"
       id="path41184"
       style="fill:#ffffff;fill-opacity:1;fill-rule:nonzero;stroke:none"
       inkscape:connector-curvature="0" />
    <path
       d="m 5.5795631,1050.2979 c 0.032193,0.018 0.057482,0.039 0.081791,0.062 0.011821,0.014 0.023327,0.023 0.035148,0.038 0.00654,0.014 0.011517,0.019 0.014472,0.028 0.00328,0.014 0.00699,0.024 0.00485,0.015 0.00192,0 0.014788,0.014 0.02759,0.02 0.013446,0 0.027929,0.014 0.042378,0.02 0.029249,0.014 0.059784,0.028 0.090329,0.044 -0.034821,0 -0.068649,0 -0.1034703,0 -0.016751,0 -0.034155,-0.014 -0.050579,-0.014 -0.017416,0 -0.035475,-0.014 -0.0542,-0.035 -0.01181,-0.02 -0.00891,-0.024 -0.012555,-0.03 -0.00192,0 -0.00428,-0.014 -0.00778,-0.015 l -0.026271,-0.039 c -0.017416,-0.028 -0.033839,-0.059 -0.041724,-0.095"
       id="path41188"
       style="fill:#ffffff;fill-opacity:1;fill-rule:nonzero;stroke:none"
       inkscape:connector-curvature="0" />
    <path
       d="m 16.605229,1048.0901 c 0.0381,0.091 0.08081,0.1767 0.123842,0.2632 l 0.130089,0.2591 c 0.04402,0.085 0.0887,0.1719 0.135349,0.2571 0.04697,0.086 0.08869,0.1732 0.147822,0.2506 -0.07949,-0.061 -0.138301,-0.1416 -0.196769,-0.2207 -0.05683,-0.08 -0.109053,-0.1642 -0.156362,-0.2499 -0.04698,-0.086 -0.09199,-0.1751 -0.125482,-0.2681 -0.03284,-0.092 -0.06143,-0.1914 -0.05847,-0.2913"
       id="path41192"
       style="fill:#ffffff;fill-opacity:1;fill-rule:nonzero;stroke:none"
       inkscape:connector-curvature="0" />
    <path
       d="m 17.231275,1049.2917 c -0.01675,0.033 -0.02267,0.067 -0.0243,0.1049 -6.58e-4,0.037 0.0033,0.071 0.01083,0.1049 0.01643,0.068 0.04993,0.13 0.09691,0.1681 l 0.02957,0.049 -0.02989,0.02 c -0.01418,0.014 -0.03449,0.033 -0.0496,0.052 -0.01643,0.02 -0.03154,0.044 -0.04567,0.066 -0.0289,0.047 -0.0542,0.096 -0.07686,0.1482 0.0072,-0.057 0.01675,-0.1128 0.03121,-0.1672 0.0072,-0.028 0.01643,-0.057 0.02726,-0.084 0.01152,-0.028 0.02069,-0.053 0.04402,-0.085 l -3.16e-4,0.067 -9.6e-4,0 c -0.05453,-0.071 -0.07259,-0.1532 -0.0739,-0.23 -6.58e-4,-0.038 0.0039,-0.077 0.01374,-0.1137 0.0096,-0.038 0.02398,-0.072 0.04797,-0.1004"
       id="path41196"
       style="fill:#ffffff;fill-opacity:1;fill-rule:nonzero;stroke:none"
       inkscape:connector-curvature="0" />
    <path
       d="m 17.59932,1050.2647 c -0.01374,0.1016 -0.04501,0.2116 -0.11201,0.2963 -0.03284,0.044 -0.07095,0.082 -0.110701,0.1153 -0.04172,0.034 -0.08311,0.063 -0.120888,0.096 -0.07852,0.063 -0.153736,0.1329 -0.229288,0.2023 -0.07653,0.07 -0.149465,0.1404 -0.24046,0.2011 -0.01128,0 -0.02364,0.014 -0.03679,0.02 -0.01314,0 -0.02957,0.014 -0.04007,0.014 -0.02267,0.014 -0.04698,0.018 -0.07031,0.027 -0.04731,0.019 -0.09494,0.038 -0.14421,0.057 -0.02497,0.014 -0.04993,0.018 -0.07621,0.025 -0.02694,0 -0.05322,0.014 -0.08902,0.014 -0.0096,0 -0.01938,0 -0.03153,-0.014 -0.0048,0 -0.01128,0 -0.01742,-0.014 l -0.0083,-0.014 c -0.01211,-0.014 -0.01972,-0.025 -0.02793,-0.038 -0.01577,-0.025 -0.02759,-0.051 -0.03614,-0.078 -0.01742,-0.053 -0.02496,-0.1197 0.0078,-0.1808 0.01577,-0.03 0.04106,-0.053 0.06768,-0.067 0.02957,-0.015 0.04993,-0.024 0.07357,-0.034 0.04631,-0.023 0.09199,-0.043 0.137312,-0.066 0.04533,-0.024 0.09033,-0.047 0.139276,-0.062 l 0.03121,0.058 c -0.04138,0.034 -0.08704,0.057 -0.133693,0.078 -0.04697,0.024 -0.09362,0.044 -0.140917,0.065 -0.05157,0.023 -0.08869,0.035 -0.105444,0.067 -0.01742,0.033 -0.0161,0.077 -0.0033,0.1182 0.0065,0.022 0.0161,0.043 0.02793,0.062 0.0053,0.014 0.01256,0.019 0.01709,0.024 9.6e-4,0 0.0035,0 0.0059,0 -6.58e-4,0 -0.0019,0 -0.0019,0 0,0 0.0035,0 0.0062,0 0.03449,0 0.0877,-0.014 0.132719,-0.03 0.04796,-0.015 0.09494,-0.035 0.142895,-0.054 0.0243,-0.014 0.04796,-0.019 0.07424,-0.027 0.01374,0 0.02201,0 0.03121,-0.014 0.01015,0 0.02005,-0.014 0.03055,-0.015 0.08115,-0.053 0.156364,-0.1226 0.232574,-0.1911 0.07653,-0.068 0.153079,-0.1374 0.23389,-0.2024 0.04073,-0.033 0.08475,-0.062 0.121878,-0.092 0.0381,-0.031 0.0739,-0.065 0.104136,-0.1038 0.06176,-0.077 0.09099,-0.1698 0.107091,-0.2699 l 0.05126,0.014 z"
       id="path41200"
       style="fill:#ffffff;fill-opacity:1;fill-rule:nonzero;stroke:none"
       inkscape:connector-curvature="0" />
    <path
       d="m 16.536475,1050.3737 c 0.0091,-0.043 0.01938,-0.085 0.03679,-0.1285 0.01773,-0.041 0.04106,-0.086 0.08901,-0.1211 l -0.02102,0.067 c -0.02267,-0.053 -0.0289,-0.099 -0.03219,-0.1484 -0.0033,-0.048 0.0015,-0.098 0.01015,-0.1432 0.01872,-0.094 0.05782,-0.1774 0.107419,-0.2537 -0.0358,0.083 -0.05781,0.1716 -0.0588,0.259 -6.56e-4,0.043 0.0033,0.086 0.01343,0.1285 0.0091,0.038 0.02596,0.083 0.04435,0.1094 l 0.0887,0.048 -0.108738,0.02 c -0.02957,0 -0.06306,0.03 -0.09099,0.059 -0.02922,0.032 -0.05452,0.065 -0.07817,0.1016"
       id="path41204"
       style="fill:#ffffff;fill-opacity:1;fill-rule:nonzero;stroke:none"
       inkscape:connector-curvature="0" />
    <path
       d="m 7.6929996,1059.6981 c -0.4894567,0 -0.8892339,-0.1136 -1.1990055,-0.2026 -0.1297502,-0.038 -0.2414437,-0.07 -0.3432763,-0.09 l 0.013141,-0.065 c 0.1031546,0.02 0.2168062,0.053 0.3482056,0.09 0.3909089,0.1128 0.9263538,0.2649 1.6037108,0.171 l 0.00857,0.065 c -0.1507782,0.02 -0.2946599,0.03 -0.4313135,0.03"
       id="path41208"
       style="fill:#786aae;fill-opacity:1;fill-rule:nonzero;stroke:none"
       inkscape:connector-curvature="0" />
    <path
       d="m 8.2713814,1058.684 c -0.2516283,-0.1039 -0.5367612,-0.1084 -0.8971197,-0.1138 -0.1471631,0 -0.2992588,0 -0.4687628,-0.014 l 0.00395,-0.066 c 0.1675322,0.014 0.3199528,0.014 0.4664627,0.014 0.3669279,0 0.6569891,0.014 0.9201138,0.1182 l -0.024635,0.062 z"
       id="path41212"
       style="fill:#786aae;fill-opacity:1;fill-rule:nonzero;stroke:none"
       inkscape:connector-curvature="0" />
    <path
       d="m 13.303954,1057.21 -0.01447,-0.063 c 0.218121,-0.052 0.545959,-0.065 0.925699,-0.078 0.22699,-0.014 0.462519,-0.019 0.701008,-0.037 l 0.0053,0.065 c -0.240129,0.018 -0.475988,0.028 -0.703965,0.036 -0.376127,0.014 -0.701335,0.027 -0.913543,0.077"
       id="path41216"
       style="fill:#786aae;fill-opacity:1;fill-rule:nonzero;stroke:none"
       inkscape:connector-curvature="0" />
    <path
       d="m 14.385426,1059.0106 c -0.281193,0 -0.583078,-0.027 -0.865584,-0.081 l 0.01256,-0.063 c 0.556801,0.1049 1.18948,0.1049 1.574148,0 l 0.01742,0.062 c -0.197426,0.056 -0.457593,0.082 -0.738456,0.082"
       id="path41220"
       style="fill:#786aae;fill-opacity:1;fill-rule:nonzero;stroke:none"
       inkscape:connector-curvature="0" />
    <path
       d="m 14.731002,1058.4884 c -0.08704,-0.014 -0.17016,-0.025 -0.249327,-0.038 -0.50654,-0.078 -0.872154,-0.1344 -1.180284,-0.092 l -0.0091,-0.065 c 0.317328,-0.043 0.687539,0.014 1.199664,0.092 0.07949,0.014 0.162276,0.025 0.248997,0.037 l -0.0099,0.065 z"
       id="path41224"
       style="fill:#786aae;fill-opacity:1;fill-rule:nonzero;stroke:none"
       inkscape:connector-curvature="0" />
    <path
       d="m 12.183,1037.5198 c 0.170817,0.4704 0.308127,0.9524 0.440839,1.4348 0.132379,0.4829 0.254913,0.9688 0.38434,1.4513 0.125482,0.4843 0.257868,0.9658 0.40536,1.4437 0.07357,0.2383 0.153737,0.4748 0.246045,0.7076 0.09231,0.2311 0.193482,0.461 0.341963,0.6639 -0.15932,-0.1948 -0.269038,-0.4243 -0.370872,-0.6523 -0.09854,-0.231 -0.183957,-0.4668 -0.263452,-0.7036 -0.158991,-0.4764 -0.290389,-0.96 -0.421459,-1.4429 l -0.369885,-1.455 c -0.06078,-0.2423 -0.123193,-0.4844 -0.188556,-0.7254 -0.0634,-0.2422 -0.13173,-0.4829 -0.204323,-0.7221"
       id="path41228"
       style="fill:#ffffff;fill-opacity:1;fill-rule:nonzero;stroke:none"
       inkscape:connector-curvature="0" />
    <path
       d="m 7.1708899,1041.2171 c 0.069969,-0.6706 0.1718039,-1.3368 0.2660822,-2.0035 l 0.2884177,-2.0005 c 0.09395,-0.6669 0.1803439,-1.3345 0.2565553,-2.0038 0.038103,-0.3341 0.07095,-0.6695 0.096251,-1.0056 0.024308,-0.3354 0.045323,-0.6724 0.025301,-1.0091 0.026936,0.3362 0.011517,0.6744 -0.00587,1.0102 -0.020044,0.3366 -0.050906,0.6726 -0.084103,1.0073 -0.067353,0.6712 -0.1570205,1.3393 -0.2470272,2.0069 -0.091649,0.6675 -0.1938121,1.3341 -0.2943317,1.9997 l -0.1557064,0.999 c -0.050907,0.3322 -0.104463,0.6655 -0.1455241,0.9994"
       id="path41232"
       style="fill:#ffffff;fill-opacity:1;fill-rule:nonzero;stroke:none"
       inkscape:connector-curvature="0" />
    <path
       d="m 16.31185,1046.2322 c 0.01773,0.023 0.0552,0.041 0.09757,0.03 0.03811,-0.014 0.05847,-0.041 0.06405,-0.067 l -0.16162,0.039 z m -0.334178,1.7964 -0.1879,-0.014 c 0.02104,-0.3079 0.23596,-0.5342 0.377213,-0.6566 0.02464,-0.023 0.05585,-0.049 0.06899,-0.063 l 0.0083,-0.014 c 0.23783,-0.4106 0.101508,-0.957 0.0657,-1.0506 l -0.01345,0 c -0.646149,-2.762 -0.786088,-5.0296 -0.786088,-5.4431 0,-0.3526 -0.152422,-0.8155 -0.295316,-1.2217 l 0.178043,-0.063 c 0.154721,0.4409 0.30583,0.9028 0.30583,1.2845 0,0.4057 0.136987,2.6168 0.764079,5.3279 0.07227,0.1196 0.227974,0.7568 -0.05059,1.2475 -0.0161,0.041 -0.0542,0.076 -0.122527,0.133 -0.128111,0.1129 -0.296074,0.2983 -0.312169,0.5273"
       id="path41236"
       style="fill:#ffffff;fill-opacity:1;fill-rule:nonzero;stroke:none"
       inkscape:connector-curvature="0" />
    <path
       d="m 17.573894,1039.7389 c 0.0019,0.041 0.01478,0.08 0.02102,0.1197 0.0083,0.039 0.01345,0.081 0.0161,0.1211 0.0053,0.083 -6.56e-4,0.1692 -0.03711,0.2484 -0.0099,-0.043 -0.0151,-0.083 -0.01938,-0.124 -0.0048,-0.039 -0.0078,-0.08 -0.01083,-0.1212 -0.0019,-0.039 -0.0035,-0.082 -6.57e-4,-0.1226 0.0035,-0.041 0.0048,-0.086 0.03088,-0.1241"
       id="path41240"
       style="fill:#ffffff;fill-opacity:1;fill-rule:nonzero;stroke:none"
       inkscape:connector-curvature="0" />
    <path
       d="m 16.631574,1041.2319 0.198082,0 c 0.06274,0 0.124492,0 0.183958,0 0.05847,0 0.11464,-0.015 0.159648,-0.041 0.04731,-0.024 0.08179,-0.073 0.106425,-0.1402 0.01211,0.034 0.01478,0.07 0.0076,0.1082 -0.0078,0.037 -0.02726,0.073 -0.05585,0.1038 -0.05815,0.058 -0.136647,0.082 -0.20761,0.089 -0.07227,0 -0.142894,0 -0.209908,-0.023 -0.06603,-0.02 -0.131066,-0.051 -0.182314,-0.099"
       id="path41244"
       style="fill:#ffffff;fill-opacity:1;fill-rule:nonzero;stroke:none"
       inkscape:connector-curvature="0" />
    <path
       d="m 8.5515873,1026.4477 c -0.014784,-0.052 -0.047311,-0.097 -0.070308,-0.1463 -0.02463,-0.049 -0.046981,-0.099 -0.065695,-0.1515 -0.017743,-0.053 0.038758,-0.054 0.039423,-0.1166 3.411e-4,-0.032 -0.066033,-0.1168 -0.051255,-0.1492 0.015115,-0.032 0.041724,-0.06 0.072597,-0.072 l 0.033843,0.059 c -0.032517,0.024 -0.04172,0.062 -0.042056,0.1094 3.151e-4,0.047 0.00893,0.099 0.021355,0.1489 0.011278,0.052 0.025956,0.1016 0.038761,0.1557 0.011806,0.052 0.030221,0.106 0.023324,0.164"
       id="path41248"
       style="fill:#ffffff;fill-opacity:1;fill-rule:nonzero;stroke:none"
       inkscape:connector-curvature="0" />
    <path
       d="m 13.830827,1071.4505 c -0.205309,0 -0.396493,-0.035 -0.555156,-0.095 -0.201038,-0.077 -0.326852,-0.1837 -0.345248,-0.297 l 0.09263,-0.015 c 0.01284,0.076 0.124833,0.1637 0.28612,0.2244 0.425401,0.1607 1.094545,0.13 1.628677,-0.3031 0.448725,-0.3633 0.71579,-0.5846 0.891535,-0.732 0.157349,-0.1314 0.2444,-0.2028 0.32718,-0.2656 0.169832,-0.127 0.391238,-0.4454 0.412918,-0.5657 l 0.0933,0.018 c -0.02825,0.1524 -0.271665,0.4912 -0.450367,0.6254 -0.08048,0.061 -0.166875,0.1314 -0.322581,0.2613 -0.17673,0.1478 -0.443141,0.3685 -0.892193,0.7332 -0.364956,0.2952 -0.790029,0.4129 -1.166813,0.4129"
       id="path41252"
       style="fill:#979797;fill-opacity:1;fill-rule:nonzero;stroke:none"
       inkscape:connector-curvature="0" />
    <path
       d="m 7.7190833,1071.4471 c -0.4135748,0 -0.7913438,-0.089 -0.9358831,-0.1902 -0.2696931,-0.1917 -0.3465609,-0.296 -0.3886078,-0.5352 -0.037123,-0.211 -0.2122085,-0.6711 -0.3206116,-0.8043 -0.2637812,-0.3251 -0.3462338,-0.6197 -0.2306037,-0.8302 l 0.082783,0.044 c -0.1287746,0.2365 0.083111,0.5564 0.2210779,0.7257 0.1208887,0.1493 0.299588,0.6184 0.3403208,0.8478 0.035475,0.2009 0.085411,0.287 0.3505044,0.4743 0.2526119,0.1778 1.3405861,0.3124 1.8967282,-0.09 l 0.055198,0.076 c -0.2854621,0.2068 -0.6924678,0.2809 -1.0708932,0.2809"
       id="path41256"
       style="fill:#979797;fill-opacity:1;fill-rule:nonzero;stroke:none"
       inkscape:connector-curvature="0" />
    <path
       d="m 12.993527,1025.8894 c 0.0048,0.1329 0.0083,0.2691 -0.01543,0.4067 -0.0065,0.034 -0.01543,0.067 -0.02793,0.1037 -0.0062,0.016 -0.0151,0.035 -0.023,0.049 l -0.02332,0.043 c -0.03121,0.059 -0.0621,0.1166 -0.09558,0.1762 0.0033,-0.069 0.01905,-0.1359 0.04206,-0.2004 l 0.01905,-0.047 c 0.0065,-0.015 0.01181,-0.026 0.01643,-0.043 0.0089,-0.03 0.01448,-0.061 0.01872,-0.091 0.01643,-0.1285 0.0151,-0.2616 0.02398,-0.3963 l 0.06505,0 z"
       id="path41260"
       style="fill:#ffffff;fill-opacity:1;fill-rule:nonzero;stroke:none"
       inkscape:connector-curvature="0" />
    <path
       d="m 12.495727,1027.0465 c 0.01872,0 0.03384,0 0.05289,0 0.01742,0 0.03515,-0.014 0.05289,-0.014 0.03449,-0.014 0.07128,-0.02 0.09854,-0.046 -0.0197,0.033 -0.05388,0.054 -0.08508,0.076 -0.01675,0.014 -0.03352,0.02 -0.05125,0.03 -0.01643,0.014 -0.03744,0.015 -0.05585,0.023 l -0.01211,-0.063 z"
       id="path41264"
       style="fill:#ffffff;fill-opacity:1;fill-rule:nonzero;stroke:none"
       inkscape:connector-curvature="0" />
    <path
       d="m 8.909451,1026.9907 c -0.01806,0 -0.039098,-0.014 -0.056178,-0.022 -0.01709,-0.014 -0.033843,-0.019 -0.05026,-0.028 -0.0322,-0.02 -0.06636,-0.043 -0.085409,-0.077 0.026936,0.025 0.063728,0.035 0.098215,0.046 0.017733,0 0.035476,0.014 0.053536,0.014 0.018396,0 0.032844,0 0.052229,0 l -0.012114,0.063 z"
       id="path41268"
       style="fill:#ffffff;fill-opacity:1;fill-rule:nonzero;stroke:none"
       inkscape:connector-curvature="0" />
    <path
       d="m 4.9435649,1032.4512 c 0.091976,0.5233 0.2210767,1.0373 0.3817113,1.5412 0.079827,0.2516 0.1695017,0.501 0.2585248,0.751 0.087374,0.2499 0.1764016,0.5008 0.2568825,0.7546 0.080797,0.2541 0.1534076,0.5118 0.2125367,0.7724 0.058802,0.2611 0.1041246,0.5252 0.135997,0.7906 0.032193,0.2659 0.049597,0.5337 0.051245,0.8025 0.00135,0.1344 -0.00158,0.2675 -0.00722,0.4007 l -0.00778,0.1981 c -9.99e-4,0.033 -0.00158,0.065 -9.99e-4,0.095 9.99e-4,0.032 0.00328,0.062 0.00914,0.08 l 0.00271,0.014 6.565e-4,0.014 c 0.014179,0.4523 0.025301,0.9039 0.030546,1.3569 0.00237,0.2264 0.00395,0.4526 -0.00158,0.6807 -0.00192,0.057 -0.00328,0.1137 -0.00721,0.1715 -0.00158,0.03 -0.0035,0.058 -0.00721,0.089 -0.00158,0.028 -0.013446,0.071 -0.013446,0.083 -0.00587,0.097 0.00564,0.2161 0.014788,0.3258 0.041724,0.4468 0.098541,0.8971 0.1346841,1.3492 0.018725,0.2257 0.033174,0.453 0.039423,0.6806 0.00564,0.2281 0.0035,0.4568 -0.023643,0.6875 -0.014179,0.1183 -0.038758,0.2271 -0.056174,0.3379 -0.018386,0.1105 -0.036795,0.2213 -0.053219,0.3329 -0.032847,0.2222 -0.060438,0.4458 -0.082783,0.6693 -0.042694,0.4463 -0.068322,0.897 -0.034483,1.3399 0.018059,0.2217 0.051899,0.4369 0.1396168,0.6362 0.083775,0.1998 0.3625445,0.1859 0.5156226,0.3401 0.3074728,0.3105 0.6412081,0.3143 1.0564251,0.4698 0.4178464,0.154 0.8241514,0.3135 1.2649914,0.3926 0.4418255,0.078 0.8423592,0.2003 1.2910833,0.2355 0.896462,0.073 1.627949,-0.097 2.508315,-0.2637 0.438541,-0.083 0.885152,-0.1401 1.288215,-0.3268 0.402405,-0.1869 1.121624,-0.3342 1.425809,-0.6546 0.150779,-0.1586 0.09212,-0.057 0.188042,-0.2459 0.01418,-0.034 0.02464,-0.089 0.02792,-0.1404 0.0046,-0.052 0.0046,-0.1059 0.0022,-0.1612 -0.0033,-0.1094 -0.0151,-0.2193 -0.02957,-0.33 -0.0588,-0.4435 -0.164576,-0.8808 -0.252613,-1.3275 l -3.15e-4,0 -3.15e-4,0 c -0.0542,-0.5487 -0.106426,-1.0988 -0.153079,-1.6486 -0.02233,-0.2754 -0.04567,-0.5496 -0.05649,-0.8274 l -0.03483,-0.8263 c -0.04862,-1.1014 -0.09953,-2.2029 -0.158007,-3.3037 -0.02792,-0.5503 -0.07293,-1.1012 -0.0739,-1.6556 -0.0013,-0.277 0.0048,-0.5542 0.02759,-0.8316 0.0243,-0.2761 0.06241,-0.5566 0.147824,-0.825 0.163261,-0.5286 0.343605,-1.0489 0.524605,-1.5703 0.09033,-0.2597 0.179687,-0.5208 0.266081,-0.782 0.0877,-0.2612 0.174103,-0.5231 0.241116,-0.7901 l 0.0043,0 c -0.09757,0.5453 -0.269037,1.0719 -0.4277,1.5998 -0.160633,0.5272 -0.336707,1.0505 -0.494712,1.5765 -0.08048,0.2587 -0.117271,0.5284 -0.140266,0.8008 -0.02168,0.2723 -0.02793,0.5473 -0.02627,0.8205 0.0022,0.5493 0.04894,1.0979 0.07852,1.6498 0.06111,1.1008 0.114317,2.2022 0.16589,3.3043 l 0.03647,0.8272 c 0.01128,0.2723 0.03515,0.5476 0.05815,0.8212 0.0483,0.5486 0.100842,1.0972 0.156693,1.6452 l -6.58e-4,0 c 0.08674,0.4385 0.194798,0.8813 0.256227,1.3342 0.0151,0.1129 0.02759,0.2273 0.03219,0.3447 0.0019,0.058 0.0019,0.1166 -0.0027,0.1773 -0.0059,0.062 -0.01256,0.1196 -0.04106,0.191 -0.108072,0.2141 -0.05401,0.1162 -0.213335,0.2857 -0.319296,0.3361 -1.054282,0.4945 -1.469172,0.6894 -0.416859,0.1945 -0.875295,0.2555 -1.323692,0.3418 -0.898761,0.1736 -1.648971,0.346 -2.550362,0.2687 -0.4526657,-0.037 -0.8571428,-0.1603 -1.3052085,-0.2404 -0.4477392,-0.08 -0.8615984,-0.242 -1.291927,-0.4021 -0.427043,-0.1606 -0.7003942,-0.2966 -1.1106261,-0.5067 -0.1645769,-0.1669 -0.4561663,-0.1717 -0.5458448,-0.3881 -0.045334,-0.106 -0.082783,-0.2234 -0.104136,-0.3382 -0.022999,-0.1139 -0.036795,-0.2291 -0.045988,-0.3443 -0.034167,-0.4595 -0.00654,-0.9146 0.037111,-1.3667 0.022335,-0.2259 0.051245,-0.451 0.084419,-0.676 0.017743,-0.1128 0.034821,-0.2244 0.054527,-0.3362 0.017744,-0.1129 0.043044,-0.2242 0.055847,-0.3304 0.025955,-0.2184 0.027929,-0.443 0.022999,-0.666 -0.0053,-0.2238 -0.019379,-0.4485 -0.037111,-0.6731 -0.035803,-0.4488 -0.091322,-0.896 -0.1333688,-1.3489 -0.00485,-0.057 -0.00993,-0.1137 -0.012847,-0.1712 -0.00271,-0.058 -0.00587,-0.1153 -3.406e-4,-0.1795 0.00485,-0.046 0.01128,-0.057 0.013141,-0.085 0.00293,-0.027 0.0053,-0.053 0.00721,-0.082 0.0035,-0.056 0.0053,-0.1105 0.00699,-0.1664 0.00564,-0.2241 0.00462,-0.4494 0.00293,-0.6748 -0.00462,-0.451 -0.015431,-0.9027 -0.029248,-1.3541 l 0.00328,0.019 c -0.013446,-0.047 -0.013446,-0.081 -0.015104,-0.1181 -9.991e-4,-0.035 0,-0.07 9.99e-4,-0.1039 l 0.00823,-0.1989 c 0.00564,-0.1329 0.00857,-0.2643 0.00823,-0.3956 -0.00158,-0.2624 -0.018398,-0.5253 -0.048943,-0.7861 -0.063066,-0.5229 -0.1773864,-1.0382 -0.3304656,-1.5433 -0.076207,-0.2529 -0.1612911,-0.5038 -0.2453861,-0.7555 -0.082783,-0.252 -0.1622758,-0.5063 -0.2342167,-0.7628 -0.146837,-0.5117 -0.248013,-1.0364 -0.3028716,-1.5645"
       id="path41272"
       style="fill:#ffffff;fill-opacity:1;fill-rule:nonzero;stroke:none"
       inkscape:connector-curvature="0" />
    <path
       d="m 16.054311,1060.9267 c -0.08508,-0.4587 -0.06998,-0.9484 -0.155378,-1.3133 -0.08606,-0.366 -0.109055,-0.6536 -0.08606,-0.8012 0.02364,-0.1479 0.07031,-0.3191 -0.100199,-0.4354 -0.171475,-0.1167 -0.171475,-0.272 -0.101508,-0.4273 0.06995,-0.1555 -0.0391,-0.8084 -0.109054,-0.9484 -0.06965,-0.1389 0.0391,-0.5209 0.109054,-0.8163 0.06995,-0.295 0.318311,-1.7025 0.233232,-2.0829 -0.08541,-0.3814 0.225347,-1.0495 0.132378,-1.5782 -0.09362,-0.5289 0.116621,-2.891 0.0076,-3.6844 -0.06997,-0.511 -0.111681,-1.0396 -0.132379,-1.3507 -0.588992,0.7966 -3.434084,1.3593 -4.832816,1.4401 -1.3836204,0.082 -4.0326022,-0.7769 -4.7214557,-1.5042 -0.1826439,1.4027 -0.5048978,3.4794 -0.2089237,5.8384 0,0 -0.038431,1.7406 0.023981,2.4634 0.061757,0.723 0.1008421,1.1894 0.1938121,1.3521 0.093285,0.1638 -0.069642,0.3271 -0.015431,0.4985 0.054527,0.1699 -0.2802058,0.6913 -0.1783721,1.0254 0.1008422,0.3346 -0.4743462,0.5446 -0.2959729,0.8862 0.1783711,0.3423 -0.062096,0.9562 -0.1399417,1.1816 -0.077854,0.2257 -0.108738,1.3447 -0.092957,1.8268 0.015104,0.4818 0.2250201,3.2652 0.2565542,3.9959 0.030884,0.7301 -0.14815,0.9249 -0.1790287,1.1888 -0.030558,0.2645 0.1553782,0.6134 0.2641107,0.9869 0.1090538,0.3733 0.093285,0.8088 0.2956435,1.4075 0.202025,0.5984 1.0104509,1.221 1.9039565,0.6917 0.8941619,-0.5289 0.5988456,-1.3062 0.6612596,-1.5082 0.062095,-0.2019 0.2250204,-0.769 0.085409,-1.1579 -0.1402652,-0.3886 -0.3265242,-1.6713 -0.2099088,-2.3006 0.1166203,-0.6301 -0.054852,-1.7418 0.039098,-2.7207 0.093296,-0.9796 0.077523,-1.6408 0.1474872,-2.317 0.069319,-0.6762 0.3261957,-1.2049 0.5282206,-1.9978 0.2023534,-0.7928 0.2568835,-2.7748 0.5134375,-3.7934 0.2562267,-1.0178 0.7693357,-3.7 0.9247137,-3.9332 0,0 0.101169,-0.1403 0.233231,-0.1166 0,0 0.279878,0.5986 0.357403,0.94 0.07786,0.3427 0.373497,1.9208 0.505881,2.2624 0.13173,0.3423 0.139617,0.4509 0.170818,0.8787 0.03088,0.4274 0.03121,1.6166 0.241115,2.534 0.209908,0.9173 0.271665,1.2595 0.271665,1.2595 0,0 0.0078,0.4813 0.186585,0.6293 0.178701,0.148 0.01543,0.1787 -0.03088,0.5595 -0.04698,0.3814 -0.0542,0.9798 0.04631,1.3995 0.101169,0.4196 0.05485,0.6917 0.06636,0.9639 0.01152,0.2721 -0.118584,1.2744 9.61e-4,1.8107 0.119574,0.5371 -0.269364,2.2161 -0.316012,2.6123 -0.04664,0.3962 -0.05388,1.7641 0.01576,2.1375 0.06965,0.3735 0.193812,0.9792 0.241116,1.1582 0.04598,0.1787 0.222063,0.9829 0.909929,0.9559 0.704951,-0.028 1.764019,-0.5048 1.724599,-2.0365 0,0 0.451352,-0.2952 0.280534,-0.9714 -0.171145,-0.6758 -0.0161,-1.9431 0.100842,-2.4796 0.11628,-0.5367 0.31864,-4.151 0.233231,-4.6097"
       id="path41276"
       style="fill:none;stroke:#ffffff;stroke-width:0.2;stroke-miterlimit:4;stroke-dasharray:none"
       inkscape:connector-curvature="0" />
    <path
       d="m 20.335124,1014.3235 7.277801,0 0,-1.1658 -7.277801,0 0,1.1658 z m 7.312951,0.096 -7.348101,0 c -0.03352,0 -0.06078,-0.028 -0.06078,-0.061 l 0,-1.2361 c 0,-0.033 0.02726,-0.06 0.06078,-0.06 l 7.348101,0 c 0.03317,0 0.06044,0.028 0.06044,0.06 l 0,1.2361 c 0,0.033 -0.02726,0.061 -0.06044,0.061"
       id="path41278"
       style="fill:#ffffff;fill-opacity:1;fill-rule:nonzero;stroke:none"
       inkscape:connector-curvature="0" />
    <path
       d="m 20.335124,1014.9388 7.286013,0 0,-0.3469 -7.286013,0 0,0.3469 z m 7.321163,0.096 -7.356313,0 c -0.03352,0 -0.06078,-0.028 -0.06078,-0.061 l 0,-0.4168 c 0,-0.034 0.02726,-0.061 0.06078,-0.061 l 7.356313,0 c 0.03317,0 0.06011,0.027 0.06011,0.061 l 0,0.4168 c 0,0.034 -0.02694,0.061 -0.06011,0.061"
       id="path41280"
       style="fill:#ffffff;fill-opacity:1;fill-rule:nonzero;stroke:none"
       inkscape:connector-curvature="0" />
    <path
       d="m 25.61065,1014.5416 c 0,0 -0.0057,0 -0.01255,0 l -3.246843,0 c -0.0072,0 -0.01284,0 -0.01284,0 l 0,-0.1673 c 0,0 0.0057,0 0.01284,0 l 3.246843,0 c 0.007,0 0.01255,0 0.01255,0 l 0,0.1673 z"
       id="path41284"
       style="fill:#ffffff;fill-opacity:1;fill-rule:nonzero;stroke:none"
       inkscape:connector-curvature="0" />
    <path
       d="m 21.178894,1013.3577 c -0.235858,0 -0.4277,0.1918 -0.4277,0.4274 0,0.2358 0.191842,0.4276 0.4277,0.4276 0.235532,0 0.427373,-0.1918 0.427373,-0.4276 0,-0.2356 -0.191841,-0.4274 -0.427373,-0.4274 m 0,0.9029 c -0.262137,0 -0.475331,-0.2134 -0.475331,-0.4755 0,-0.2619 0.213194,-0.4753 0.475331,-0.4753 0.26214,0 0.475004,0.2134 0.475004,0.4753 0,0.2621 -0.212864,0.4755 -0.475004,0.4755"
       id="path41288"
       style="fill:#ffffff;fill-opacity:1;fill-rule:nonzero;stroke:none"
       inkscape:connector-curvature="0" />
    <path
       d="m 21.178894,1013.5371 c -0.136988,0 -0.248012,0.1128 -0.248012,0.2481 0,0.1373 0.11104,0.248 0.248012,0.248 0.136987,0 0.248015,-0.1106 0.248015,-0.248 0,-0.1359 -0.11104,-0.2481 -0.248015,-0.2481 m 0,0.52 c -0.150121,0 -0.271994,-0.1211 -0.271994,-0.2719 0,-0.1497 0.121878,-0.272 0.271994,-0.272 0.149794,0 0.271994,0.1225 0.271994,0.272 0,0.1501 -0.122202,0.2719 -0.271994,0.2719"
       id="path41292"
       style="fill:#e6e6e6;fill-opacity:1;fill-rule:nonzero;stroke:none"
       inkscape:connector-curvature="0" />
    <path
       d="m 21.178894,1013.6876 c -0.05387,0 -0.09757,0.044 -0.09757,0.097 0,0.054 0.04369,0.097 0.09757,0.097 0.05354,0 0.09757,-0.043 0.09757,-0.097 0,-0.053 -0.04402,-0.097 -0.09757,-0.097 m 0,0.2192 c -0.06701,0 -0.121538,-0.054 -0.121538,-0.1213 0,-0.066 0.05453,-0.1209 0.121538,-0.1209 0.06701,0 0.121539,0.054 0.121539,0.1209 0,0.066 -0.05453,0.1213 -0.121539,0.1213"
       id="path41296"
       style="fill:#e6e6e6;fill-opacity:1;fill-rule:nonzero;stroke:none"
       inkscape:connector-curvature="0" />
    <path
       d="m 21.231881,1013.7852 c 0,0.03 -0.02364,0.053 -0.05289,0.053 -0.02925,0 -0.05322,-0.024 -0.05322,-0.053 0,-0.03 0.02398,-0.053 0.05322,-0.053 0.02922,0 0.05289,0.024 0.05289,0.053"
       id="path41300"
       style="fill:#e6e6e6;fill-opacity:1;fill-rule:nonzero;stroke:none"
       inkscape:connector-curvature="0" />
    <path
       d="m 27.062039,1013.7852 c 0,0.014 -0.0091,0.02 -0.02069,0.02 -0.01152,0 -0.02069,-0.014 -0.02069,-0.02 0,-0.014 0.0091,-0.02 0.02069,-0.02 0.01152,0 0.02069,0.014 0.02069,0.02"
       id="path41304"
       style="fill:#979797;fill-opacity:1;fill-rule:nonzero;stroke:none"
       inkscape:connector-curvature="0" />
    <path
       d="m 22.329646,1048.0826 c 0,0.2047 -0.166548,0.3705 -0.372185,0.3705 -0.205309,0 -0.372187,-0.1658 -0.372187,-0.3705 0,-0.2044 0.166878,-0.3706 0.372187,-0.3706 0.205637,0 0.372185,0.1662 0.372185,0.3706"
       id="path41316"
       style="fill:#e6e6e6;fill-opacity:1;fill-rule:nonzero;stroke:none"
       inkscape:connector-curvature="0" />
    <path
       d="m 26.952191,1048.2944 c 0,0.2045 -0.166875,0.3703 -0.372185,0.3703 -0.205637,0 -0.372183,-0.1658 -0.372183,-0.3703 0,-0.2045 0.166546,-0.3703 0.372183,-0.3703 0.20531,0 0.372185,0.1658 0.372185,0.3703"
       id="path41320"
       style="fill:#e6e6e6;fill-opacity:1;fill-rule:nonzero;stroke:none"
       inkscape:connector-curvature="0" />
    <path
       d="m 22.276462,1055.2276 c 0,0.2043 -0.166547,0.3702 -0.372184,0.3702 -0.20531,0 -0.372184,-0.1659 -0.372184,-0.3702 0,-0.2043 0.166874,-0.3701 0.372184,-0.3701 0.205637,0 0.372184,0.1658 0.372184,0.3701"
       id="path41324"
       style="fill:#e6e6e6;fill-opacity:1;fill-rule:nonzero;stroke:none"
       inkscape:connector-curvature="0" />
    <path
       d="m 26.952191,1055.3865 c 0,0.2047 -0.166875,0.3703 -0.372185,0.3703 -0.205637,0 -0.372183,-0.1656 -0.372183,-0.3703 0,-0.2043 0.166546,-0.3706 0.372183,-0.3706 0.20531,0 0.372185,0.1663 0.372185,0.3706"
       id="path41328"
       style="fill:#e6e6e6;fill-opacity:1;fill-rule:nonzero;stroke:none"
       inkscape:connector-curvature="0" />
    <path
       d="m 22.117141,1038.9735 c 0,0.2041 -0.166546,0.37 -0.372184,0.37 -0.205967,0 -0.372514,-0.1659 -0.372514,-0.37 0,-0.2048 0.166547,-0.3707 0.372514,-0.3707 0.205638,0 0.372184,0.1659 0.372184,0.3707"
       id="path41332"
       style="fill:#e6e6e6;fill-opacity:1;fill-rule:nonzero;stroke:none"
       inkscape:connector-curvature="0" />
    <path
       d="m 26.886524,1038.9058 c 0,0.2043 -0.166875,0.3701 -0.372513,0.3701 -0.205309,0 -0.372184,-0.1658 -0.372184,-0.3704 0,-0.2044 0.166875,-0.3702 0.372184,-0.3702 0.205638,0 0.372513,0.1658 0.372513,0.3705"
       id="path41336"
       style="fill:#ffffff;fill-opacity:1;fill-rule:nonzero;stroke:none"
       inkscape:connector-curvature="0" />
    <path
       d="m 21.532094,1058.5354 c 0,0.2049 -0.166878,0.3707 -0.372515,0.3707 -0.20531,0 -0.372184,-0.1658 -0.372184,-0.3707 0,-0.2042 0.166874,-0.3701 0.372184,-0.3701 0.205637,0 0.372515,0.1659 0.372515,0.3701"
       id="path41340"
       style="fill:#e6e6e6;fill-opacity:1;fill-rule:nonzero;stroke:none"
       inkscape:connector-curvature="0" />
    <path
       d="m 27.377428,1058.5088 c 0,0.2048 -0.16622,0.3707 -0.372184,0.3707 -0.20531,0 -0.372186,-0.1659 -0.372186,-0.3707 0,-0.2041 0.166876,-0.37 0.372186,-0.37 0.205964,0 0.372184,0.1659 0.372184,0.37"
       id="path41344"
       style="fill:#e6e6e6;fill-opacity:1;fill-rule:nonzero;stroke:none"
       inkscape:connector-curvature="0" />
    <path
       d="m 21.276819,1058.5617 -0.23356,-0.052 0.741414,-3.2951 0.05223,-7.6624 -0.215493,-8.6709 5.010202,-0.062 0.06768,9.472 3.16e-4,7.0874 0.424414,3.1144 -0.237172,0.033 -0.426386,-3.1386 0,-7.0918 -0.05552,-9.2183 -4.5375,0.043 0.208922,8.4299 -0.05257,7.6917 -0.746997,3.3205 z"
       id="path41348"
       style="fill:#e6e6e6;fill-opacity:1;fill-rule:nonzero;stroke:none"
       inkscape:connector-curvature="0" />
    <path
       d="m 25.026555,1020.8243 c 0,0.3946 -0.321597,0.7143 -0.71809,0.7143 -0.396165,0 -0.717761,-0.3197 -0.717761,-0.7143 0,-0.3947 0.321596,-0.7147 0.717761,-0.7147 0.396493,0 0.71809,0.32 0.71809,0.7147"
       id="path41352"
       style="fill:#ffffff;fill-opacity:1;fill-rule:nonzero;stroke:none"
       inkscape:connector-curvature="0" />
    <path
       d="m 19.575775,1038.9262 c 0,0.2047 -0.166876,0.3706 -0.372186,0.3706 -0.205965,0 -0.372842,-0.1659 -0.372842,-0.3706 0,-0.2043 0.166877,-0.3703 0.372842,-0.3703 0.20531,0 0.372186,0.166 0.372186,0.3703"
       id="path41356"
       style="fill:#ffffff;fill-opacity:1;fill-rule:nonzero;stroke:none"
       inkscape:connector-curvature="0" />
    <path
       d="m 29.786182,1038.6615 c 0,0.2047 -0.166876,0.3705 -0.372515,0.3705 -0.205636,0 -0.371855,-0.1658 -0.371855,-0.3705 0,-0.2048 0.166219,-0.3702 0.371855,-0.3702 0.205639,0 0.372515,0.1654 0.372515,0.3702"
       id="path41360"
       style="fill:#ffffff;fill-opacity:1;fill-rule:nonzero;stroke:none"
       inkscape:connector-curvature="0" />
    <path
       d="m 19.814853,1033.2633 c 0,0.2047 -0.166548,0.3704 -0.372185,0.3704 -0.205638,0 -0.372185,-0.1657 -0.372185,-0.3704 0,-0.2047 0.166547,-0.3705 0.372185,-0.3705 0.205637,0 0.372185,0.1658 0.372185,0.3705"
       id="path41364"
       style="fill:#ffffff;fill-opacity:1;fill-rule:nonzero;stroke:none"
       inkscape:connector-curvature="0" />
    <path
       d="m 29.59989,1032.9458 c 0,0.2043 -0.166545,0.3701 -0.372183,0.3701 -0.205637,0 -0.372185,-0.1658 -0.372185,-0.3701 0,-0.2047 0.166548,-0.3706 0.372185,-0.3706 0.205638,0 0.372183,0.1659 0.372183,0.3706"
       id="path41368"
       style="fill:#ffffff;fill-opacity:1;fill-rule:nonzero;stroke:none"
       inkscape:connector-curvature="0" />
    <path
       d="m 20.240384,1026.224 c 0,0.2042 -0.166546,0.3705 -0.372511,0.3705 -0.20531,0 -0.372186,-0.1663 -0.372186,-0.3705 0,-0.2045 0.166876,-0.3704 0.372186,-0.3704 0.205965,0 0.372511,0.1659 0.372511,0.3704"
       id="path41372"
       style="fill:#ffffff;fill-opacity:1;fill-rule:nonzero;stroke:none"
       inkscape:connector-curvature="0" />
    <path
       d="m 29.147982,1026.171 c 0,0.2051 -0.166875,0.3702 -0.372184,0.3702 -0.205967,0 -0.372186,-0.1651 -0.372186,-0.3702 0,-0.2044 0.166219,-0.3705 0.372186,-0.3705 0.205309,0 0.372184,0.1661 0.372184,0.3705"
       id="path41376"
       style="fill:#ffffff;fill-opacity:1;fill-rule:nonzero;stroke:none"
       inkscape:connector-curvature="0" />
    <path
       d="m 24.547805,1038.9506 c 0,0.2044 -0.166546,0.3704 -0.372184,0.3704 -0.20531,0 -0.372184,-0.166 -0.372184,-0.3704 0,-0.2042 0.166874,-0.3705 0.372184,-0.3705 0.205638,0 0.372184,0.1663 0.372184,0.3705"
       id="path41380"
       style="fill:#ffffff;fill-opacity:1;fill-rule:nonzero;stroke:none"
       inkscape:connector-curvature="0" />
    <path
       d="m 20.320274,1040.9053 c 0,0.2045 -0.166217,0.3703 -0.372184,0.3703 -0.205637,0 -0.372185,-0.1658 -0.372185,-0.3703 0,-0.2044 0.166548,-0.3703 0.372185,-0.3703 0.205967,0 0.372184,0.1659 0.372184,0.3703"
       id="path41384"
       style="fill:#ffffff;fill-opacity:1;fill-rule:nonzero;stroke:none"
       inkscape:connector-curvature="0" />
    <path
       d="m 18.678852,1041.9479 c 0.111366,0.1712 0.06241,0.4011 -0.110046,0.5131 -0.172461,0.1127 -0.402736,0.063 -0.514095,-0.1061 -0.111366,-0.1714 -0.06209,-0.4017 0.110047,-0.5136 0.17246,-0.1118 0.402405,-0.063 0.514094,0.1082"
       id="path41388"
       style="fill:#ffffff;fill-opacity:1;fill-rule:nonzero;stroke:none"
       inkscape:connector-curvature="0" />
    <path
       d="m 19.211836,1040.2882 c 0.111366,0.1712 0.06241,0.4012 -0.110047,0.5131 -0.17246,0.1128 -0.402735,0.063 -0.514095,-0.1061 -0.111367,-0.1717 -0.06241,-0.4018 0.110046,-0.5139 0.17246,-0.1128 0.402406,-0.063 0.514096,0.1083"
       id="path41392"
       style="fill:#ffffff;fill-opacity:1;fill-rule:nonzero;stroke:none"
       inkscape:connector-curvature="0" />
    <path
       d="m 30.706523,1041.7482 c 0.08869,0.1839 0.01152,0.4059 -0.173773,0.4958 -0.184943,0.09 -0.407333,0.014 -0.496355,-0.1711 -0.08936,-0.1844 -0.01152,-0.4064 0.173445,-0.4958 0.18527,-0.09 0.407333,-0.014 0.496683,0.1711"
       id="path41396"
       style="fill:#ffffff;fill-opacity:1;fill-rule:nonzero;stroke:none"
       inkscape:connector-curvature="0" />
    <path
       d="m 30.199065,1039.9561 c 0.08902,0.1838 0.01152,0.4062 -0.173774,0.4955 -0.184942,0.09 -0.407005,0.014 -0.496355,-0.1711 -0.08902,-0.184 -0.01152,-0.406 0.173774,-0.4957 0.184942,-0.09 0.407333,-0.014 0.496355,0.1713"
       id="path41400"
       style="fill:#ffffff;fill-opacity:1;fill-rule:nonzero;stroke:none"
       inkscape:connector-curvature="0" />
    <path
       d="m 24.654238,1033.3159 c 0,0.2048 -0.166546,0.3703 -0.372512,0.3703 -0.205311,0 -0.371857,-0.1655 -0.371857,-0.3703 0,-0.2042 0.166546,-0.3701 0.371857,-0.3701 0.205966,0 0.372512,0.1659 0.372512,0.3701"
       id="path41404"
       style="fill:#ffffff;fill-opacity:1;fill-rule:nonzero;stroke:none"
       inkscape:connector-curvature="0" />
    <path
       d="m 24.806036,1025.1503 c 0,0.2048 -0.166546,0.3703 -0.372184,0.3703 -0.205639,0 -0.372185,-0.1655 -0.372185,-0.3703 0,-0.2043 0.166546,-0.3701 0.372185,-0.3701 0.205638,0 0.372184,0.1658 0.372184,0.3701"
       id="path41408"
       style="fill:#ffffff;fill-opacity:1;fill-rule:nonzero;stroke:none"
       inkscape:connector-curvature="0" />
    <path
       d="m 24.806036,1023.5017 c 0,0.2047 -0.166546,0.3706 -0.372184,0.3706 -0.205639,0 -0.372185,-0.1659 -0.372185,-0.3706 0,-0.2042 0.166546,-0.37 0.372185,-0.37 0.205638,0 0.372184,0.1658 0.372184,0.37"
       id="path41412"
       style="fill:#ffffff;fill-opacity:1;fill-rule:nonzero;stroke:none"
       inkscape:connector-curvature="0" />
    <path
       d="m 29.041713,1040.4909 c 0,0.2045 -0.166547,0.3703 -0.372185,0.3703 -0.205637,0 -0.372184,-0.1658 -0.372184,-0.3703 0,-0.2045 0.166547,-0.37 0.372184,-0.37 0.205638,0 0.372185,0.1655 0.372185,0.37"
       id="path41416"
       style="fill:#ffffff;fill-opacity:1;fill-rule:nonzero;stroke:none"
       inkscape:connector-curvature="0" />
    <path
       d="m 20.067498,1040.9122 -0.238815,-0.014 -0.744699,-1.9788 0.239145,-5.6613 0.430328,-7.1193 4.688606,-1.1616 4.447819,1.1085 0.457267,6.8523 0.186583,5.7278 -0.745024,1.8367 -0.238159,-0.024 0.743383,-1.8211 -0.185599,-5.7086 -0.446754,-6.6933 -4.2205,-1.0258 -4.458003,1.0789 -0.420802,6.9611 -0.239145,5.6611 0.744369,1.9807 z"
       id="path41420"
       style="fill:#ffffff;fill-opacity:1;fill-rule:nonzero;stroke:none"
       inkscape:connector-curvature="0" />
    <path
       d="m 24.300581,1038.904 -0.238817,-0.014 0.260169,-13.2383 -0.133044,-4.7705 0.239143,-0.014 0.133369,4.7757 -0.260825,13.2539 z"
       id="path41424"
       style="fill:#ffffff;fill-opacity:1;fill-rule:nonzero;stroke:none"
       inkscape:connector-curvature="0" />
    <path
       d="m 30.483577,1041.8686 -0.224363,0.083 -0.520665,-1.8738 -0.378425,-1.3734 0.216477,-0.1015 0.380727,1.3781 0.526249,1.8878 z"
       id="path41428"
       style="fill:#ffffff;fill-opacity:1;fill-rule:nonzero;stroke:none"
       inkscape:connector-curvature="0" />
    <path
       d="m 18.252466,1042.3112 0.238487,0.02 0.478289,-1.809 0.337692,-1.4385 -0.235531,-0.041 -0.338679,1.4434 -0.480258,1.8242 z"
       id="path41432"
       style="fill:#ffffff;fill-opacity:1;fill-rule:nonzero;stroke:none"
       inkscape:connector-curvature="0" />
  </g>
</svg>
