<?xml version="1.0" encoding="UTF-8" standalone="no"?>
<!-- Created with Inkscape (http://www.inkscape.org/) -->

<svg
   xmlns:dc="http://purl.org/dc/elements/1.1/"
   xmlns:cc="http://creativecommons.org/ns#"
   xmlns:rdf="http://www.w3.org/1999/02/22-rdf-syntax-ns#"
   xmlns:svg="http://www.w3.org/2000/svg"
   xmlns="http://www.w3.org/2000/svg"
   version="1.1"
   width="40"
   height="40"
   id="svg5115">
  <defs
     id="defs5117">
    <clipPath
       id="clipPath3064">
      <path
         d="m 197.501,209.335 176.899,0 0,85.329 -176.899,0 0,-85.329 z"
         id="path3066" />
    </clipPath>
    <clipPath
       id="clipPath3108">
      <path
         d="m 197.501,209.335 176.899,0 0,85.329 -176.899,0 0,-85.329 z"
         id="path3110" />
    </clipPath>
    <clipPath
       id="clipPath3212">
      <path
         d="m 197.501,209.335 176.899,0 0,85.329 -176.899,0 0,-85.329 z"
         id="path3214" />
    </clipPath>
    <clipPath
       id="clipPath3252">
      <path
         d="m 197.501,209.335 176.899,0 0,85.329 -176.899,0 0,-85.329 z"
         id="path3254" />
    </clipPath>
    <clipPath
       id="clipPath3272">
      <path
         d="m 197.501,209.335 176.899,0 0,85.329 -176.899,0 0,-85.329 z"
         id="path3274" />
    </clipPath>
    <clipPath
       id="clipPath3296">
      <path
         d="m 197.501,209.335 176.899,0 0,85.329 -176.899,0 0,-85.329 z"
         id="path3298" />
    </clipPath>
    <clipPath
       id="clipPath3320">
      <path
         d="m 197.501,209.335 176.899,0 0,85.329 -176.899,0 0,-85.329 z"
         id="path3322" />
    </clipPath>
  </defs>
  <metadata
     id="metadata5120">
    <rdf:RDF>
      <cc:Work
         rdf:about="">
        <dc:format>image/svg+xml</dc:format>
        <dc:type
           rdf:resource="http://purl.org/dc/dcmitype/StillImage" />
        <dc:title></dc:title>
      </cc:Work>
    </rdf:RDF>
  </metadata>
  <g
     id="layer2">
    <g
       id="g6720">
      <path
         d="m 39.009587,17.954753 0.861181,-0.129049 C 39.866736,17.766312 39.127271,5.1818467 23.888138,4.8999189 18.851932,4.8067984 12.000976,6.809989 8.1265766,14.720465 7.4794991,16.04175 7.4699671,16.394068 6.587522,17.825704 l -0.1400473,-0.102286 -0.3174896,0.338754 0.2045718,0.231701 c -0.7156347,0.623981 -0.9040754,0.365883 -2.0501174,0.640112 l -0.048393,-0.161311 c 0,0 -0.9847309,0.355251 -1.4367686,0.694004 L 2.5892064,19.289236 c 0,0 -0.9040754,0.548824 -1.1944354,1.275457 0,0 -0.67823982,0.613349 -0.93633759,1.016993 -0.25846437,0.403645 -0.56532208,10.04125 -0.0487599,11.445756 0,0 0.78419189,1.446301 2.37347289,1.872676 0.6617421,0.177808 3.8098749,0.258464 5.2627746,0.161677 0,0 2.486024,-0.33912 2.696095,-0.387513 0.209705,-0.04839 0.647444,-0.05023 0.778693,-0.443972 l 0.08066,-0.241967 c 0,0 4.984513,0.0081 5.727278,-3.8667 l 12.220782,-2.556048 c 0,0 0.301359,0.430407 0.860815,0.473668 0.559823,0.04289 2.260188,0.02163 2.260188,0.02163 0,0 0.999029,-0.05023 1.076385,-0.764395 0.04289,-0.398145 0.06453,-0.597218 0.06453,-0.597218 l 3.486886,-0.758895 0,0.298792 c 0,0 0.0242,0.395579 0.476234,0.395579 0.470735,0 0.452038,-0.379448 0.460103,-0.468169 0.0081,-0.08872 0.01613,-0.435907 0.01613,-0.435907 l 1.092516,-0.210071 -0.957968,-5.962278 -0.215204,-0.05389 0,-0.441039 c 0,0 0.01063,-0.247466 -0.236834,-0.279728 0,0 0.667608,-0.03263 0.785658,-0.796657 l 0.290727,-0.03226 z"
         id="path3070"
         style="fill:none;stroke:#ffffff;stroke-width:0.25846437;stroke-linecap:butt;stroke-linejoin:miter;stroke-miterlimit:10;stroke-opacity:1;stroke-dasharray:none" />
      <path
         d="m 37.07235,19.644413 -3.503384,0.677873 -0.09679,-0.742397 -0.696938,0.03226 0,0.877312 -0.823053,0.02676 0,-0.941837 -0.716001,0 0,0.877313 -0.831119,0.06452 0,-0.984731 -0.67824,0 -0.258098,1.759758 -12.21015,2.615073 c -0.452038,-2.367607 -2.067349,-2.603342 -2.410868,-2.636704 -0.441039,-0.04326 -3.164264,-0.322988 -3.164264,-0.322988 -0.06452,-0.817921 -0.559456,-0.914708 -0.903709,-0.957602 -0.344619,-0.04326 -2.0666149,-0.258464 -2.0666149,-0.258464 0,0 2.0446179,-13.0698656 15.1537119,-12.8234996 13.754337,0.2580978 12.699583,10.4555256 12.699583,10.6710956 0,0.152146 -0.03226,0.720768 0.419775,1.076019 0,0 -0.04289,0.796657 0.08615,0.99023 z"
         id="path3074"
         style="fill:none;stroke:#ffffff;stroke-width:0.25846437;stroke-linecap:butt;stroke-linejoin:miter;stroke-miterlimit:10;stroke-opacity:1;stroke-dasharray:none" />
      <path
         d="M 38.934284,17.890155 C 38.930251,17.83113 38.481513,6.0642182 23.24238,5.7822904 18.206174,5.6891699 11.942904,8.2147884 8.4171565,16.286576 7.8038077,17.691082 7.6582611,17.868525 7.1900923,18.465742 l 0.1345481,0.134915 -0.3009918,0.300992 -0.2045718,-0.193573 c -0.6672414,0.915073 -1.679102,0.634979 -2.5589807,0.920206 l 0,0.193573"
         id="path3078"
         style="fill:none;stroke:#ffffff;stroke-width:0.12904888;stroke-linecap:butt;stroke-linejoin:miter;stroke-miterlimit:10;stroke-opacity:1;stroke-dasharray:none" />
      <path
         d="m 8.3041283,19.741273 c 0,0 1.8745087,-13.4584785 15.5947507,-13.2377756 C 37.943943,6.729333 37.007606,17.497216 37.072497,17.836336"
         id="path3082"
         style="fill:none;stroke:#ffffff;stroke-width:0.12904888;stroke-linecap:butt;stroke-linejoin:miter;stroke-miterlimit:10;stroke-opacity:1;stroke-dasharray:none" />
      <path
         d="m 1.4645376,20.596882 c 0,0 1.2054339,-0.661742 1.6897338,-0.694004 0.4190422,-0.02823 4.5526392,-0.145547 4.7300814,-0.145547 0.1774422,0 0.7588954,0.03226 0.7588954,0.03226"
         id="path3086"
         style="fill:none;stroke:#ffffff;stroke-width:0.12904888;stroke-linecap:butt;stroke-linejoin:miter;stroke-miterlimit:10;stroke-opacity:1;stroke-dasharray:none" />
      <path
         d="m 11.516749,33.980058 c 0.05023,-0.193207 0.04839,-0.581087 0.04839,-0.581087 l 0,-4.22965 c 0,0 -2.1971302,-0.0026 -2.4860237,-0.03226 -0.4681688,-0.04839 -2.0988774,-0.258465 -2.0504841,-2.098878 0.041794,-1.585614 1.4693975,-1.840413 1.9375663,-1.856544 0.2419667,-0.0081 2.5182865,-0.06452 2.5182865,-0.06452 0,0 0.04839,-3.083609 0,-4.019946 -0.04839,-0.936338 -0.887945,-0.855316 -0.887945,-0.855316 l -7.5229627,0.14518 c 0,0 -0.2907266,0.06452 -0.5972177,0.193574 -0.3068577,0.129415 -1.55005304,0.952468 -1.59844637,1.210933 -0.0483933,0.258098 -0.22583554,9.734758 -0.0322622,11.090871 0.0711235,0.496399 1.64683967,1.356113 1.88880637,1.356113 0.2423332,0 7.7975586,0.14518 7.9266076,0.14518 0.129049,0 0.758895,-0.03226 0.855682,-0.403644 z"
         id="path3090"
         style="fill:none;stroke:#ffffff;stroke-width:0.12904888;stroke-linecap:butt;stroke-linejoin:miter;stroke-miterlimit:10;stroke-opacity:1;stroke-dasharray:none" />
      <g
         transform="matrix(0.36661614,0,0,-0.36661614,0.45828629,21.58165)"
         id="g3092"
         style="stroke:#ffffff">
        <path
           d="M 0,0 1.145,-0.572"
           id="path3094"
           style="fill:none;stroke:#ffffff;stroke-width:0.352;stroke-linecap:butt;stroke-linejoin:miter;stroke-miterlimit:10;stroke-opacity:1;stroke-dasharray:none" />
      </g>
      <g
         transform="matrix(0.36661614,0,0,-0.36661614,0.4098563,33.027589)"
         id="g3096"
         style="stroke:#ffffff">
        <path
           d="M 0,0 0.984,0.396"
           id="path3098"
           style="fill:none;stroke:#ffffff;stroke-width:0.352;stroke-linecap:butt;stroke-linejoin:miter;stroke-miterlimit:10;stroke-opacity:1;stroke-dasharray:none" />
      </g>
      <g
         transform="matrix(0.36661614,0,0,-0.36661614,2.9444203,19.945772)"
         id="g3100"
         style="stroke:#ffffff">
        <path
           d="M 0,0 -0.235,-1.292"
           id="path3102"
           style="fill:none;stroke:#ffffff;stroke-width:0.352;stroke-linecap:butt;stroke-linejoin:miter;stroke-miterlimit:10;stroke-opacity:1;stroke-dasharray:none" />
      </g>
      <g
         transform="matrix(0.36661614,0,0,-0.36661614,-72.90153,112.4479)"
         id="g3104"
         style="stroke:#ffffff">
        <g
           clip-path="url(#clipPath3108)"
           id="g3106"
           style="stroke:#ffffff">
          <g
             transform="translate(206.4115,250.9042)"
             id="g3112"
             style="stroke:#ffffff">
            <path
               d="m 0,0 c 0,0 0.176,-5.46 0.117,-7.398 -0.058,-1.937 0,-23.309 0,-23.309 l -0.22,-6.869 0.396,-1.879"
               id="path3114"
               style="fill:none;stroke:#ffffff;stroke-width:0.352;stroke-linecap:butt;stroke-linejoin:miter;stroke-miterlimit:10;stroke-opacity:1;stroke-dasharray:none" />
          </g>
          <g
             transform="translate(219.3428,252.739)"
             id="g3116"
             style="stroke:#ffffff">
            <path
               d="m 0,0 7.662,-1.101 c 0,0 1.761,-0.308 1.938,-2.554 0.176,-2.246 0,-9.555 0,-9.555 0,0 -4.889,-0.158 -5.769,-0.221 -1.849,-0.132 -6.418,-1.234 -6.561,-6.164 -0.176,-6.077 4.447,-7.178 6.913,-7.266 0.794,-0.028 5.505,-0.088 5.505,-0.088 0,0 -0.026,-9.594 -0.044,-10.216 -0.03,-1.013 0.029,-2.452 -1.057,-2.642"
               id="path3118"
               style="fill:none;stroke:#ffffff;stroke-width:0.352;stroke-linecap:butt;stroke-linejoin:miter;stroke-miterlimit:10;stroke-opacity:1;stroke-dasharray:none" />
          </g>
          <g
             transform="translate(226.7405,232.542)"
             id="g3120"
             style="stroke:#ffffff">
            <path
               d="m 0,0 c 0,-1.946 -1.577,-3.523 -3.523,-3.523 -1.945,0 -3.523,1.577 -3.523,3.523 0,1.945 1.578,3.523 3.523,3.523 C -1.577,3.523 0,1.945 0,0 z"
               id="path3122"
               style="fill:none;stroke:#ffffff;stroke-width:0.352;stroke-linecap:butt;stroke-linejoin:miter;stroke-miterlimit:10;stroke-opacity:1;stroke-dasharray:none" />
          </g>
          <g
             transform="translate(225.7131,232.542)"
             id="g3124"
             style="stroke:#ffffff">
            <path
               d="m 0,0 c 0,-1.378 -1.117,-2.495 -2.495,-2.495 -1.378,0 -2.495,1.117 -2.495,2.495 0,1.378 1.117,2.495 2.495,2.495 C -1.117,2.495 0,1.378 0,0 z"
               id="path3126"
               style="fill:none;stroke:#ffffff;stroke-width:0.352;stroke-linecap:butt;stroke-linejoin:miter;stroke-miterlimit:10;stroke-opacity:1;stroke-dasharray:none" />
          </g>
          <g
             transform="translate(230.1313,240.6882)"
             id="g3128"
             style="stroke:#ffffff">
            <path
               d="m 0,0 -6.576,-0.117 c 0,0 -8.161,-0.059 -8.22,-7.574 -0.058,-7.516 6.287,-8.238 6.987,-8.338 1.028,-0.146 8.029,-0.058 8.029,-0.058"
               id="path3130"
               style="fill:none;stroke:#ffffff;stroke-width:0.352;stroke-linecap:butt;stroke-linejoin:miter;stroke-miterlimit:10;stroke-opacity:1;stroke-dasharray:none" />
          </g>
        </g>
      </g>
      <g
         transform="matrix(0.36661614,0,0,-0.36661614,7.6422395,27.19425)"
         id="g3132"
         style="stroke:#ffffff">
        <path
           d="M 0,0 0.895,0"
           id="path3134"
           style="fill:none;stroke:#ffffff;stroke-width:0.352;stroke-linecap:butt;stroke-linejoin:miter;stroke-miterlimit:10;stroke-opacity:1;stroke-dasharray:none" />
      </g>
      <g
         transform="matrix(0.36661614,0,0,-0.36661614,9.8700925,27.19425)"
         id="g3136"
         style="stroke:#ffffff">
        <path
           d="M 0,0 0.895,0"
           id="path3138"
           style="fill:none;stroke:#ffffff;stroke-width:0.352;stroke-linecap:butt;stroke-linejoin:miter;stroke-miterlimit:10;stroke-opacity:1;stroke-dasharray:none" />
      </g>
      <g
         transform="matrix(0.36661614,0,0,-0.36661614,9.4829092,27.666231)"
         id="g3140"
         style="stroke:#ffffff">
        <path
           d="M 0,0 -3.252,2.019 -2.931,2.535 0.321,0.517 0,0 z"
           id="path3142"
           style="fill:none;stroke:#ffffff;stroke-width:0.352;stroke-linecap:butt;stroke-linejoin:miter;stroke-miterlimit:10;stroke-opacity:1;stroke-dasharray:none" />
      </g>
      <g
         transform="matrix(0.36661614,0,0,-0.36661614,0.83498437,23.368244)"
         id="g3144"
         style="stroke:#ffffff">
        <path
           d="m 0,0 5.401,0.528 0,0.235 23.544,0.646"
           id="path3146"
           style="fill:none;stroke:#ffffff;stroke-width:0.352;stroke-linecap:butt;stroke-linejoin:miter;stroke-miterlimit:10;stroke-opacity:1;stroke-dasharray:none" />
      </g>
      <g
         transform="matrix(0.36661614,0,0,-0.36661614,0.79194364,31.35406)"
         id="g3148"
         style="stroke:#ffffff">
        <path
           d="M 0,0 5.343,-0.352 5.519,-0.646 29.239,-1.35"
           id="path3150"
           style="fill:none;stroke:#ffffff;stroke-width:0.352;stroke-linecap:butt;stroke-linejoin:miter;stroke-miterlimit:10;stroke-opacity:1;stroke-dasharray:none" />
      </g>
      <g
         transform="matrix(0.36661614,0,0,-0.36661614,8.9768689,25.662014)"
         id="g3152"
         style="stroke:#ffffff">
        <path
           d="m 0,0 -0.47,0 0,0.675 0.47,0 L 0,0 z"
           id="path3154"
           style="fill:none;stroke:#ffffff;stroke-width:0.264;stroke-linecap:butt;stroke-linejoin:miter;stroke-miterlimit:10;stroke-opacity:1;stroke-dasharray:none" />
      </g>
      <g
         transform="matrix(0.36661614,0,0,-0.36661614,10.294927,26.579801)"
         id="g3156"
         style="stroke:#ffffff">
        <path
           d="M 0,0 -0.216,0.417 0.383,0.728 0.599,0.311 0,0 z"
           id="path3158"
           style="fill:none;stroke:#ffffff;stroke-width:0.264;stroke-linecap:butt;stroke-linejoin:miter;stroke-miterlimit:10;stroke-opacity:1;stroke-dasharray:none" />
      </g>
      <g
         transform="matrix(0.36661614,0,0,-0.36661614,10.123718,26.289698)"
         id="g3160"
         style="stroke:#ffffff">
        <path
           d="M 0,0 -0.294,0.366 0.231,0.789 0.526,0.423 0,0 z"
           id="path3162"
           style="fill:none;stroke:#ffffff;stroke-width:0.264;stroke-linecap:butt;stroke-linejoin:miter;stroke-miterlimit:10;stroke-opacity:1;stroke-dasharray:none" />
      </g>
      <g
         transform="matrix(0.36661614,0,0,-0.36661614,7.6791578,26.289698)"
         id="g3164"
         style="stroke:#ffffff">
        <path
           d="M 0,0 0.294,0.366 -0.231,0.789 -0.526,0.423 0,0 z"
           id="path3166"
           style="fill:none;stroke:#ffffff;stroke-width:0.264;stroke-linecap:butt;stroke-linejoin:miter;stroke-miterlimit:10;stroke-opacity:1;stroke-dasharray:none" />
      </g>
      <g
         transform="matrix(0.36661614,0,0,-0.36661614,7.5189099,26.579801)"
         id="g3168"
         style="stroke:#ffffff">
        <path
           d="M 0,0 0.216,0.417 -0.383,0.728 -0.599,0.311 0,0 z"
           id="path3170"
           style="fill:none;stroke:#ffffff;stroke-width:0.264;stroke-linecap:butt;stroke-linejoin:miter;stroke-miterlimit:10;stroke-opacity:1;stroke-dasharray:none" />
      </g>
      <g
         transform="matrix(0.36661614,0,0,-0.36661614,7.916835,26.044285)"
         id="g3172"
         style="stroke:#ffffff">
        <path
           d="M 0,0 0.349,0.315 -0.103,0.816 -0.452,0.502 0,0 z"
           id="path3174"
           style="fill:none;stroke:#ffffff;stroke-width:0.264;stroke-linecap:butt;stroke-linejoin:miter;stroke-miterlimit:10;stroke-opacity:1;stroke-dasharray:none" />
      </g>
      <g
         transform="matrix(0.36661614,0,0,-0.36661614,8.1630911,25.846275)"
         id="g3176"
         style="stroke:#ffffff">
        <path
           d="M 0,0 0.42,0.212 0.116,0.815 -0.303,0.603 0,0 z"
           id="path3178"
           style="fill:none;stroke:#ffffff;stroke-width:0.264;stroke-linecap:butt;stroke-linejoin:miter;stroke-miterlimit:10;stroke-opacity:1;stroke-dasharray:none" />
      </g>
      <g
         transform="matrix(0.36661614,0,0,-0.36661614,8.463753,25.71433)"
         id="g3180"
         style="stroke:#ffffff">
        <path
           d="M 0,0 0.46,0.094 0.326,0.756 -0.135,0.662 0,0 z"
           id="path3182"
           style="fill:none;stroke:#ffffff;stroke-width:0.264;stroke-linecap:butt;stroke-linejoin:miter;stroke-miterlimit:10;stroke-opacity:1;stroke-dasharray:none" />
      </g>
      <g
         transform="matrix(0.36661614,0,0,-0.36661614,9.3110395,25.71433)"
         id="g3184"
         style="stroke:#ffffff">
        <path
           d="M 0,0 -0.46,0.094 -0.326,0.756 0.135,0.662 0,0 z"
           id="path3186"
           style="fill:none;stroke:#ffffff;stroke-width:0.264;stroke-linecap:butt;stroke-linejoin:miter;stroke-miterlimit:10;stroke-opacity:1;stroke-dasharray:none" />
      </g>
      <g
         transform="matrix(0.36661614,0,0,-0.36661614,9.6237265,25.846275)"
         id="g3188"
         style="stroke:#ffffff">
        <path
           d="M 0,0 -0.42,0.212 -0.116,0.815 0.303,0.603 0,0 z"
           id="path3190"
           style="fill:none;stroke:#ffffff;stroke-width:0.264;stroke-linecap:butt;stroke-linejoin:miter;stroke-miterlimit:10;stroke-opacity:1;stroke-dasharray:none" />
      </g>
      <g
         transform="matrix(0.36661614,0,0,-0.36661614,9.8862236,26.038969)"
         id="g3192"
         style="stroke:#ffffff">
        <path
           d="M 0,0 -0.349,0.315 0.103,0.816 0.452,0.502 0,0 z"
           id="path3194"
           style="fill:none;stroke:#ffffff;stroke-width:0.264;stroke-linecap:butt;stroke-linejoin:miter;stroke-miterlimit:10;stroke-opacity:1;stroke-dasharray:none" />
      </g>
      <g
         transform="matrix(0.36661614,0,0,-0.36661614,11.2423,25.165579)"
         id="g3196"
         style="stroke:#ffffff">
        <path
           d="M 0,0 0,-10.788"
           id="path3198"
           style="fill:none;stroke:#ffffff;stroke-width:0.352;stroke-linecap:butt;stroke-linejoin:miter;stroke-miterlimit:10;stroke-opacity:1;stroke-dasharray:none" />
      </g>
      <g
         transform="matrix(0.36661614,0,0,-0.36661614,11.032449,24.632813)"
         id="g3200"
         style="stroke:#ffffff">
        <path
           d="M 0,0 0,-1.277"
           id="path3202"
           style="fill:none;stroke:#ffffff;stroke-width:0.352;stroke-linecap:butt;stroke-linejoin:miter;stroke-miterlimit:10;stroke-opacity:1;stroke-dasharray:none" />
      </g>
      <g
         transform="matrix(0.36661614,0,0,-0.36661614,11.056646,29.217677)"
         id="g3204"
         style="stroke:#ffffff">
        <path
           d="M 0,0 0,-1.277"
           id="path3206"
           style="fill:none;stroke:#ffffff;stroke-width:0.352;stroke-linecap:butt;stroke-linejoin:miter;stroke-miterlimit:10;stroke-opacity:1;stroke-dasharray:none" />
      </g>
      <g
         transform="matrix(0.36661614,0,0,-0.36661614,-72.90153,112.4479)"
         id="g3208"
         style="stroke:#ffffff">
        <g
           clip-path="url(#clipPath3212)"
           id="g3210"
           style="stroke:#ffffff">
          <g
             transform="translate(245.8663,241.3341)"
             id="g3216"
             style="stroke:#ffffff">
            <path
               d="m 0,0 c -1.703,-0.352 -2.821,-0.649 -3.611,-0.734 -0.822,-0.088 -8.954,0.029 -8.954,0.029 l 0,-15.852 12.77,-0.029"
               id="path3218"
               style="fill:none;stroke:#ffffff;stroke-width:0.352;stroke-linecap:butt;stroke-linejoin:miter;stroke-miterlimit:10;stroke-opacity:1;stroke-dasharray:none" />
          </g>
          <g
             transform="translate(233.9769,240.6882)"
             id="g3220"
             style="stroke:#ffffff">
            <path
               d="m 0,0 c 0,0 0.059,0.382 -0.352,0.382 l -1.174,0 0,-16.807 1.174,0 c 0,0 0.411,0.015 0.44,0.426"
               id="path3222"
               style="fill:none;stroke:#ffffff;stroke-width:0.352;stroke-linecap:butt;stroke-linejoin:miter;stroke-miterlimit:10;stroke-opacity:1;stroke-dasharray:none" />
          </g>
          <g
             transform="translate(230.3515,248.5998)"
             id="g3224"
             style="stroke:#ffffff">
            <path
               d="m 0,0 c 0,0 7.618,-0.793 7.926,-0.837 0.308,-0.044 4.624,-0.704 5.945,-6.649"
               id="path3226"
               style="fill:none;stroke:#ffffff;stroke-width:0.352;stroke-linecap:butt;stroke-linejoin:miter;stroke-miterlimit:10;stroke-opacity:1;stroke-dasharray:none" />
          </g>
          <g
             transform="translate(230.3074,248.1446)"
             id="g3228"
             style="stroke:#ffffff">
            <path
               d="M 0,0 C 1.517,-0.158 7.115,-0.813 7.383,-0.851 7.691,-0.895 12.007,-1.556 13.328,-7.5"
               id="path3230"
               style="fill:none;stroke:#ffffff;stroke-width:0.352;stroke-linecap:butt;stroke-linejoin:miter;stroke-miterlimit:10;stroke-opacity:1;stroke-dasharray:none" />
          </g>
          <g
             transform="translate(230.2194,247.5429)"
             id="g3232"
             style="stroke:#ffffff">
            <path
               d="m 0,0 c 0,0 4.536,-0.661 5.416,-0.881 0.881,-0.22 5.24,-0.572 5.372,-6.032"
               id="path3234"
               style="fill:none;stroke:#ffffff;stroke-width:0.352;stroke-linecap:butt;stroke-linejoin:miter;stroke-miterlimit:10;stroke-opacity:1;stroke-dasharray:none" />
          </g>
          <g
             transform="translate(230.3074,246.5302)"
             id="g3236"
             style="stroke:#ffffff">
            <path
               d="m 0,0 c 0,0 0.661,-0.705 2.994,-0.661 2.599,0.049 2.334,0.793 2.334,0.793"
               id="path3238"
               style="fill:none;stroke:#ffffff;stroke-width:0.352;stroke-linecap:butt;stroke-linejoin:miter;stroke-miterlimit:10;stroke-opacity:1;stroke-dasharray:none" />
          </g>
          <g
             transform="translate(240.3473,224.689)"
             id="g3240"
             style="stroke:#ffffff">
            <path
               d="m 0,0 c -0.176,-4.051 -8.587,-3.435 -8.587,-3.435 l 0,23.471 c 0,0 8.367,0.396 8.675,-4.051"
               id="path3242"
               style="fill:none;stroke:#ffffff;stroke-width:0.352;stroke-linecap:butt;stroke-linejoin:miter;stroke-miterlimit:10;stroke-opacity:1;stroke-dasharray:none" />
          </g>
        </g>
      </g>
      <g
         transform="matrix(0.36661614,0,0,-0.36661614,12.097909,23.341334)"
         id="g3244"
         style="stroke:#ffffff">
        <path
           d="M 0,0 6.561,0.396"
           id="path3246"
           style="fill:none;stroke:#ffffff;stroke-width:0.352;stroke-linecap:butt;stroke-linejoin:miter;stroke-miterlimit:10;stroke-opacity:1;stroke-dasharray:none" />
      </g>
      <g
         transform="matrix(0.36661614,0,0,-0.36661614,-72.90153,112.4479)"
         id="g3248"
         style="stroke:#ffffff">
        <g
           clip-path="url(#clipPath3252)"
           id="g3250"
           style="stroke:#ffffff">
          <g
             transform="translate(231.8046,222.9276)"
             id="g3256"
             style="stroke:#ffffff">
            <path
               d="M 0,0 C 0,0 5.636,-1.673 7.882,0.22"
               id="path3258"
               style="fill:none;stroke:#ffffff;stroke-width:0.352;stroke-linecap:butt;stroke-linejoin:miter;stroke-miterlimit:10;stroke-opacity:1;stroke-dasharray:none" />
          </g>
        </g>
      </g>
      <g
         transform="matrix(0.36661614,0,0,-0.36661614,11.5544,23.992444)"
         id="g3260"
         style="stroke:#ffffff">
        <path
           d="M 0,0 1.292,0"
           id="path3262"
           style="fill:none;stroke:#ffffff;stroke-width:0.352;stroke-linecap:butt;stroke-linejoin:miter;stroke-miterlimit:10;stroke-opacity:1;stroke-dasharray:none" />
      </g>
      <g
         transform="matrix(0.36661614,0,0,-0.36661614,11.5544,30.342309)"
         id="g3264"
         style="stroke:#ffffff">
        <path
           d="M 0,0 1.292,0"
           id="path3266"
           style="fill:none;stroke:#ffffff;stroke-width:0.352;stroke-linecap:butt;stroke-linejoin:miter;stroke-miterlimit:10;stroke-opacity:1;stroke-dasharray:none" />
      </g>
      <g
         transform="matrix(0.36661614,0,0,-0.36661614,-72.90153,112.4479)"
         id="g3268"
         style="stroke:#ffffff">
        <g
           clip-path="url(#clipPath3272)"
           id="g3270"
           style="stroke:#ffffff">
          <g
             transform="translate(244.1637,224.6598)"
             id="g3276"
             style="stroke:#ffffff">
            <path
               d="M 0,0 C 0,0 -1.292,-9.042 -13.68,-9.688"
               id="path3278"
               style="fill:none;stroke:#ffffff;stroke-width:0.352;stroke-linecap:butt;stroke-linejoin:miter;stroke-miterlimit:10;stroke-opacity:1;stroke-dasharray:none" />
          </g>
          <g
             transform="translate(243.4592,224.6598)"
             id="g3280"
             style="stroke:#ffffff">
            <path
               d="M 0,0 C 0,0 -1.585,-8.631 -13.063,-9.042"
               id="path3282"
               style="fill:none;stroke:#ffffff;stroke-width:0.352;stroke-linecap:butt;stroke-linejoin:miter;stroke-miterlimit:10;stroke-opacity:1;stroke-dasharray:none" />
          </g>
          <g
             transform="translate(240.9932,224.7182)"
             id="g3284"
             style="stroke:#ffffff">
            <path
               d="m 0,0 c 0,0 0.94,-4.521 -4.521,-6.106 -5.46,-1.585 -6.165,-1.644 -6.165,-1.644"
               id="path3286"
               style="fill:none;stroke:#ffffff;stroke-width:0.352;stroke-linecap:butt;stroke-linejoin:miter;stroke-miterlimit:10;stroke-opacity:1;stroke-dasharray:none" />
          </g>
        </g>
      </g>
      <g
         transform="matrix(0.36661614,0,0,-0.36661614,37.298332,25.875898)"
         id="g3288"
         style="stroke:#ffffff">
        <path
           d="M 0,0 2.51,0.551"
           id="path3290"
           style="fill:none;stroke:#ffffff;stroke-width:0.352;stroke-linecap:butt;stroke-linejoin:miter;stroke-miterlimit:10;stroke-opacity:1;stroke-dasharray:none" />
      </g>
      <g
         transform="matrix(0.36661614,0,0,-0.36661614,-72.90153,112.4479)"
         id="g3292"
         style="stroke:#ffffff">
        <g
           clip-path="url(#clipPath3296)"
           id="g3294"
           style="stroke:#ffffff">
          <g
             transform="translate(279.5381,248.4236)"
             id="g3300"
             style="stroke:#ffffff">
            <path
               d="m 0,0 c 0,0 0.264,1.849 2.686,1.893 2.422,0.045 5.813,0.089 5.813,0.089 0,0 2.378,-0.265 2.554,-2.114 0.176,-1.85 0.44,-12.11 0.264,-14.399"
               id="path3302"
               style="fill:none;stroke:#ffffff;stroke-width:0.352;stroke-linecap:butt;stroke-linejoin:miter;stroke-miterlimit:10;stroke-opacity:1;stroke-dasharray:none" />
          </g>
          <g
             transform="translate(281.8736,248.9596)"
             id="g3304"
             style="stroke:#ffffff">
            <path
               d="m 0,0 c 0.283,0.173 0.762,0.418 1.216,0.418 0.705,0 3.773,0.059 4.11,0.015 0.338,-0.044 1.175,-0.133 1.233,-1.307 0.059,-1.174 0,-15.089 0,-15.089 0,0 0.059,-1.174 -0.939,-1.174 -0.998,0 -4.44,-0.007 -4.807,0.022 -0.27,0.022 -0.592,0.19 -0.79,0.372"
               id="path3306"
               style="fill:none;stroke:#ffffff;stroke-width:0.352;stroke-linecap:butt;stroke-linejoin:miter;stroke-miterlimit:10;stroke-opacity:1;stroke-dasharray:none" />
          </g>
        </g>
      </g>
      <g
         transform="matrix(0.36661614,0,0,-0.36661614,29.495604,21.344852)"
         id="g3308"
         style="stroke:#ffffff">
        <path
           d="M 0,0 4.638,0.881"
           id="path3310"
           style="fill:none;stroke:#ffffff;stroke-width:0.352;stroke-linecap:butt;stroke-linejoin:miter;stroke-miterlimit:10;stroke-opacity:1;stroke-dasharray:none" />
      </g>
      <g
         transform="matrix(0.36661614,0,0,-0.36661614,29.570907,27.500997)"
         id="g3312"
         style="stroke:#ffffff">
        <path
           d="M 0,0 8.895,1.967"
           id="path3314"
           style="fill:none;stroke:#ffffff;stroke-width:0.352;stroke-linecap:butt;stroke-linejoin:miter;stroke-miterlimit:10;stroke-opacity:1;stroke-dasharray:none" />
      </g>
      <g
         transform="matrix(0.36661614,0,0,-0.36661614,29.613911,20.182569)"
         id="g3332"
         style="stroke:#ffffff">
        <path
           d="M 0,0 1.996,0"
           id="path3334"
           style="fill:#ffffff;fill-opacity:1;fill-rule:nonzero;stroke:#ffffff;stroke-width:0.352;stroke-linecap:butt;stroke-linejoin:miter;stroke-miterlimit:10;stroke-opacity:1;stroke-dasharray:none" />
      </g>
      <g
         transform="matrix(0.36661614,0,0,-0.36661614,32.756545,20.139492)"
         id="g3336"
         style="stroke:#ffffff">
        <path
           d="M 0,0 1.879,0"
           id="path3338"
           style="fill:#ffffff;fill-opacity:1;fill-rule:nonzero;stroke:#ffffff;stroke-width:0.352;stroke-linecap:butt;stroke-linejoin:miter;stroke-miterlimit:10;stroke-opacity:1;stroke-dasharray:none" />
      </g>
      <g
         transform="matrix(0.36661614,0,0,-0.36661614,31.249863,20.01037)"
         id="g3340"
         style="stroke:#ffffff">
        <path
           d="M 0,0 1.644,0"
           id="path3342"
           style="fill:#ffffff;fill-opacity:1;fill-rule:nonzero;stroke:#ffffff;stroke-width:0.352;stroke-linecap:butt;stroke-linejoin:miter;stroke-miterlimit:10;stroke-opacity:1;stroke-dasharray:none" />
      </g>
      <g
         transform="matrix(0.36661614,0,0,-0.36661614,37.126206,19.698196)"
         id="g3344"
         style="stroke:#ffffff">
        <path
           d="M 0,0 2.877,0.44"
           id="path3346"
           style="fill:#ffffff;fill-opacity:1;fill-rule:nonzero;stroke:#ffffff;stroke-width:0.352;stroke-linecap:butt;stroke-linejoin:miter;stroke-miterlimit:10;stroke-opacity:1;stroke-dasharray:none" />
      </g>
      <g
         transform="matrix(0.36661614,0,0,-0.36661614,37.761222,25.811337)"
         id="g3348"
         style="stroke:#ffffff">
        <path
           d="M 0,0 0,-2.246"
           id="path3350"
           style="fill:#ffffff;fill-opacity:1;fill-rule:nonzero;stroke:#ffffff;stroke-width:0.352;stroke-linecap:butt;stroke-linejoin:miter;stroke-miterlimit:10;stroke-opacity:1;stroke-dasharray:none" />
      </g>
      <g
         transform="matrix(0.36661614,0,0,-0.36661614,4.2601323,19.009434)"
         id="g3352"
         style="stroke:#ffffff">
        <path
           d="M 0,0 0,-1.688"
           id="path3354"
           style="fill:none;stroke:#ffffff;stroke-width:0.352;stroke-linecap:butt;stroke-linejoin:miter;stroke-miterlimit:10;stroke-opacity:1;stroke-dasharray:none" />
      </g>
      <g
         transform="matrix(0.36661614,0,0,-0.36661614,2.8071959,19.57175)"
         id="g3356"
         style="stroke:#ffffff">
        <path
           d="M 0,0 C 0,0 0.484,-0.396 0.616,-0.925"
           id="path3358"
           style="fill:none;stroke:#ffffff;stroke-width:0.352;stroke-linecap:butt;stroke-linejoin:miter;stroke-miterlimit:10;stroke-opacity:1;stroke-dasharray:none" />
      </g>
      <g
         transform="matrix(0.36661614,0,0,-0.36661614,6.6198204,17.911676)"
         id="g3360"
         style="stroke:#ffffff">
        <path
           d="M 0,0 1.556,-1.512"
           id="path3362"
           style="fill:none;stroke:#ffffff;stroke-width:0.352;stroke-linecap:butt;stroke-linejoin:miter;stroke-miterlimit:10;stroke-opacity:1;stroke-dasharray:none" />
      </g>
      <g
         transform="matrix(0.36661614,0,0,-0.36661614,6.3910886,18.304468)"
         id="g3364"
         style="stroke:#ffffff">
        <path
           d="M 0,0 1.167,-1.101"
           id="path3366"
           style="fill:none;stroke:#ffffff;stroke-width:0.352;stroke-linecap:butt;stroke-linejoin:miter;stroke-miterlimit:10;stroke-opacity:1;stroke-dasharray:none" />
      </g>
      <g
         transform="matrix(0.36661614,0,0,-0.36661614,13.114975,8.5051853)"
         id="g3368"
         style="stroke:#ffffff">
        <path
           d="M 0,0 C 0,0 1.145,-0.793 1.409,-1.541"
           id="path3370"
           style="fill:none;stroke:#ffffff;stroke-width:0.352;stroke-linecap:butt;stroke-linejoin:miter;stroke-miterlimit:10;stroke-opacity:1;stroke-dasharray:none" />
      </g>
      <g
         transform="matrix(0.36661614,0,0,-0.36661614,30.37266,6.0190512)"
         id="g3372"
         style="stroke:#ffffff">
        <path
           d="M 0,0 -0.969,-2.29"
           id="path3374"
           style="fill:none;stroke:#ffffff;stroke-width:0.352;stroke-linecap:butt;stroke-linejoin:miter;stroke-miterlimit:10;stroke-opacity:1;stroke-dasharray:none" />
      </g>
      <g
         transform="matrix(0.36661614,0,0,-0.36661614,35.683975,10.474757)"
         id="g3376"
         style="stroke:#ffffff">
        <path
           d="M 0,0 1.717,1.541"
           id="path3378"
           style="fill:none;stroke:#ffffff;stroke-width:0.352;stroke-linecap:butt;stroke-linejoin:miter;stroke-miterlimit:10;stroke-opacity:1;stroke-dasharray:none" />
      </g>
      <g
         transform="matrix(0.36661614,0,0,-0.36661614,37.056182,18.627347)"
         id="g3380"
         style="stroke:#ffffff">
        <path
           d="m 0,0 0.022,1.916 c 0,0 -0.046,1.513 1.101,1.643 1.225,0.14 1.717,-0.675 1.769,-1.049 0.056,-0.407 0,-1.35 0,-1.35"
           id="path3382"
           style="fill:none;stroke:#ffffff;stroke-width:0.352;stroke-linecap:butt;stroke-linejoin:miter;stroke-miterlimit:10;stroke-opacity:1;stroke-dasharray:none" />
      </g>
      <g
         transform="matrix(0.36661614,0,0,-0.36661614,37.766538,19.160077)"
         id="g3384"
         style="stroke:#ffffff">
        <path
           d="m 0,0 -1.872,0 0,3.259 L 0,3.259 0,0 z"
           id="path3386"
           style="fill:none;stroke:#ffffff;stroke-width:0.352;stroke-linecap:butt;stroke-linejoin:miter;stroke-miterlimit:10;stroke-opacity:1;stroke-dasharray:none" />
      </g>
      <g
         transform="matrix(0.36661614,0,0,-0.36661614,37.766538,17.965458)"
         id="g3388"
         style="stroke:#ffffff">
        <path
           d="m 0,0 0,0.683 c 0,0 -0.029,1.02 -0.815,1.071"
           id="path3390"
           style="fill:none;stroke:#ffffff;stroke-width:0.352;stroke-linecap:butt;stroke-linejoin:miter;stroke-miterlimit:10;stroke-opacity:1;stroke-dasharray:none" />
      </g>
      <g
         transform="matrix(0.36661614,0,0,-0.36661614,37.766538,19.160077)"
         id="g3392"
         style="stroke:#ffffff">
        <path
           d="M 0,0 C 0,0 0.088,-0.991 0.639,-1.101"
           id="path3394"
           style="fill:none;stroke:#ffffff;stroke-width:0.352;stroke-linecap:butt;stroke-linejoin:miter;stroke-miterlimit:10;stroke-opacity:1;stroke-dasharray:none" />
      </g>
      <g
         transform="matrix(0.36661614,0,0,-0.36661614,38.659871,17.987015)"
         id="g3396"
         style="stroke:#ffffff">
        <path
           d="M 0,0 C 0,0 0.308,0.807 -0.587,2.349 -3.365,7.128 -6.224,16.836 -6.224,16.836 L -6.928,16.66 c 0,0 2.679,-9.646 5.416,-14.399 1.673,-2.907 -0.616,-3.259 -0.793,-3.259"
           id="path3398"
           style="fill:none;stroke:#ffffff;stroke-width:0.352;stroke-linecap:butt;stroke-linejoin:miter;stroke-miterlimit:10;stroke-opacity:1;stroke-dasharray:none" />
      </g>
      <g
         transform="matrix(0.36661614,0,0,-0.36661614,37.793521,18.718854)"
         id="g3400"
         style="stroke:#ffffff">
        <path
           d="M 0,0 C 0,0 0.352,0 0.646,0.059"
           id="path3402"
           style="fill:none;stroke:#ffffff;stroke-width:0.352;stroke-linecap:butt;stroke-linejoin:miter;stroke-miterlimit:10;stroke-opacity:1;stroke-dasharray:none" />
      </g>
      <g
         transform="matrix(0.36661614,0,0,-0.36661614,7.1417718,19.781638)"
         id="g3404"
         style="stroke:#ffffff">
        <path
           d="M 0,0 C 4.403,4.227 5.989,12.22 5.989,12.22 L 5.24,12.352 c 0,0 -1.849,-8.169 -6.385,-12.33"
           id="path3406"
           style="fill:none;stroke:#ffffff;stroke-width:0.352;stroke-linecap:butt;stroke-linejoin:miter;stroke-miterlimit:10;stroke-opacity:1;stroke-dasharray:none" />
      </g>
      <g
         transform="matrix(0.36661614,0,0,-0.36661614,32.880388,20.569973)"
         id="g3408"
         style="stroke:#ffffff">
        <path
           d="M 0,0 1.717,0.484"
           id="path3410"
           style="fill:none;stroke:#ffffff;stroke-width:0.352;stroke-linecap:butt;stroke-linejoin:miter;stroke-miterlimit:10;stroke-opacity:1;stroke-dasharray:none" />
      </g>
    </g>
  </g>
</svg>
