<?xml version="1.0" encoding="UTF-8" standalone="no"?>
<!-- Created with Inkscape (http://www.inkscape.org/) -->

<svg
   xmlns:dc="http://purl.org/dc/elements/1.1/"
   xmlns:cc="http://creativecommons.org/ns#"
   xmlns:rdf="http://www.w3.org/1999/02/22-rdf-syntax-ns#"
   xmlns:svg="http://www.w3.org/2000/svg"
   xmlns="http://www.w3.org/2000/svg"
   version="1.1"
   width="40"
   height="40"
   id="svg10668">
  <metadata
     id="metadata10702">
    <rdf:RDF>
      <cc:Work
         rdf:about="">
        <dc:format>image/svg+xml</dc:format>
        <dc:type
           rdf:resource="http://purl.org/dc/dcmitype/StillImage" />
        <dc:title></dc:title>
      </cc:Work>
    </rdf:RDF>
  </metadata>
  <defs
     id="defs10700" />
  <g
     transform="translate(0,-680)"
     id="layer6"
     style="display:inline">
    <path
       d="m 18.734577,719.87177 c -1.21532,-0.25987 -2.51698,-0.96941 -3.33227,-1.81644 -0.186,-0.19323 -0.37035,-0.35132 -0.40967,-0.35132 -0.30327,0 -2.53561,-1.19427 -3.3584,-1.7967 -0.23525,-0.17224 -0.7357,-0.47361 -1.1121,-0.66971 -1.1108402,-0.57871 -2.0615702,-1.48593 -2.7196802,-2.59519 -0.30525,-0.51452 -0.83049,-1.95457 -0.83049,-2.27697 0,-0.0829 -0.11853,-0.45772 -0.26341,-0.83305 -0.14489,-0.37533 -0.35299,-1.01612 -0.46247,-1.42397 -0.1436,-0.53497 -0.294,-0.86863 -0.53985,-1.19765 -0.76913,-1.02936 -1.12251,-2.04139 -1.18978,-3.40744 -0.0589,-1.19629 0.12026,-2.04063 0.67164,-3.16521 0.29636,-0.60446 0.49823,-0.86794 1.19651,-1.5616 0.77076,-0.76567 1.15522,-1.26387 1.05369,-1.36541 -0.088,-0.0879 0.14175,-1.71921 0.31318,-2.22404 0.45832,-1.34971 1.45289,-2.66208 2.5711902,-3.39278 l 0.51425,-0.33602 -0.27068,-0.0594 c -0.30548,-0.0671 -0.8567902,-0.51255 -0.8567902,-0.69229 0,-0.065 -0.22953,-0.23409 -0.51005,-0.37569 -0.49631,-0.25054 -0.63913,-0.40263 -0.81591,-0.86883 -0.047,-0.12407 -0.25878,-0.36899 -0.47051,-0.54427 -0.44738,-0.37034 -0.59158,-0.59287 -0.5958,-0.91942 -0.002,-0.14649 -0.11841,-0.36273 -0.30936,-0.57409 -0.2351,-0.26022 -0.32112,-0.4443 -0.36991,-0.79154 -0.038,-0.27016 -0.15834,-0.59029 -0.29879,-0.7945 -0.18406,-0.26764 -0.23079,-0.42575 -0.21487,-0.72714 0.0115,-0.21779 -0.0415,-0.52332 -0.12203,-0.70318 -0.17449,-0.38986 -0.17978,-0.66719 -0.02,-1.04958 0.0935,-0.22383 0.10063,-0.35032 0.0301,-0.53696 -0.12901,-0.34181 -0.0159,-0.83443 0.26349,-1.14707 0.19447,-0.21766 0.31722,-0.27117 0.70117,-0.30565 0.31947,-0.0287 0.53249,-0.10208 0.67929,-0.23401 0.28277,-0.25414 0.70017,-0.38657 1.2183,-0.38657 0.29333,0 0.48949,-0.0525 0.64037,-0.1711 0.15107,-0.11883 0.34704,-0.17109 0.6415902,-0.17109 0.29924,0 0.49032,-0.0521 0.64905,-0.17695 0.19291,-0.15174 0.33499,-0.17526 0.99728,-0.16511 0.42477,0.006 0.95119,-0.0136 1.16982,-0.0449 0.29849,-0.0425 0.49029,-0.0161 0.76992,0.10602 0.29358,0.12825 0.43227,0.14512 0.65524,0.0797 0.22702,-0.0666 0.3708,-0.0465 0.72879,0.10188 0.2616,0.10843 0.62959,0.18484 0.89011,0.18484 0.39934,0 0.49181,0.0388 0.91676,0.38496 0.28637,0.23325 0.55905,0.38496 0.69194,0.38496 0.12063,0 0.32729,0.0559 0.45925,0.12406 0.56043,0.28982 1.56181,1.64563 1.9553,2.64737 l 0.15739,0.40067 0.44045,-0.8803 c 0.70004,-1.39906 1.542,-2.2918 2.16142,-2.2918 0.19462,0 0.36593,-0.0559 0.43735,-0.14259 0.0645,-0.0784 0.26754,-0.25164 0.45103,-0.38495 0.26819,-0.19483 0.42402,-0.24238 0.79432,-0.24238 0.29116,0 0.54311,-0.054 0.68467,-0.14676 0.15217,-0.0997 0.3775,-0.14282 0.70275,-0.13449 0.26332,0.007 0.66383,-0.0466 0.89004,-0.11839 0.27055,-0.086 0.534,-0.11053 0.76991,-0.0718 0.19725,0.0324 0.67844,0.053 1.06932,0.0458 0.58014,-0.0107 0.76568,0.0194 1.01006,0.16353 0.18573,0.10958 0.45178,0.17736 0.70083,0.17854 0.26619,0.002 0.47351,0.0583 0.61532,0.16919 0.13845,0.10829 0.34962,0.16812 0.59883,0.16967 0.54093,0.003 1.01316,0.15134 1.25523,0.39342 0.15126,0.15125 0.30076,0.20682 0.55641,0.20682 0.78086,0 1.29095,0.66929 1.08329,1.42138 -0.0642,0.23265 -0.0527,0.38399 0.0486,0.63711 0.14279,0.35689 0.11158,0.72316 -0.0969,1.13732 -0.0677,0.13446 -0.10178,0.32929 -0.0758,0.43294 0.0648,0.25791 -0.0823,0.75005 -0.31097,1.04073 -0.1042,0.13248 -0.1778,0.32991 -0.16353,0.43874 0.0407,0.31015 -0.13797,0.74356 -0.41632,1.01023 -0.15247,0.14608 -0.25479,0.33197 -0.25498,0.46324 -7.8e-4,0.30998 -0.25864,0.69564 -0.71737,1.07154 -0.21693,0.17775 -0.39441,0.39258 -0.39441,0.47741 0,0.24127 -0.41005,0.66878 -0.86028,0.89694 -0.22564,0.11434 -0.43496,0.2857 -0.46515,0.38081 -0.0831,0.26172 -0.55712,0.58228 -1.0462,0.70744 l -0.43721,0.11189 0.50876,0.32942 c 0.91294,0.59112 1.80218,1.71381 2.26501,2.85968 0.25707,0.63642 0.4627,1.60422 0.46311,2.17959 7.8e-4,0.54756 0.16498,0.82873 0.78348,1.33851 0.99652,0.82135 1.78423,2.05453 2.09067,3.27303 0.2037,0.80989 0.20719,2.2105 0.008,2.97509 -0.17388,0.66554 -0.71886,1.80574 -1.08074,2.2611 -0.14351,0.18057 -0.2997,0.48675 -0.34712,0.68038 -0.0474,0.19363 -0.16312,0.62152 -0.25715,0.95087 -0.094,0.32936 -0.21004,0.97917 -0.2578,1.44402 -0.26486,2.57783 -1.77832,4.62193 -4.15447,5.61113 -0.34364,0.14306 -0.9445,0.47499 -1.33525,0.73763 -0.39075,0.26264 -1.15316,0.69356 -1.69423,0.9576 -0.74079,0.36149 -1.13425,0.61847 -1.59297,1.0404 -0.68098,0.62637 -1.30882,1.02987 -2.09926,1.34913 -1.07709,0.43506 -2.61813,0.56086 -3.79307,0.30963 z m 3.32691,-0.40493 c 1.0061,-0.34259 1.98054,-0.96052 2.70033,-1.71238 0.18103,-0.18909 0.66996,-0.4888 1.26112,-0.77306 0.53102,-0.25534 1.3129,-0.69824 1.73753,-0.98421 0.42462,-0.28597 1.02214,-0.61407 1.3278,-0.72912 1.0679,-0.40196 2.30061,-1.36791 2.94525,-2.3079 0.65892,-0.9608 1.07704,-2.15631 1.167,-3.3367 0.0288,-0.37837 0.14163,-0.99592 0.25063,-1.37232 0.10901,-0.37641 0.222,-0.8029 0.25108,-0.94775 0.0291,-0.14487 0.23911,-0.51883 0.46671,-0.83103 1.08813,-1.49255 1.39691,-3.51016 0.80762,-5.27703 -0.34828,-1.04426 -1.29807,-2.35446 -2.11017,-2.91092 -0.44422,-0.30439 -0.65806,-0.75347 -0.65954,-1.3851 -0.003,-1.26014 -0.56734,-2.67813 -1.51187,-3.7985 -0.20234,-0.24001 -0.67608,-0.66179 -1.05275,-0.9373 -0.77197,-0.56463 -0.85477,-0.75744 -0.36407,-0.84777 0.59475,-0.10949 1.03651,-0.35794 1.18314,-0.66543 0.0962,-0.20181 0.26494,-0.34886 0.56209,-0.48993 0.4707,-0.22347 0.74455,-0.51748 0.81634,-0.87644 0.0292,-0.14592 0.1571,-0.30488 0.33262,-0.41336 0.43545,-0.26913 0.72014,-0.65302 0.72014,-0.9711 0,-0.18887 0.0711,-0.3444 0.22199,-0.48533 0.31201,-0.29148 0.47082,-0.63217 0.44858,-0.96232 -0.0135,-0.20075 0.0536,-0.37803 0.23149,-0.61124 0.20554,-0.26947 0.25151,-0.41445 0.25585,-0.80712 0.003,-0.27671 0.0667,-0.59416 0.15085,-0.75243 0.18125,-0.34098 0.18209,-0.47878 0.005,-0.85168 -0.118,-0.24864 -0.12409,-0.35027 -0.0382,-0.63692 0.12144,-0.40532 0.0653,-0.63623 -0.23198,-0.95372 -0.18359,-0.19608 -0.29167,-0.23524 -0.64929,-0.23524 -0.36732,0 -0.46992,-0.0396 -0.71312,-0.27534 -0.25529,-0.24744 -0.34573,-0.27883 -0.89229,-0.30971 -0.46071,-0.026 -0.68098,-0.0838 -0.9082,-0.23794 -0.22262,-0.15108 -0.41692,-0.20357 -0.75349,-0.20357 -0.24943,0 -0.47878,-0.0409 -0.50965,-0.0908 -0.12372,-0.20019 -0.48254,-0.2528 -1.03276,-0.15141 -0.42222,0.0778 -0.57398,0.078 -0.6512,7.7e-4 -0.1419,-0.14189 -0.6981,-0.12508 -1.0744,0.0325 -0.22047,0.0923 -0.44159,0.11624 -0.72073,0.078 -0.32596,-0.0446 -0.4674,-0.0187 -0.74224,0.13568 -0.2528,0.14208 -0.41919,0.17792 -0.65126,0.14025 -0.40304,-0.0654 -0.60944,0.0186 -1.10968,0.45154 -0.23242,0.20116 -0.46237,0.33417 -0.53171,0.30757 -0.55918,-0.21458 -1.94553,1.42449 -2.46693,2.91663 -0.22201,0.63538 -0.33898,0.74816 -0.45835,0.44197 -0.5703,-1.46283 -0.92599,-2.08648 -1.60253,-2.80975 -0.36776,-0.39317 -0.8773,-0.66742 -1.04613,-0.56308 -0.0414,0.0256 -0.29701,-0.12565 -0.56802,-0.3361 -0.50849,-0.39485 -0.57876,-0.4208 -1.05117,-0.38818 -0.15377,0.0106 -0.45359,-0.0649 -0.66627,-0.16788 -0.30125,-0.14584 -0.46937,-0.17478 -0.76113,-0.13103 -0.25603,0.0384 -0.47473,0.0143 -0.69152,-0.0763 -0.37834,-0.15808 -0.83524,-0.17126 -1.0605,-0.0306 -0.12554,0.0784 -0.28699,0.0789 -0.69993,0.002 -0.46025,-0.0856 -0.57403,-0.0801 -0.79807,0.0384 -0.14371,0.076 -0.48754,0.16767 -0.76407,0.20374 -0.2877,0.0376 -0.6064202,0.14223 -0.7450602,0.24474 -0.17774,0.1314 -0.36933,0.17914 -0.71901,0.17914 -0.55624,0 -1.01664,0.16809 -1.15172,0.42049 -0.0778,0.14529 -0.17809,0.17869 -0.54155,0.18024 -0.4714,0.002 -0.73078,0.14058 -0.90661,0.48436 -0.11871,0.23215 -0.12469,0.68327 -0.01,0.75415 0.12966,0.0801 0.10232,0.43564 -0.0428,0.55605 -0.17568,0.14581 -0.16114,0.62562 0.0305,1.00858 0.1016,0.20298 0.14496,0.42896 0.12028,0.62689 -0.0401,0.3216 0.11576,0.72619 0.35682,0.92624 0.088,0.0731 0.13395,0.25407 0.13395,0.52819 0,0.3533 0.0442,0.46606 0.28892,0.73806 0.18655,0.20729 0.31056,0.45052 0.35002,0.68646 0.051,0.30506 0.14459,0.43892 0.56655,0.81034 0.27799,0.2447 0.50543,0.51038 0.50543,0.5904 0,0.23335 0.41644,0.6633 0.86028,0.88821 0.22565,0.11435 0.43335,0.28061 0.46155,0.36948 0.0808,0.25447 0.3515702,0.45439 0.8380302,0.61867 0.24712,0.0835 0.45963,0.20269 0.47224,0.26496 0.0129,0.0632 -0.1948,0.22533 -0.4705,0.36732 -0.60225,0.31015 -1.8328502,1.51981 -2.2238402,2.186 -0.52217,0.88969 -0.87663,2.19367 -0.87811,3.23032 -7.7e-4,0.56512 -0.0993,0.72144 -1.03523,1.64376 -0.89269,0.87967 -1.35562,1.63629 -1.66611,2.72311 -0.20694,0.72438 -0.22416,0.89477 -0.18583,1.83926 0.0335,0.82527 0.088,1.17025 0.26303,1.66522 0.21881,0.61872 0.66624,1.433 1.03346,1.88079 0.10481,0.12781 0.26021,0.50185 0.34533,0.8312 0.0851,0.32936 0.28235,0.94529 0.43828,1.36875 0.15594,0.42345 0.32541,0.96239 0.3766,1.19764 0.29511,1.35627 0.81728,2.37676 1.68885,3.30068 0.56433,0.59821 1.4537202,1.25276 2.0286202,1.49297 0.17127,0.0716 0.53739,0.29647 0.8136,0.49981 0.73944,0.54435 1.80194,1.14823 2.68817,1.52787 0.50755,0.21741 0.91635,0.46229 1.16638,0.69869 0.83491,0.78937 1.59669,1.24186 2.65194,1.57521 0.84557,0.26712 0.82389,0.26456 2.01033,0.23725 0.93926,-0.0216 1.21701,-0.0613 1.78708,-0.25544 z m -2.81363,-0.79175 c -1.07903,-0.22472 -1.81438,-0.55747 -2.50656,-1.13424 -1.44541,-1.20437 -1.37266,-1.96553 0.25245,-2.64181 2.09691,-0.8726 6.17846,-0.65208 7.28856,0.39379 0.58877,0.5547 0.50323,0.94418 -0.4079,1.85738 -0.78788,0.78965 -1.59454,1.24312 -2.58448,1.45285 -0.54597,0.11567 -1.64617,0.15448 -2.04207,0.072 z m 1.75369,-0.205 c 1.43369,-0.22713 3.42185,-1.68171 3.42185,-2.50349 0,-0.3852 -0.4432,-0.7464 -1.25306,-1.02122 -0.85823,-0.29122 -1.52209,-0.38432 -2.85315,-0.40009 -2.00667,-0.0238 -3.70422,0.48554 -4.30165,1.29064 -0.23754,0.32011 -0.14592,0.582 0.39163,1.11956 1.27471,1.2747 2.84371,1.79195 4.59438,1.5146 z m -8.38353,-3.8193 c -0.61372,-0.10273 -1.68552,-0.55202 -2.13865,-0.8965 -0.47799,-0.36338 -1.2624102,-1.20841 -1.5270102,-1.645 -0.90842,-1.49888 -1.05417,-3.85904 -0.29412,-4.76232 0.6998,-0.83166 2.2564502,-0.64881 3.6176002,0.42493 1.76701,1.39391 2.93651,3.62092 2.78041,5.29455 -0.10023,1.07472 -0.70789,1.65417 -1.71108,1.63166 -0.28231,-0.006 -0.60952,-0.0277 -0.72715,-0.0473 z m 1.60307,-0.3379 c 1.01097,-0.74969 0.85891,-2.57602 -0.37478,-4.50146 -0.58591,-0.91443 -1.74125,-2.01285 -2.53919,-2.41408 -0.84454,-0.42466 -1.5489302,-0.50225 -2.0835402,-0.22951 -0.40774,0.20802 -0.56415,0.42608 -0.74685,1.0413 -0.33846,1.13972 0.0175,2.90464 0.81123,4.02253 0.7851602,1.10576 1.8671002,1.85305 3.1589702,2.18188 0.65833,0.16758 1.47494,0.12124 1.77416,-0.10066 z m 11.65901,0.20099 c -0.51195,-0.25286 -0.76633,-0.74795 -0.83227,-1.61985 -0.12921,-1.70843 0.97466,-3.91957 2.72819,-5.46474 0.80473,-0.70913 1.52918,-1.07932 2.26209,-1.15593 1.33135,-0.13915 1.93449,0.55812 2.08077,2.40552 0.14732,1.86041 -0.34129,3.23639 -1.58122,4.45278 -0.72573,0.71195 -1.50097,1.1474 -2.49279,1.40018 -0.92163,0.23489 -1.66536,0.22871 -2.16477,-0.018 z m 1.83684,-0.10471 c 1.02586,-0.21697 1.93877,-0.7181 2.68943,-1.47635 1.1021,-1.11321 1.54511,-2.18831 1.54511,-3.74962 0,-2.54172 -1.23485,-3.42123 -3.15003,-2.24358 -1.72824,1.06269 -3.14426,3.08943 -3.52534,5.04581 -0.15106,0.77552 -0.0187,1.60266 0.32428,2.02642 0.4177,0.51609 1.02024,0.62919 2.11655,0.39732 z m -8.79979,-1.37483 c -1.05002,-0.25415 -2.05428,-0.96596 -2.63881,-1.87036 -0.94724,-1.46554 -0.87955,-3.15584 0.18854,-4.70824 0.64026,-0.93059 2.08366,-1.67683 3.49754,-1.80824 1.00311,-0.0932 2.32821,0.27794 3.08252,0.86343 1.36069,1.05615 1.87914,2.13371 1.78151,3.70269 -0.036,0.57724 -0.1,0.82379 -0.35142,1.35331 -0.56779,1.19561 -1.70989,2.13389 -3.00944,2.47238 -0.61995,0.16147 -1.87288,0.15903 -2.55044,-0.005 z m 2.36492,-0.16237 c 2.13917,-0.55718 3.53173,-2.34422 3.36532,-4.31864 -0.13348,-1.58347 -1.31134,-2.98465 -2.9118,-3.46384 -0.98974,-0.29635 -1.51814,-0.33767 -2.27387,-0.17783 -1.52761,0.32309 -2.67152,1.18511 -3.29635,2.48402 -0.31352,0.65177 -0.32931,0.72513 -0.33141,1.53983 -0.002,0.73288 0.0297,0.93077 0.22043,1.3809 0.53781,1.26928 1.56255,2.16255 2.89296,2.52181 0.69143,0.18671 1.69194,0.20118 2.33472,0.0338 z M 7.1857568,706.68708 c -0.28256,-0.24242 -0.69061,-0.80326 -0.93037,-1.27871 -0.67437,-1.33731 -0.63722,-3.23297 0.0896,-4.56873 0.5008,-0.92045 1.62867,-1.95581 2.13055,-1.95581 0.64813,0 0.94162,1.02204 0.86873,3.02526 -0.10907,2.99753 -1.26119,5.54784 -2.15847,4.77799 z m 0.95488,-0.6442 c 0.60555,-0.89008 0.99836,-2.615 1.0069,-4.42157 0.007,-1.53745 -0.0578,-1.93986 -0.3744,-2.31666 l -0.24577,-0.2925 -0.29545,0.15685 c -0.85534,0.4541 -1.73246,1.55447 -2.05417,2.57696 -0.24087,0.76555 -0.25278,2.13805 -0.0251,2.89423 0.1591,0.52854 0.88114,1.68544 1.1845,1.89793 0.23898,0.16739 0.43483,0.0467 0.80353,-0.49524 z m 24.0056502,0.56978 c -0.17336,-0.0702 -0.67446,-0.97669 -0.86762,-1.5695 -0.50029,-1.53535 -0.79276,-3.86794 -0.62942,-5.01983 0.22563,-1.59123 0.60421,-1.74623 1.82418,-0.74693 1.08972,0.89262 1.78483,2.35558 1.78483,3.75643 0,1.07139 -0.5158,2.47105 -1.19008,3.22937 -0.35158,0.39538 -0.58858,0.48548 -0.92189,0.35046 z m 0.50187,-0.22214 c 0.21127,-0.17305 0.72002,-0.85263 0.8806,-1.17627 0.74987,-1.51144 0.66864,-3.29984 -0.21182,-4.6629 -0.3849,-0.59586 -0.79571,-1.0079 -1.43748,-1.44175 -0.55374,-0.37433 -0.7088,-0.32866 -0.90069,0.26531 -0.29738,0.92047 -0.25607,2.2935 0.12549,4.1712 0.34111,1.67863 0.918,2.92439 1.36554,2.94874 0.0263,0.002 0.10655,-0.0456 0.17836,-0.10433 z m -19.14141,-0.78473 c -0.71888,-0.16406 -1.18154,-0.41788 -1.74987,-0.95997 -0.75901,-0.72397 -1.19416,-1.82595 -1.19048,-3.01479 0.007,-2.31693 1.74475,-4.62268 3.90825,-5.1862 0.57176,-0.14893 1.6325,-0.16598 2.12127,-0.0341 1.77952,0.48011 2.93161,2.1643 2.81785,4.11927 -0.0495,0.85034 -0.25732,1.63767 -0.60894,2.3068 -0.3643,0.69325 -1.29716,1.72789 -1.9159,2.12493 -0.99147,0.63624 -2.31347,0.88799 -3.3822,0.64408 z m 2.31595,-0.35062 c 2.91757,-1.09816 4.32267,-4.78521 2.74173,-7.19442 -0.86834,-1.32327 -2.5203,-1.88185 -4.11954,-1.39293 -1.7493,0.5348 -3.05763,1.96812 -3.53841,3.87646 -0.19296,0.76594 -0.2102,1.17288 -0.0796,1.87932 0.29966,1.62103 1.44385,2.76689 3.07435,3.07886 0.43384,0.083 1.36096,-0.0363 1.92148,-0.24729 z m 9.75558,0.24773 c -0.0941,-0.0185 -0.38281,-0.076 -0.6416,-0.12768 -0.48641,-0.0972 -1.18955,-0.43761 -1.71092,-0.82836 -0.9117,-0.68331 -1.80026,-2.01826 -2.09398,-3.1459 -0.16805,-0.6452 -0.16679,-1.91301 0.002,-2.56331 0.26558,-1.01991 0.97281,-1.89648 1.90029,-2.35529 0.49529,-0.24501 0.68537,-0.28992 1.35505,-0.32016 1.18829,-0.0537 2.10977,0.26808 3.16575,1.10535 2.30158,1.82488 2.77713,5.43633 0.95462,7.24932 -0.248,0.24671 -0.64339,0.53944 -0.87864,0.65054 -0.62934,0.29718 -1.51376,0.4417 -2.05311,0.33549 z m 1.7537,-0.44549 c 1.10206,-0.43463 1.86802,-1.51134 2.07233,-2.91305 0.22077,-1.51469 -0.43063,-3.251 -1.65913,-4.42248 -1.20802,-1.15194 -2.67377,-1.62471 -3.99032,-1.28704 -1.63338,0.41892 -2.58221,1.79518 -2.58221,3.74544 0,2.06415 1.5565,4.23091 3.54109,4.92947 0.89103,0.31364 1.73293,0.2968 2.61824,-0.0524 z m 2.8658,-7.4255 c -1.23363,-0.63922 -2.58586,-1.68912 -4.07985,-3.16769 -1.13125,-1.11959 -1.47458,-1.54104 -1.56831,-1.92517 -0.0817,-0.33474 0.18269,-0.43711 1.2436,-0.48155 1.32645,-0.0555 2.34301,0.24436 3.34938,0.98822 1.29519,0.95733 2.07951,2.54842 2.02127,4.10036 l -0.0251,0.66842 -0.25664,0.0195 c -0.14326,0.0109 -0.44559,-0.0784 -0.68436,-0.20211 z m 0.7961,-0.44752 c 0.0144,-0.25158 -0.036,-0.73102 -0.11212,-1.06543 -0.51466,-2.26274 -2.57142,-3.90912 -4.88121,-3.90726 -0.67257,5.1e-4 -1.23511,0.12883 -1.23464,0.28156 7.8e-4,0.25093 0.44332,0.78471 1.57887,1.90445 0.67083,0.66149 1.43016,1.3424 1.6874,1.51314 0.25723,0.17075 0.51679,0.3696 0.57678,0.44188 0.10642,0.12822 1.33318,0.9211 1.84546,1.19275 0.41415,0.21962 0.50989,0.15553 0.53946,-0.36109 z m -22.2391802,0.37745 c -0.12003,-0.2634 0.017,-1.40825 0.2533,-2.11745 0.49573,-1.48735 1.7171902,-2.65822 3.3421402,-3.2037 0.58006,-0.19472 0.75402,-0.21407 1.68472,-0.18746 1.34275,0.0384 1.49662,0.14626 1.17509,0.82384 -0.30557,0.64392 -2.33933,2.56923 -3.98581,3.77324 -0.65582,0.47958 -1.8922102,1.12142 -2.1602202,1.12142 -0.14374,0 -0.24488,-0.0686 -0.30922,-0.20989 z m 0.66628,-0.0993 c 1.9088902,-0.79563 6.1692002,-4.62295 5.6851002,-5.1073 -0.0674,-0.0675 -0.4638,-0.10096 -1.1877,-0.10035 -0.93162,7.6e-4 -1.16575,0.0301 -1.64254,0.2052 -1.83255,0.67325 -3.0953802,2.25651 -3.3402402,4.18779 -0.0805,0.63487 -0.0522,0.95273 0.0848,0.95273 0.0381,0 0.21839,-0.0621 0.40058,-0.13807 z m 9.7295102,-1.40193 c -1.4354,-0.21019 -2.61268,-0.86059 -3.01466,-1.66549 -0.23734,-0.47522 -0.20868,-1.01543 0.075,-1.41382 0.49012,-0.6883 1.61846,-1.41691 2.59834,-1.67782 0.24128,-0.0642 0.82377,-0.11727 1.29443,-0.11783 1.45964,-0.002 2.62105,0.45627 3.59794,1.41884 0.45662,0.44992 0.54873,0.59342 0.63853,0.99465 0.0807,0.36082 0.0819,0.53857 0.005,0.77135 -0.4071,1.23351 -2.86089,2.03186 -5.19467,1.69012 z m 2.37248,-0.20974 c 2.03875,-0.39012 3.08283,-1.43045 2.5227,-2.51362 -0.17154,-0.33171 -1.00423,-1.06885 -1.56485,-1.38528 -0.99028,-0.55894 -2.45015,-0.74769 -3.5628,-0.46063 -1.20103,0.30985 -2.50082,1.25901 -2.71273,1.98093 -0.0919,0.31318 -0.0861,0.40804 0.0424,0.6931 0.29281,0.64932 0.8034,1.04216 1.84799,1.42178 1.03181,0.37498 2.32559,0.47453 3.42728,0.26372 z m -9.24713,-4.67319 c 0,-0.0632 0.10587,-0.20161 0.23525,-0.30755 l 0.23525,-0.19262 -0.37795,-0.003 c -0.60608,-0.005 -1.45592,-0.18102 -1.60817,-0.33322 -0.13017,-0.13013 -0.12369,-0.14624 0.0888,-0.22104 0.31693,-0.11155 0.28811,-0.17487 -0.13438,-0.29522 -0.8163502,-0.23253 -1.2618102,-0.45255 -1.2618102,-0.6232 0,-0.10737 0.0531,-0.16112 0.14971,-0.1513 0.4719502,0.048 0.4578402,-0.0267 -0.0575,-0.30437 -1.20398,-0.64875 -1.49954,-0.97917 -0.88355,-0.98778 l 0.3208,-0.005 -0.21007,-0.14522 c -0.54363,-0.37583 -1.12137,-0.89862 -1.09134,-0.98755 0.0184,-0.0543 0.12615,-0.10451 0.23963,-0.11163 0.11347,-0.007 0.24779,-0.0167 0.2985,-0.0214 0.0507,-0.005 -0.17065,-0.27125 -0.4919,-0.59249 -0.32124,-0.32125 -0.58407,-0.63283 -0.58407,-0.6924 0,-0.0808 0.10868,-0.0934 0.42773,-0.0495 0.23526,0.0324 0.42595,0.0263 0.42377,-0.0134 -0.002,-0.0397 -0.15475,-0.18767 -0.33903,-0.32883 -0.40901,-0.31327 -0.80697,-0.8533 -0.72571,-0.98479 0.0385,-0.0623 0.18118,-0.0761 0.40172,-0.0388 0.32957,0.0557 0.33975,0.0504 0.27967,-0.14367 -0.094,-0.30362 -0.36873,-0.82438 -0.46692,-0.88507 -0.0477,-0.0295 -0.0868,-0.12835 -0.0868,-0.21967 0,-0.15327 0.0675,-0.16639 0.87685,-0.17053 0.82206,-0.004 0.86483,-0.0129 0.68437,-0.13876 -0.10586,-0.0738 -0.19247,-0.20656 -0.19247,-0.29492 0,-0.14013 0.0686,-0.16066 0.53741,-0.16066 0.29556,0 0.74784,0.0546 1.00505,0.12131 0.2572102,0.0667 0.4838902,0.10506 0.5037402,0.0852 0.0198,-0.0198 -0.0546,-0.1327 -0.16557,-0.25076 -0.3108702,-0.33091 -0.13686,-0.41931 0.52368,-0.26601 0.30086,0.0698 0.65289,0.16723 0.78229,0.21648 0.29278,0.11144 0.30113,0.0144 0.0214,-0.24842 -0.11763,-0.1105 -0.21387,-0.23793 -0.21387,-0.28317 0,-0.14394 0.76539,0.0146 1.29317,0.26797 0.27748,0.13318 0.52246,0.22417 0.54442,0.20221 0.022,-0.0219 -0.0244,-0.14882 -0.10303,-0.28192 -0.0786,-0.1331 -0.11808,-0.26688 -0.0877,-0.2973 0.0969,-0.0969 0.59153,0.12576 1.05245,0.47376 0.24555,0.18539 0.47053,0.31301 0.49995,0.28359 0.0294,-0.0294 0.0295,-0.18135 0,-0.33763 -0.0303,-0.16173 -0.0179,-0.28415 0.029,-0.28415 0.14254,0 0.77489,0.4967 0.97231,0.76372 0.22806,0.30848 0.33325,0.26834 0.33325,-0.12717 0,-0.44116 0.1707,-0.37333 0.80241,0.31882 l 0.55965,0.61319 0.0868,-0.22823 c 0.0477,-0.12552 0.12265,-0.22822 0.16651,-0.22822 0.14436,0 0.86514,0.86974 1.1621,1.40228 0.16027,0.28738 0.39007,0.82576 0.51067,1.19642 0.37597,1.15542 0.26591,1.89493 -0.37716,2.53407 -0.21303,0.21173 -0.49398,0.44001 -0.62433,0.50729 -0.2162,0.11158 -0.25752,0.10626 -0.47051,-0.0606 -0.60397,-0.4732 -1.79203,-1.29493 -2.3515,-1.62642 -0.57742,-0.34213 -2.65753,-1.38502 -2.99339,-1.50077 -0.2829,-0.0975 -0.14857,0.01 0.4705,0.37567 1.56252,0.92354 3.02851,1.97585 3.98063,2.85735 0.62909,0.58242 0.66872,0.78884 0.28118,1.46449 -0.45695,0.79666 -1.15456,1.2547 -2.40958,1.58207 -0.88494,0.23083 -2.47243,0.33229 -2.47243,0.15801 z m 1.92479,-0.24178 c 1.25832,-0.26304 1.72668,-0.47923 2.31753,-1.06974 0.31248,-0.31232 0.56451,-0.65258 0.62965,-0.85009 0.10801,-0.3275 0.10655,-0.33144 -0.26442,-0.71312 -1.1427,-1.17574 -3.152,-2.5618 -5.59133,-3.85705 -0.56461,-0.2998 -0.93989,-0.52664 -0.83396,-0.5041 0.10592,0.0225 0.17102,0.006 0.14466,-0.0366 -0.0263,-0.0427 -0.11304,-0.0806 -0.1926,-0.0843 -0.0796,-0.004 -0.10123,-0.0246 -0.0481,-0.0464 0.16761,-0.0689 1.89878,0.63464 3.49643,1.42092 1.43231,0.70491 3.13065,1.7456 3.78839,2.3214 0.34364,0.30082 0.42021,0.30371 0.79142,0.0298 0.65819,-0.4856 0.94506,-1.2555 0.76582,-2.0553 -0.20817,-0.92894 -0.9451,-2.37243 -1.43001,-2.80114 -0.16906,-0.14945 -0.17532,-0.14769 -0.2285,0.0642 -0.0356,0.1417 -0.1139,0.21783 -0.22414,0.21783 -0.0932,0 -0.17008,-0.0289 -0.17086,-0.0641 -7.7e-4,-0.0353 -0.22213,-0.29823 -0.49189,-0.58431 -0.26977,-0.28609 -0.484,-0.50416 -0.47608,-0.48462 0.008,0.0195 -0.0247,0.14775 -0.0725,0.28491 -0.0868,0.24892 -0.34558,0.3411 -0.45602,0.16241 -0.0295,-0.0478 -0.0955,-0.0611 -0.14658,-0.0295 -0.0521,0.0322 -0.0685,0.018 -0.0375,-0.0322 0.0304,-0.0493 -0.0887,-0.23006 -0.26481,-0.40174 -0.31918,-0.31114 -0.32027,-0.31145 -0.34665,-0.10096 -0.0542,0.43196 -0.22043,0.43311 -0.80081,0.005 l -0.54147,-0.39893 -0.0435,0.24335 c -0.0561,0.31424 -0.23999,0.3435 -0.69621,0.11075 -0.20217,-0.10314 -0.46622,-0.21582 -0.58677,-0.25039 -0.20813,-0.0597 -0.2175,-0.0483 -0.18556,0.22527 0.039,0.33371 -0.006,0.34579 -0.63254,0.16918 -0.80423,-0.22678 -0.77332,-0.23052 -0.73601,0.0891 0.0393,0.33655 -0.0112,0.34646 -0.7979602,0.15648 -0.2823,-0.0682 -0.66434,-0.12453 -0.84899,-0.12527 l -0.33571,-0.002 0.19497,0.20753 c 0.10722,0.11415 0.16941,0.24888 0.13818,0.29941 -0.0339,0.055 -0.38079,0.0919 -0.86313,0.0919 l -0.80634,0 0.25394,0.49974 c 0.13968,0.27486 0.2642,0.59244 0.27673,0.70576 0.0201,0.18122 -0.0158,0.20921 -0.29801,0.23257 -0.17645,0.0146 -0.32081,0.0597 -0.32081,0.1001 0,0.0404 0.23801,0.28556 0.52892,0.54468 0.44656,0.39779 0.51215,0.4913 0.42135,0.60071 -0.0592,0.0713 -0.22978,0.14281 -0.3792,0.15897 l -0.27165,0.0294 0.53466,0.51319 c 0.29407,0.28226 0.53466,0.55692 0.53466,0.61036 0,0.0535 -0.11815,0.12312 -0.26256,0.15483 -0.25279,0.0556 -0.25704,0.0638 -0.11396,0.22187 0.0817,0.0903 0.35385,0.30046 0.60475,0.46698 0.25088,0.16653 0.45615,0.34108 0.45615,0.38789 0,0.0468 -0.1147,0.13333 -0.2549,0.19227 l -0.25488,0.10718 0.44736,0.26781 c 0.24606,0.1473 0.59245,0.33566 0.76977,0.41858 0.3544302,0.16574 0.3693202,0.27793 0.0577,0.43458 l -0.2052206,0.10315 0.2975106,0.12388 c 0.16365,0.0681 0.51888,0.18806 0.78942,0.26649 0.523,0.15163 0.61243,0.29296 0.3165,0.50025 -0.16944,0.11868 -0.16582,0.12454 0.10693,0.17295 0.15528,0.0276 0.49405,0.0731 0.75283,0.10105 0.74089,0.0802 0.84224,0.11307 0.81979,0.26602 -0.0113,0.0772 -0.0923,0.19284 -0.17992,0.2569 -0.14226,0.10403 -0.11408,0.11637 0.26341,0.11536 0.23247,-5.9e-4 0.76915,-0.0735 1.1926,-0.16207 z m 11.94337,0.20215 c -1.27657,-0.27696 -1.92496,-0.59019 -2.48958,-1.20273 -0.35485,-0.38498 -0.67985,-0.97656 -0.68342,-1.24402 -0.002,-0.20148 1.22472,-1.32806 2.2568,-2.07144 0.48444,-0.34893 1.39521,-0.94669 2.02395,-1.32836 0.62874,-0.38166 1.1114,-0.69392 1.07259,-0.69392 -0.15771,0 -1.87503,0.84206 -2.91715,1.43037 -0.61165,0.3453 -1.52949,0.9392 -2.03961,1.31979 -1.04821,0.782 -1.02918,0.77993 -1.69043,0.18372 -0.48701,-0.4391 -0.6714,-0.87264 -0.67371,-1.58407 -0.003,-0.97996 0.63233,-2.43432 1.4403,-3.296 0.39508,-0.42134 0.48436,-0.44385 0.58328,-0.14709 0.071,0.2129 0.0817,0.20656 0.65469,-0.38496 0.66308,-0.68459 0.82725,-0.74453 0.82725,-0.30202 0,0.16468 0.0304,0.29941 0.0677,0.29941 0.0373,0 0.23629,-0.17175 0.44231,-0.38167 0.20603,-0.20993 0.48675,-0.42077 0.62383,-0.46857 l 0.24924,-0.0869 -0.0575,0.34025 c -0.0316,0.18713 -0.0317,0.34023 0,0.34023 0.0315,0 0.21774,-0.12994 0.41386,-0.28875 0.40535,-0.32825 0.84157,-0.56671 1.0367,-0.56671 0.16903,0 0.17154,0.20334 0.005,0.34219 -0.12897,0.10704 -0.18408,0.38497 -0.0642,0.3236 0.88897,-0.45492 1.81785,-0.7264 1.81785,-0.53128 0,0.0392 -0.1251,0.20394 -0.27802,0.36617 -0.20838,0.22107 -0.23517,0.27938 -0.10693,0.23281 0.0941,-0.0342 0.47061,-0.14272 0.8367,-0.2412 0.53555,-0.14408 0.68599,-0.15794 0.76991,-0.0709 0.0826,0.0857 0.0643,0.13535 -0.0882,0.23879 -0.28753,0.1951 -0.25739,0.38695 0.0428,0.2722 0.12939,-0.0495 0.57114,-0.1119 0.98166,-0.13873 0.64305,-0.0421 0.7539,-0.0293 0.80053,0.0923 0.0346,0.0902 -0.0185,0.2016 -0.14758,0.3091 l -0.20171,0.16804 0.87685,0.003 c 0.4839,0.002 0.87685,0.0387 0.87685,0.0827 0,0.0439 -0.11361,0.26527 -0.25246,0.49188 -0.13885,0.22662 -0.27922,0.52372 -0.31193,0.66022 l -0.0595,0.24819 0.35471,-0.0567 c 0.32613,-0.0521 0.3547,-0.0414 0.3547,0.13257 0,0.11887 -0.19097,0.375 -0.51328,0.68844 -0.2823,0.27453 -0.51328,0.52139 -0.51328,0.54858 0,0.0272 0.17324,0.0235 0.38497,-0.008 0.33455,-0.0502 0.38495,-0.0376 0.38495,0.0956 0,0.0843 -0.25223,0.39467 -0.56053,0.68962 l -0.56053,0.53626 0.30389,0 c 0.22461,0 0.30389,0.0366 0.30389,0.14027 0,0.15558 -0.007,0.1622 -0.7654,0.73658 -0.51665,0.39123 -0.53092,0.44367 -0.11145,0.40969 0.23554,-0.0191 0.25418,0.17094 0.0361,0.36827 -0.086,0.0778 -0.46038,0.31477 -0.832,0.52654 -0.61998,0.35331 -0.65269,0.38503 -0.397,0.38503 0.3032,0 0.47056,0.22019 0.26435,0.3478 -0.0657,0.0407 -0.45532,0.18111 -0.8659,0.31216 -0.41057,0.13106 -0.74742,0.26298 -0.74853,0.29316 -7.7e-4,0.0302 0.0942,0.0791 0.21183,0.10857 0.11763,0.0295 0.21387,0.10612 0.21387,0.17021 0,0.14288 -0.60536,0.30392 -1.39013,0.36981 -0.60423,0.0507 -0.72417,0.14321 -0.36357,0.28031 0.11763,0.0447 0.21387,0.14001 0.21387,0.21175 0,0.10746 -0.13183,0.12924 -0.74854,0.12364 -0.41169,-0.004 -0.9944,-0.0601 -1.2949,-0.12534 z m 1.50065,-0.1954 c -0.29611,-0.3272 -0.19506,-0.39414 0.73159,-0.48469 0.53859,-0.0526 1.17313,-0.19077 0.9508,-0.20698 -0.0555,-0.004 -0.16264,-0.0692 -0.2382,-0.14473 -0.10607,-0.10608 -0.11482,-0.16457 -0.0384,-0.25664 0.0545,-0.0656 0.15119,-0.11926 0.21502,-0.11926 0.19447,0 1.23175,-0.36193 1.23175,-0.42979 0,-0.0349 -0.077,-0.0837 -0.1711,-0.10827 -0.27518,-0.072 -0.1984,-0.30369 0.14866,-0.44871 0.17586,-0.0734 0.50697,-0.25373 0.73579,-0.40057 l 0.41604,-0.26697 -0.22251,-0.11658 c -0.24653,-0.12918 -0.29214,-0.32274 -0.094,-0.39879 0.0707,-0.0271 0.34515,-0.21286 0.60988,-0.41274 l 0.48133,-0.3634 -0.2677,-0.0693 c -0.14723,-0.0382 -0.26769,-0.1223 -0.26769,-0.18701 0,-0.0647 0.2406,-0.35159 0.53466,-0.63753 l 0.53466,-0.51989 -0.32348,-0.002 c -0.53221,-0.002 -0.5027,-0.20061 0.11904,-0.79881 l 0.54663,-0.52591 -0.36357,-0.0277 c -0.45549,-0.0348 -0.46452,-0.13892 -0.0785,-0.90584 l 0.28505,-0.56634 -0.8411,0 c -0.77588,0 -0.84109,-0.0129 -0.84109,-0.16625 0,-0.0914 0.0866,-0.23032 0.19248,-0.30864 0.18449,-0.13651 0.1685,-0.14038 -0.386,-0.0935 -0.31817,0.0269 -0.72911,0.094 -0.9132,0.14917 -0.46691,0.13989 -0.63894,0.0583 -0.57292,-0.27188 0.0582,-0.29078 0.12213,-0.28851 -0.73817,-0.0261 -0.58706,0.17904 -0.75902,0.10029 -0.59017,-0.27029 0.095,-0.20852 0.0893,-0.2188 -0.0922,-0.16656 -0.10637,0.0306 -0.39698,0.15239 -0.6458,0.27059 -0.54143,0.25721 -0.73712,0.21727 -0.68472,-0.13976 l 0.0369,-0.25137 -0.23655,0.13973 c -0.13008,0.0769 -0.21343,0.17711 -0.18519,0.2228 0.0283,0.0457 0.009,0.057 -0.0423,0.0252 -0.0515,-0.0318 -0.22954,0.0614 -0.39562,0.20728 -0.32344,0.28397 -0.44242,0.27156 -0.56819,-0.0593 -0.0974,-0.25616 -0.26729,-0.18848 -0.66556,0.26513 -0.14617,0.16647 -0.32563,0.30268 -0.39881,0.30268 -0.1483,0 -0.3283,-0.38658 -0.25231,-0.54185 0.0268,-0.0548 -0.21414,0.17934 -0.53556,0.52046 -0.3214,0.34112 -0.62861,0.62021 -0.68267,0.62021 -0.0541,0 -0.13213,-0.10148 -0.17347,-0.2255 l -0.0752,-0.22549 -0.3517,0.39955 c -0.95797,1.0883 -1.53989,2.92546 -1.19108,3.76029 0.16199,0.38769 0.59996,0.86822 0.90743,0.99557 0.24415,0.10113 0.28448,0.0842 0.87724,-0.36859 0.93145,-0.71147 2.28467,-1.53414 3.5299,-2.14595 1.18236,-0.58091 3.20925,-1.42448 3.39563,-1.41321 0.0871,0.005 0.0861,0.017 -0.005,0.0531 -0.0975,0.0387 -0.0977,0.058 -0.002,0.11756 0.0815,0.0504 -0.01,0.12585 -0.31111,0.2581 -0.67657,0.29667 -2.30022,1.23664 -3.46318,2.00491 -1.24723,0.82393 -2.88877,2.19863 -2.95885,2.47786 -0.0819,0.32657 0.33886,1.02537 0.8672,1.44004 0.6753,0.53002 2.09619,0.97032 3.19561,0.99025 0.44274,0.008 0.45637,0.002 0.3208,-0.14806 z"
       id="path14310"
       style="fill:#ffffff" />
  </g>
</svg>
