<?xml version="1.0" encoding="UTF-8" standalone="no"?>
<svg
   xmlns:dc="http://purl.org/dc/elements/1.1/"
   xmlns:cc="http://creativecommons.org/ns#"
   xmlns:rdf="http://www.w3.org/1999/02/22-rdf-syntax-ns#"
   xmlns:svg="http://www.w3.org/2000/svg"
   xmlns="http://www.w3.org/2000/svg"
   xmlns:sodipodi="http://sodipodi.sourceforge.net/DTD/sodipodi-0.dtd"
   xmlns:inkscape="http://www.inkscape.org/namespaces/inkscape"
   version="1.1"
   width="40"
   height="40"
   preserveAspectRatio="xMinYMin meet"
   viewport="0 0 720 490"
   id="svg2"
   inkscape:version="0.48.2 r9819"
   sodipodi:docname="bubble-topic-arduino.svg">
  <metadata
     id="metadata26">
    <rdf:RDF>
      <cc:Work
         rdf:about="">
        <dc:format>image/svg+xml</dc:format>
        <dc:type
           rdf:resource="http://purl.org/dc/dcmitype/StillImage" />
      </cc:Work>
    </rdf:RDF>
  </metadata>
  <defs
     id="defs24" />
  <sodipodi:namedview
     pagecolor="#ffffff"
     bordercolor="#666666"
     borderopacity="1"
     objecttolerance="10"
     gridtolerance="10"
     guidetolerance="10"
     inkscape:pageopacity="0"
     inkscape:pageshadow="2"
     inkscape:window-width="1440"
     inkscape:window-height="794"
     id="namedview22"
     showgrid="false"
     inkscape:zoom="9.8603158"
     inkscape:cx="8.8437203"
     inkscape:cy="10.749912"
     inkscape:window-x="0"
     inkscape:window-y="0"
     inkscape:window-maximized="1"
     inkscape:current-layer="svg2" />
  <g
     id="g4"
     style="fill:none;stroke:#ffffff;stroke-width:18.02722652;stroke-opacity:1;stroke-miterlimit:4;stroke-dasharray:none"
     transform="matrix(0.05547165,0,0,0.05547165,0.08567782,10.562808)">
    <path
       inkscape:connector-curvature="0"
       id="path6"
       d="M 174,0 C 151.12307,0 128.38185,4.3366999 107.1875,12.78125 85.99315,21.2258 66.616697,33.661846 50.28125,49.375 33.945803,65.088154 20.875498,83.878829 11.96875,104.5625 c -8.9067477,20.68367 -13.5,42.97738 -13.5,65.4375 0,22.46012 4.5932523,44.75383 13.5,65.4375 8.906748,20.68367 21.977053,39.47435 38.3125,55.1875 16.335447,15.71315 35.7119,28.1492 56.90625,36.59375 20.71019,8.25164 42.90292,12.52499 65.25,12.71875 l 0,0.0312 c 0.52786,0.0278 1.03662,0.008 1.5625,0.0312 54.34036,2.42773 98.141,-17.92868 130.1875,-47.46875 21.90642,-20.19306 39.10518,-44.04158 54.8125,-68.34375 15.70732,24.30217 32.90608,48.15069 54.8125,68.34375 C 445.859,322.07132 489.65964,342.42773 544,340 c 0.52588,-0.0235 1.03464,-0.003 1.5625,-0.0312 l 0,-0.0312 c 22.34708,-0.19376 44.53981,-4.46711 65.25,-12.71875 21.19435,-8.44455 40.5708,-20.8806 56.90625,-36.59375 l 0.125,-0.15625 c 16.26822,-15.68491 29.30694,-34.4084 38.1875,-55.03125 8.90675,-20.68367 13.5,-42.97738 13.5,-65.4375 0,-22.46012 -4.59325,-44.75383 -13.5,-65.4375 L 705.875,104.25 C 696.97156,83.692879 683.96975,65.006926 667.71875,49.375 651.3833,33.661846 632.00685,21.2258 610.8125,12.78125 589.61815,4.3366999 566.87693,0 544,0 486.75,0 441.54734,22.233777 408.15625,53.125 388.86795,70.969252 373.19595,91.380319 359,112.25 344.80405,91.380319 329.13205,70.969252 309.84375,53.125 276.45266,22.233777 231.25,0 174,0 z m 0,60 c 42.75,0 70.04734,14.016223 95.09375,37.1875 19.8534,18.36705 37.27408,43.31861 54.53125,70.5625 -19.69479,31.83012 -38.7346,60.93884 -60.125,80.65625 -23.58087,21.73655 -48.00989,33.72645 -87.9375,31.625 L 174.78125,280 174,280 c -15.22655,0 -30.58508,-2.94972 -44.59375,-8.53125 C 115.39758,265.88722 102.48276,257.57866 91.875,247.375 81.267237,237.17134 72.768547,224.89703 67.09375,211.71875 61.418952,198.54047 58.46875,184.19179 58.46875,170 c 0,-14.19179 2.950202,-28.54047 8.625,-41.71875 C 72.768547,115.10297 81.267237,102.82866 91.875,92.625 l 0.4375,-0.40625 C 102.83847,82.202499 115.58589,74.037752 129.40625,68.53125 143.41492,62.94972 158.77345,60 174,60 z m 370,0 c 15.22655,0 30.58508,2.94972 44.59375,8.53125 14.00867,5.58153 26.92349,13.890086 37.53125,24.09375 10.60776,10.20366 19.10645,22.47797 24.78125,35.65625 5.6748,13.17828 8.625,27.52696 8.625,41.71875 0,14.19179 -2.9502,28.54047 -8.625,41.71875 -5.6748,13.17828 -14.17349,25.45259 -24.78125,35.65625 -10.60776,10.20366 -23.52258,18.51222 -37.53125,24.09375 C 574.58508,277.05028 559.22655,280 544,280 l -0.78125,0 -0.78125,0.0312 C 502.50989,282.1327 478.08087,270.1428 454.5,248.40625 433.1096,228.68884 414.06979,199.58012 394.375,167.75 411.63217,140.50611 429.05285,115.55455 448.90625,97.1875 473.95266,74.016223 501.25,60 544,60 z"
       style="font-size:medium;font-style:normal;font-variant:normal;font-weight:normal;font-stretch:normal;text-indent:0;text-align:start;text-decoration:none;line-height:normal;letter-spacing:normal;word-spacing:normal;text-transform:none;direction:ltr;block-progression:tb;writing-mode:lr-tb;text-anchor:start;baseline-shift:baseline;color:#000000;fill:none;stroke:#ffffff;stroke-width:3.6054453;stroke-miterlimit:4;stroke-opacity:1;stroke-dasharray:none;marker:none;visibility:visible;display:inline;overflow:visible;enable-background:accumulate;font-family:Sans;-inkscape-font-specification:Sans" />
  </g>
  <rect
     style="fill:none;stroke:#ffffff;stroke-width:0.2;stroke-linecap:round;stroke-linejoin:miter;stroke-miterlimit:3.5;stroke-opacity:1;stroke-dasharray:none"
     id="rect17791"
     width="5.8314562"
     height="1.8128222"
     x="7.1512074"
     y="18.81691" />
  <path
     style="fill:none;stroke:#ffffff;stroke-width:0.20000000000000001;stroke-linecap:butt;stroke-linejoin:miter;stroke-miterlimit:4;stroke-opacity:1;stroke-dasharray:none"
     d="m 28.865627,17.066405 1.812984,0 0,1.788147 1.763312,0 0,1.800566 -1.763312,0 0,1.77573 -1.800566,0 0,-1.825401 -1.77573,0 0,-1.738477 1.788148,0 z"
     id="path19157"
     inkscape:connector-curvature="0" />
</svg>
