<?xml version="1.0" encoding="UTF-8" standalone="no"?>
<!-- Created with Inkscape (http://www.inkscape.org/) -->

<svg
   xmlns:dc="http://purl.org/dc/elements/1.1/"
   xmlns:cc="http://creativecommons.org/ns#"
   xmlns:rdf="http://www.w3.org/1999/02/22-rdf-syntax-ns#"
   xmlns:svg="http://www.w3.org/2000/svg"
   xmlns="http://www.w3.org/2000/svg"
   xmlns:sodipodi="http://sodipodi.sourceforge.net/DTD/sodipodi-0.dtd"
   xmlns:inkscape="http://www.inkscape.org/namespaces/inkscape"
   width="514.20239"
   height="400"
   id="svg2"
   version="1.1"
   inkscape:version="0.48.5 r10040"
   sodipodi:docname="Google-Logo_svg2.svg"
   style="display:inline">
  <defs
     id="defs4">
    <linearGradient
       id="linearGradient7673">
      <stop
         style="stop-color:#ffffff;stop-opacity:1"
         offset="0"
         id="stop7675" />
      <stop
         style="stop-color:#ffffff;stop-opacity:1;"
         offset="1"
         id="stop7677" />
    </linearGradient>
    <linearGradient
       id="linearGradient3674">
      <stop
         style="stop-color:#ffffff;stop-opacity:1;"
         offset="0"
         id="stop3676" />
      <stop
         style="stop-color:#000000;stop-opacity:0;"
         offset="1"
         id="stop3678" />
    </linearGradient>
    <linearGradient
       id="linearGradient3645">
      <stop
         style="stop-color:#ffffff;stop-opacity:1;"
         offset="0"
         id="stop3647" />
      <stop
         style="stop-color:#000000;stop-opacity:0.94736842"
         offset="1"
         id="stop3649" />
    </linearGradient>
    <inkscape:perspective
       sodipodi:type="inkscape:persp3d"
       inkscape:vp_x="0 : 526.18109 : 1"
       inkscape:vp_y="0 : 1000 : 0"
       inkscape:vp_z="744.09448 : 526.18109 : 1"
       inkscape:persp3d-origin="372.04724 : 350.78739 : 1"
       id="perspective10" />
    <inkscape:perspective
       id="perspective2838"
       inkscape:persp3d-origin="0.5 : 0.33333333 : 1"
       inkscape:vp_z="1 : 0.5 : 1"
       inkscape:vp_y="0 : 1000 : 0"
       inkscape:vp_x="0 : 0.5 : 1"
       sodipodi:type="inkscape:persp3d" />
    <inkscape:perspective
       id="perspective2852"
       inkscape:persp3d-origin="0.5 : 0.33333333 : 1"
       inkscape:vp_z="1 : 0.5 : 1"
       inkscape:vp_y="0 : 1000 : 0"
       inkscape:vp_x="0 : 0.5 : 1"
       sodipodi:type="inkscape:persp3d" />
    <inkscape:perspective
       id="perspective7795"
       inkscape:persp3d-origin="0.5 : 0.33333333 : 1"
       inkscape:vp_z="1 : 0.5 : 1"
       inkscape:vp_y="0 : 1000 : 0"
       inkscape:vp_x="0 : 0.5 : 1"
       sodipodi:type="inkscape:persp3d" />
    <inkscape:perspective
       id="perspective7817"
       inkscape:persp3d-origin="0.5 : 0.33333333 : 1"
       inkscape:vp_z="1 : 0.5 : 1"
       inkscape:vp_y="0 : 1000 : 0"
       inkscape:vp_x="0 : 0.5 : 1"
       sodipodi:type="inkscape:persp3d" />
    <inkscape:perspective
       id="perspective8022"
       inkscape:persp3d-origin="0.5 : 0.33333333 : 1"
       inkscape:vp_z="1 : 0.5 : 1"
       inkscape:vp_y="0 : 1000 : 0"
       inkscape:vp_x="0 : 0.5 : 1"
       sodipodi:type="inkscape:persp3d" />
    <inkscape:perspective
       id="perspective8467"
       inkscape:persp3d-origin="0.5 : 0.33333333 : 1"
       inkscape:vp_z="1 : 0.5 : 1"
       inkscape:vp_y="0 : 1000 : 0"
       inkscape:vp_x="0 : 0.5 : 1"
       sodipodi:type="inkscape:persp3d" />
    <inkscape:perspective
       id="perspective8736"
       inkscape:persp3d-origin="0.5 : 0.33333333 : 1"
       inkscape:vp_z="1 : 0.5 : 1"
       inkscape:vp_y="0 : 1000 : 0"
       inkscape:vp_x="0 : 0.5 : 1"
       sodipodi:type="inkscape:persp3d" />
  </defs>
  <sodipodi:namedview
     id="base"
     pagecolor="#0000ff"
     bordercolor="#666666"
     borderopacity="1.0"
     inkscape:pageopacity="1"
     inkscape:pageshadow="2"
     inkscape:zoom="1.1249105"
     inkscape:cx="121.59204"
     inkscape:cy="185.7886"
     inkscape:document-units="px"
     inkscape:current-layer="layer11"
     showgrid="false"
     inkscape:window-width="1920"
     inkscape:window-height="1027"
     inkscape:window-x="-8"
     inkscape:window-y="-8"
     inkscape:window-maximized="1"
     fit-margin-top="0"
     fit-margin-left="0"
     fit-margin-right="0"
     fit-margin-bottom="0" />
  <metadata
     id="metadata7">
    <rdf:RDF>
      <cc:Work
         rdf:about="">
        <dc:format>image/svg+xml</dc:format>
        <dc:type
           rdf:resource="http://purl.org/dc/dcmitype/StillImage" />
        <dc:title></dc:title>
      </cc:Work>
    </rdf:RDF>
  </metadata>
  <g
     inkscape:groupmode="layer"
     id="layer11"
     inkscape:label="Shadow"
     style="display:inline"
     transform="translate(-25.025711,133.25506)">
    <g
       id="g4882"
       transform="matrix(0.84818505,0,0,0.84818505,42.831092,-85.005309)">
      <path
         inkscape:connector-curvature="0"
         sodipodi:nodetypes="csssssssssssssssssccccccsssssssssssccc"
         id="path3640-5"
         d="m 144.22959,109.47078 c 0.44133,-0.82911 -12.59701,-9.43501 -30.60767,-12.518885 -15.777455,-2.701494 -35.496752,-3.147492 -52.304545,5.735755 -4.206441,2.22318 -7.371904,4.35886 -10.297222,6.57527 -7.970095,6.03868 -12.06127,11.96827 -15.36334,16.66841 -3.502006,4.98473 -6.140624,12.47476 -7.234367,15.8821 -1.333079,4.15294 -1.601037,8.15411 -2.206109,12.43916 -0.393985,2.79016 -0.318405,5.80808 -0.174018,8.9583 0.323562,7.05939 1.854641,14.75383 5.211705,21.81206 2.530016,5.31936 5.83406,10.30954 9.024735,14.84 5.217257,7.40801 13.787266,12.19896 18.799525,14.77923 3.933041,2.02471 8.812569,4.21887 17.124264,5.58675 9.427127,1.55145 23.335462,1.51747 45.604932,-1.9665 6.16227,-0.96407 12.90538,-2.98861 20.44643,-4.54223 0.62723,-0.12922 1.01595,-0.33412 1.51374,-0.46358 0.46278,-0.12036 0.87463,-0.0471 0.85835,-0.38775 -0.47151,-9.86904 -0.29981,-20.92646 -0.10203,-25.89156 0.0301,-0.75529 0.21127,-3.09183 0.21972,-4.07995 0.008,-0.88156 0.46749,-0.77582 0.93472,-1.18299 l 4.60989,-4.54403 -36.08888,-0.52685 -12.64427,7.11241 25.09099,-1.05369 0,27.85692 c 0,0 -10.17841,4.24224 -23.77247,3.95136 C 92.872531,214.29649 80.844423,211.9884 69.220048,203.24916 50.977,189.53398 44.579148,170.54015 44.474091,156.8261 c -0.05292,-6.90791 -0.234509,-12.19382 0.313527,-14.42753 0.482707,-1.96743 1.260151,-6.74597 3.343481,-11.91321 2.825268,-7.00746 7.605605,-14.30008 16.409198,-20.29605 5.399234,-3.67733 12.657403,-7.08803 21.209508,-7.83094 9.840366,-0.85482 16.794445,0.25658 22.607345,2.51496 14.33428,5.56908 17.20483,10.24736 19.27682,11.87448 0.10202,0.0801 0.56345,0.42182 0.39445,0.66643 -0.20254,0.29313 -0.22759,0.61472 -0.32462,0.7901 -0.91193,1.64833 -3.49432,5.95224 -3.49432,5.95224 l 5.46601,-0.59271 14.5541,-14.09309 z"
         style="fill:none;stroke:#ffffff;stroke-width:1.79999995;stroke-linecap:butt;stroke-linejoin:miter;stroke-miterlimit:4;stroke-opacity:1;stroke-dasharray:none;display:inline" />
      <path
         inkscape:connector-curvature="0"
         sodipodi:nodetypes="ccscssccssscc"
         id="path7733-2"
         d="m 198.83244,134.01352 c -2.03128,0.0527 -3.23384,0.22094 -3.23384,0.22094 1.69628,-0.38787 -41.30677,4.77341 -37.13894,47.14176 3.59612,36.55647 44.25958,34.97097 44.25958,34.97097 9.5311,0.45133 45.52571,-9.44655 39.49887,-47.34393 -1.92973,-12.1344 -7.23205,-20.19059 -13.33707,-25.40874 -10.45854,-8.93922 -23.95476,-9.73907 -30.0486,-9.581 z m -2.18937,5.74458 c 8.23095,0.0211 22.3815,3.92475 26.87502,28.98405 6.31386,35.21097 -9.75576,38.4205 -13.43751,40.29243 -4.8903,2.4864 -26.91786,4.73887 -34.7688,-31.33409 -7.74414,-35.58229 16.40786,-37.29241 15.0243,-37.13895 0,0 2.56566,-0.81306 6.30699,-0.80344 z"
         style="fill:none;stroke:#ffffff;stroke-width:1.79999995;stroke-miterlimit:4;stroke-opacity:1;stroke-dasharray:none;display:inline" />
      <path
         inkscape:connector-curvature="0"
         sodipodi:nodetypes="ccscssccssscc"
         id="path7733-8-1"
         d="m 294.10986,133.14427 c -2.03128,0.0527 -3.23384,0.22094 -3.23384,0.22094 1.69628,-0.38787 -41.30677,4.77341 -37.13894,47.14176 3.59611,36.55648 44.25958,34.97097 44.25958,34.97097 9.5311,0.45133 45.52572,-9.44655 39.49888,-47.34393 -1.92974,-12.1344 -7.23205,-20.19059 -13.33708,-25.40874 -10.45854,-8.93922 -23.95476,-9.73907 -30.0486,-9.581 z m -2.18937,5.74458 c 8.23094,0.0212 22.3815,3.92475 26.87502,28.98405 6.31387,35.21097 -9.75576,38.4205 -13.43751,40.29243 -4.8903,2.4864 -26.91786,4.73888 -34.7688,-31.33409 -7.74414,-35.58229 16.40786,-37.29241 15.0243,-37.13895 0,0 2.56565,-0.81306 6.30699,-0.80344 z"
         style="fill:none;stroke:#ffffff;stroke-width:1.79999995;stroke-miterlimit:4;stroke-opacity:1;stroke-dasharray:none;display:inline" />
      <path
         inkscape:connector-curvature="0"
         sodipodi:nodetypes="csscscscscsssssssssssccccccscscccsssssssc"
         id="path8122-4"
         d="m 385.77247,136.02211 c -1.53649,-5.7e-4 -5.14184,0.0861 -9.4404,0.8637 -10.15999,1.83788 -24.2061,8.54539 -28.1806,22.51637 -6.14684,21.60706 9.68143,30.18919 9.68143,30.18919 0,0 5.54414,3.25766 7.83352,3.89668 6.88046,1.92052 14.20078,1.02438 14.20078,1.02438 0,0 -2.91882,9.66398 2.93255,16.49058 1.397,1.62984 0.38163,1.68722 0.38163,1.68722 0,0 -25.57385,-0.6603 -37.68126,12.19217 -12.10741,12.85248 -5.54372,24.68565 -5.54372,24.68565 0,0 6.34398,15.46773 33.72432,16.24954 27.50201,0.78529 44.51125,-15.50378 45.99685,-27.79897 0.74672,-6.18007 -0.0977,-11.9696 -3.19367,-17.03289 -3.01118,-4.92462 -8.1854,-9.16407 -13.23665,-13.29691 -3.13862,-2.56797 -5.32177,-3.88638 -6.72879,-5.36295 -1.32925,-1.39495 -1.5535,-3.19154 -1.50645,-4.53942 0.0657,-1.88237 1.05751,-4.19082 4.35865,-8.0143 6.02236,-6.97527 7.54919,-6.10696 11.18788,-11.32848 1.09086,-1.56539 1.89328,-3.84913 3.0129,-7.25104 0.67451,-2.04949 0.56236,-4.17082 0.5624,-6.1463 1.1e-4,-4.27106 -1.02557,-8.33988 -2.73169,-11.77037 -3.1706,-6.37516 -8.61307,-10.51363 -8.7173,-10.82634 l 9.54083,0 10.80624,-6.32708 -36.45601,-0.10043 c 0,0 -0.29128,2e-4 -0.80344,0 z m -7.83353,5.92536 c 5.56075,0.0382 13.91503,2.91892 18.92098,17.93677 8.59035,25.77108 -9.40023,29.70713 -9.40023,29.70713 0,0 -20.61495,3.17452 -24.40444,-19.7445 -3.86025,-23.34698 5.54107,-24.60992 9.21945,-26.91519 0,0 2.3278,-1.00713 5.66424,-0.98421 z m 11.38874,75.92493 c 0,0 16.41329,10.06044 17.95685,17.43462 1.72939,8.26197 1.84579,14.27942 -10.68573,20.86931 -3.69937,1.94537 -10.19232,2.17193 -14.28112,2.18937 -10.04982,0.0429 -17.64044,-3.82554 -21.39154,-5.76467 -1.94943,-1.00776 -12.77672,-13.16629 -4.76038,-24.04289 2.01644,-2.73591 4.25086,-3.94885 6.32708,-5.34287 4.41851,-2.96667 8.75573,-4.34857 16.93247,-5.06166 2.71962,-0.23718 6.34368,-0.0375 9.90237,-0.28121 z"
         style="fill:none;stroke:#ffffff;stroke-width:1.79999995;stroke-miterlimit:4;stroke-opacity:1;stroke-dasharray:none;display:inline" />
      <path
         inkscape:connector-curvature="0"
         sodipodi:nodetypes="cccscsccccscc"
         id="path8279-8"
         d="m 421.15881,98.18694 12.81314,-6.208432 24.30533,0.132099 c 0,0 -6.47261,3.170258 -7.00099,8.057743 -0.52838,4.88749 0,100.78787 0,100.78787 0.13528,2.50979 -0.97904,5.48191 5.81215,6.14238 8.4798,0.82469 9.90706,0.99071 9.90706,0.99071 l -5.94424,4.4912 -31.70261,-0.26419 3.43445,-3.69864 c 0,0 1.84932,-1.45303 1.71723,-7.52937 -0.1321,-6.07632 -0.19814,-102.835327 -0.19814,-102.835327 l -13.14338,-0.06604 z"
         style="fill:none;stroke:#ffffff;stroke-width:1.79999995;stroke-miterlimit:4;stroke-opacity:1;stroke-dasharray:none;display:inline" />
      <path
         inkscape:connector-curvature="0"
         sodipodi:nodetypes="cssssscscccssccssscsscssc"
         id="path8363-6"
         d="m 511.08479,133.70443 c -0.60598,0.003 -3.01337,-0.132 -3.669,-0.0816 -23.15198,1.78092 -33.83822,14.89426 -37.40006,26.87502 -3.56184,11.98074 -0.66031,29.46807 4.35865,37.23937 5.01896,7.77129 15.54198,17.47235 32.21788,17.79616 16.67591,0.3238 25.59674,-7.61982 31.09307,-13.11614 0.36428,-0.36428 0.64275,-1.12481 0.64275,-1.12481 0,0 -10.51486,5.94256 -21.21078,5.82493 -11.58134,-0.12738 -29.68355,-11.36846 -34.14613,-34.96966 4.35104,-0.34412 7.99402,-0.56757 12.77467,-0.48206 l 40.65399,-16.67135 c 0,0 -0.98492,-5.29378 -5.10184,-10.50496 -2.57252,-3.25628 -6.76201,-6.37984 -11.48917,-8.47627 -3.15041,-1.39717 -4.64412,-1.51794 -8.72403,-2.30867 z m -10.03625,5.68311 c 0.53908,-0.011 1.06975,0.004 1.58679,0.0201 3.20466,0.1 5.85417,0.75204 8.21516,2.26972 1.58144,1.01657 2.85703,2.51441 4.74028,4.15779 3.64109,3.17731 3.55522,7.29121 3.55522,7.29121 -0.0644,0.92923 0.7645,2.14706 -1.32568,3.4347 -5.2903,3.25903 -16.5075,7.55648 -25.87071,11.40882 -3.10149,1.27606 -6.36342,2.35984 -8.65705,3.53513 0,0 -1.91032,-10.92526 1.2855,-19.94536 1.70796,-4.82065 5.38535,-8.99231 10.4447,-10.90668 2.60127,-0.98427 4.40852,-1.23231 6.02579,-1.26541 z"
         style="fill:none;stroke:#ffffff;stroke-width:1.79999995;stroke-miterlimit:4;stroke-opacity:1;stroke-dasharray:none;display:inline" />
    </g>
  </g>
  <g
     inkscape:label="Basic"
     inkscape:groupmode="layer"
     id="layer1"
     style="display:inline"
     transform="translate(-2.2174783,-210.76216)" />
  <g
     inkscape:groupmode="layer"
     id="layer3"
     inkscape:label="Secondary"
     style="display:inline"
     transform="translate(-2.2174783,-210.76216)" />
</svg>
