<?xml version="1.0" encoding="UTF-8" standalone="no"?>
<!-- Created with Inkscape (http://www.inkscape.org/) -->

<svg
   xmlns:dc="http://purl.org/dc/elements/1.1/"
   xmlns:cc="http://creativecommons.org/ns#"
   xmlns:rdf="http://www.w3.org/1999/02/22-rdf-syntax-ns#"
   xmlns:svg="http://www.w3.org/2000/svg"
   xmlns="http://www.w3.org/2000/svg"
   xmlns:sodipodi="http://sodipodi.sourceforge.net/DTD/sodipodi-0.dtd"
   xmlns:inkscape="http://www.inkscape.org/namespaces/inkscape"
   width="300"
   height="300"
   viewBox="0 0 300 300"
   id="svg5736"
   version="1.1"
   inkscape:version="0.48.2 r9819"
   sodipodi:docname="myo.svg">
  <defs
     id="defs5738" />
  <sodipodi:namedview
     id="base"
     pagecolor="#ffffff"
     bordercolor="#666666"
     borderopacity="1.0"
     inkscape:pageopacity="0.0"
     inkscape:pageshadow="2"
     inkscape:zoom="1.4142136"
     inkscape:cx="236.15345"
     inkscape:cy="176.25684"
     inkscape:document-units="px"
     inkscape:current-layer="layer2"
     showgrid="false"
     fit-margin-top="0"
     fit-margin-left="0"
     fit-margin-right="0"
     fit-margin-bottom="0"
     inkscape:window-width="1242"
     inkscape:window-height="711"
     inkscape:window-x="20"
     inkscape:window-y="20"
     inkscape:window-maximized="0" />
  <metadata
     id="metadata5741">
    <rdf:RDF>
      <cc:Work
         rdf:about="">
        <dc:format>image/svg+xml</dc:format>
        <dc:type
           rdf:resource="http://purl.org/dc/dcmitype/StillImage" />
        <dc:title></dc:title>
      </cc:Work>
    </rdf:RDF>
  </metadata>
  <g
     inkscape:label="Layer 1"
     inkscape:groupmode="layer"
     id="layer1"
     transform="translate(-117.18771,-536.82574)" />
  <g
     inkscape:groupmode="layer"
     id="layer2"
     inkscape:label="Layer"
     style="display:inline"
     transform="translate(0,-35.655518)">
    <g
       id="g6508">
      <path
         id="path5715"
         d="m 160.53408,61.157893 c -0.24405,-0.02126 -0.48437,-0.006 -0.71875,0.03125 -14.29166,2.42365 -28.50617,5.34157 -42.71875,8.1875 -6.85264,1.43677 -13.71458,2.74512 -20.531249,4.34375 -1.08701,0.23955 -2.30285,0.75116 -2.78125,1.75 -0.93052,1.6205 -0.42349,3.56473 -0.21875,5.3125 0.1836,1.07062 0.47441,2.16956 0.34375,3.25 -2.77013,5.95658 -5.20671,12.12059 -8.25,17.937497 -0.89013,0.63599 -1.87594,-0.20303 -2.8125,-0.25 -7.03683,-1.780517 -13.98658,-3.909147 -21.0625,-5.531247 -0.6507,-0.30529 -1.41622,0.14363 -1.65625,0.6875 -1.3504,1.90728 -2.75164,4.029247 -4.09375,6.062497 -5.0841,7.66009 -10.02216,15.41562 -15.03125,23.125 -3.02345,4.69878 -6.1677,9.35282 -8.625,14.375 -0.61827,1.53854 -0.79507,3.2518 -0.28125,4.84375 2.14402,11.77017 4.63764,23.46826 7.1875,35.15625 0.7849,3.55502 1.69057,7.07744 2.5,10.625 0.91713,5.32201 1.69228,10.67387 2.375,16.03125 0.18891,1.73431 0.47637,3.47573 0.40625,5.21875 -0.49416,4.25117 -1.1244,8.52704 -1.15625,12.8125 0.11107,1.81492 0.47193,3.60488 0.71875,5.40625 0.28884,1.07784 0.46185,2.26421 1.09375,3.1875 1.05244,1.0476 2.89331,0.90086 4.15625,1.65625 2.3105,6.74337 4.15028,13.62558 6.34375,20.40625 1.36258,3.78882 3.46871,7.23513 5.34375,10.78125 3.2136,5.69691 6.361,11.44574 9.96875,16.90625 0.28335,0.37062 0.55869,0.87095 1.0625,1.0625 3.28113,-1.04692 6.55985,-2.15564 9.9375,-2.84375 1.27542,0.22229 1.43119,1.69898 2,2.65625 1.41777,3.3612 1.81389,7.04751 3.21875,10.40625 0.59195,1.11289 1.24655,2.34027 2.40625,2.84375 1.93955,1.34981 4.26458,1.90988 6.46875,2.6875 9.249319,2.95435 18.506989,5.97763 27.937499,8.3125 1.07934,0.34644 2.2969,0.58981 3.3125,-0.0625 1.07499,-0.64529 1.90046,-1.77861 2.8125,-2.71875 1.26676,-1.47678 2.52743,-2.9329 3.625,-4.46875 1.09433,-1.47801 2.19093,-2.74182 3.25,-4.25 0.71999,-0.99975 1.52422,-2.01563 2.03125,-3.125 0.0918,-3.85808 -0.80731,-7.62524 -0.96875,-11.46875 0.75324,-0.23911 1.04871,0.63343 1.34375,1.0625 0.92622,1.31115 1.65613,2.80612 2.46875,4.21875 2.3217,4.21348 4.56626,8.47135 6.375,12.9375 1.03464,2.42723 1.39379,5.17222 2.78125,7.4375 0.68458,1.26267 2.00841,1.84394 3.40625,2 1.61853,0.0648 3.18529,-0.52774 4.78125,-0.71875 7.80348,-1.42392 15.54152,-3.06492 23.3125,-4.65625 4.57558,-0.98037 9.18748,-1.90646 13.71875,-3.0625 1.00406,-0.40815 1.80104,-1.11802 2.1875,-2.09375 0.8797,-1.66956 0.13315,-3.5464 0.0937,-5.3125 -0.45672,-3.65829 -0.35715,-7.37825 0.0937,-11.03125 0.44153,-4.3119 0.83414,-8.61416 1.4375,-12.90625 0.36702,-0.5189 1.09114,0.0339 1,0.5625 1.10973,3.36673 1.87504,6.84771 3.25,10.125 2.50881,1.9785 5.42783,3.33153 8.15625,4.96875 2.74239,1.48746 5.50324,3.00686 8.46875,4 1.55507,0.0719 2.61708,-1.30294 3.875,-2 1.43809,-1.02915 2.73677,-2.05006 4.09375,-3.1875 1.41367,-1.07072 2.74477,-2.14228 4.15625,-3.28125 4.98164,-4.13373 9.96724,-8.27813 14.875,-12.5 1.94349,-1.80087 4.07818,-3.77238 4.5625,-6.5 0.29463,-1.85296 -0.29119,-3.66104 -0.4375,-5.5 -0.42864,-3.0805 -0.61826,-6.17545 -0.75,-9.28125 3.57756,-0.5067 7.19399,-0.69444 10.78125,-1.125 1.15251,-0.48677 0.99186,-1.95887 1.3125,-2.96875 1.03278,-5.41107 1.60437,-10.89508 2.40625,-16.34375 0.55179,-4.75806 1.21702,-9.5446 0.8125,-14.34375 -0.40331,-5.6902 -1.27506,-11.33574 -1.625,-17.03125 -0.0779,-1.28364 -0.24729,-2.63869 -0.15625,-3.875 0.86533,-0.82564 2.00164,-1.15848 2.75,-2.09375 0.35422,-0.54324 0.7044,-1.38206 0.46875,-2.125 -0.73521,-5.42009 -3.30806,-10.37765 -5.8125,-15.15625 -1.28429,-2.24667 -2.54127,-4.55188 -3.03125,-7.125 -2.24935,-8.68914 -4.24305,-17.44188 -5.96875,-26.25 -2.11973,-10.93275 -3.83297,-21.94421 -6.125,-32.84375 -0.63557,-2.51639 -1.02322,-5.18775 -2.375,-7.437497 -0.57609,-0.90826 -1.28389,-1.75023 -2.15625,-2.28125 -5.50245,-4.0462 -11.1626,-7.86759 -16.78125,-11.75 -7.48694,-5.05179 -14.92697,-10.18759 -22.53125,-15.0625 -0.79124,-0.50816 -1.64144,-1.01578 -2.375,-1.53125 -0.56477,0.10654 -1.01604,0.57547 -1.53125,0.84375 -5.0877,3.55458 -9.93121,7.46131 -14.84375,11.25 -1.28629,0.93959 -2.5062,1.99203 -3.875,2.78125 -0.88597,0.19442 -1.25049,-0.87608 -1.90625,-1.28125 -4.66093,-4.2264 -9.11066,-8.68546 -13.4375,-13.25 -0.80058,-0.77075 -0.45431,-2.04172 -0.78125,-3.03125 -0.32778,-1.43853 -0.8682,-2.93615 -2.0625,-3.875 -0.52587,-0.347565 -1.26785,-0.654983 -2,-0.71875 z m -0.0312,0.9375 0.0312,0 c 1.65545,0.22456 2.71121,1.79764 2.90625,3.375 0.52269,1.84928 0.66905,3.98506 2.1875,5.34375 4.26422,4.3854 8.69999,8.62169 13.125,12.84375 2.20726,2.01622 4.44382,4.22729 6.75,6 1.47219,0.98894 2.82226,2.4116 4.6875,2.53125 1.4021,0.0947 2.80963,-0.65352 3.71875,-1.6875 2.58371,-3.82534 4.05317,-8.27528 5.6875,-12.5625 0.758,-1.91998 1.7323,-4.00341 1.03125,-6.09375 -0.20371,-0.89074 -0.35241,-1.82277 -0.0625,-2.71875 3.78112,2.13172 7.24365,4.75708 10.875,7.125 10.0253,6.86234 20.08554,13.68309 29.96875,20.75 1.34858,1.41081 3.197,2.64272 3.53125,4.718747 1.22397,4.10889 2.00105,8.31663 2.75,12.53125 0.1114,0.93899 0.25646,1.89641 0.25,2.84375 -0.78815,0.16236 -1.04837,-0.61869 -1.15625,-1.25 -1.65148,-5.20207 -2.43727,-10.6833 -4.5,-15.75 -0.5159,-0.610877 -1.36547,-0.808847 -1.875,-1.406247 -1.22812,-0.71302 -2.51174,-1.72044 -3.75,-2.5625 -10.18559,-7.05986 -20.47372,-14.01085 -30.8125,-20.84375 -0.70666,-0.44663 -1.50791,-0.9424 -2.1875,-1.28125 -0.10122,1.18026 0.3443,2.35777 0,3.53125 -0.33813,2.20627 -1.38111,4.2137 -2.09375,6.3125 -1.27551,3.28175 -2.56586,6.65761 -4.1875,9.75 -1.61532,1.88423 -4.26105,2.43438 -6.65625,2.34375 -2.05173,-0.12264 -4.2218,-0.76556 -5.6875,-2.25 -3.17689,-2.84763 -6.37181,-5.68669 -9.4375,-8.65625 -4.38893,-4.20058 -8.67955,-8.47954 -12.9375,-12.8125 -0.9617,-1.07208 -2.10934,-2.0419 -2.5,-3.46875 -0.37686,-0.89336 -0.57213,-1.86914 -0.9375,-2.75 -0.56382,-0.0551 -1.10529,0.30849 -1.6875,0.3125 -14.39218,2.59061 -28.72542,5.46746 -43.0625,8.34375 -5.23261,1.11686 -10.50442,2.07889 -15.718749,3.28125 0.0127,1.17722 0.52241,2.37169 0.21875,3.53125 -0.71826,0.98689 -0.61255,2.30937 -1.21875,3.375 -2.44646,6.26438 -5.03528,12.48617 -7.78125,18.624997 -1.58286,3.42877 -3.03763,6.92106 -4.8125,10.25 -0.91701,1.6036 -2.12426,3.12945 -3.71875,4.0625 -2.27023,0.97898 -4.90481,1.14198 -7.28125,0.46875 -1.30015,-0.4915 -2.13081,-1.72566 -3.1875,-2.59375 -2.93011,-2.87088 -5.76402,-5.87786 -8.5,-8.90625 -0.96965,-1.1946 -1.28724,-2.72787 -1.75,-4.15625 -0.33893,-0.42962 -0.43018,0.62215 -0.75,0.78125 -8.65009,12.64893 -16.94664,25.54728 -25.375,38.34375 1.14412,7.87058 2.50286,15.71353 3.34375,23.625 -0.14491,0.53583 -0.8413,0.17344 -0.875,-0.28125 -1.47013,-6.86125 -3.07804,-13.72958 -4.21875,-20.65625 -0.20086,-2.05135 0.34416,-4.1174 1.5625,-5.78125 4.44716,-7.39311 9.13039,-14.64068 13.78125,-21.90625 4.00616,-6.23801 8.0381,-12.45028 12.09375,-18.656247 0.36246,-0.428 0.996,-0.93603 1.59375,-0.59375 0.85931,1.16222 0.42228,2.923587 1.40625,4.062497 1.29446,2.21535 3.34516,3.9685 5.09375,5.90625 1.68405,1.76335 3.39545,3.50461 5.21875,5.125 1.09069,0.71356 2.2532,1.8585 3.71875,1.9375 1.50825,0.11116 3.30793,-0.41054 4.15625,-1.625 1.11503,-1.64601 2.07743,-3.39587 2.9375,-5.1875 2.64751,-5.4389 4.98975,-11.001207 7.4375,-16.531247 1.17346,-2.82197 2.52944,-5.66252 2.9375,-8.71875 0.20049,-1.65215 -0.64938,-3.21516 -0.5,-4.875 0.0521,-1.0726 0.56576,-2.13015 1.53125,-2.59375 1.3261,-0.67945 2.8904,-0.65865 4.312499,-1.0625 16.27209,-3.49354 32.61227,-6.64258 48.9375,-9.875 3.80918,-0.66881 7.57467,-1.63161 11.4375,-1.9375 z m -1.6875,4.3125 c 0.0308,0.0063 0.0611,0.044 0.0625,0.09375 0.99788,3.37413 1.39948,6.87127 2.25,10.28125 3.47106,16.43401 7.08315,32.829197 10.46875,49.281247 1.54258,7.43822 3.07023,14.89686 4.5625,22.34375 0.14452,0.87217 0.30568,1.89221 -0.0937,2.6875 -1.42567,0.56173 -2.99593,0.60444 -4.46875,1 -16.35898,3.35859 -32.7565,6.50149 -49.125,9.8125 -2.38943,0.42356 -4.75741,0.92051 -7.15625,1.28125 -0.87711,-0.7235 -0.66566,-2.20643 -1.0625,-3.28125 -2.75675,-13.6692 -5.0702,-27.42346 -7.65625,-41.125 -2.50063,-13.58224 -4.9942,-27.143657 -7.531249,-40.718747 14.885859,-2.84628 29.741029,-5.87889 44.624999,-8.75 4.91403,-0.97439 9.86373,-1.86296 14.78125,-2.8125 0.0853,0.02152 0.25146,-0.112758 0.34375,-0.09375 z m 39.96875,4.71875 c 1.09086,0.41827 1.0463,1.86702 0.9375,2.875 -0.67745,3.29789 -2.22246,6.29549 -3.375,9.4375 -0.86263,2.02841 -1.72516,4.14724 -2.75,6.0625 -1.53167,2.0278 -4.90627,1.98769 -6.59375,0.1875 -2.03137,-1.65563 -3.88053,-3.52717 -5.90625,-5.1875 5.61774,-4.46813 11.23645,-8.97456 17.0625,-13.15625 0.18648,-0.1388 0.38571,-0.20192 0.625,-0.21875 z m -37.25,2.375 c 0.0386,-0.01522 0.0797,-0.01711 0.125,0 3.79664,3.23556 7.36959,6.77279 11,10.21875 3.92392,3.80979 7.96687,7.72266 12.0625,11.21875 1.52337,1.05003 3.20939,1.85241 5.0625,2.09375 1.38212,0.27788 2.81153,0.08313 4.15625,-0.25 0.5301,-0.19909 1.20084,0.16283 0.90625,0.75 -1.05135,1.94365 -2.436,3.663017 -3.5625,5.562497 -1.92823,2.92541 -3.84147,5.91178 -6.03125,8.625 -0.71024,0.86376 -1.56113,1.79212 -2.78125,1.71875 -2.20244,0.37063 -4.65731,0.25747 -6.53125,-1.0625 -1.50354,-1.41988 -2.75186,-3.13307 -3.625,-5.03125 -2.45017,-4.64541 -4.87905,-9.334707 -7.15625,-14.062497 -1.07853,-4.9361 -2.13809,-9.85744 -3.125,-14.8125 -0.24942,-1.55483 -0.59096,-3.09051 -0.75,-4.65625 0.0485,-0.10431 0.13418,-0.266833 0.25,-0.3125 z m 42.96875,2.125 0.0937,0 0.0312,0 c 2.03851,0.33743 3.54314,1.89863 5.3125,2.84375 10.14546,6.56221 20.02902,13.47381 30.03125,20.25 0.82629,0.6275 1.86767,1.12442 2.46875,1.937497 3.01562,12.36625 6.14741,24.71969 9.28125,37.0625 2.49886,9.90505 5.1409,19.76299 7.5625,29.6875 1.25126,5.07142 2.53551,10.14754 3.78125,15.21875 0.10309,0.79199 -1.08112,0.84518 -1.4375,0.3125 -12.65089,-8.26166 -25.21827,-16.655 -37.75,-25.09375 -6.23031,-25.36358 -12.2333,-50.79704 -18.09375,-76.249997 -0.43502,-1.99061 -0.9455,-3.96142 -1.28125,-5.96875 z m -0.46875,5.25 c 1.04283,0.24075 0.91441,1.57181 1.3125,2.375 2.30482,8.60402 4.27722,17.274227 6.34375,25.937497 2.70476,11.71445 5.56188,23.38542 8.15625,35.125 0.21319,0.93408 0.41857,1.8963 0.5625,2.84375 -1.78734,-1.80015 -2.95754,-4.06789 -4.28125,-6.21875 -4.1246,-6.85977 -8.08304,-13.82198 -12.5,-20.5 -0.52538,-0.73189 -1.57387,-1.22796 -2.34375,-1.8125 -1.92546,-1.23118 -4.22879,-1.83598 -6.5,-2 -2.14926,-0.0968 -4.30454,0.52691 -6.125,1.625 -0.59971,0.18787 -0.41297,-0.65592 -0.5625,-1 -0.38409,-1.8888 -0.72316,-3.79318 -0.84375,-5.71875 3.51156,-6.45821 7.93438,-12.366027 11.65625,-18.687497 1.80607,-3.30605 2.86951,-6.94074 4.3125,-10.40625 0.24567,-0.50439 0.39302,-1.21359 0.8125,-1.5625 z m -104.593799,4.15625 c 0.03305,-0.0035 0.06892,0.02205 0.09375,0.0625 0.669809,0.6802 0.496849,1.80912 0.812499,2.6875 1.23506,5.68086 2.1933,11.42555 3.15625,17.156247 0.33821,2.18475 -0.35648,4.35189 -0.4375,6.53125 -0.44332,4.71321 -0.61361,9.47814 -1.5625,14.125 -0.50144,1.98841 -1.911219,3.62907 -3.781249,4.4375 -1.6485,0.8449 -3.69913,1.21131 -5.40625,0.3125 -2.52439,-1.03169 -4.70901,-2.70075 -7,-4.15625 -2.29849,-1.64251 -4.70561,-3.19902 -6.90625,-4.9375 -0.34124,-0.24953 -0.80021,-0.81747 -0.3125,-1.09375 1.94696,-0.91846 4.1723,-1.53181 5.71875,-3 1.03912,-0.92947 1.61347,-2.06504 2.375,-3.25 2.38512,-4.28899 4.10287,-8.91983 6.15625,-13.375 2.24297,-5.096487 4.34381,-10.294257 6.8125,-15.249997 0.06488,-0.06203 0.182088,-0.2394 0.28125,-0.25 z m -35.46875,12.875 c 6.00738,1.28461 11.89459,3.070757 17.78125,4.812497 0.95504,0.38589 2.0017,0.73822 2.84375,1.28125 0.27512,1.2055 -0.69462,2.1766 -1,3.28125 -0.90398,1.8956 -1.64624,4.01287 -3.3125,5.375 -1.14999,0.96696 -2.99033,1.24258 -4.3125,0.375 -1.77118,-1.07136 -3.11703,-2.74399 -4.625,-4.15625 -2.60692,-2.74349 -5.308,-5.41829 -7.53125,-8.46875 -0.35724,-0.711447 -0.80103,-1.734007 -0.1875,-2.406247 0.1132,-0.0317 0.22479,-0.09005 0.34375,-0.09375 z m 102.999999,2.812497 c 0.87295,0.22383 1.13398,1.24245 1.59375,1.9375 1.81837,3.40153 3.49773,6.95917 6.03125,9.90625 0.36657,0.37411 0.71914,0.53483 1.09375,0.90625 0.75208,0.47495 1.78258,0.86781 2.75,1 1.73867,0.34664 3.57863,0.25935 5.28125,-0.21875 0.87812,-0.36389 1.68126,-1.13614 2.6875,-1 0.77244,0.41917 0.7131,1.55296 0.9375,2.34375 0.29428,1.26795 0.7242,2.71406 0.1875,3.9375 -0.95838,1.1232 -1.53221,2.68352 -2.21875,4.0625 -2.96374,6.49497 -5.61245,13.14563 -8.375,19.71875 -0.21523,0.29465 -0.69875,0.66132 -1,0.25 -0.42706,-0.51775 -0.27069,-1.37063 -0.53125,-2 -2.95961,-13.4204 -5.73295,-26.86543 -8.5625,-40.3125 0.0378,-0.16715 -0.0989,-0.4751 0.125,-0.53125 z m -106.687499,2.90625 c 0.57505,0.31335 0.39975,1.21116 0.625,1.78125 3.96406,24.57893 8.04201,49.1408 11.8125,73.75 0.43872,3.01867 0.86549,6.0508 1.09375,9.09375 -8.1598,12.17519 -16.2582,24.3702 -24.53125,36.46875 -0.40847,0.45579 -0.69048,1.37628 -1.4375,1.15625 -0.79942,-0.5542 -0.62463,-1.82892 -0.84375,-2.71875 -1.86878,-13.03531 -3.86367,-26.04745 -5.65625,-39.09375 -1.31961,-9.3223 -2.72264,-18.62297 -4.09375,-27.9375 -0.65286,-4.77101 -1.3997,-9.55579 -1.875,-14.34375 0.29863,-1.25016 1.30459,-2.14808 1.875,-3.28125 6.25074,-9.93776 12.79133,-19.6875 19.1875,-29.53125 1.18286,-1.7523 2.37945,-3.48949 3.59375,-5.21875 0.16271,0.0493 0.10686,-0.10908 0.25,-0.125 z m 86.687499,0.5 c -0.99657,-0.10108 -1.90362,1.01251 -1.46875,2 1.28591,1.38875 2.39033,3.06035 2.9375,4.90625 0.63192,2.34716 0.59336,4.98645 -0.4375,7.1875 -0.43916,0.60547 -1.5291,0.20912 -1.46875,-0.5625 1.05695,-2.58789 0.96549,-5.72191 -0.5,-8.15625 -0.55159,-0.77636 -1.00021,-1.71122 -1.875,-2.0625 -1.16511,-0.35872 -2.24882,1.10938 -1.59375,2.125 1.57385,1.63998 2.259,4.18536 1.53125,6.375 -0.0862,0.8786 -1.58142,0.84302 -1.59375,-0.0625 0.21651,-1.0244 0.40201,-2.09264 0.0625,-3.125 -0.31748,-0.92606 -0.77106,-2.09847 -1.875,-2.09375 -1.07888,-0.0213 -1.18407,1.28118 -0.9375,2.09375 l 2.625,13.625 c -0.0184,0.80773 0.94987,-0.0208 1.375,-0.125 1.83029,-0.73356 3.30409,-2.03478 4.65625,-3.4375 0.84757,-0.87439 1.58545,-2.10403 2.0625,-3.25 2.00612,-4.19844 1.51303,-9.45173 -1.15625,-13.25 -0.5702,-0.7324 -1.20872,-1.54809 -1.9375,-2.0625 -0.14308,-0.0684 -0.26388,-0.11056 -0.40625,-0.125 z m -0.0937,0.59375 c 0.52587,0.0613 0.94388,0.70242 1.3125,1.09375 1.92033,2.41279 3.00779,5.50658 2.90625,8.59375 0.0135,2.84293 -1.16873,5.55451 -2.875,7.75 -1.32403,1.69015 -3.16955,2.91582 -5.125,3.75 l -0.0312,0 -0.0937,0.0312 -2.71885,-13.9062 c -0.32868,-0.56812 0.49019,-1.03072 0.875,-0.625 0.86357,0.81084 1.10966,2.23813 0.9375,3.40625 -0.17682,0.63497 -0.36337,1.34827 0.15625,1.90625 0.58985,0.74667 1.82663,0.53713 2.28125,-0.125 1.05737,-2.4091 0.38393,-5.43835 -1.40625,-7.3125 -0.48245,-0.71103 0.49006,-1.59972 1.15625,-1.15625 2.16704,2.20753 2.87947,5.66427 1.96875,8.59375 -0.39841,0.61163 -0.38983,1.50328 0.1875,2 0.45061,0.52841 1.35309,0.51743 1.90625,0.0312 0.60999,-0.94913 0.91817,-2.16513 1.0625,-3.3125 0.45003,-3.27365 -0.67237,-6.67968 -2.90625,-9.09375 -0.54491,-0.33141 -0.60802,-1.07995 -0.15625,-1.46875 0.20572,-0.13744 0.38721,-0.17669 0.5625,-0.15625 z m -20.09375,3.28125 c -0.2701,0.0131 -0.53083,0.0911 -0.75,0.25 -0.7187,1.09935 -1.06296,2.43168 -1.28125,3.71875 -0.75775,4.54721 1.06606,9.42356 4.625,12.34375 0.50669,0.49229 1.2391,1.09499 1.875,1.375 2.18488,1.16949 4.66435,1.8589 7.15625,1.78125 0.16563,8.7e-4 0.33437,-8.7e-4 0.5,0 -0.61016,-3.42872 -1.3119,-6.83008 -1.96875,-10.25 -0.39546,-1.5573 -0.46658,-3.2115 -1.03125,-4.71875 -0.23468,-0.94881 -1.60827,-0.89879 -2.03125,-0.125 -0.64685,1.52674 -0.3236,3.49554 0.8125,4.71875 0.60506,0.70634 -0.53309,1.793 -1.15625,1.09375 -1.11603,-1.13837 -1.67186,-2.8615 -1.59375,-4.46875 -0.0837,-0.96603 0.51359,-1.83991 0.40625,-2.78125 -0.28858,-1.04333 -1.84705,-1.41722 -2.46875,-0.46875 -0.91375,1.8586 -1.01425,4.07717 -0.4375,6.0625 0.38436,1.55939 1.36808,2.8639 2.34375,4.09375 0.36554,0.78216 -0.82446,1.38869 -1.375,0.875 -2.29151,-2.46179 -3.42832,-6.01591 -2.78125,-9.34375 0.0706,-0.9523 0.56625,-1.79032 0.6875,-2.71875 0.13138,-0.90225 -0.72096,-1.47676 -1.53125,-1.4375 z m 0.0312,0.59375 c 0.51885,-0.0735 1.07837,0.4673 0.90625,1.0625 -1.50076,3.43843 -1.0574,7.68092 1.125,10.75 0.58782,0.77585 1.05711,1.73624 2.0625,1.90625 1.07223,0.0696 1.81083,-1.06113 1.40625,-2.03125 -1.45778,-1.53691 -2.49457,-3.59948 -2.625,-5.75 -0.0732,-1.21542 0.10632,-2.54729 0.625,-3.625 0.34923,-0.76611 1.6084,-0.30864 1.5,0.5 -0.67768,1.72852 -0.68183,3.76886 0.125,5.46875 0.44552,0.80022 0.85069,1.89317 1.8125,2.09375 1.12446,0.27934 2.08394,-0.99907 1.53125,-2.03125 -0.81165,-1.05509 -1.33416,-2.37765 -1.0625,-3.71875 -0.0317,-0.53709 0.70931,-1.15943 1.125,-0.625 0.90618,4.26744 1.67646,8.58864 2.53125,12.875 -0.0477,0.45933 0.51071,1.17947 0.125,1.40625 -0.0776,0.0247 -0.17198,-0.007 -0.25,0 -3.2464,0.0196 -6.37042,-1.43186 -8.6875,-3.625 -3.15737,-3.03777 -4.47864,-7.73299 -3.5625,-12 0.29466,-0.77247 0.26705,-1.72849 0.84375,-2.34375 0.13287,-0.17824 0.2958,-0.28798 0.46875,-0.3125 z m -64.343749,0.78125 c 0.04226,-0.0148 0.10327,-0.003 0.15625,0 1.26009,0.26406 1.8747,1.50888 2.84375,2.25 2.61936,2.53793 5.15506,5.17464 7.96875,7.5 1.12532,0.68325 2.24784,1.73449 3.4375,2.46875 4.4895,3.15927 9.07778,6.17777 13.625,9.25 0.34584,2.2578 0.88744,4.48126 1.34375,6.71875 -2.70439,-0.0167 -5.67322,-0.16532 -7.96875,1.5 -1.43357,0.88113 -2.68981,1.85174 -3.78125,3.15625 -1.9955,2.3908 -2.25766,5.62062 -2.84375,8.5625 -1.02276,6.30189 -1.84485,12.63096 -2.84375,18.9375 -0.27702,1.76906 -0.5097,3.59434 -0.8125,5.34375 -0.64782,0.39365 -0.81341,-0.51932 -0.84375,-1 -3.12494,-17.8221 -5.90429,-35.71449 -8.875,-53.5625 -0.5804,-3.61594 -1.15101,-7.2221 -1.6875,-10.84375 0.08342,-0.10594 0.154471,-0.23669 0.28125,-0.28125 z m 41.968749,3.5 c 0.38197,0.20528 0.31393,0.91859 0.53125,1.3125 0.96692,3.72486 1.52706,7.51598 2.3125,11.28125 1.84364,9.57956 3.62905,19.18381 5.1875,28.8125 0.0452,0.61891 0.37612,1.39674 0.0625,1.9375 -0.66385,0.35151 -1.00396,-0.57546 -1.5,-0.875 -5.00942,-4.56433 -9.76193,-9.41074 -14.687499,-14.0625 -1.18558,-1.13828 -2.46072,-2.21998 -3.625,-3.34375 -0.83046,-1.56849 -0.97808,-3.38834 -1.40625,-5.09375 0.0154,-0.42739 -0.62627,-1.51525 0.1875,-1.125 2.19165,0.64804 4.64297,0.35367 6.59375,-0.84375 1.1481,-0.63101 2.143249,-1.27433 2.999999,-2.25 0.6713,-0.95594 1.40142,-2.15573 1.625,-3.40625 0.84422,-3.79079 0.61803,-7.7483 1.28125,-11.5625 0.11058,-0.25721 0.14018,-0.67677 0.4375,-0.78125 z m 143.2813,4.34375 c 0.91791,0.0322 0.98655,1.81387 0,1.8125 -0.67114,-0.32197 -0.31122,-1.18459 -0.34375,-1.78125 0.11984,0.0178 0.22805,-0.0161 0.34375,-0.0312 z m -53.40625,0.4375 c 2.78471,-0.0743 5.63441,0.90338 7.71875,2.71875 2.14167,1.81054 3.45009,4.30968 4.8125,6.71875 4.61137,7.70162 9.21387,15.4375 13.46875,23.34375 1.04501,1.9789 1.81953,4.10236 2.34375,6.28125 0.2208,0.65109 0.68714,0.98742 1.25,1.28125 9.31178,6.64672 18.91662,12.87935 28.4375,19.21875 3.80399,2.4664 7.6012,4.9662 11.5,7.28125 -0.10905,-1.295 -0.52036,-2.56694 -0.78125,-3.84375 -0.28101,-1.30007 -0.73043,-2.56448 -0.9375,-3.875 0.16039,-0.65199 1.03374,-0.33006 1.15625,0.15625 1.80856,2.74628 2.64064,5.98699 3.625,9.09375 0.16063,0.8983 0.55423,1.84286 0.34375,2.75 -0.52208,0.74842 -1.61866,0.223 -2.21875,-0.21875 -10.79087,-6.94097 -21.44675,-14.09129 -32.09375,-21.25 -3.6172,-2.50121 -7.24713,-4.98301 -10.875,-7.46875 -1.41527,-1.26704 -1.72327,-3.34708 -2.3125,-5.09375 -0.45747,-2.09277 -1.46871,-3.96816 -2.5625,-5.78125 -3.73213,-6.58145 -7.84834,-12.92164 -11.84375,-19.34375 -1.63493,-2.44726 -3.18374,-4.96329 -4.90625,-7.34375 -1.54387,-1.31253 -3.70358,-2.1109 -5.71875,-1.53125 -1.1008,0.29526 -2.04334,1.02911 -2.46875,2.09375 -3.61305,7.43032 -6.84404,15.07682 -10.1875,22.625 0.42049,2.23549 1.03055,4.53585 0.625,6.8125 -0.5536,1.47228 -2.19748,2.02015 -3.65625,2.21875 -8.83912,2.09954 -17.77993,3.75367 -26.6875,5.53125 -9.7672,1.88114 -19.52167,3.8618 -29.28125,5.78125 -3.6448,0.59934 -7.24454,1.50769 -10.9375,1.75 -1.03557,0.11845 -2.18983,-0.11108 -2.75,-1.0625 -0.83388,-1.23253 -0.83995,-2.88996 -1.25,-4.3125 -0.27469,-1.25361 -0.93291,-2.28125 -1.75,-3.1875 -1.94681,-2.07109 -4.0864,-3.95471 -6.09375,-5.96875 -3.425079,-3.27397 -6.790839,-6.61853 -10.374999,-9.71875 -0.87808,-0.66497 -2.1393,-1.35015 -3.375,-1.0625 -1.32963,0.20358 -2.5465,0.94593 -3.4375,1.84375 -1.14124,1.40662 -1.62271,3.4208 -1.9375,5.25 -0.73678,3.84099 -1.48877,7.66642 -2.09375,11.53125 -0.76748,4.64276 -1.48765,9.32034 -2.21875,13.96875 -0.23461,2.11696 -0.70976,4.20855 -0.625,6.34375 0.25461,2.43285 0.91017,5.0132 -0.0625,7.375 -0.78846,2.07773 -2.18547,3.8453 -3.3125,5.75 -5.7931,8.82474 -11.70207,17.56363 -17.5625,26.34375 -2.36938,3.52773 -4.75616,7.10437 -7.1875,10.5625 -0.53865,0.60886 -0.87907,1.7613 -1.8125,1.96875 -0.9891,-0.35552 -0.94612,-1.6797 -1.21875,-2.5625 -0.76119,-4.26607 -0.60157,-8.63108 0,-12.90625 0.61709,-0.37677 0.87248,0.38002 0.8125,0.875 0.45939,3.06851 0.81289,6.17223 1.5625,9.1875 0.70444,-1.06055 1.59149,-2.28056 2.375,-3.40625 7.96029,-11.37302 15.49764,-23.04854 23.25,-34.5625 0.57825,-0.91205 1.22314,-1.77251 1.78125,-2.6875 -0.60601,-3.19163 -0.89842,-6.50102 -0.3125,-9.71875 0.76008,-6.33068 1.66033,-12.63541 2.625,-18.9375 0.68856,-4.55222 1.18529,-9.16221 2.46875,-13.59375 0.85432,-2.08713 2.75612,-3.53097 4.5,-4.84375 2.4015,-1.37245 5.47412,-2.03248 8.09375,-0.90625 1.84335,1.34933 3.40911,3.09148 5.125,4.625 5.076419,4.75584 9.909069,9.76558 14.624999,14.875 0.84972,0.88476 1.55002,2.01424 1.625,3.28125 0.17263,0.57108 0.22305,1.42737 0.8125,1.6875 1.49709,0.17702 2.92225,-0.50518 4.40625,-0.59375 17.7902,-3.49109 35.59154,-6.97751 53.34375,-10.65625 1.72511,-0.41149 3.45368,-0.78363 5.1875,-1.15625 0.37111,-1.11166 -0.23579,-2.2532 -0.3125,-3.375 -0.28869,-0.89658 -0.25196,-1.89086 0.25,-2.6875 3.46548,-8.1783 6.72645,-16.48951 10.6875,-24.4375 1.38947,-2.03572 3.90917,-3.01274 6.34375,-3.03125 z m 1.25,4.0625 c 0.14843,-0.0122 0.31562,-0.0122 0.46875,0 0.19133,-0.0189 0.37061,0.004 0.5625,0 1.67278,-0.11046 3.05646,1.03251 3.90625,2.34375 4.5957,6.57647 8.71078,13.47854 12.90625,20.3125 1.84271,3.11861 3.8971,6.17079 5.0625,9.625 0.51105,1.93455 0.89503,4.04004 2.15625,5.625 0.31456,0.45127 0.93509,0.90801 1.40625,1.21875 5.86752,4.28908 11.91963,8.33286 18,12.3125 6.22073,4.09454 12.38742,8.29003 18.59375,12.40625 2.14365,1.46142 4.31176,2.89187 6.4375,4.375 -0.63775,1.37796 -2.18779,2.04395 -3.21875,3.125 -4.07201,3.42308 -8.27632,6.73513 -12.375,10.09375 -1.2683,0.91211 -2.46468,2.06533 -4.03125,2.40625 -1.30458,-0.33786 -2.3228,-1.31269 -3.5,-1.9375 -9.30239,-5.80013 -18.47641,-11.82124 -27.65625,-17.8125 -3.94416,-2.66021 -7.95561,-5.25164 -11.8125,-8 -1.10993,-0.98883 -2.17458,-2.07576 -2.625,-3.53125 -2.03875,-4.71499 -3.41135,-9.68658 -5.1875,-14.5 -1.68797,-4.80461 -3.26296,-9.64689 -5.15625,-14.375 -0.37258,-0.96807 -1.24279,-1.82873 -0.96875,-2.9375 1.08812,-4.57486 1.79371,-9.23842 2.90625,-13.8125 0.48578,-1.77946 0.82954,-3.65955 1.65625,-5.3125 0.53059,-0.8846 1.42976,-1.53992 2.46875,-1.625 z m -6.9375,12.21875 0.0312,0 c 0.66182,-0.10825 0.54989,0.68697 0.34375,1.0625 -1.43634,7.53528 -3.03102,15.0421 -4.53125,22.5625 0.82092,4.20569 1.80127,8.38922 2.25,12.65625 -0.21119,1.66015 -1.41502,2.96173 -2.71875,3.875 -15.46254,3.4262 -31.0061,6.40652 -46.53125,9.53125 -6.57934,1.30356 -13.15146,2.65245 -19.75,3.84375 -1.40827,0.0605 -2.90651,-0.44695 -3.9375,-1.375 -0.96702,-0.7064 -1.10204,-2.00301 -1.40625,-3.09375 -0.67263,-3.01009 -1.32818,-6.02074 -1.84375,-9.0625 -0.14355,-0.87291 -0.37784,-1.72422 -0.96875,-2.40625 -4.40924,-6.64664 -8.93775,-13.18556 -13.281249,-19.875 0.20588,-0.50295 0.88695,-0.31248 1.125,0.0625 2.26182,2.36718 4.786539,4.48322 7.062499,6.84375 0.92464,1.02096 2.13454,1.87241 2.5,3.25 0.58214,1.7 0.55801,3.60035 1.34375,5.21875 0.5677,0.77742 1.4783,1.05298 2.375,1.40625 2.39357,0.65798 4.78326,-0.32837 7.15625,-0.59375 13.81505,-2.59632 27.65492,-5.20403 41.4375,-7.96875 6.52339,-1.32973 13.05361,-2.5565 19.53125,-4.09375 1.59345,-0.42391 3.27067,-0.98521 4.4375,-2.15625 0.60296,-0.7497 0.90572,-1.8105 0.8125,-2.8125 -0.0145,-1.83905 -0.87285,-3.57049 -0.78125,-5.40625 0.82324,-2.27561 1.9955,-4.41535 2.90625,-6.65625 0.77967,-1.59142 1.46415,-3.27149 2.34375,-4.78125 l 0.0937,-0.0312 z m -101.937499,9.4375 c 0.199256,-0.0222 0.393913,-0.007 0.59375,0 1.31633,-0.12316 2.38809,0.76753 3.09375,1.78125 0.58245,0.65143 0.91521,1.32737 1.5,1.96875 2.91443,3.96203 5.61721,8.12745 8.281249,12.25 0.61257,1.14048 0.91317,2.43528 0.6875,3.71875 0.14778,10.61778 1.30054,21.18169 1.8125,31.78125 -0.58504,1.88686 -1.68806,3.59958 -2.718749,5.28125 -3.89529,5.72783 -7.7062,11.50619 -11.625,17.21875 -4.45984,6.46937 -8.85693,12.95958 -13.4375,19.34375 -0.76949,0.97524 -1.49265,2.05914 -2.4375,2.84375 -1.37386,0.89526 -2.99687,0.0409 -4.4375,-0.21875 -6.53189,-1.75204 -13.08031,-3.50881 -19.5,-5.625 -0.60775,-0.41855 0.09806,-1.20837 0.375,-1.65625 6.24816,-9.71772 12.85181,-19.20426 19.21875,-28.84375 2.98325,-4.51713 6.0036,-9.0143 8.875,-13.59375 1.09623,-2.07089 1.0947,-4.54723 0.5625,-6.78125 -0.45399,-2.09694 -0.19975,-4.22239 0.15625,-6.3125 0.98909,-7.25179 2.23953,-14.46946 3.4375,-21.6875 0.55205,-3.038 0.91625,-6.16316 2,-9.0625 0.43101,-0.79623 1.2214,-1.35768 1.875,-1.84375 0.51324,-0.30256 1.089732,-0.49576 1.6875,-0.5625 z m 101.812499,2.5625 c 0.43801,0.10363 0.52033,0.79419 0.78125,1.15625 3.39569,9.78154 6.65376,19.64576 10.125,29.40625 -0.25973,1.49748 -1.76274,2.23043 -2.65625,3.34375 -3.5491,3.23012 -7.29423,6.29312 -10.4375,9.9375 -0.60174,1.02459 -1.28133,2.33712 -1.125,3.65625 0.0793,5.02285 0.89123,9.96652 1.53125,14.9375 0.49467,4.56042 1.2843,9.12516 1.40625,13.71875 -0.07,0.61865 -1.14562,0.68428 -1.28125,0.125 -0.89934,-0.92048 -1.02131,-2.34826 -1.625,-3.46875 -2.73796,-6.90269 -4.87352,-14.05108 -7.875,-20.84375 -0.51567,-0.796 -0.79903,-1.63902 -1.53125,-2.21875 -0.53738,-0.39009 -1.37002,-0.69159 -2.125,-0.59375 -1.37955,0.0902 -2.72432,0.44686 -4.09375,0.625 -5.62502,1.03646 -11.24263,2.08945 -16.84375,3.25 -5.63838,1.09519 -11.26004,2.29658 -16.875,3.5 -1.08953,0.35963 -2.35593,0.64146 -3.03125,1.5625 -0.73493,1.38244 -0.60072,3.03799 -0.6875,4.5625 0.0955,4.31599 0.28629,8.62203 0.40625,12.9375 0.13324,3.77937 0.3892,7.56258 0.34375,11.34375 -0.009,0.64168 -0.54234,1.1072 -1.15625,0.75 -0.91206,-0.55313 -0.80614,-1.83293 -1.25,-2.71875 -2.07462,-7.57728 -4.04609,-15.17371 -6.34375,-22.6875 -0.35956,-1.27632 -0.76211,-2.53472 -1.53125,-3.625 -0.33172,-0.55596 -0.80347,-1.14428 -1.40625,-1.4375 -2.31516,-1.5369 -5.02647,-2.37253 -7.625,-3.3125 -3.15089,-1.07604 -6.31285,-2.13767 -9.375,-3.4375 -0.51657,-0.40741 -0.81752,-1.09492 -0.65625,-1.78125 -0.33911,-9.80329 -1.25126,-19.57664 -1.6875,-29.375 4e-5,-0.71289 -0.1597,-1.50738 -0.0312,-2.15625 0.66651,-0.37288 1.12232,0.47369 1.375,0.875 2.10634,2.7142 3.96655,5.67309 5.90625,8.53125 0.91603,4.36247 1.59952,8.79363 2.90625,13.0625 0.71942,1.23203 2.09563,1.82062 3.25,2.53125 1.64034,0.67737 3.4186,0.1447 5.09375,-0.0937 17.7505,-3.34794 35.46458,-6.82066 53.15625,-10.46875 3.11015,-0.68535 6.2802,-1.1855 9.34375,-2.0625 1.23345,-0.42138 2.47842,-1.05106 3.34375,-1.9375 1.12982,-1.28127 2.02297,-3.01714 1.46875,-4.75 -0.53816,-3.85483 -1.53299,-7.63021 -2.15625,-11.46875 0.87764,-3.71763 1.34302,-7.56392 2.65625,-11.15625 0.11413,-0.0538 0.20447,-0.17735 0.3125,-0.21875 z m 12.40625,32.40625 c 0.69941,-0.0657 1.04664,0.61418 1.46875,1.0625 -3.57859,3.42926 -7.41406,6.58781 -11.09375,9.90625 -0.86417,0.74155 -1.68642,1.51794 -2.53125,2.28125 0.92593,4.04871 0.93356,8.21297 1.53125,12.3125 0.70445,5.95696 1.52549,11.93432 1.6875,17.9375 -0.12672,1.13093 -0.65312,2.16996 -1.46875,2.9375 -1.32506,1.55925 -3.97885,1.8654 -5.625,0.625 -0.41059,-0.35568 -0.97863,-0.80937 -1.15625,-1.3125 -1.11265,-1.33642 -1.71281,-3.03688 -2.5,-4.59375 -2.75693,-6.22675 -5.12021,-12.64987 -8,-18.8125 -0.35183,-0.50368 -0.50852,-1.52131 -1.34375,-1.3125 -1.46112,0.13855 -2.89207,0.53313 -4.34375,0.75 -10.04013,1.93274 -20.03531,4.00733 -30.03125,6.15625 -0.53376,0.0783 -1.02057,0.3837 -0.90625,0.96875 -0.19733,2.07613 -0.0785,4.16723 -0.125,6.25 0.0734,6.45558 0.40916,12.9202 0.1875,19.375 -0.13821,1.8654 -1.38241,3.72335 -3.25,4.15625 -2.11295,0.41007 -4.34412,-0.61184 -5.5,-2.375 -1.3315,-1.9819 -1.63115,-4.45602 -2.375,-6.6875 -2.11635,-7.35516 -4.05786,-14.73912 -6.28125,-22.0625 -0.70439,-0.63206 -1.87768,-0.81196 -2.75,-1.3125 -4.50721,-1.92369 -9.29336,-3.1048 -13.71875,-5.21875 -0.4313,-0.33801 -0.58487,-0.94316 -0.375,-1.46875 0.003,-0.74836 1.11394,-0.64955 1.5625,-0.34375 5.54396,1.96251 11.18721,3.72755 16.53125,6.1875 1.61362,1.15899 2.13055,3.22845 2.78125,5.03125 2.41521,7.73865 4.23821,15.64531 6.6875,23.375 0.31405,0.85488 0.35581,2.05814 1.3125,2.34375 0.93067,0.40178 2.48329,0.0581 2.5,-1.15625 0.0817,-2.70046 0.0647,-5.39194 -0.0312,-8.09375 -0.18287,-5.38618 -0.4397,-10.7703 -0.625,-16.15625 0.0375,-1.24906 -0.21922,-2.5561 0.21875,-3.75 0.42684,-0.79527 1.06924,-1.17361 1.96875,-1.3125 6.16489,-1.80167 12.54657,-2.78287 18.8125,-4.15625 6.56145,-1.34865 13.13245,-2.56904 19.75,-3.59375 0.92919,-0.17814 1.79789,0.28131 2.21875,1.09375 0.81139,1.44265 1.25706,3.06768 1.90625,4.59375 2.65681,6.9676 4.97932,14.0915 8,20.90625 0.33091,0.70328 1.34728,1.07669 2.15625,0.6875 1.00962,-0.50452 1.37197,-1.73583 1.09375,-2.78125 -0.67802,-6.04221 -1.48159,-12.05517 -2.1875,-18.09375 -0.36438,-3.21058 -0.71685,-6.42964 -0.875,-9.65625 0.0628,-1.34315 0.58881,-2.67187 1.65625,-3.5 2.72368,-2.80685 5.72946,-5.34964 8.65625,-7.9375 1.24287,-1.07233 2.48421,-2.17274 3.8125,-3.09375 0.19574,-0.0596 0.38617,-0.15042 0.59375,-0.15625 z m 2.0625,1.59375 c 0.0319,-0.0176 0.0599,-0.008 0.0625,0.0625 3.29092,1.81394 6.46416,3.83582 9.625,5.875 1.36583,0.92456 2.8298,1.82709 4.0625,2.875 0.60557,1.0426 0.66439,2.29335 1.03125,3.4375 4.66305,18.6126 9.19788,37.26921 13.5,55.96875 0.40588,1.97941 1.04146,3.94403 1.15625,5.96875 -6.40091,6.31512 -13.44996,11.89233 -20.3125,17.6875 -1.25561,1.01939 -2.4932,2.16267 -3.75,3.125 -0.4936,0.25171 -1.18748,-0.0412 -1.0625,-0.65625 -2.07113,-8.87992 -3.90138,-17.78561 -5.875,-26.6875 -3.6772,-16.78697 -7.26776,-33.61115 -10.90625,-50.40625 -0.31962,-1.49396 -0.9747,-2.96349 -0.96875,-4.5 0.27214,-1.77055 1.96528,-2.6849 3.125,-3.875 3.32755,-3.01685 6.75955,-6.00094 10.21875,-8.8125 0.026,0 0.0618,-0.0449 0.0937,-0.0625 z m 15.46875,10.125 c 1.94685,0.50953 3.46017,1.93823 5.1875,2.90625 2.38701,1.51971 4.82009,3.05634 6.78125,5.0625 0.53457,1.34227 0.63549,2.81025 1.0625,4.1875 1.36711,5.73898 2.65118,11.50092 4.09375,17.21875 -0.70485,0.63261 -1.91094,0.21126 -2.53125,0.96875 -1.61456,1.01616 -2.10269,3.07413 -1.96875,4.875 0.0252,5.94075 0.50625,11.87724 0.6875,17.8125 -0.0502,0.70904 0.187,1.55272 -0.0312,2.1875 -0.27712,0.39615 -1.05354,-5.6e-4 -0.875,-0.5 -4.18481,-18.11122 -8.50275,-36.19349 -12.78125,-54.28125 -0.0498,-0.24214 0.15169,-0.41743 0.375,-0.4375 z m 45.34375,3 0,0.21875 c 0.18383,5.13176 0.9844,10.20221 1.4375,15.3125 0.55551,5.00828 0.61022,10.08657 0,15.09375 -0.64823,6.16773 -1.55803,12.30433 -2.46875,18.4375 -0.18481,0.9022 -0.23767,1.8836 -0.59375,2.71875 -0.86931,1.12236 -2.45807,0.84605 -3.71875,1.09375 -4.61539,0.46311 -9.25133,0.87986 -13.875,1.1875 -0.88324,-0.089 -0.58906,-1.18935 -0.53125,-1.78125 0.88121,-7.08288 1.80227,-14.16747 2.6875,-21.25 0.33343,-2.74801 0.74757,-5.50278 1,-8.25 -0.64908,-2.85728 -1.47179,-5.64899 -2,-8.53125 0.14435,-1.01834 1.4536,-1.16976 2,-1.84375 5.4878,-3.96032 10.71688,-8.25963 16.0625,-12.40625 z m -32.09375,5.625 c 2.47671,0.74669 4.49777,2.48097 6.6875,3.8125 0.89208,0.64975 1.94642,1.20309 2.6875,1.96875 0.91413,3.6774 1.8485,7.3523 2.75,11.03125 -0.84385,7.37919 -1.62271,14.79355 -2.71875,22.125 -0.51549,0.47258 -1.09078,-0.30824 -1.09375,-0.84375 -2.81778,-12.08252 -5.73945,-24.14458 -8.3125,-36.28125 -6.4e-4,-0.57023 -0.5522,-1.39877 0,-1.8125 z m -60.46875,1.21875 c 1.18144,0.17221 1.04173,1.62599 1.34375,2.53125 2.90101,13.28982 5.54528,26.61954 8.3125,39.9375 2.68825,13.30424 5.4336,26.60444 7.96875,39.9375 0.0308,0.60462 0.30444,1.27024 0.1875,1.84375 -0.51072,0.62878 -1.48914,0.38666 -2.1875,0.71875 -10.2381,2.1423 -20.51626,4.21706 -30.78125,6.21875 -0.73071,0.13317 -1.87433,0.29887 -2.09375,-0.65625 -1.07996,-4.08581 -1.73783,-8.24483 -2.625,-12.375 -4.02283,-19.89405 -7.85615,-39.83658 -11.78125,-59.75 -0.69139,-3.64346 -1.44414,-7.29002 -2.09375,-10.9375 0.0831,-1.16501 1.44686,-1.17621 2.34375,-1.375 10.15708,-2.00104 20.31326,-4.02956 30.46875,-6.03125 0.30917,-0.0462 0.62532,-0.0504 0.9375,-0.0625 z m -69.4375,0.34375 c 3.4134,0.38287 6.54911,1.8995 9.8125,2.875 2.28413,0.84975 4.70365,1.54626 6.84375,2.65625 1.05177,0.71808 0.78272,2.09282 1.0625,3.1875 1.27458,7.10339 2.7128,14.2054 3.96875,21.3125 1.8678,10.29341 3.72511,20.5707 5.53125,30.875 1.43289,8.41612 2.87578,16.84892 4.5625,25.21875 0.11589,1.03871 0.47553,2.07764 0.375,3.125 -0.37561,0.73469 -1.30774,0.31919 -1.90625,0.0937 -7.52627,-2.2898 -15.0056,-4.76363 -22.46875,-7.25 -2.16921,-0.75175 -4.37521,-1.43054 -6.5,-2.28125 -0.39429,-0.52951 -0.23,-1.36015 -0.46875,-2 -2.32053,-13.22475 -4.434349,-26.49382 -6.562499,-39.75 -1.24754,-7.87779 -2.48385,-15.76877 -3.65625,-23.65625 0.0323,-1.65375 1.27213,-2.88785 2,-4.28125 1.97476,-3.10747 4.17196,-6.05565 6.249999,-9.09375 0.41896,-0.27991 0.60511,-0.96749 1.15625,-1.03125 z m 140.84375,4.9375 c 1.30164,0.27234 1.55237,1.80086 2,2.875 0.89814,2.70383 1.42585,5.51013 2.0625,8.28125 -1.1889,9.1427 -2.27726,18.30693 -3.75,27.40625 -0.27644,0.60039 -1.2872,0.30174 -1.1875,-0.375 -0.29518,-2.17796 0.10019,-4.34772 0.15625,-6.53125 0.55774,-6.89864 1.63008,-13.74439 2.34375,-20.625 0.0346,-1.50812 -0.64053,-2.93819 -0.90625,-4.40625 -0.53872,-2.07892 -1.05831,-4.14671 -1.3125,-6.28125 0.13183,-0.19733 0.33307,-0.32804 0.59375,-0.34375 z m -68.09375,2.28125 c 0.82532,0.0106 0.75213,1.04986 1.15625,1.5625 2.05048,4.43985 3.52679,9.17538 5.8125,13.5 0.81576,1.35971 1.57998,2.61549 2.75,3.65625 0.77577,0.80591 2.07963,1.02108 3.21875,0.90625 1.23076,0.0487 2.48054,-0.33346 3.34375,-1.125 1.71307,-1.46032 2.29626,-3.82444 2.21875,-6 0.0354,-1.41299 -0.13556,-2.81397 -0.125,-4.21875 0.0754,-0.46483 0.62008,-0.64108 0.84375,-0.21875 0.75739,2.49116 1.18025,5.08966 1.8125,7.625 0.82396,3.65227 1.65614,7.33512 2.25,11.03125 0.0432,0.88445 0.42431,1.84071 0.0937,2.6875 -0.7598,0.68636 -1.85979,0.97705 -2.8125,1.40625 -1.70885,0.66122 -3.67946,1.24805 -5.4375,0.40625 -1.84309,-0.72026 -3.01221,-2.44491 -3.9375,-4.125 -2.97872,-5.46488 -5.89633,-10.96235 -8.84375,-16.4375 -1.23005,-2.49401 -1.62564,-5.2773 -2.21875,-7.96875 -0.0833,-0.82774 -0.39219,-1.68 -0.28125,-2.5 0.01,-0.10404 0.0641,-0.16193 0.15625,-0.1875 z m -36.5625,7.96875 c 0.82693,0.10636 0.49844,1.188 0.84375,1.71875 0.43647,2.23051 1.03487,4.43934 1.34375,6.6875 -0.74914,7.40028 -0.92718,14.87356 -2.15625,22.21875 -0.36288,1.3628 -0.93697,2.735 -2.125,3.5625 -1.53203,1.26709 -3.72135,1.44264 -5.65625,1.28125 -0.81946,-0.0548 -1.77144,-0.0918 -2.40625,-0.625 -0.98394,-2.95875 -1.30271,-6.08915 -1.96875,-9.125 -0.7168,-3.95112 -1.53599,-7.8801 -1.96875,-11.875 0.16815,-0.58964 1.08124,-0.14304 1.03125,0.375 0.64973,2.25319 1.39242,4.54112 2.90625,6.375 0.30273,0.44919 0.91979,1.00425 1.375,1.28125 1.11421,0.99995 3.08395,1.24653 4.53125,0.5625 0.99277,-0.46541 1.91088,-0.94197 2.625,-1.75 0.42746,-0.62166 0.96364,-1.45366 1.15625,-2.28125 0.50042,-2.07182 0.28633,-4.22903 0.34375,-6.34375 -0.0205,-3.81884 -0.13272,-7.61818 -0.0937,-11.4375 -0.0633,-0.18716 -0.0111,-0.66161 0.21875,-0.625 z m -46.562499,0.4375 c 0.549399,0.0837 0.609214,0.87185 0.6875,1.375 1.44491,7.86968 2.62577,15.78842 3.90625,23.6875 1.33784,8.62241 2.77241,17.21436 4.062499,25.84375 0.1904,1.36652 0.34802,2.76306 0.5625,4.125 -1.157549,0.009 -1.226009,-1.31322 -1.624999,-2.125 -2.28025,-5.72395 -3.97343,-11.70065 -6.59375,-17.28125 -0.44624,-0.6847 -0.77496,-1.46421 -1.4375,-1.84375 -1.06427,-0.88398 -2.70914,-0.48837 -3.78125,-1.28125 -0.81311,-0.70838 -0.62301,-2.10911 -0.9375,-3.15625 -1.06488,-5.88154 -1.94426,-11.77475 -2.8125,-17.6875 0.85849,-3.0439 2.79922,-5.64037 4.53125,-8.25 0.9406,-1.21566 1.98298,-2.38063 3.15625,-3.375 0.09993,-0.019 0.202764,-0.0432 0.28125,-0.0312 z m 143.468749,4.9375 c 0.92792,-0.0882 1.51164,1.17656 0.9375,1.875 -1.19177,0.0863 -1.8844,1.22892 -1.78125,2.40625 0.31141,5.17743 1.05757,10.31238 1.59375,15.46875 0.51778,4.67653 1.19645,9.3281 1.40625,14.03125 0.007,1.28389 0.003,2.80602 -1.09375,3.65625 -7.77997,6.96782 -15.81487,13.65098 -23.78125,20.40625 -1.39715,1.24405 -3.0154,2.66035 -5.03125,2.53125 -0.80156,0.0816 -1.6498,-0.14864 -1.96875,-0.9375 -0.81948,-1.5616 -1.08887,-3.36648 -1.65625,-5.03125 -1.70157,-5.72828 -3.18353,-11.51101 -5.15625,-17.15625 -0.15671,-0.86046 -0.75382,-1.62018 -1.6875,-1.625 -1.16738,0.0588 -2.21712,0.92633 -2.28125,2.125 -0.15166,2.56182 0.20783,5.12312 0.28125,7.6875 0.35324,6.30989 0.89388,12.61798 1,18.9375 -0.0439,1.3573 -0.46277,3.07627 -1.96875,3.40625 -1.9367,0.67526 -3.98277,0.909 -5.96875,1.40625 -8.16233,1.79243 -16.39348,3.36308 -24.59375,4.96875 -3.94902,0.66218 -7.84888,1.76499 -11.875,1.8125 -1.26288,-0.0402 -2.2019,-1.055 -2.5,-2.21875 -2.33341,-5.83349 -4.21262,-11.84172 -6.34375,-17.75 -0.98566,-2.69848 -1.89303,-5.43318 -3.1875,-8 -0.66618,-0.99162 -2.31575,-0.79674 -3,0.0312 -0.96387,1.34493 -0.34636,3.07785 -0.3125,4.59375 0.63296,6.37784 1.69637,12.7197 2.03125,19.125 0.10034,1.10013 -0.31724,2.35406 -1.46875,2.65625 -1.85766,0.96611 -3.93385,0.041 -5.78125,-0.46875 -6.34596,-1.91479 -12.6197,-4.02624 -18.9375,-6.03125 -3.76499,-1.24484 -7.52614,-2.5327 -11.21875,-3.96875 -0.722589,-0.64081 -1.333569,-1.40143 -1.656249,-2.34375 -1.69471,-4.3854 -2.80884,-8.97028 -4.15625,-13.46875 -1.51593,-5.40073 -3.01632,-10.80191 -4.78125,-16.125 -0.52224,-0.69257 -1.48309,-0.54655 -2.21875,-0.75 -0.68754,-0.52454 -0.32596,-2.01994 0.65625,-1.90625 1.42881,-0.31054 2.92325,0.68886 3.21875,2.09375 3.4553,8.01446 6.10052,16.36024 9.062499,24.5625 l 1.25,3.5625 c 8.62119,2.94797 17.35438,5.51267 26.0625,8.1875 2.14396,0.65387 4.31073,1.26961 6.46875,1.875 -0.59525,-6.73337 -2.47256,-13.29304 -3.03125,-20.03125 -0.26188,-1.799 0.27221,-3.78995 1.78125,-4.875 1.56924,-1.54811 4.05664,-1.7542 6.125,-1.25 1.12372,0.25899 2.12088,1.13146 2.71875,1.96875 1.0494,1.27911 1.58423,2.92474 2.34375,4.40625 3.12155,6.69203 5.68729,13.63604 8.84375,20.3125 0.11529,0.58575 0.5727,0.90687 1.15625,0.71875 8.48355,-1.26597 16.85932,-3.19404 25.28125,-4.8125 l 10.3125,-2.09375 c 0.17456,-8.08554 0.28583,-16.20318 0.6875,-24.28125 0.1647,-2.05045 0.0999,-4.29231 1.21875,-6.09375 1.43265,-1.81736 4.02937,-2.43015 6.28125,-2.09375 1.0521,0.2285 2.13179,0.53206 2.84375,1.375 1.63348,1.51702 1.94518,3.8489 2.53125,5.90625 1.27971,4.9828 2.20108,10.05498 3.375,15.0625 0.24405,0.35181 0.17429,1.64021 0.6875,1.25 1.16553,-0.81242 2.18749,-1.76072 3.28125,-2.53125 7.29907,-6.05586 14.62428,-12.08328 21.75,-18.34375 0.96772,-0.66936 0.5423,-2.0249 0.6875,-3.03125 -0.30558,-8.60119 -1.0676,-17.20328 -1.15625,-25.8125 0.0559,-1.34594 -0.0118,-2.85375 0.625,-4.03125 0.41451,-0.61029 1.20919,-1.34439 2.09375,-1.34375 z m -57.375,1.21875 0.0937,0.0312 0,0.0312 c 0.89783,0.70469 1.23235,1.92666 1.875,2.875 1.65649,3.08362 3.25786,6.16151 5.03125,9.1875 0.78897,1.33489 1.60374,2.8221 2.4375,4.03125 1.47061,1.26174 3.43006,1.94297 5.375,1.75 1.94874,-0.0866 3.76617,-0.90276 5.5,-1.71875 0.5465,-0.18591 1.19311,0.0939 1.09375,0.71875 1.15683,4.08945 1.983,8.26663 2.78125,12.4375 0.12826,0.59011 -0.44914,0.86164 -0.9375,0.59375 -1.48406,-0.53863 -3.01447,-1.14723 -4.625,-0.90625 -1.83744,0.21632 -3.4943,1.27293 -4.75,2.59375 -0.21231,0.38321 -0.60987,0.91884 -0.84375,1.28125 -1.22045,1.86623 -0.95722,4.19052 -1.15625,6.3125 -0.28137,5.0497 -0.0533,10.14542 -0.4375,15.1875 0.11828,0.58359 -0.44772,0.93302 -0.46875,0.15625 -0.89451,-2.79875 -1.17939,-5.7455 -1.875,-8.59375 -3.06551,-14.84517 -6.15329,-29.66166 -9.09375,-44.53125 0.017,-0.48765 -0.34654,-1.03525 0,-1.4375 z m 58.59375,1.65625 c 0.63064,0.10025 0.75679,0.96787 0.78125,1.5625 1.32666,5.64026 2.76116,11.27073 3.84375,16.96875 0.40728,1.85354 0.61766,3.91332 1.84375,5.4375 1.64756,0.98153 3.662,0.47364 5.46875,0.375 0.85125,-0.0735 1.69353,-0.15116 2.53125,-0.3125 -0.24135,3.88996 0.189,7.74921 0.75,11.59375 0.26986,1.96817 0.30284,4.25222 -0.90625,5.90625 -2.11454,2.4531 -4.80552,4.2644 -7.1875,6.4375 -6.62022,5.63003 -13.39691,11.15048 -20.09375,16.65625 -0.78077,0.53527 -1.87912,1.1238 -2.78125,0.5 -3.56683,-1.53543 -6.95429,-3.39904 -10.34375,-5.28125 -0.36667,-0.33202 -1.10236,-0.69254 -0.78125,-1.28125 0.51663,-0.80633 1.47127,-1.15988 2.09375,-1.78125 1.67939,-1.26964 3.27645,-2.40246 4.84375,-3.8125 6.81648,-5.63211 13.58094,-11.30555 20.15625,-17.21875 0.44916,-0.53329 0.82498,-1.02415 1.1875,-1.65625 0.90692,-1.8483 0.55838,-3.98855 0.46875,-5.96875 -0.46291,-5.34926 -1.15888,-10.67139 -1.8125,-16 -0.35498,-3.54408 -0.90329,-7.09267 -1,-10.65625 0.0371,-0.54995 0.0279,-1.30335 0.625,-1.4375 0.11057,-0.0199 0.22241,-0.0456 0.3125,-0.0312 z m -153.718749,4.40625 c 0.07741,-0.0288 0.164415,-0.005 0.25,0.0312 0.68531,0.48679 0.37584,1.46513 0.71875,2.15625 1.85521,11.22048 3.7113,22.45184 5.46875,33.6875 0.0904,1.1629 0.38133,2.35183 0.34375,3.5 -0.40624,0.49651 -1.06585,-0.18303 -1.1875,-0.62495 -3.62363,-5.8825 -6.89799,-11.98241 -10.21875,-18.03125 -0.59405,-4.00058 -1.23112,-7.99809 -1.8125,-12 1.88886,-2.73684 3.72584,-5.55766 5.8125,-8.125 0.198405,-0.16511 0.392766,-0.5075 0.625,-0.59375 z m 58.656249,2.71875 c 0.6047,0.16454 0.38199,1.07064 0.625,1.5625 3.27394,15.98668 6.52197,31.97931 9.625,48 0.12,1.14513 0.51561,2.29526 0.5,3.4375 -0.58152,-0.0573 -0.73934,-0.85015 -1.03125,-1.28125 -1.09001,-2.17234 -1.92356,-4.4622 -2.96875,-6.65625 -1.62609,-3.8409 -3.18427,-7.79041 -5.6875,-11.15625 -2.06552,-2.1135 -5.63752,-2.38899 -8.09375,-0.8125 -0.8157,0.45389 -1.74823,0.83227 -2.28125,1.53125 -0.0224,0.61417 -1.10075,0.90771 -1.1875,0.1875 -1.04676,-3.89992 -1.77296,-7.85478 -2.375,-11.84375 -0.1535,-0.57412 -0.27214,-1.43907 0.4375,-1.625 0.95122,-0.24184 1.98609,-0.11356 2.96875,-0.1875 1.38217,0.003 2.91167,-0.27954 4.03125,-0.96875 0.86034,-0.71337 1.79061,-1.17437 2.46875,-2.125 0.66921,-0.86718 1.06359,-2.11842 1.15625,-3.28125 0.70626,-4.87038 0.97526,-9.7694 1.53125,-14.65625 0.16894,0.0675 0.15977,-0.0962 0.28125,-0.125 z m -90.062499,5.15625 0.09375,0 c 6.59215,1.27279 12.90959,3.67073 19.5,4.96875 0.66508,0.23115 1.41166,0.0643 2.03125,0.375 0.40524,0.32512 0.09353,0.94762 0.3125,1.40625 0.54403,3.46938 0.75818,7.12891 2.65625,10.1875 3.18757,5.72703 6.52413,11.4018 9.71875,17.125 1.42893,2.50037 2.82779,5.03631 4.1875,7.5625 0.20292,0.8426 -0.94116,0.75214 -1.46875,1 -5.24403,1.58931 -10.4846,3.16508 -15.71875,4.78125 -1.59729,-1.47598 -2.45897,-3.55391 -3.625,-5.375 -2.86315,-4.9249 -5.78374,-9.82558 -8.46875,-14.84375 -1.77464,-3.38929 -3.33524,-6.90458 -4.375,-10.59375 -1.42614,-4.63864 -2.95009,-9.24938 -4.3125,-13.90625 -0.23076,-0.88465 -0.51684,-1.7664 -0.53125,-2.6875 z m 24.125,2.84375 c 0.95192,0.10673 0.68753,1.31356 0.96875,2 0.463,2.74823 0.70471,5.5494 1.40625,8.25 4.11052,7.39044 8.41426,14.68087 12.0625,22.3125 0.29978,1.10678 0.65726,2.31354 0.25,3.4375 -0.80075,0.17296 -0.95117,-0.74831 -1.28125,-1.25 -2.20513,-3.58333 -4.29765,-7.3303 -6.40625,-11 -2.25551,-3.96575 -4.58457,-7.88432 -6.78125,-11.875 -0.55549,-1.52869 -0.53335,-3.20594 -0.90625,-4.78125 -0.28572,-1.95775 -0.73801,-3.92693 -0.5625,-5.90625 0.21304,-0.53277 0.6502,-1.08722 1.25,-1.1875 z m 13.25,14.28125 c 1.02622,-0.0804 0.93264,1.20568 1.28125,1.875 2.69015,9.04702 5.11365,18.1791 8.03125,27.15625 0.34169,1.12138 0.98207,2.18477 1.75,2.96875 1.896749,1.45603 4.351419,1.82876 6.531249,2.71875 8.85246,2.97531 17.7088,5.95647 26.6875,8.53125 1.09513,0.31161 2.19781,0.61008 3.3125,0.84375 -1.25549,1.31101 -2.17886,2.6952 -3.28125,4.125 -1.82676,2.10426 -3.63158,4.32858 -5.65625,6.25 -1.50637,0.86606 -3.1984,0.0496 -4.71875,-0.34375 -9.14159,-2.57532 -18.21686,-5.38304 -27.249999,-8.3125 -1.66514,-0.66251 -3.47356,-1.18918 -4.96875,-2.125 -1.02323,-1.01019 -1.92639,-2.10584 -2.28125,-3.53125 -1.30628,-3.56237 -1.67244,-7.45828 -3.46875,-10.84375 -0.25344,-0.56498 -0.37492,-1.55092 0.40625,-1.6875 1.85383,-0.74381 3.99393,-1.15016 5.59375,-2.25 0.5412,-0.45339 0.98957,-1.14369 0.9375,-1.90625 -0.22548,-3.42169 -0.98647,-6.7714 -1.5,-10.15625 -0.7031,-4.07487 -1.43578,-8.1644 -1.8125,-12.28125 0.0535,-0.36912 0.01704,-0.88187 0.40625,-1.03125 z m 108.249999,4.40625 c 1.20378,0.34926 1.1972,1.88095 1.625,2.875 0.4378,1.49923 0.99488,2.99486 1.25,4.53125 -0.55554,5.48059 -1.03624,10.97956 -1.78125,16.4375 -0.50637,0.23165 -0.95323,-0.13155 -0.90625,-0.65625 -0.30315,-2.68017 -0.45395,-5.40039 -0.6875,-8.09375 -0.27213,-4.49867 -0.55513,-8.99352 -0.625,-13.5 0.0919,-0.60444 0.0879,-1.55656 0.90625,-1.5625 0.072,-0.005 0.14527,-0.0385 0.21875,-0.0312 z m -59.21875,11.59375 0.0312,0 c 1.09115,-0.0732 1.47673,1.05299 1.78125,1.90625 2.57595,6.52364 4.67707,13.24795 6.875,19.90625 0.11996,0.45821 0.52528,1.44491 -0.25,1.40625 -0.724,-0.30177 -0.93406,-1.22069 -1.375,-1.84375 -2.45285,-4.58892 -4.839,-9.23199 -6.9375,-14 -0.57834,-1.81917 -0.63978,-3.79339 -0.65625,-5.6875 0.0793,-0.56689 0.0807,-1.37973 0.53125,-1.6875 z m 59.4375,18.3125 c 0.67231,0.22003 0.13381,1.08757 0.3125,1.59375 0.0768,2.95764 0.61961,5.88975 0.65625,8.84375 -0.0872,1.00232 -0.4641,2.01375 -1.3125,2.59375 -0.71683,0.4709 -1.64806,0.72096 -2.5,0.96875 -4.85509,1.04521 -9.71788,2.11239 -14.59375,3.0625 -6.85165,1.37503 -13.70039,2.72006 -20.5625,4.03125 -1.96074,0.24628 -4.10097,1.23919 -6,0.21875 -0.62238,-0.30972 -1.01756,-0.91308 -1.1875,-1.59375 -1.23263,-2.91355 -1.83565,-6.0345 -2.90625,-9 -0.13527,-0.69063 0.64104,-0.96148 1.15625,-0.59375 1.89835,0.85592 3.99232,0.37576 5.9375,-0.0312 9.26846,-1.61031 18.49163,-3.5481 27.71875,-5.375 3.47608,-0.82066 7.13449,-1.15992 10.40625,-2.65625 0.70347,-0.47848 1.45226,-0.76591 2,-1.34375 0.35303,-0.14249 0.52061,-0.62827 0.875,-0.71875 z"
         style="fill:#ffffff;stroke-width:0.10000000000000001;stroke-miterlimit:4;stroke-dasharray:none"
         inkscape:connector-curvature="0" />
      <g
         style="stroke:#ffffff"
         id="g6497">
        <path
           style="fill:none;stroke:#ffffff;stroke-width:0.20000000000000001;stroke-linecap:butt;stroke-linejoin:miter;stroke-miterlimit:4;stroke-opacity:1;stroke-dasharray:none"
           d="m 146.60376,217.25658 20.51872,-3.97747 4.29315,20.32932 -20.96067,4.41941 z"
           id="path6402"
           inkscape:connector-curvature="0" />
        <path
           style="fill:none;stroke:#ffffff;stroke-width:0.20000000000000001;stroke-linecap:butt;stroke-linejoin:miter;stroke-miterlimit:4;stroke-opacity:1;stroke-dasharray:none"
           d="m 151.62017,243.56404 20.54337,-4.12563 1.60715,7.09821 -20.53572,4.24107 z"
           id="path6404"
           inkscape:connector-curvature="0"
           sodipodi:nodetypes="ccccc" />
        <path
           style="fill:none;stroke:#ffffff;stroke-width:0.20000000000000001;stroke-linecap:butt;stroke-linejoin:miter;stroke-miterlimit:4;stroke-opacity:1;stroke-dasharray:none"
           d="m 154.1799,256.39999 20.70813,-4.41941 4.16688,20.96066 -20.70813,3.78807 z"
           id="path6406"
           inkscape:connector-curvature="0" />
        <path
           style="fill:none;stroke:#ffffff;stroke-width:0.20000000000000001;stroke-linecap:butt;stroke-linejoin:miter;stroke-miterlimit:4;stroke-opacity:1;stroke-dasharray:none"
           d="m 98.116435,212.33209 18.056475,5.68211 3.40927,20.45559 -17.80394,-5.42957 z"
           id="path6421"
           inkscape:connector-curvature="0" />
        <path
           style="fill:none;stroke:#ffffff;stroke-width:0.20000000000000001;stroke-linecap:butt;stroke-linejoin:miter;stroke-miterlimit:4;stroke-opacity:1;stroke-dasharray:none"
           d="m 102.66212,238.59606 18.05648,5.55583 1.13642,7.19734 -17.93021,-5.3033 z"
           id="path6423"
           inkscape:connector-curvature="0" />
        <path
           style="fill:none;stroke:#ffffff;stroke-width:0.20000000000000001;stroke-linecap:butt;stroke-linejoin:miter;stroke-miterlimit:4;stroke-opacity:1;stroke-dasharray:none"
           d="m 105.31377,251.85431 17.5514,5.42957 3.53554,19.44543 -17.80394,-5.55583 z"
           id="path6425"
           inkscape:connector-curvature="0" />
        <path
           style="fill:none;stroke:#ffffff;stroke-width:0.20000000000000001;stroke-linecap:butt;stroke-linejoin:miter;stroke-miterlimit:4;stroke-opacity:1;stroke-dasharray:none"
           d="m 196.60631,200.58907 14.52094,-11.8693 4.67196,20.32932 -14.64722,11.74303 z"
           id="path6427"
           inkscape:connector-curvature="0" />
        <path
           style="fill:none;stroke:#ffffff;stroke-width:0.20000000000000001;stroke-linecap:butt;stroke-linejoin:miter;stroke-miterlimit:4;stroke-opacity:1;stroke-dasharray:none"
           d="m 202.66722,226.60049 14.39468,-12.12183 1.64149,8.08122 -14.39467,11.11168 z"
           id="path6429"
           inkscape:connector-curvature="0" />
        <path
           style="fill:none;stroke:#ffffff;stroke-width:0.20000000000000001;stroke-linecap:butt;stroke-linejoin:miter;stroke-miterlimit:4;stroke-opacity:1;stroke-dasharray:none"
           d="m 205.1926,239.2274 14.64722,-11.36422 4.29314,18.94036 -14.2684,11.8693 z"
           id="path6431"
           inkscape:connector-curvature="0" />
      </g>
      <g
         id="g3215"
         transform="matrix(1.0204526,-0.19820591,-0.19820591,-1.0204526,-301.24677,728.94118)" />
    </g>
  </g>
</svg>
