<?xml version="1.0" encoding="UTF-8" standalone="no"?>
<!-- Created with Inkscape (http://www.inkscape.org/) -->

<svg
   xmlns:dc="http://purl.org/dc/elements/1.1/"
   xmlns:cc="http://creativecommons.org/ns#"
   xmlns:rdf="http://www.w3.org/1999/02/22-rdf-syntax-ns#"
   xmlns:svg="http://www.w3.org/2000/svg"
   xmlns="http://www.w3.org/2000/svg"
   xmlns:sodipodi="http://sodipodi.sourceforge.net/DTD/sodipodi-0.dtd"
   xmlns:inkscape="http://www.inkscape.org/namespaces/inkscape"
   id="svg2"
   version="1.1"
   inkscape:version="0.48.2 r9819"
   width="300"
   height="300"
   xml:space="preserve"
   sodipodi:docname="scalpel.svg"><metadata
     id="metadata8"><rdf:RDF><cc:Work
         rdf:about=""><dc:format>image/svg+xml</dc:format><dc:type
           rdf:resource="http://purl.org/dc/dcmitype/StillImage" /></cc:Work></rdf:RDF></metadata><defs
     id="defs6" /><sodipodi:namedview
     pagecolor="#ffffff"
     bordercolor="#666666"
     borderopacity="1"
     objecttolerance="10"
     gridtolerance="10"
     guidetolerance="10"
     inkscape:pageopacity="0"
     inkscape:pageshadow="2"
     inkscape:window-width="1191"
     inkscape:window-height="769"
     id="namedview4"
     showgrid="false"
     fit-margin-top="0"
     fit-margin-left="0"
     fit-margin-right="0"
     fit-margin-bottom="0"
     inkscape:zoom="1.2586667"
     inkscape:cx="286.24597"
     inkscape:cy="166.54942"
     inkscape:window-x="0"
     inkscape:window-y="0"
     inkscape:window-maximized="0"
     inkscape:current-layer="g10" /><g
     id="g10"
     inkscape:groupmode="layer"
     inkscape:label="ink_ext_XXXXXX"
     transform="matrix(1.25,0,0,-1.25,-27.856,332.53762)"><g
       id="g3737"
       transform="matrix(0,1.8534096,-1.8534096,0,480.56583,-295.82097)"><path
         d="m 232.26159,128.71425 c 0.008,0 0.0133,0.002 0.0208,0.002 0.006,-0.005 0.0114,-0.0112 0.017,-0.0169 l -0.0379,0.0152"
         style="fill:#ffffff;fill-opacity:1;fill-rule:nonzero;stroke:none"
         id="path40"
         inkscape:connector-curvature="0" /><path
         d="m 232.0855,145.13787 c 0.008,0.002 0.017,0.004 0.0246,0.004 0.004,-0.006 0.009,-0.0132 0.0132,-0.0189 l -0.0379,0.0152"
         style="fill:#ffffff;fill-opacity:1;fill-rule:nonzero;stroke:none"
         id="path42"
         inkscape:connector-curvature="0" /><path
         d="m 206.64309,237.37105 c -0.0354,0.0265 -0.0761,0.0454 -0.12193,0.0587 -0.046,0.0132 -0.0937,0.0208 -0.14315,0.0208 -0.0513,0 -0.10035,-0.008 -0.14712,-0.0208 -0.0469,-0.0133 -0.088,-0.0322 -0.12345,-0.0587 -0.0352,-0.0265 -0.064,-0.0606 -0.0862,-0.10035 -0.022,-0.0417 -0.0329,-0.089 -0.0329,-0.1439 0,-0.0568 0.0106,-0.10603 0.0316,-0.14769 0.0214,-0.0435 0.05,-0.0776 0.0863,-0.10603 0.0362,-0.0265 0.0776,-0.0473 0.12459,-0.0625 0.0468,-0.0133 0.0958,-0.0208 0.14712,-0.0208 0.0494,0 0.0971,0.008 0.14315,0.0208 0.0458,0.0151 0.0862,0.036 0.12061,0.0625 0.0343,0.0284 0.0623,0.0625 0.0835,0.10603 0.021,0.0417 0.0318,0.0909 0.0318,0.14769 0,0.0549 -0.0104,0.10224 -0.0307,0.1439 -0.0203,0.0398 -0.0481,0.0738 -0.0833,0.10035"
         style="fill:#ffffff;fill-opacity:1;fill-rule:nonzero;stroke:none"
         id="path46"
         inkscape:connector-curvature="0" /><path
         d="m 236.24158,237.07189 c 0,0 -0.55099,0.32567 -1.42196,0.74412 -0.21775,0.10603 -0.45443,0.21585 -0.70625,0.32946 -0.24994,0.11739 -0.5207,0.22721 -0.79714,0.34839 -0.28023,0.11171 -0.56803,0.23478 -0.8653,0.34649 -0.29537,0.10982 -0.59643,0.22722 -0.90316,0.32757 -0.30295,0.10603 -0.60779,0.20828 -0.91264,0.29916 -0.15147,0.0454 -0.30295,0.0909 -0.45063,0.13633 -0.14958,0.0417 -0.29916,0.0814 -0.44496,0.12118 -0.14579,0.0379 -0.28969,0.0776 -0.42981,0.1136 -0.14201,0.0341 -0.28023,0.0644 -0.41466,0.0966 -0.27076,0.0625 -0.52448,0.12118 -0.76305,0.16094 -0.23857,0.0436 -0.45632,0.0833 -0.64945,0.11929 -0.19502,0.0265 -0.36543,0.0492 -0.50554,0.0682 -0.20828,0.0265 -0.35218,0.0473 -0.40899,0.0549 0.0568,-0.006 0.20071,-0.0227 0.41088,-0.0473 0.14011,-0.017 0.31052,-0.036 0.50554,-0.0587 0.19503,-0.0322 0.41277,-0.0682 0.65135,-0.10793 0.24046,-0.0341 0.49797,-0.089 0.76873,-0.14769 0.13633,-0.0284 0.27455,-0.0568 0.41845,-0.0871 0.14011,-0.036 0.2859,-0.0719 0.4317,-0.10792 0.14769,-0.036 0.29727,-0.0738 0.44874,-0.11171 0.14958,-0.0436 0.30106,-0.0852 0.45253,-0.12876 0.30863,-0.0852 0.61537,-0.18177 0.9221,-0.28401 0.31053,-0.0947 0.61347,-0.20638 0.91264,-0.31242 0.30105,-0.10603 0.59075,-0.22342 0.87476,-0.32945 0.27834,-0.1174 0.55288,-0.22343 0.8066,-0.33703 0.25562,-0.10982 0.49608,-0.21586 0.71572,-0.3181 0.94293,-0.38058 1.65296,-0.78956 1.65296,-0.78956 l -0.29916,-0.0985 z m -11.02923,-0.23289 -1.59427,0.0322 -0.11739,-0.3484 -5.86207,-0.0625 0,-0.47336 c 0,0 -8.39358,0.0549 -8.58292,0.0549 -0.18934,0 -0.50554,0.0871 -0.50554,0.59265 l 0,1.16635 c 0,0.50555 0.3162,0.59264 0.50554,0.59264 0.18934,0 8.58292,0.0549 8.58292,0.0549 l 0,-0.47335 5.86964,-0.0625 0.0871,-0.34839 1.61699,0.0322 0,-0.75737 z m -18.27899,-0.0492 c -0.0506,-0.0852 -0.11929,-0.15148 -0.20696,-0.19881 -0.0873,-0.0492 -0.19048,-0.0833 -0.30882,-0.10225 -0.11833,-0.0208 -0.24482,-0.0303 -0.37906,-0.0303 -0.11133,0 -0.22343,0.0132 -0.33646,0.036 -0.11323,0.0246 -0.21604,0.0644 -0.30882,0.1174 -0.0928,0.0549 -0.16833,0.12686 -0.22665,0.21585 -0.0585,0.0909 -0.0875,0.2007 -0.0875,0.33135 0,0.0738 0.0123,0.1439 0.0371,0.20827 0.0246,0.0663 0.0593,0.12308 0.10319,0.1742 0.0443,0.0511 0.0648,0.0909 0.12648,0.12307 0.0617,0.0322 0.1742,0.0492 0.1742,0.053 l 0,-0.30106 c 0,-0.008 -0.10471,-0.0341 -0.15167,-0.0814 -0.0466,-0.0473 -0.054,-0.10982 -0.054,-0.18935 0,-0.0814 0.0299,-0.14579 0.0733,-0.19502 0.0432,-0.0492 0.1013,-0.0871 0.16567,-0.11361 0.0644,-0.0265 0.13538,-0.0435 0.20866,-0.053 0.0735,-0.009 0.14182,-0.017 0.20392,-0.0227 l 0.006,0.006 c -0.0725,0.0398 -0.12743,0.0966 -0.16548,0.16662 -0.0383,0.0701 -0.0568,0.14769 -0.0568,0.23289 0,0.089 0.015,0.16852 0.0453,0.24047 0.0299,0.072 0.072,0.13254 0.12572,0.18366 0.054,0.0511 0.11947,0.0909 0.19635,0.11929 0.0767,0.0284 0.16302,0.0417 0.25826,0.0417 0.0901,0 0.17363,-0.0132 0.25069,-0.0417 0.0769,-0.0284 0.14371,-0.0701 0.20146,-0.12497 0.0574,-0.0549 0.10206,-0.12118 0.13387,-0.2007 0.0318,-0.0795 0.0477,-0.17041 0.0477,-0.27076 0,-0.13065 -0.0254,-0.23858 -0.0755,-0.32378 z m 18.34147,4.24507 c -2.14526,-0.0265 -10.50854,-0.18934 -10.50854,-0.18934 -0.63051,-1.04139 -3.28132,-1.19854 -4.9854,-0.97701 -1.70409,0.21964 -9.02656,1.16635 -9.49991,1.13606 -0.47336,-0.0322 -0.37869,-0.12686 -0.37869,-0.12686 l 4.3246,-6.59482 c 8.99436,0.18934 19.78692,0.0625 22.59487,0.15715 2.80796,0.0947 9.75117,2.14526 10.60322,2.6508 -1.79876,2.20964 -9.68869,3.97621 -12.15015,3.94402"
         style="fill:#ffffff;fill-opacity:1;fill-rule:nonzero;stroke:none"
         id="path48"
         inkscape:connector-curvature="0" /><path
         d="m 238.58944,225.65261 c -0.089,0.17419 -0.23289,0.42223 -0.44307,0.7195 -0.41655,0.59454 -1.11523,1.38031 -2.09981,2.13958 -0.49229,0.37679 -1.05654,0.7479 -1.69841,1.04517 -0.64376,0.29727 -1.35759,0.52259 -2.12821,0.53774 -0.39005,0.0114 -0.78578,0.0227 -1.18719,0.0341 -0.4014,0.006 -0.80849,0.0114 -1.21937,0.017 -0.82174,0.009 -1.65485,0.0189 -2.48796,0.0284 -1.66812,0.0246 -3.33623,0.0492 -4.9021,0.072 -1.56397,0.017 -3.02381,0.0568 -4.27347,0.0776 -1.25156,0.0227 -2.29484,0.0568 -3.02381,0.0738 -0.73086,0.0227 -1.14742,0.0341 -1.14742,0.0341 0,0 0.41656,0.008 1.14742,0.0208 0.72897,0.008 1.77225,0.0284 3.02381,0.0303 1.25156,0.004 2.71139,0.017 4.27726,0.009 1.56397,-0.0114 3.23209,-0.0227 4.90209,-0.0341 0.83311,-0.017 1.66812,-0.0322 2.48987,-0.0473 0.41087,-0.009 0.81796,-0.017 1.21936,-0.0265 0.4052,-0.0152 0.80282,-0.0303 1.19476,-0.0435 0.39383,-0.009 0.79335,-0.0757 1.16067,-0.18555 0.36922,-0.10793 0.71572,-0.25183 1.04139,-0.41088 0.65323,-0.32188 1.21937,-0.71193 1.71166,-1.10765 0.49229,-0.39384 0.90127,-0.80282 1.2402,-1.18529 0.34082,-0.38058 0.604,-0.74223 0.80471,-1.04896 0.2007,-0.30674 0.32945,-0.56425 0.41087,-0.74223 0.0417,-0.089 0.0682,-0.15905 0.0871,-0.20638 0.009,-0.0227 0.017,-0.0398 0.0208,-0.053 -0.006,0.0114 -0.0133,0.0284 -0.0227,0.0511 -0.0227,0.0473 -0.053,0.1155 -0.0985,0.20071 z m -13.37709,1.78172 -1.62646,0.0322 -0.10224,-0.34839 -5.84503,-0.0625 0,-0.47336 c 0,0 -8.39358,0.0549 -8.58292,0.0549 -0.18934,0 -0.50554,0.0871 -0.50554,0.59265 l 0,1.16635 c 0,0.50555 0.3162,0.59264 0.50554,0.59264 0.18934,0 8.58292,0.0549 8.58292,0.0549 l 0,-0.47335 5.83745,-0.0625 0.10225,-0.34839 1.63403,0.0322 0,-0.75737 z m -18.2949,-0.42224 c -0.0608,-0.0833 -0.13822,-0.14958 -0.23289,-0.19692 -0.0947,-0.0473 -0.199,-0.0776 -0.31242,-0.0947 -0.11171,-0.017 -0.22153,-0.0265 -0.32775,-0.0265 -0.10584,0 -0.21566,0.009 -0.32927,0.0265 -0.1136,0.017 -0.21774,0.0473 -0.31052,0.0947 -0.0947,0.0473 -0.1723,0.11361 -0.23479,0.19692 -0.0606,0.0833 -0.0909,0.19124 -0.0909,0.32378 0,0.13254 0.0303,0.24046 0.0909,0.32567 0.0625,0.0833 0.14012,0.14958 0.23479,0.19502 0.0928,0.0473 0.19692,0.0795 0.31052,0.0966 0.11361,0.017 0.22343,0.0246 0.32927,0.0246 0.10622,0 0.21604,-0.008 0.32775,-0.0246 0.11342,-0.017 0.21775,-0.0492 0.31242,-0.0966 0.0947,-0.0454 0.17211,-0.11171 0.23289,-0.19502 0.0606,-0.0852 0.0909,-0.19313 0.0909,-0.32567 0,-0.13254 -0.0303,-0.24047 -0.0909,-0.32378 z m -1.77604,1.68326 1.3254,0 0,0.44306 0.19692,0 c 0,0 0.006,-0.13632 0.017,-0.19502 0.009,-0.0606 0.0284,-0.12118 0.053,-0.16851 0.0246,-0.0492 0.088,-0.0928 0.12591,-0.12686 0.0398,-0.0341 0.0962,-0.0701 0.17514,-0.0701 l 0,-0.19692 -1.89343,0 0,0.31431 z m 26.8854,2.37058 c -1.0092,0.12686 -18.93242,0.0928 -18.93242,0.0928 l 0,-0.69489 c -3.66,-0.50555 -4.89073,-0.50555 -6.97407,-0.0322 -2.08278,0.47336 -4.54424,0.94671 -4.95511,0.72708 -0.41088,-0.22154 -0.56803,-0.56993 -0.28402,-1.1834 0.30276,-0.65513 2.98216,-4.66352 2.98216,-4.66352 6.65976,0.22153 8.30894,-0.43738 10.23266,-0.51691 12.59889,-0.5169 23.86102,-0.13254 25.5973,0.18367 -2.46146,5.74277 -6.65731,5.96241 -7.6665,6.08738"
         style="fill:#ffffff;fill-opacity:1;fill-rule:nonzero;stroke:none"
         id="path50"
         inkscape:connector-curvature="0" /><path
         d="m 206.54482,227.60474 c -0.0653,0.0265 -0.14087,0.0435 -0.22645,0.0549 -0.0858,0.0114 -0.17742,0.0152 -0.27455,0.0152 -0.0969,0 -0.18915,-0.004 -0.27568,-0.0152 -0.0865,-0.0114 -0.16208,-0.0284 -0.22665,-0.0549 -0.0644,-0.0246 -0.11568,-0.0587 -0.15355,-0.10225 -0.0381,-0.0435 -0.0572,-0.0985 -0.0572,-0.16662 0,-0.0644 0.0191,-0.11929 0.0572,-0.16473 0.0379,-0.0436 0.0892,-0.0795 0.15355,-0.10414 0.0646,-0.0246 0.14012,-0.0436 0.22665,-0.0549 0.0865,-0.009 0.17874,-0.0152 0.27568,-0.0152 0.0971,0 0.18878,0.006 0.27455,0.0152 0.0856,0.0114 0.16113,0.0303 0.22645,0.0549 0.0655,0.0246 0.11721,0.0606 0.15526,0.10414 0.0377,0.0454 0.057,0.10035 0.057,0.16473 0,0.0682 -0.0193,0.12307 -0.057,0.16662 -0.0381,0.0436 -0.0897,0.0776 -0.15526,0.10225"
         style="fill:#ffffff;fill-opacity:1;fill-rule:nonzero;stroke:none"
         id="path52"
         inkscape:connector-curvature="0" /><path
         d="m 206.68266,216.67585 -0.8136,0.28591 0,-0.5775 0.8136,0.28402 0,0.008"
         style="fill:#ffffff;fill-opacity:1;fill-rule:nonzero;stroke:none"
         id="path54"
         inkscape:connector-curvature="0" /><path
         d="m 206.54482,218.45 c -0.0653,0.0265 -0.14087,0.0436 -0.22645,0.0549 -0.0858,0.009 -0.17742,0.0151 -0.27455,0.0151 -0.0969,0 -0.18915,-0.006 -0.27568,-0.0151 -0.0865,-0.0114 -0.16208,-0.0284 -0.22665,-0.0549 -0.0644,-0.0246 -0.11568,-0.0587 -0.15355,-0.10225 -0.0381,-0.0435 -0.0572,-0.0985 -0.0572,-0.16662 0,-0.0644 0.0191,-0.11929 0.0572,-0.16473 0.0379,-0.0436 0.0892,-0.0776 0.15355,-0.10414 0.0646,-0.0246 0.14012,-0.0436 0.22665,-0.0549 0.0865,-0.009 0.17874,-0.0151 0.27568,-0.0151 0.0971,0 0.18878,0.006 0.27455,0.0151 0.0856,0.0114 0.16113,0.0303 0.22645,0.0549 0.0655,0.0265 0.11721,0.0606 0.15526,0.10414 0.0377,0.0454 0.057,0.10035 0.057,0.16473 0,0.0682 -0.0193,0.12307 -0.057,0.16662 -0.0381,0.0436 -0.0897,0.0776 -0.15526,0.10225"
         style="fill:#ffffff;fill-opacity:1;fill-rule:nonzero;stroke:none"
         id="path56"
         inkscape:connector-curvature="0" /><path
         d="m 223.00271,221.84871 1.70409,0.0322 13.66489,-5.74467 -1.07357,-0.15715 -14.29541,5.86964 z m 2.20964,-4.44957 -1.64161,0.0322 -0.0947,-0.34839 -5.83745,-0.0625 0,-0.47336 c 0,0 -8.39358,0.0549 -8.58292,0.0549 -0.18934,0 -0.50554,0.0871 -0.50554,0.59264 l 0,1.16636 c 0,0.50554 0.3162,0.59264 0.50554,0.59264 0.18934,0 8.58292,0.0549 8.58292,0.0549 l 0,-0.47336 5.8223,-0.0625 0.10982,-0.34839 1.64161,0.0322 0,-0.75738 z m -18.2949,0.45821 c -0.0612,-0.0852 -0.13898,-0.14958 -0.23346,-0.19691 -0.0945,-0.0473 -0.19843,-0.0795 -0.31128,-0.0947 -0.11323,-0.017 -0.22286,-0.0265 -0.32889,-0.0265 -0.10584,0 -0.21547,0.009 -0.32851,0.0265 -0.11323,0.0151 -0.21699,0.0473 -0.31147,0.0947 -0.0945,0.0473 -0.17249,0.11171 -0.23327,0.19691 -0.061,0.0833 -0.0915,0.19124 -0.0915,0.32378 0,0.13254 0.0305,0.24047 0.0915,0.32567 0.0608,0.0833 0.13879,0.14769 0.23327,0.19502 0.0945,0.0473 0.19824,0.0795 0.31147,0.0966 0.11304,0.017 0.22267,0.0246 0.32851,0.0246 0.10603,0 0.21566,-0.008 0.32889,-0.0246 0.11285,-0.017 0.2168,-0.0492 0.31128,-0.0966 0.0945,-0.0473 0.1723,-0.11171 0.23346,-0.19502 0.0608,-0.0852 0.0915,-0.19313 0.0915,-0.32567 0,-0.13254 -0.0307,-0.24047 -0.0915,-0.32378 z m 0.0915,-1.36327 -1.89267,-0.72897 0,0.35407 0.501,0.17799 0,0.75547 -0.501,0.17799 0,0.34081 1.89267,-0.72518 0,-0.35218 z m -1.89267,3.08061 1.3095,0 0,0.45443 0.23857,0 c 0,-0.0625 0.005,-0.12497 0.0159,-0.18556 0.0104,-0.0587 0.028,-0.1136 0.0528,-0.16283 0.0248,-0.0473 0.0566,-0.089 0.0954,-0.12497 0.0388,-0.0341 0.0865,-0.0568 0.14314,-0.0663 l 0,-0.24615 -1.85537,0 0,0.33135 z m 19.68524,2.55803 c 0,0 -7.85773,0.0322 -8.17204,0 -0.82175,-0.6627 -2.24183,-0.9789 -3.37789,-1.16825 -1.13605,-0.18934 -4.51204,-0.56803 -6.5329,-0.37868 -2.0184,0.18934 -3.84934,1.01109 -4.79606,0.9789 -0.94672,-0.0322 -1.51475,-0.78956 -1.51475,-0.78956 l 3.66001,-5.6481 c 3.94647,0.34649 27.29816,-1.29322 35.62925,0.94671 -2.27211,1.10387 -14.89562,6.05898 -14.89562,6.05898"
         style="fill:#ffffff;fill-opacity:1;fill-rule:nonzero;stroke:none"
         id="path58"
         inkscape:connector-curvature="0" /><path
         d="m 238.43796,207.57943 c -0.1723,0.0701 -0.36164,0.13633 -0.56235,0.21207 -0.40519,0.1439 -0.85393,0.32377 -1.3538,0.49418 -0.50176,0.16284 -1.04517,0.33893 -1.62078,0.52637 -0.58128,0.16852 -1.19286,0.3465 -1.82716,0.53017 -0.3162,0.0966 -0.64187,0.17798 -0.97133,0.26129 -0.32756,0.0852 -0.6608,0.17041 -0.99594,0.25561 -0.66838,0.18177 -1.35949,0.3181 -2.0468,0.47525 -0.34271,0.0757 -0.68353,0.16511 -1.02813,0.22949 -0.34461,0.0663 -0.68732,0.13254 -1.02624,0.19881 -0.33893,0.0644 -0.67785,0.13064 -1.0092,0.19502 -0.33703,0.0511 -0.66838,0.10225 -0.99595,0.15337 -0.65323,0.0985 -1.27996,0.20828 -1.88207,0.26887 -0.60211,0.0701 -1.17014,0.13822 -1.69462,0.2007 -0.52448,0.0625 -1.00541,0.12118 -1.43143,0.1742 -0.42602,0.0549 -0.79903,0.0833 -1.10576,0.11549 -0.53585,0.0568 -0.87288,0.0909 -0.94672,0.0985 0.0776,-0.004 0.41466,-0.0265 0.9505,-0.0606 0.30674,-0.0246 0.68164,-0.0417 1.10766,-0.0833 0.42791,-0.0417 0.91074,-0.089 1.43711,-0.13822 0.52638,-0.053 1.0963,-0.10982 1.7003,-0.17041 0.30106,-0.0341 0.60969,-0.0511 0.92779,-0.10224 0.3143,-0.0454 0.63619,-0.0928 0.96186,-0.14201 0.32756,-0.0473 0.65891,-0.0966 0.99594,-0.14579 0.33514,-0.0625 0.67406,-0.12686 1.01488,-0.19124 0.34271,-0.0644 0.68542,-0.12875 1.03192,-0.19313 0.3465,-0.0606 0.68921,-0.14769 1.03381,-0.22153 0.68732,-0.16322 1.37842,-0.30333 2.0487,-0.48889 0.33513,-0.089 0.66838,-0.17608 0.99784,-0.26318 0.32945,-0.0871 0.65512,-0.16852 0.96943,-0.26887 0.6343,-0.18934 1.24777,-0.37111 1.82527,-0.55477 0.57371,-0.19882 1.11523,-0.38626 1.6151,-0.55857 0.49797,-0.17798 0.94292,-0.37111 1.34433,-0.53016 0.19881,-0.0814 0.38626,-0.15337 0.55667,-0.22721 0.16662,-0.0814 0.32188,-0.15526 0.4601,-0.22153 0.42035,-0.20449 0.70436,-0.34082 0.81797,-0.39762 -0.11361,0.0492 -0.4033,0.17609 -0.83311,0.36354 -0.14012,0.0625 -0.29538,0.13254 -0.46579,0.20638 z m -13.22561,0.73087 -1.64161,0.0322 -0.0947,-0.34839 -5.83745,-0.0625 0,-0.47336 c 0,0 -8.39358,0.0549 -8.58292,0.0549 -0.18934,0 -0.50554,0.0871 -0.50554,0.59265 l 0,1.16635 c 0,0.50554 0.3162,0.59264 0.50554,0.59264 0.18934,0 8.58292,0.0549 8.58292,0.0549 l 0,-0.47336 5.8223,-0.0625 0.10982,-0.34839 1.64161,0.0322 0,-0.75737 z m -18.24075,1.08645 -1.85537,0 0,0.33135 1.3095,0 0,0.45593 0.23857,0 c 0,-0.0636 0.005,-0.12534 0.0159,-0.18536 0.0104,-0.0602 0.028,-0.11455 0.0528,-0.16322 0.0248,-0.0487 0.0566,-0.0899 0.0954,-0.12458 0.0388,-0.0345 0.0865,-0.057 0.14314,-0.0674 l 0,-0.24671 z m 0,-1.22865 -1.85537,0 0,0.33135 1.3095,0 0,0.45594 0.23857,0 c 0,-0.0636 0.005,-0.12535 0.0159,-0.18556 0.0104,-0.06 0.028,-0.11436 0.0528,-0.16302 0.0248,-0.0487 0.0566,-0.0901 0.0954,-0.12459 0.0388,-0.0345 0.0865,-0.057 0.14314,-0.0676 l 0,-0.24652 z m 10.47768,4.55995 c 0,-0.59833 0,-1.38789 0,-1.38789 -11.83451,1.10387 -17.07363,0.81986 -17.07363,0.81986 l 3.42521,-5.60115 c 0,0 11.03738,-0.38626 16.56052,-0.54341 5.52124,-0.15905 19.13501,0.26318 21.09092,0.8634 -4.51204,3.12416 -18.13338,5.65985 -24.00302,5.84919"
         style="fill:#ffffff;fill-opacity:1;fill-rule:nonzero;stroke:none"
         id="path60"
         inkscape:connector-curvature="0" /><path
         d="m 237.9949,204.34545 c -0.59264,-0.82553 -1.40493,-1.95402 -3.73953,-3.40628 -1.23641,-0.76873 -3.3703,-1.3557 -6.3392,-1.64918 -2.06195,-0.2026 -3.45173,-0.25751 -3.68651,-0.25751 l -0.0284,0 0.002,0.23668 c 0.0738,0 7.05682,0.008 9.95377,1.80823 2.30051,1.43143 3.09954,2.55613 3.68272,3.36841 0.0701,0.0966 0.33892,0.52448 0.40519,0.61347 l -0.12118,-0.45253 c -0.0663,-0.089 -0.0606,-0.16472 -0.12875,-0.26129 z m -12.78255,-7.58508 -1.64161,0.0322 -0.0947,-0.3484 -5.83745,-0.0625 0,-0.47336 c 0,0 -8.39358,0.0549 -8.58292,0.0549 -0.18934,0 -0.50554,0.0871 -0.50554,0.59265 l 0,1.16635 c 0,0.50555 0.3162,0.59264 0.50554,0.59264 0.18934,0 8.58292,0.0549 8.58292,0.0549 l 0,-0.47335 5.8223,-0.0625 0.10982,-0.34839 1.64161,0.0322 0,-0.75737 z m -18.2593,-0.45765 c -0.0369,-0.0759 -0.0839,-0.13746 -0.1405,-0.18442 -0.0566,-0.0468 -0.11796,-0.0797 -0.18423,-0.0992 -0.0661,-0.0195 -0.12932,-0.0292 -0.18953,-0.0292 -0.074,0 -0.14144,0.0114 -0.20127,0.0343 -0.0602,0.0231 -0.11531,0.054 -0.16568,0.093 -0.0506,0.0388 -0.0969,0.0829 -0.13916,0.13254 -0.0424,0.0494 -0.0824,0.10073 -0.11929,0.15356 -0.0373,0.0532 -0.0725,0.10622 -0.10622,0.15923 -0.0335,0.0528 -0.067,0.10187 -0.10054,0.14693 -0.0337,0.0453 -0.0685,0.0846 -0.10471,0.11815 -0.0362,0.0335 -0.0746,0.0564 -0.11531,0.0689 l 0,-0.90411 -0.27038,0 0,1.26727 c 0.15375,-0.002 0.28799,-0.0388 0.40273,-0.11133 0.11493,-0.0725 0.21491,-0.17135 0.29954,-0.29708 0.0443,-0.06 0.0871,-0.12269 0.12876,-0.18821 0.0413,-0.0651 0.0862,-0.12534 0.13386,-0.18025 0.0477,-0.0547 0.0994,-0.0996 0.15488,-0.13519 0.0559,-0.0352 0.11986,-0.0538 0.19238,-0.0557 0.0335,0 0.0693,0.004 0.10717,0.0121 0.038,0.008 0.0735,0.0235 0.10622,0.0464 0.0326,0.0229 0.0598,0.0547 0.082,0.0954 0.0222,0.0407 0.0333,0.0935 0.0333,0.15905 0,0.06 -0.0119,0.11 -0.0358,0.14977 -0.0239,0.0398 -0.0566,0.0716 -0.0981,0.0954 -0.0417,0.0239 -0.0905,0.0415 -0.14712,0.053 -0.0566,0.0114 -0.11758,0.0182 -0.18309,0.0197 l 0,0.30238 c 0.10262,0 0.19748,-0.0136 0.28515,-0.0413 0.0875,-0.0273 0.16302,-0.0684 0.22664,-0.12308 0.0636,-0.0547 0.11361,-0.12155 0.14977,-0.20032 0.0362,-0.0786 0.0543,-0.16984 0.0543,-0.27417 0,-0.11323 -0.0186,-0.20771 -0.0559,-0.28364 z m -1.83682,1.74916 1.3095,0 0,0.45612 0.23857,0 c 0,-0.0636 0.005,-0.12553 0.0159,-0.18555 0.0104,-0.06 0.028,-0.11437 0.0528,-0.16303 0.0248,-0.0487 0.0566,-0.0901 0.0954,-0.12477 0.0388,-0.0343 0.0865,-0.0568 0.14314,-0.0674 l 0,-0.24671 -1.85537,0 0,0.33135 z m 18.51889,1.89513 c 0.0625,-0.3465 0.0303,-0.59832 0.0303,-0.59832 0,0 -20.25459,1.09061 -20.98546,1.07168 -1.3254,-0.0303 -1.70409,-1.0092 -1.29321,-1.73438 0.40898,-0.72708 2.9973,-4.54424 2.9973,-4.54424 0,0 19.06174,0.017 20.8605,0.0947 8.14175,0.3465 12.93781,7.54154 13.3165,11.6749 -3.59752,-4.03869 -5.20694,-5.89993 -14.92592,-5.96431"
         style="fill:#ffffff;fill-opacity:1;fill-rule:nonzero;stroke:none"
         id="path62"
         inkscape:connector-curvature="0" /><path
         d="m 205.79484,187.87563 0.81644,0 0,0.005 -0.81644,0.55648 0,-0.56178"
         style="fill:#ffffff;fill-opacity:1;fill-rule:nonzero;stroke:none"
         id="path64"
         inkscape:connector-curvature="0" /><path
         d="m 220.66811,191.36409 0.18935,0.16662 24.33058,0.0947 0.31621,-0.2291 -24.83614,-0.0322 z m 4.73358,-3.3135 -1.6416,0.0322 -0.0947,-0.34839 -5.83744,-0.0625 0,-0.47336 c 0,0 -8.39358,0.0549 -8.58293,0.0549 -0.18934,0 -0.50554,0.0871 -0.50554,0.59264 l 0,1.16636 c 0,0.50554 0.3162,0.59264 0.50554,0.59264 0.18935,0 8.58293,0.0549 8.58293,0.0549 l 0,-0.47336 5.8223,-0.0625 0.10982,-0.34839 1.6416,0.0322 0,-0.75737 z m -18.43009,1.02339 -1.85537,0 0,0.33135 1.3095,0 0,0.45594 0.23857,0 c 0,-0.0636 0.005,-0.12534 0.0159,-0.18536 0.0104,-0.0602 0.028,-0.11456 0.0528,-0.16322 0.0248,-0.0487 0.0566,-0.0899 0.0954,-0.12459 0.0388,-0.0345 0.0865,-0.057 0.14314,-0.0674 l 0,-0.24672 z m 0,-1.48463 -1.17676,0 0,-0.23858 -0.23858,0 0,0.23858 -0.44003,0 0,0.28628 0.44003,0 0,0.79524 0.29935,0 1.11599,-0.79524 0,-0.28628 z m 39.22564,3.77474 -1.35569,0.85204 -24.14125,-0.0625 c 0,0 -0.3162,-0.63241 -0.85204,-0.78956 -0.53774,-0.15716 -4.70328,-0.78956 -6.72168,-0.60022 -2.02029,0.18934 -6.65977,1.29511 -8.17451,1.3254 -1.51475,0.0322 -2.90263,-0.21963 -3.21883,-0.6627 -0.31621,-0.44117 -0.53584,-1.07168 -0.18935,-1.57723 0.3465,-0.50554 2.80796,-4.48175 2.80796,-4.48175 0,0 37.33335,0.18935 39.03743,0.15905 1.70409,-0.0322 3.97621,3.78686 2.80796,5.83745"
         style="fill:#ffffff;fill-opacity:1;fill-rule:nonzero;stroke:none"
         id="path66"
         inkscape:connector-curvature="0" /><path
         d="m 237.59349,178.60236 c -0.0776,0.1174 -0.16094,0.231 -0.24804,0.34082 l -0.13443,0.15905 -0.14201,0.15337 c -0.10035,0.0985 -0.2007,0.19313 -0.31052,0.27833 -0.0511,0.0454 -0.10793,0.0852 -0.16473,0.12308 -0.0587,0.0379 -0.11171,0.0814 -0.17419,0.1136 l -0.17799,0.10414 -0.18555,0.0852 c -0.0625,0.0322 -0.12686,0.0549 -0.19124,0.0757 -0.0663,0.0208 -0.12875,0.0454 -0.19502,0.0644 l -0.20071,0.0454 c -0.0322,0.008 -0.0682,0.0189 -0.0966,0.0227 l -0.10603,0.0133 -0.41845,0.0587 c -0.14012,0.0265 -0.27834,0.0265 -0.41845,0.0417 -0.13822,0.009 -0.27644,0.0284 -0.41656,0.0303 l -0.42034,0.017 c -0.14011,0.006 -0.28022,-0.002 -0.42034,0.002 -0.14201,0.004 -0.28212,0 -0.42223,-0.004 -0.14012,-0.002 -0.28213,-0.008 -0.42224,-0.017 -0.14011,-0.008 -0.28023,-0.0189 -0.42034,-0.0284 l -0.0265,-0.002 -0.009,0.0189 c -0.12686,0.21585 -0.2575,0.4317 -0.37868,0.65134 0.14579,-0.19502 0.28591,-0.39383 0.42791,-0.59075 0.27455,0.0492 0.5472,0.0757 0.82175,0.0985 0.14201,0.0114 0.28402,0.0227 0.42602,0.0265 0.14201,0.008 0.28402,0.0132 0.42603,0.0132 l 0.42602,-0.006 c 0.14201,0.002 0.28591,-0.017 0.42791,-0.0265 0.14201,-0.0132 0.28781,-0.0132 0.42603,-0.0379 l 0.41844,-0.0625 0.10604,-0.0152 c 0.0398,-0.006 0.0719,-0.0152 0.10792,-0.0246 l 0.21207,-0.0511 c 0.0701,-0.0189 0.13822,-0.0492 0.20638,-0.0738 0.0682,-0.0227 0.13633,-0.0492 0.2007,-0.0833 0.0644,-0.0341 0.13065,-0.0644 0.19503,-0.0985 l 0.18366,-0.1155 c 0.0625,-0.036 0.11739,-0.0852 0.17609,-0.12875 0.0568,-0.0417 0.1136,-0.0871 0.16473,-0.13822 0.10982,-0.0928 0.20827,-0.19881 0.30484,-0.30484 0.0928,-0.10793 0.18366,-0.21964 0.26319,-0.33893 0.15715,-0.23668 0.29537,-0.4885 0.39004,-0.75548 -0.0625,0.12686 -0.13443,0.24804 -0.21017,0.36543 z m -12.1918,1.49582 -1.6416,0.0322 -0.0947,-0.34839 -5.83744,-0.0625 0,-0.47336 c 0,0 -8.39358,0.0549 -8.58293,0.0549 -0.18934,0 -0.50554,0.0871 -0.50554,0.59264 l 0,1.16636 c 0,0.50554 0.3162,0.59264 0.50554,0.59264 0.18935,0 8.58293,0.0549 8.58293,0.0549 l 0,-0.47336 5.8223,-0.0625 0.10982,-0.34839 1.6416,0.0322 0,-0.75737 z m -18.43009,0.8971 -1.85537,0 0,0.33135 1.3095,0 0,0.45613 0.23857,0 c 0,-0.0636 0.005,-0.12553 0.0159,-0.18556 0.0104,-0.06 0.028,-0.11436 0.0528,-0.16302 0.0248,-0.0487 0.0566,-0.0901 0.0954,-0.12478 0.0388,-0.0343 0.0865,-0.0568 0.14314,-0.0674 l 0,-0.24672 z m 0,-1.6594 -0.27038,0 0,0.73427 -0.47184,0.0952 -0.005,-0.005 c 0.0458,-0.0407 0.0807,-0.0924 0.10451,-0.15507 0.0239,-0.0627 0.036,-0.12497 0.036,-0.18688 0,-0.092 -0.0155,-0.17401 -0.0464,-0.24653 -0.0309,-0.0725 -0.0742,-0.13349 -0.13008,-0.1829 -0.0555,-0.0496 -0.12137,-0.0871 -0.19748,-0.11285 -0.0757,-0.0256 -0.15811,-0.0383 -0.24653,-0.0383 -0.074,0 -0.15053,0.0119 -0.22929,0.0358 -0.0786,0.0238 -0.15015,0.0619 -0.21453,0.11398 -0.0646,0.0521 -0.11758,0.11872 -0.15905,0.20014 -0.0417,0.0812 -0.0623,0.17836 -0.0623,0.29158 0,0.0899 0.0119,0.17363 0.0356,0.25051 0.024,0.0767 0.0598,0.14446 0.10755,0.20259 0.0477,0.0585 0.10622,0.1049 0.17609,0.13936 0.0699,0.0343 0.15166,0.0534 0.2452,0.0568 l 0,-0.302 c -0.10054,-0.009 -0.17779,-0.0434 -0.23176,-0.10338 -0.0541,-0.0602 -0.081,-0.13955 -0.081,-0.23857 0,-0.0636 0.0106,-0.11759 0.0318,-0.1617 0.0214,-0.0443 0.0504,-0.0799 0.0877,-0.10755 0.0369,-0.0273 0.0803,-0.0468 0.1297,-0.0581 0.0496,-0.0115 0.10244,-0.0172 0.15905,-0.0172 0.0515,0 0.10035,0.007 0.14712,0.0212 0.047,0.014 0.088,0.0354 0.12326,0.0636 0.0354,0.0282 0.0638,0.0649 0.085,0.11001 0.021,0.0449 0.0318,0.0977 0.0318,0.15772 0,0.0636 -0.0119,0.12307 -0.0358,0.17874 -0.0239,0.0557 -0.0685,0.096 -0.13387,0.1208 l 0,0.30219 1.01507,-0.19881 0,-0.95959 z m 27.61323,1.83587 c -1.9881,0.0303 -6.18584,-0.0322 -6.18584,-0.0322 l -2.05058,2.05059 c 0,0 -23.57379,-0.0947 -24.45802,-0.12497 -0.88234,-0.0322 -0.81985,-0.56803 -0.6627,-0.91642 0.15905,-0.3465 2.6508,-4.29051 2.6508,-4.29051 l 34.93437,0.12496 c -0.44117,2.24183 -2.23993,3.15635 -4.22803,3.18854"
         style="fill:#ffffff;fill-opacity:1;fill-rule:nonzero;stroke:none"
         id="path68"
         inkscape:connector-curvature="0" /><path
         d="m 239.6668,170.33924 c 0,0 -0.29727,0.28231 -0.81418,0.6042 -0.13064,0.0795 -0.27454,0.16283 -0.42791,0.24236 -0.15716,0.0795 -0.32378,0.15526 -0.50176,0.22531 -0.17798,0.0663 -0.36354,0.12876 -0.55856,0.17609 -0.19313,0.0455 -0.39384,0.0795 -0.59454,0.0966 -0.40709,0.0284 -0.81228,0.0587 -1.19286,0.0852 -0.19124,0.0152 -0.3749,0.0284 -0.5491,0.0398 -0.17419,0.0114 -0.33892,0.0284 -0.49229,0.0341 -0.60968,0.0189 -1.01677,0.0341 -1.01677,0.0341 l 0.002,0.017 c 0,0.002 0.10035,0.0114 0.28023,0.0227 0.17798,0.009 0.43549,0.0322 0.74223,0.0379 0.15526,0.002 0.31999,-0.004 0.49418,-0.006 0.17609,-0.002 0.36165,-0.002 0.55099,-0.0152 0.38058,-0.0208 0.78767,-0.0416 1.19475,-0.0625 0.21586,-0.0189 0.42224,-0.0606 0.62484,-0.11361 0.2007,-0.053 0.39383,-0.12118 0.5756,-0.19313 0.0909,-0.0398 0.17988,-0.0776 0.26319,-0.11928 0.0833,-0.0454 0.16283,-0.0909 0.24236,-0.13444 0.15336,-0.0909 0.29537,-0.18177 0.42223,-0.27076 0.12875,-0.089 0.23857,-0.17798 0.33324,-0.26129 0.0947,-0.0833 0.17609,-0.15716 0.24047,-0.21794 0.13065,-0.12686 0.19502,-0.20619 0.19502,-0.20619 l -0.0132,-0.0153 z m -14.26511,0.85981 -1.6416,0.0322 -0.0947,-0.34839 -5.83744,-0.0623 0,-0.47335 c 0,0 -8.39358,0.0547 -8.58293,0.0547 -0.18934,0 -0.50554,0.0873 -0.50554,0.59264 l 0,1.16635 c 0,0.50555 0.3162,0.59265 0.50554,0.59265 0.18935,0 8.58293,0.0549 8.58293,0.0549 l 0,-0.47336 5.8223,-0.0625 0.10982,-0.3484 1.6416,0.0322 0,-0.75737 z m -18.37594,-1.0003 c -0.029,-0.0935 -0.0714,-0.1759 -0.12723,-0.24766 -0.0555,-0.0714 -0.12308,-0.12951 -0.2026,-0.17344 -0.0795,-0.0445 -0.1706,-0.0718 -0.27322,-0.0822 l 0,0.33135 c 0.0549,0.014 0.10527,0.0333 0.15109,0.0581 0.0458,0.0248 0.0858,0.0566 0.11948,0.0954 0.0335,0.0388 0.0596,0.0846 0.078,0.13633 0.0186,0.0523 0.028,0.11285 0.028,0.18158 0,0.10111 -0.0204,0.18802 -0.0612,0.26111 -0.0405,0.0736 -0.0949,0.1331 -0.16283,0.17911 -0.068,0.046 -0.14542,0.0801 -0.23195,0.10206 -0.0867,0.0222 -0.17495,0.0331 -0.26508,0.0331 -0.0901,0 -0.17855,-0.011 -0.26508,-0.0331 -0.0865,-0.022 -0.16397,-0.056 -0.23194,-0.10206 -0.068,-0.046 -0.12232,-0.10546 -0.16303,-0.17911 -0.0407,-0.0731 -0.061,-0.16 -0.061,-0.26111 0,-0.0738 0.0129,-0.13936 0.0384,-0.19597 0.0254,-0.0566 0.061,-0.10508 0.10603,-0.1456 0.0449,-0.0407 0.0977,-0.0725 0.15754,-0.0954 0.0602,-0.0229 0.12458,-0.0381 0.19369,-0.0453 l 0,-0.32358 c -0.11322,0.007 -0.2166,0.0314 -0.31014,0.0729 -0.0937,0.0418 -0.17457,0.0981 -0.24255,0.16871 -0.0682,0.0706 -0.12061,0.15337 -0.15772,0.2488 -0.0373,0.0954 -0.0557,0.20089 -0.0557,0.31544 0,0.14163 0.0259,0.26849 0.078,0.38058 0.0521,0.11228 0.12345,0.20714 0.21339,0.28496 0.0901,0.0778 0.19521,0.13747 0.31545,0.17893 0.12023,0.0417 0.24841,0.0623 0.38455,0.0623 0.13425,0 0.26148,-0.0206 0.38172,-0.0623 0.12004,-0.0415 0.22513,-0.10111 0.31544,-0.17893 0.0899,-0.0778 0.16151,-0.17268 0.21472,-0.28496 0.053,-0.11209 0.0793,-0.23895 0.0793,-0.38058 0,-0.10565 -0.0146,-0.20563 -0.0437,-0.29954 z m -1.89532,2.21853 c 0.0241,0.0767 0.0598,0.14428 0.10755,0.2026 0.0477,0.0585 0.10622,0.1049 0.17609,0.13917 0.0699,0.0345 0.15166,0.0536 0.2452,0.057 l 0,-0.30219 c -0.10055,-0.009 -0.1778,-0.0432 -0.23176,-0.10338 -0.0542,-0.06 -0.081,-0.13955 -0.081,-0.23839 0,-0.0636 0.0108,-0.11758 0.0318,-0.16188 0.0214,-0.0441 0.0504,-0.0799 0.0877,-0.10736 0.0369,-0.0275 0.0803,-0.0468 0.1297,-0.0583 0.0496,-0.0114 0.10243,-0.0172 0.15904,-0.0172 0.0515,0 0.10036,0.007 0.14712,0.0214 0.047,0.014 0.088,0.0352 0.12327,0.0636 0.0354,0.0282 0.0638,0.0648 0.085,0.11 0.021,0.0449 0.0318,0.0975 0.0318,0.15773 0,0.0636 -0.0119,0.12307 -0.0358,0.17874 -0.0239,0.0557 -0.0686,0.096 -0.13387,0.1208 l 0,0.302 1.01507,-0.19862 0,-0.95978 -0.27038,0 0,0.73427 -0.47185,0.0954 -0.005,-0.005 c 0.0458,-0.0407 0.0807,-0.0926 0.10452,-0.15526 0.0239,-0.0627 0.036,-0.12497 0.036,-0.18689 0,-0.0918 -0.0155,-0.174 -0.0464,-0.24652 -0.0309,-0.0723 -0.0742,-0.13349 -0.13007,-0.18272 -0.0555,-0.0496 -0.12137,-0.0871 -0.19749,-0.11284 -0.0757,-0.0256 -0.1581,-0.0382 -0.24652,-0.0382 -0.074,0 -0.15053,0.0117 -0.2293,0.0356 -0.0786,0.0239 -0.15015,0.0619 -0.21452,0.11418 -0.0646,0.0521 -0.11759,0.11872 -0.15905,0.19994 -0.0417,0.0814 -0.0623,0.17856 -0.0623,0.29159 0,0.0901 0.0119,0.17363 0.0356,0.25069 z m 0.002,1.13057 1.30949,0 0,0.45613 0.23857,0 c 0,-0.0636 0.005,-0.12554 0.0159,-0.18556 0.0104,-0.06 0.028,-0.11436 0.0528,-0.16302 0.0248,-0.0487 0.0566,-0.0901 0.0954,-0.12478 0.0388,-0.0343 0.0865,-0.0568 0.14315,-0.0674 l 0,-0.24671 -1.85537,0 0,0.33135 z m 28.26949,-0.78672 c -0.71004,-1.27807 -1.75143,-1.96368 -3.21884,-1.7287 -1.25534,0.2026 -2.36678,1.066 -2.3914,2.72086 -5.91508,0.35596 -23.64384,1.33676 -24.94463,1.39924 -0.99594,0.0454 -1.75331,-0.71193 -1.35001,-1.82337 0.15715,-0.4317 2.58074,-4.21269 2.58074,-4.21269 0,0 11.69061,0 14.41337,0 2.72275,0 13.46608,0.0225 15.14745,0.16624 1.68136,0.1403 5.8223,0.53224 7.12308,1.14761 -1.46551,1.96348 -4.2356,2.54477 -7.35976,2.33081"
         style="fill:#ffffff;fill-opacity:1;fill-rule:nonzero;stroke:none"
         id="path70"
         inkscape:connector-curvature="0" /><path
         d="m 237.30758,162.89844 c -0.0871,0.10016 -0.17608,0.19673 -0.27076,0.28572 -0.0966,0.089 -0.19881,0.17249 -0.30484,0.24614 -0.10603,0.0739 -0.21964,0.13993 -0.33514,0.19881 l -0.17608,0.0814 c -0.0511,0.0187 -0.12308,0.0417 -0.18367,0.0606 -0.12686,0.0303 -0.24425,0.0568 -0.37679,0.0701 -0.13065,0.0191 -0.26129,0.0301 -0.39194,0.0398 -0.26319,0.0189 -0.52827,0.0227 -0.79335,0.0286 -0.26697,0 -0.53205,-0.002 -0.79713,-0.008 -0.53206,-0.0152 -1.066,-0.0282 -1.59806,-0.0625 l -0.0246,-0.002 -0.0133,0.0169 c -0.19502,0.23876 -0.39194,0.47544 -0.58128,0.71799 0.21585,-0.20847 0.42223,-0.42602 0.63241,-0.63846 0.52258,0.0625 1.05085,0.11777 1.57722,0.1403 0.26887,0.0152 0.53584,0.0189 0.80471,0.0208 0.26887,0 0.53774,-0.008 0.8066,-0.0303 0.13444,-0.0114 0.26887,-0.0227 0.4033,-0.0453 0.13254,-0.017 0.27644,-0.0534 0.40709,-0.0892 0.0663,-0.0225 0.12118,-0.0398 0.19503,-0.0699 l 0.18366,-0.0947 c 0.11739,-0.0702 0.23289,-0.14409 0.33892,-0.22929 0.10793,-0.085 0.20828,-0.17609 0.30484,-0.27436 0.0928,-0.0986 0.18177,-0.20279 0.25751,-0.3145 0.15148,-0.22324 0.28402,-0.462 0.35975,-0.71951 -0.10982,0.24445 -0.25561,0.46768 -0.42413,0.67047 z m -12.09523,0.15905 -1.64161,0.032 -0.0947,-0.34821 -5.83745,-0.0625 0,-0.47336 c 0,0 -8.39358,0.0547 -8.58292,0.0547 -0.18934,0 -0.50554,0.0873 -0.50554,0.59265 l 0,1.16654 c 0,0.50555 0.3162,0.59226 0.50554,0.59226 0.18934,0 8.58292,0.0553 8.58292,0.0553 l 0,-0.47335 5.8223,-0.0627 0.10982,-0.3482 1.64161,0.0322 0,-0.75737 z m -18.20345,-1.41799 -0.28647,0 0,0.60173 -1.6062,0 0,0.33135 1.6062,0 0,0.59908 0.28647,0 0,-1.53216 z m -1.89419,2.46221 c 0.024,0.0769 0.0598,0.14466 0.10755,0.2026 0.0477,0.0585 0.10622,0.10509 0.17609,0.13955 0.0699,0.0343 0.15166,0.0532 0.2452,0.057 l 0,-0.30219 c -0.10054,-0.009 -0.17779,-0.0434 -0.23176,-0.10357 -0.0541,-0.0598 -0.081,-0.13936 -0.081,-0.23858 0,-0.0636 0.0106,-0.11758 0.0318,-0.16151 0.0214,-0.0445 0.0504,-0.0799 0.0877,-0.10773 0.0369,-0.0273 0.0803,-0.0466 0.1297,-0.0579 0.0496,-0.0115 0.10244,-0.0174 0.15905,-0.0174 0.0515,0 0.10035,0.007 0.14712,0.0214 0.047,0.014 0.088,0.0352 0.12326,0.0636 0.0354,0.0282 0.0638,0.0648 0.085,0.10982 0.021,0.0451 0.0318,0.0977 0.0318,0.15792 0,0.0636 -0.0119,0.12326 -0.0358,0.17874 -0.0239,0.0557 -0.0685,0.096 -0.13387,0.1208 l 0,0.30219 1.01507,-0.199 0,-0.95959 -0.27038,0 0,0.73446 -0.47184,0.0954 -0.005,-0.005 c 0.0458,-0.0407 0.0807,-0.0924 0.10451,-0.15526 0.0239,-0.0625 0.036,-0.12497 0.036,-0.1867 0,-0.0922 -0.0155,-0.17419 -0.0464,-0.24671 -0.0309,-0.0725 -0.0742,-0.13349 -0.13008,-0.18272 -0.0555,-0.0496 -0.12137,-0.0873 -0.19748,-0.11284 -0.0757,-0.0254 -0.15811,-0.0384 -0.24653,-0.0384 -0.074,0 -0.15053,0.0119 -0.22929,0.036 -0.0786,0.0237 -0.15015,0.0617 -0.21453,0.1138 -0.0646,0.0523 -0.11758,0.11872 -0.15905,0.20013 -0.0417,0.0814 -0.0623,0.17855 -0.0623,0.29178 0,0.0897 0.0119,0.17344 0.0356,0.25031 z m 0.002,1.13095 1.3095,0 0,0.45594 0.23857,0 c 0,-0.0636 0.005,-0.12535 0.0159,-0.18556 0.0104,-0.06 0.028,-0.11436 0.0528,-0.16321 0.0248,-0.0485 0.0566,-0.0898 0.0954,-0.12459 0.0388,-0.0345 0.0865,-0.057 0.14314,-0.0672 l 0,-0.24671 -1.85537,0 0,0.33135 z m 27.06962,-0.31393 c -1.29321,-0.0625 -4.29051,0.0322 -4.29051,0.0322 l -1.23073,1.3574 c 0,0 -23.63816,-0.032 -24.58488,-0.0642 -0.94671,-0.0305 -0.94671,-0.91453 -0.81985,-1.19854 0.12686,-0.28402 2.74547,-4.10307 2.74547,-4.10307 0,0 3.72495,0.15886 7.06875,0.12686 3.34569,-0.0322 20.10256,0.18935 21.99599,0.18935 1.89343,0 4.9551,0.53584 5.49095,1.16805 -0.72519,3.15465 -5.08008,2.55614 -6.37519,2.49195"
         style="fill:#ffffff;fill-opacity:1;fill-rule:nonzero;stroke:none"
         id="path72"
         inkscape:connector-curvature="0" /><path
         d="m 206.54482,154.60616 c -0.0653,0.0256 -0.14087,0.0436 -0.22645,0.0543 -0.0858,0.0106 -0.17742,0.0159 -0.27455,0.0159 -0.0969,0 -0.18915,-0.005 -0.27568,-0.0159 -0.0865,-0.0108 -0.16208,-0.0288 -0.22665,-0.0543 -0.0644,-0.0256 -0.11568,-0.06 -0.15355,-0.10319 -0.0381,-0.0434 -0.0572,-0.0988 -0.0572,-0.16568 0,-0.0655 0.0191,-0.12023 0.0572,-0.16454 0.0379,-0.0441 0.0892,-0.0791 0.15355,-0.10471 0.0646,-0.0256 0.14012,-0.0437 0.22665,-0.0543 0.0865,-0.0108 0.17874,-0.0159 0.27568,-0.0159 0.0971,0 0.18878,0.005 0.27455,0.0159 0.0856,0.0106 0.16113,0.0288 0.22645,0.0543 0.0655,0.0256 0.11721,0.0606 0.15526,0.10471 0.0377,0.0443 0.057,0.099 0.057,0.16454 0,0.0668 -0.0193,0.12232 -0.057,0.16568 -0.0381,0.0432 -0.0897,0.0776 -0.15526,0.10319"
         style="fill:#ffffff;fill-opacity:1;fill-rule:nonzero;stroke:none"
         id="path74"
         inkscape:connector-curvature="0" /><path
         d="m 234.31028,153.3688 c -0.0814,0.12288 -0.17419,0.25921 -0.27265,0.4069 -0.10414,0.14409 -0.21775,0.29916 -0.34082,0.46578 -0.25182,0.32586 -0.54152,0.69111 -0.8937,1.05654 -0.16473,0.19313 -0.36354,0.36543 -0.56424,0.55288 -0.19313,0.19124 -0.41655,0.36354 -0.64566,0.54531 -0.0568,0.0454 -0.11361,0.0907 -0.1723,0.13632 -0.0606,0.0417 -0.12118,0.0854 -0.18177,0.12667 -0.12118,0.0856 -0.24615,0.1706 -0.37111,0.2577 -0.26319,0.15148 -0.52448,0.32188 -0.81418,0.44874 -0.56992,0.27247 -1.20233,0.46389 -1.86314,0.52259 l -0.24803,0.0227 -0.25183,0.002 c -0.16662,0 -0.33514,0.002 -0.50365,0.002 -0.33703,0.002 -0.67596,0.006 -1.01488,0.007 -1.3557,0.0135 -2.7095,0.0267 -3.97999,0.04 -1.2705,0.0151 -2.43874,0.0114 -3.45552,0.017 -2.03165,0.005 -3.3703,0.009 -3.3703,0.009 0,0 1.56018,0.13444 1.97485,0.15507 0.41276,0.0229 0.87665,0.0473 1.38599,0.0589 0.50933,0.017 1.05842,0.0341 1.6416,0.0509 0.58318,0.0191 1.19854,0.04 1.83284,0.04 0.6362,0.004 1.29132,0.0151 1.9597,0.0114 0.66649,-0.002 1.34434,-0.004 2.02029,-0.004 0.33893,-0.005 0.67785,-0.009 1.01488,-0.0152 0.16852,-0.002 0.33703,-0.004 0.50555,-0.005 l 0.24993,-0.004 c 0.10414,-0.008 0.18177,-0.017 0.27266,-0.0248 0.70435,-0.0644 1.37841,-0.2897 1.97106,-0.58507 0.30295,-0.14201 0.57371,-0.3181 0.84257,-0.4868 0.12686,-0.0964 0.25372,-0.18934 0.37869,-0.28193 0.0625,-0.0473 0.12307,-0.0928 0.18556,-0.13803 0.0549,-0.0494 0.11171,-0.0968 0.16662,-0.14409 0.10982,-0.0947 0.21964,-0.18727 0.32756,-0.28004 0.12118,-0.0966 0.20828,-0.2009 0.31242,-0.29935 0.19881,-0.19711 0.39573,-0.38248 0.55856,-0.58489 0.34839,-0.38266 0.62105,-0.76892 0.85772,-1.11182 0.11361,-0.1759 0.21964,-0.33873 0.3181,-0.49021 0.0928,-0.15545 0.17609,-0.29746 0.25183,-0.42602 0.142,-0.24615 0.36922,-0.79335 0.39194,-0.84826 -0.009,0.0152 -0.0492,0.0871 -0.11739,0.20847 -0.0776,0.13803 -0.20071,0.33495 -0.35976,0.58507 z m -9.09793,1.16825 -1.64161,0.032 -0.0947,-0.34821 -5.83745,-0.0625 0,-0.47336 c 0,0 -8.39358,0.0547 -8.58292,0.0547 -0.18934,0 -0.50554,0.0873 -0.50554,0.59265 l 0,1.16654 c 0,0.50555 0.3162,0.59227 0.50554,0.59227 0.18934,0 8.58292,0.0553 8.58292,0.0553 l 0,-0.47335 5.8223,-0.0627 0.10982,-0.3482 1.64161,0.0322 0,-0.75737 z m -18.2593,0.89086 c -0.0369,-0.0759 -0.0839,-0.13728 -0.1405,-0.18423 -0.0566,-0.047 -0.11796,-0.0799 -0.18423,-0.0994 -0.0661,-0.0193 -0.12932,-0.0293 -0.18953,-0.0293 -0.074,0 -0.14144,0.0115 -0.20127,0.0345 -0.0602,0.0233 -0.11531,0.054 -0.16568,0.0928 -0.0506,0.0388 -0.0969,0.0833 -0.13916,0.13273 -0.0424,0.0496 -0.0824,0.10073 -0.11929,0.15356 -0.0373,0.0532 -0.0725,0.10603 -0.10622,0.15942 -0.0335,0.0528 -0.067,0.10168 -0.10054,0.14675 -0.0337,0.0451 -0.0685,0.0846 -0.10471,0.11796 -0.0362,0.0337 -0.0746,0.0566 -0.11531,0.0691 l 0,-0.90412 -0.27038,0 0,1.26728 c 0.15375,-0.002 0.28799,-0.0388 0.40273,-0.11134 0.11493,-0.0723 0.21491,-0.17154 0.29954,-0.29689 0.0443,-0.0602 0.0871,-0.12269 0.12876,-0.1882 0.0413,-0.0655 0.0862,-0.12535 0.13386,-0.18045 0.0477,-0.0547 0.0994,-0.0996 0.15488,-0.135 0.0559,-0.0356 0.11986,-0.054 0.19238,-0.0559 0.0335,0 0.0693,0.004 0.10717,0.0121 0.038,0.008 0.0735,0.0233 0.10622,0.0464 0.0326,0.0229 0.0598,0.0547 0.082,0.0952 0.0222,0.0407 0.0333,0.0937 0.0333,0.15905 0,0.0604 -0.0119,0.1102 -0.0358,0.14977 -0.0239,0.04 -0.0566,0.0718 -0.0981,0.0954 -0.0417,0.024 -0.0905,0.0418 -0.14712,0.0532 -0.0566,0.0115 -0.11758,0.0182 -0.18309,0.0197 l 0,0.30257 c 0.10262,0 0.19748,-0.0138 0.28515,-0.0415 0.0875,-0.0275 0.16302,-0.0684 0.22664,-0.12326 0.0636,-0.0547 0.11361,-0.12118 0.14977,-0.19995 0.0362,-0.0788 0.0543,-0.17022 0.0543,-0.27436 0,-0.11322 -0.0186,-0.20752 -0.0559,-0.28363 z m -0.0356,-1.41572 c -0.0612,-0.0835 -0.13898,-0.14901 -0.23346,-0.19597 -0.0945,-0.047 -0.19843,-0.0788 -0.31128,-0.0954 -0.11323,-0.0167 -0.22286,-0.0252 -0.32889,-0.0252 -0.10584,0 -0.21547,0.009 -0.32851,0.0252 -0.11323,0.0167 -0.21699,0.0485 -0.31147,0.0954 -0.0945,0.047 -0.17249,0.11247 -0.23327,0.19597 -0.061,0.0839 -0.0915,0.19237 -0.0915,0.3251 0,0.13235 0.0305,0.24066 0.0915,0.32472 0.0608,0.0839 0.13879,0.14902 0.23327,0.19597 0.0945,0.047 0.19824,0.0788 0.31147,0.0954 0.11304,0.017 0.22267,0.0252 0.32851,0.0252 0.10603,0 0.21566,-0.008 0.32889,-0.0252 0.11285,-0.0167 0.2168,-0.0485 0.31128,-0.0954 0.0945,-0.047 0.1723,-0.11209 0.23346,-0.19597 0.0608,-0.0841 0.0915,-0.19237 0.0915,-0.32472 0,-0.13273 -0.0307,-0.24122 -0.0915,-0.3251 z m 21.57621,4.69041 c -2.90263,0.0947 -13.22182,-0.0322 -13.22182,-0.0322 0,0 -0.28402,-0.72519 -0.78957,-0.88253 -0.50365,-0.15886 -3.59751,-0.85204 -5.77496,-0.82156 -2.17801,0.0322 -6.78473,1.13606 -7.85831,0.94671 -0.12496,-0.12515 -0.0625,-0.34649 -0.0625,-0.34649 l 2.93482,-4.76577 c 0,0 4.35546,0.18934 5.58619,0.0947 1.23073,-0.0947 9.6565,-0.91452 13.3165,-0.9772 3.66189,-0.0642 13.00219,0.47336 13.00219,0.47336 -0.56803,2.55613 -4.22803,6.21632 -7.13256,6.311"
         style="fill:#ffffff;fill-opacity:1;fill-rule:nonzero;stroke:none"
         id="path76"
         inkscape:connector-curvature="0" /><path
         d="m 240.62109,143.2274 c -0.0606,0.15526 -0.16094,0.38417 -0.30674,0.66459 -0.2878,0.56614 -0.78198,1.34415 -1.53557,2.14147 -0.37679,0.39951 -0.82743,0.79145 -1.33298,1.16825 -0.2594,0.18764 -0.52448,0.39572 -0.80092,0.57371 -0.13822,0.0909 -0.27833,0.18555 -0.42034,0.27833 -0.14201,0.093 -0.29348,0.1742 -0.44117,0.26319 -0.29348,0.18366 -0.61347,0.32567 -0.93157,0.48282 -0.15904,0.0795 -0.33135,0.13065 -0.49607,0.19711 -0.16852,0.0623 -0.33514,0.13595 -0.51123,0.1759 -0.1742,0.0492 -0.34839,0.0966 -0.52448,0.14579 -0.17609,0.0473 -0.35975,0.068 -0.53963,0.10225 -0.35786,0.0795 -0.72897,0.0968 -1.09819,0.13254 -0.73465,0.036 -1.49392,0.0341 -2.22478,0.0134 -0.73465,-0.0115 -1.45984,-0.0418 -2.1604,-0.0684 -0.70247,-0.0246 -1.38032,-0.0625 -2.02408,-0.0907 -0.64188,-0.0343 -1.24967,-0.0646 -1.81202,-0.0947 -2.24371,-0.12137 -3.73952,-0.21964 -3.73952,-0.21964 0,0 1.49202,0.13235 3.73384,0.30825 0.56046,0.0419 1.16825,0.0892 1.81012,0.13652 0.64188,0.0454 1.31973,0.0985 2.02219,0.13841 0.70057,0.0452 1.42575,0.0907 2.16608,0.12099 0.74412,0.0379 1.48256,0.0587 2.24372,0.0379 0.37868,-0.0265 0.75926,-0.036 1.13227,-0.10793 0.18745,-0.0322 0.37679,-0.0492 0.56046,-0.0928 0.18366,-0.0473 0.36732,-0.0928 0.54909,-0.13841 0.18556,-0.0377 0.35786,-0.10982 0.53395,-0.17022 0.17419,-0.0665 0.35596,-0.1155 0.52259,-0.19332 0.33324,-0.15507 0.67027,-0.29519 0.97701,-0.47696 0.15526,-0.089 0.31431,-0.1687 0.46389,-0.26129 0.14768,-0.0928 0.29348,-0.18537 0.43927,-0.27834 0.29727,-0.17987 0.55667,-0.37679 0.82364,-0.56064 0.53585,-0.37869 1.01678,-0.77801 1.42197,-1.18699 0.81039,-0.81796 1.35191,-1.62646 1.6719,-2.22119 0.16284,-0.29518 0.27644,-0.53754 0.3465,-0.70795 0.036,-0.0852 0.0625,-0.14958 0.0795,-0.19881 0.017,-0.0473 0.0246,-0.0701 0.0246,-0.0701 0,0 -0.56235,-0.10035 -0.62294,0.0568 z m -15.59809,1.46381 -1.6416,0.032 -0.0947,-0.34821 -5.83745,-0.0625 0,-0.47336 c 0,0 -8.39358,0.0547 -8.58292,0.0547 -0.18934,0 -0.50555,0.0873 -0.50555,0.59265 l 0,1.16654 c 0,0.50555 0.31621,0.59226 0.50555,0.59226 0.18934,0 8.58292,0.0553 8.58292,0.0553 l 0,-0.47335 5.8223,-0.0627 0.10982,-0.3482 1.6416,0.0322 0,-0.75737 z m -18.06995,0.84788 c -0.0369,-0.0759 -0.0839,-0.13747 -0.1405,-0.18443 -0.0566,-0.0468 -0.11796,-0.0797 -0.18423,-0.0992 -0.0661,-0.0195 -0.12932,-0.0292 -0.18953,-0.0292 -0.074,0 -0.14144,0.0114 -0.20127,0.0343 -0.0602,0.0231 -0.11531,0.054 -0.16568,0.093 -0.0506,0.0388 -0.0969,0.0829 -0.13916,0.13254 -0.0424,0.0494 -0.0824,0.10073 -0.11929,0.15356 -0.0373,0.0532 -0.0725,0.10622 -0.10622,0.15923 -0.0335,0.0528 -0.067,0.10187 -0.10054,0.14693 -0.0337,0.0453 -0.0685,0.0846 -0.10471,0.11815 -0.0362,0.0335 -0.0746,0.0564 -0.11531,0.0689 l 0,-0.90412 -0.27038,0 0,1.26728 c 0.15375,-0.002 0.28799,-0.0388 0.40273,-0.11134 0.11493,-0.0725 0.21491,-0.17135 0.29954,-0.29708 0.0443,-0.06 0.0871,-0.12269 0.12876,-0.1882 0.0413,-0.0651 0.0862,-0.12535 0.13386,-0.18026 0.0477,-0.0547 0.0994,-0.0996 0.15488,-0.13519 0.0559,-0.0352 0.11986,-0.0538 0.19238,-0.0557 0.0335,0 0.0693,0.004 0.10717,0.0121 0.038,0.008 0.0735,0.0235 0.10622,0.0464 0.0326,0.0229 0.0598,0.0547 0.082,0.0954 0.0222,0.0407 0.0333,0.0935 0.0333,0.15905 0,0.06 -0.0119,0.11001 -0.0358,0.14977 -0.0239,0.0398 -0.0566,0.0716 -0.0981,0.0954 -0.0417,0.0239 -0.0905,0.0415 -0.14712,0.053 -0.0566,0.0114 -0.11758,0.0182 -0.18309,0.0197 l 0,0.30238 c 0.10262,0 0.19748,-0.0136 0.28515,-0.0413 0.0875,-0.0273 0.16302,-0.0683 0.22664,-0.12308 0.0636,-0.0547 0.11361,-0.12155 0.14977,-0.20032 0.0362,-0.0786 0.0543,-0.16984 0.0543,-0.27417 0,-0.11323 -0.0186,-0.20771 -0.0559,-0.28363 z m 0,-1.40171 c -0.0369,-0.0761 -0.0839,-0.13746 -0.1405,-0.18442 -0.0566,-0.0468 -0.11796,-0.0799 -0.18423,-0.0992 -0.0661,-0.0195 -0.12932,-0.0293 -0.18953,-0.0293 -0.074,0 -0.14144,0.0115 -0.20127,0.0345 -0.0602,0.0231 -0.11531,0.054 -0.16568,0.0928 -0.0506,0.0388 -0.0969,0.0831 -0.13916,0.13254 -0.0424,0.0496 -0.0824,0.10092 -0.11929,0.15375 -0.0373,0.053 -0.0725,0.10622 -0.10622,0.15924 -0.0335,0.0528 -0.067,0.10186 -0.10054,0.14693 -0.0337,0.0451 -0.0685,0.0844 -0.10471,0.11796 -0.0362,0.0337 -0.0746,0.0566 -0.11531,0.0689 l 0,-0.90393 -0.27038,0 0,1.26709 c 0.15375,-0.002 0.28799,-0.0388 0.40273,-0.11115 0.11493,-0.0725 0.21491,-0.17154 0.29954,-0.29707 0.0443,-0.06 0.0871,-0.1227 0.12876,-0.18821 0.0413,-0.0653 0.0862,-0.12535 0.13386,-0.18026 0.0477,-0.0547 0.0994,-0.0996 0.15488,-0.13519 0.0559,-0.0354 0.11986,-0.0538 0.19238,-0.0557 0.0335,0 0.0693,0.004 0.10717,0.0121 0.038,0.008 0.0735,0.0235 0.10622,0.0464 0.0326,0.0229 0.0598,0.0547 0.082,0.0954 0.0222,0.0405 0.0333,0.0935 0.0333,0.15886 0,0.0602 -0.0119,0.11001 -0.0358,0.14977 -0.0239,0.0398 -0.0566,0.0716 -0.0981,0.0954 -0.0417,0.0239 -0.0905,0.0417 -0.14712,0.0532 -0.0566,0.0114 -0.11758,0.018 -0.18309,0.0197 l 0,0.30238 c 0.10262,0 0.19748,-0.0136 0.28515,-0.0413 0.0875,-0.0274 0.16302,-0.0683 0.22664,-0.12307 0.0636,-0.0547 0.11361,-0.12156 0.14977,-0.20033 0.0362,-0.0786 0.0543,-0.16984 0.0543,-0.27417 0,-0.11322 -0.0186,-0.20771 -0.0559,-0.28363 z m 32.36536,2.96795 c -1.60942,1.46741 -4.63891,3.07683 -7.0057,3.26617 -2.36678,0.18934 -12.02328,-0.89938 -14.01139,-1.08872 -1.68136,-0.16113 -3.40817,-0.0473 -3.40817,-0.0473 0,0 -0.0947,-0.85204 -0.61537,-1.04139 -0.52069,-0.18934 -4.16554,-1.13605 -7.8583,-0.52069 -3.69219,0.61537 -4.63891,1.08872 -5.1596,0.89938 -0.52069,-0.18934 -0.71004,-1.04139 -0.0947,-1.89343 0.61536,-0.85204 2.88748,-4.4969 2.88748,-4.4969 0,0 6.72225,-0.0947 9.08904,-0.14201 2.36678,-0.0473 11.97595,-0.23668 15.81014,-0.23668 3.8342,0 13.11201,0.99406 13.11201,0.99406 0,0 -1.04517,2.75664 -2.74547,4.30755"
         style="fill:#ffffff;fill-opacity:1;fill-rule:nonzero;stroke:none"
         id="path78"
         inkscape:connector-curvature="0" /><path
         d="m 235.42741,135.1858 c 0,0 -0.0322,0.0364 -0.0947,0.0947 -0.0625,0.057 -0.1458,0.14409 -0.27266,0.24633 -0.12686,0.10016 -0.26887,0.23479 -0.45821,0.36354 -0.0909,0.0663 -0.18934,0.13841 -0.29159,0.21206 -0.053,0.0379 -0.10603,0.0757 -0.15904,0.1138 -0.0568,0.0358 -0.1155,0.0718 -0.1742,0.10963 -0.11929,0.0736 -0.24425,0.15147 -0.37111,0.2327 -0.12876,0.0816 -0.2613,0.16492 -0.4052,0.23668 -0.28401,0.14977 -0.57939,0.32037 -0.89559,0.47336 -0.32188,0.14598 -0.65323,0.29746 -0.99026,0.44893 -0.34082,0.1439 -0.69679,0.26716 -1.04897,0.40141 -0.17608,0.0642 -0.35407,0.13633 -0.52826,0.19502 -0.17988,0.0568 -0.35786,0.1119 -0.53584,0.16662 -0.17799,0.053 -0.35407,0.11342 -0.53016,0.16076 -0.1742,0.0456 -0.3484,0.0911 -0.5188,0.13651 -0.34082,0.0947 -0.67596,0.16662 -0.99216,0.23479 -0.3162,0.0738 -0.61915,0.12496 -0.89749,0.17798 -0.27833,0.0551 -0.53584,0.089 -0.76305,0.12686 -0.22721,0.036 -0.42792,0.0568 -0.59075,0.0795 -0.32946,0.04 -0.51691,0.0551 -0.51691,0.0551 0,0 0.18745,-0.01 0.5188,-0.0382 0.16473,-0.0187 0.36543,-0.0322 0.59265,-0.0625 0.2291,-0.0301 0.4885,-0.0547 0.76873,-0.10205 0.28023,-0.0436 0.58507,-0.0852 0.90506,-0.14958 0.31999,-0.0606 0.65702,-0.12099 1.00352,-0.20658 0.17419,-0.0396 0.35028,-0.0795 0.52826,-0.1208 0.17988,-0.0418 0.35597,-0.0947 0.53585,-0.14409 0.17987,-0.0492 0.35975,-0.0987 0.54152,-0.14958 0.18366,-0.0549 0.35975,-0.12137 0.54152,-0.17969 0.35786,-0.12496 0.7214,-0.23667 1.07168,-0.37319 0.3446,-0.1439 0.68542,-0.28591 1.01488,-0.42224 0.32567,-0.14579 0.63051,-0.30844 0.92589,-0.45253 0.14768,-0.07 0.2859,-0.14958 0.41844,-0.2291 0.13444,-0.0776 0.26319,-0.15356 0.38816,-0.22513 0.0606,-0.0362 0.12118,-0.0721 0.18177,-0.10622 0.0568,-0.0398 0.11171,-0.0757 0.16662,-0.11361 0.10793,-0.0738 0.21206,-0.142 0.30863,-0.20809 0.19692,-0.12704 1.20043,-0.85015 1.20043,-0.85015 l -0.57749,-0.13292 z m -10.21506,0.79562 -1.64161,0.032 -0.0947,-0.3482 -5.83745,-0.0625 0,-0.47336 c 0,0 -8.39358,0.0547 -8.58292,0.0547 -0.18934,0 -0.50554,0.0873 -0.50554,0.59264 l 0,1.16655 c 0,0.50554 0.3162,0.59226 0.50554,0.59226 0.18934,0 8.58292,0.0553 8.58292,0.0553 l 0,-0.47336 5.8223,-0.0627 0.10982,-0.3482 1.64161,0.0322 0,-0.75738 z m -18.2593,0.89086 c -0.0369,-0.0759 -0.0839,-0.13727 -0.1405,-0.18423 -0.0566,-0.047 -0.11796,-0.0799 -0.18423,-0.0994 -0.0661,-0.0193 -0.12932,-0.0293 -0.18953,-0.0293 -0.074,0 -0.14144,0.0115 -0.20127,0.0345 -0.0602,0.0233 -0.11531,0.054 -0.16568,0.0928 -0.0506,0.0388 -0.0969,0.0833 -0.13916,0.13273 -0.0424,0.0496 -0.0824,0.10073 -0.11929,0.15356 -0.0373,0.0532 -0.0725,0.10603 -0.10622,0.15942 -0.0335,0.0528 -0.067,0.10168 -0.10054,0.14674 -0.0337,0.0451 -0.0685,0.0846 -0.10471,0.11796 -0.0362,0.0337 -0.0746,0.0566 -0.11531,0.0691 l 0,-0.90411 -0.27038,0 0,1.26727 c 0.15375,-0.002 0.28799,-0.0388 0.40273,-0.11133 0.11493,-0.0723 0.21491,-0.17154 0.29954,-0.29689 0.0443,-0.0602 0.0871,-0.12269 0.12876,-0.18821 0.0413,-0.0655 0.0862,-0.12534 0.13386,-0.18044 0.0477,-0.0547 0.0994,-0.0996 0.15488,-0.135 0.0559,-0.0356 0.11986,-0.054 0.19238,-0.0559 0.0335,0 0.0693,0.004 0.10717,0.0121 0.038,0.008 0.0735,0.0233 0.10622,0.0464 0.0326,0.0229 0.0598,0.0547 0.082,0.0952 0.0222,0.0407 0.0333,0.0937 0.0333,0.15905 0,0.0604 -0.0119,0.11019 -0.0358,0.14977 -0.0239,0.04 -0.0566,0.0718 -0.0981,0.0954 -0.0417,0.024 -0.0905,0.0418 -0.14712,0.0532 -0.0566,0.0115 -0.11758,0.0182 -0.18309,0.0197 l 0,0.30257 c 0.10262,0 0.19748,-0.0138 0.28515,-0.0415 0.0875,-0.0275 0.16302,-0.0684 0.22664,-0.12327 0.0636,-0.0547 0.11361,-0.12118 0.14977,-0.19994 0.0362,-0.0788 0.0543,-0.17022 0.0543,-0.27436 0,-0.11323 -0.0186,-0.20752 -0.0559,-0.28364 z m 0.024,-1.28336 c -0.0214,-0.0699 -0.0521,-0.13273 -0.0928,-0.18821 -0.0407,-0.0559 -0.0924,-0.10016 -0.15508,-0.13387 -0.0627,-0.0337 -0.13481,-0.0504 -0.21623,-0.0504 -0.0935,0 -0.17533,0.0212 -0.2452,0.0636 -0.0697,0.0422 -0.12061,0.10887 -0.15242,0.19862 l -0.005,0 c -0.0212,-0.10565 -0.074,-0.18859 -0.15791,-0.24766 -0.0839,-0.0593 -0.18594,-0.0888 -0.30617,-0.0888 -0.0884,0 -0.16738,0.0178 -0.23706,0.0528 -0.0699,0.0356 -0.12913,0.0833 -0.17779,0.14315 -0.0485,0.0602 -0.0862,0.13026 -0.11247,0.2096 -0.0267,0.0795 -0.0398,0.16359 -0.0398,0.25201 0,0.10755 0.0153,0.20184 0.0464,0.28213 0.0309,0.0807 0.0746,0.14749 0.13121,0.20146 0.0564,0.054 0.1244,0.095 0.20392,0.12326 0.0797,0.0284 0.16795,0.0432 0.26527,0.0451 l 0,-0.30219 c -0.11322,0.004 -0.20733,-0.0244 -0.28231,-0.0835 -0.0752,-0.0593 -0.11284,-0.14788 -0.11284,-0.26622 0,-0.1011 0.0288,-0.18536 0.0862,-0.25334 0.0576,-0.0682 0.13935,-0.10205 0.2452,-0.10205 0.0725,0 0.12989,0.0144 0.1723,0.0424 0.0426,0.0282 0.0748,0.0655 0.0969,0.11133 0.022,0.0458 0.0358,0.0977 0.0411,0.15489 0.005,0.0577 0.007,0.11663 0.005,0.17646 l 0.22551,0 c -0.002,-0.0496 0.002,-0.099 0.0104,-0.14825 0.009,-0.0496 0.0244,-0.0939 0.0466,-0.13273 0.022,-0.0388 0.0524,-0.0703 0.0913,-0.0939 0.039,-0.0241 0.0867,-0.036 0.14315,-0.036 0.0795,0 0.14314,0.0271 0.19086,0.081 0.0477,0.0536 0.0718,0.12307 0.0718,0.2079 0,0.0532 -0.0108,0.099 -0.0318,0.13784 -0.0212,0.0388 -0.05,0.071 -0.0862,0.0969 -0.0362,0.0256 -0.0769,0.0443 -0.12213,0.057 -0.0451,0.0121 -0.0913,0.0176 -0.13898,0.0159 l 0,0.302 c 0.0901,-0.004 0.17344,-0.0203 0.25031,-0.0502 0.0771,-0.0305 0.14353,-0.0714 0.20014,-0.12364 0.0566,-0.0521 0.10092,-0.11494 0.13273,-0.18935 0.0318,-0.0742 0.0477,-0.15829 0.0477,-0.25182 0,-0.0725 -0.0108,-0.14353 -0.0318,-0.21339 z m 18.51927,4.30604 c -2.90263,0.3145 -4.40033,0.0153 -5.80715,0 -2.40087,-0.0284 -3.37599,0.0947 -3.37599,0.0947 -1.57723,-1.95762 -5.04978,-1.57893 -6.46985,-1.54675 -1.42007,0.032 -7.8886,1.07339 -9.49802,0.85205 l 3.50285,-5.49095 c 6.43823,0.37869 9.214,-0.7462 12.78123,-0.78956 5.20693,-0.0625 13.66299,0.22153 20.03817,2.24163 0.0947,0.6627 -3.60887,3.81526 -11.17124,4.63891"
         style="fill:#ffffff;fill-opacity:1;fill-rule:nonzero;stroke:none"
         id="path80"
         inkscape:connector-curvature="0" /><path
         d="m 231.91888,130.3958 0.67027,-0.0115 7.88993,-6.37328 -0.76684,-0.0528 -7.79336,6.43766 z m -6.70653,-4.44956 -1.64161,0.032 -0.0947,-0.3482 -5.83745,-0.0625 0,-0.47335 c 0,0 -8.39358,0.0547 -8.58292,0.0547 -0.18934,0 -0.50554,0.0873 -0.50554,0.59264 l 0,1.16654 c 0,0.50555 0.3162,0.59227 0.50554,0.59227 0.18934,0 8.58292,0.0553 8.58292,0.0553 l 0,-0.47336 5.8223,-0.0627 0.10982,-0.34821 1.64161,0.0322 0,-0.75737 z m -18.2593,0.89086 c -0.0369,-0.0759 -0.0839,-0.13727 -0.1405,-0.18423 -0.0566,-0.047 -0.11796,-0.0799 -0.18423,-0.0994 -0.0661,-0.0193 -0.12932,-0.0293 -0.18953,-0.0293 -0.074,0 -0.14144,0.0115 -0.20127,0.0345 -0.0602,0.0233 -0.11531,0.054 -0.16568,0.0928 -0.0506,0.0388 -0.0969,0.0833 -0.13916,0.13273 -0.0424,0.0496 -0.0824,0.10073 -0.11929,0.15356 -0.0373,0.0532 -0.0725,0.10603 -0.10622,0.15943 -0.0335,0.0528 -0.067,0.10168 -0.10054,0.14674 -0.0337,0.0451 -0.0685,0.0846 -0.10471,0.11796 -0.0362,0.0337 -0.0746,0.0566 -0.11531,0.0691 l 0,-0.90411 -0.27038,0 0,1.26727 c 0.15375,-0.002 0.28799,-0.0388 0.40273,-0.11133 0.11493,-0.0723 0.21491,-0.17155 0.29954,-0.29689 0.0443,-0.0602 0.0871,-0.1227 0.12876,-0.18821 0.0413,-0.0655 0.0862,-0.12535 0.13386,-0.18044 0.0477,-0.0547 0.0994,-0.0996 0.15488,-0.13501 0.0559,-0.0356 0.11986,-0.054 0.19238,-0.0558 0.0335,0 0.0693,0.004 0.10717,0.0121 0.038,0.008 0.0735,0.0233 0.10622,0.0464 0.0326,0.0229 0.0598,0.0547 0.082,0.0952 0.0222,0.0407 0.0333,0.0937 0.0333,0.15905 0,0.0604 -0.0119,0.1102 -0.0358,0.14977 -0.0239,0.0399 -0.0566,0.0718 -0.0981,0.0954 -0.0417,0.0241 -0.0905,0.0419 -0.14712,0.0532 -0.0566,0.0115 -0.11758,0.0182 -0.18309,0.0197 l 0,0.30257 c 0.10262,0 0.19748,-0.0138 0.28515,-0.0415 0.0875,-0.0275 0.16302,-0.0683 0.22664,-0.12326 0.0636,-0.0547 0.11361,-0.12118 0.14977,-0.19995 0.0362,-0.0788 0.0543,-0.17022 0.0543,-0.27435 0,-0.11323 -0.0186,-0.20752 -0.0559,-0.28364 z m 0.0186,-1.62646 -0.27038,0 0,0.73446 -0.47184,0.0954 -0.005,-0.005 c 0.0458,-0.0407 0.0807,-0.0924 0.10451,-0.15526 0.0239,-0.0625 0.036,-0.12497 0.036,-0.18669 0,-0.0922 -0.0155,-0.1742 -0.0464,-0.24672 -0.0309,-0.0725 -0.0742,-0.13348 -0.13008,-0.18271 -0.0555,-0.0496 -0.12137,-0.0873 -0.19748,-0.11285 -0.0757,-0.0254 -0.15811,-0.0384 -0.24653,-0.0384 -0.074,0 -0.15053,0.0119 -0.22929,0.036 -0.0786,0.0237 -0.15015,0.0617 -0.21453,0.11379 -0.0646,0.0523 -0.11758,0.11872 -0.15905,0.20014 -0.0417,0.0814 -0.0623,0.17855 -0.0623,0.29178 0,0.0897 0.0119,0.17344 0.0356,0.25031 0.024,0.0769 0.0598,0.14466 0.10755,0.2026 0.0477,0.0585 0.10622,0.10508 0.17609,0.13954 0.0699,0.0343 0.15166,0.0532 0.2452,0.057 l 0,-0.30219 c -0.10054,-0.009 -0.17779,-0.0434 -0.23176,-0.10357 -0.0541,-0.0598 -0.081,-0.13935 -0.081,-0.23857 0,-0.0636 0.0106,-0.11758 0.0318,-0.16151 0.0214,-0.0445 0.0504,-0.0799 0.0877,-0.10774 0.0369,-0.0273 0.0803,-0.0466 0.1297,-0.0579 0.0496,-0.0115 0.10244,-0.0174 0.15905,-0.0174 0.0515,0 0.10035,0.007 0.14712,0.0214 0.047,0.014 0.088,0.0352 0.12326,0.0636 0.0354,0.0282 0.0638,0.0648 0.085,0.10982 0.021,0.0451 0.0318,0.0977 0.0318,0.15791 0,0.0636 -0.0119,0.12326 -0.0358,0.17874 -0.0239,0.0557 -0.0685,0.096 -0.13387,0.1208 l 0,0.30219 1.01507,-0.199 0,-0.95959 z m 25.62513,5.65852 c 0,0 -7.19504,-0.12686 -9.6565,-0.3162 -2.13958,-0.16511 -11.48744,-1.76657 -13.25402,-1.95592 -1.76657,-0.18934 -4.35545,0.44117 -5.554,0.75738 -1.20043,0.31601 -3.47255,-0.0627 -3.47255,-0.0627 l 3.40818,-5.68029 c 0,0 2.84014,0.0627 5.8702,-0.0642 3.02949,-0.12515 23.85723,-0.94671 31.74716,0.18935 l -9.08847,7.13255"
         style="fill:#ffffff;fill-opacity:1;fill-rule:nonzero;stroke:none"
         id="path82"
         inkscape:connector-curvature="0" /><g
         transform="translate(14.618644,93.125424)"
         id="g3729"><path
           inkscape:connector-curvature="0"
           id="path14"
           style="fill:#ffffff;fill-opacity:1;fill-rule:nonzero;stroke:none"
           d="m 258.24136,107.59908 c -0.0265,0 -0.0473,0.0206 -0.0473,0.0473 0,0.0267 0.0208,0.0473 0.0473,0.0473 l 2.26833,0 c 0.0776,0 0.142,0.0644 0.142,0.142 l 0,0.0947 c 0,0.0267 0.0208,0.0473 0.0473,0.0473 0.0265,0 0.0473,-0.0206 0.0473,-0.0473 l 0,-0.0947 c 0,-0.12875 -0.10793,-0.23668 -0.23668,-0.23668 l -2.26833,0 z m 2.26833,-2.58642 c 0.0776,0 0.142,0.0644 0.142,0.14201 l 0,0.0947 c 0,0.0265 0.0208,0.0473 0.0473,0.0473 0.0265,0 0.0473,-0.0208 0.0473,-0.0473 l 0,-0.0947 c 0,-0.13065 -0.10604,-0.23668 -0.23668,-0.23668 l -2.21532,0 c -0.0265,0 -0.0473,0.0208 -0.0473,0.0473 0,0.0265 0.0208,0.0473 0.0473,0.0473 l 2.21532,0 z m 0,-2.71518 c 0.0776,0 0.142,0.0644 0.142,0.14201 l 0,0.0947 c 0,0.0265 0.0208,0.0473 0.0473,0.0473 0.0265,0 0.0473,-0.0208 0.0473,-0.0473 l 0,-0.0947 c 0,-0.12876 -0.10793,-0.23668 -0.23668,-0.23668 l -2.1623,0 c -0.0265,0 -0.0473,0.0208 -0.0473,0.0473 0,0.0265 0.0208,0.0473 0.0473,0.0473 l 2.1623,0 z m 0,-2.80796 c 0.0776,0 0.142,0.06438 0.142,0.142008 l 0,0.09467 c 0,0.02651 0.0208,0.04734 0.0473,0.04734 0.0265,0 0.0473,-0.02083 0.0473,-0.04734 l 0,-0.09467 c 0,-0.130647 -0.10604,-0.236679 -0.23668,-0.236679 l -2.1055,0 c -0.0265,0 -0.0473,0.02083 -0.0473,0.04734 0,0.02651 0.0208,0.04734 0.0473,0.04734 l 2.1055,0 z m 0,-2.745475 c 0.0776,0 0.142,0.06438 0.142,0.142008 l 0,0.09467 c 0,0.02651 0.0208,0.04734 0.0473,0.04734 0.0265,0 0.0473,-0.02083 0.0473,-0.04734 l 0,-0.09467 c 0,-0.130647 -0.10604,-0.236679 -0.23668,-0.236679 l -2.05059,0 c -0.0265,0 -0.0473,0.02083 -0.0473,0.04734 0,0.02651 0.0208,0.04734 0.0473,0.04734 l 2.05059,0 z m 0,-2.777663 c 0.0776,0 0.142,0.06438 0.142,0.142008 l 0,0.09467 c 0,0.07763 -0.0644,0.142008 -0.142,0.142008 -0.0265,0 -0.0473,0.02083 -0.0473,0.04734 0,0.02651 0.0208,0.04734 0.0473,0.04734 0.13064,0 0.23668,-0.106032 0.23668,-0.236679 l 0,-0.09467 c 0,-0.128754 -0.10793,-0.236679 -0.23668,-0.236679 l -1.99568,0 c -0.0265,0 -0.0473,0.02083 -0.0473,0.04734 0,0.02651 0.0208,0.04733 0.0473,0.04733 l 1.99568,0 z m 0,-2.745474 c 0.0776,0 0.142,0.06438 0.142,0.142007 l 0,0.09467 c 0,0.07763 -0.0644,0.142008 -0.142,0.142008 -0.0265,0 -0.0473,0.02083 -0.0473,0.04734 0,0.02651 0.0208,0.04734 0.0473,0.04734 0.13064,0 0.23668,-0.106032 0.23668,-0.236679 l 0,-0.09467 c 0,-0.128753 -0.10793,-0.236679 -0.23668,-0.236679 l -1.89533,0 0.12686,-9.308106 c 0.002,-0.02651 -0.0189,-0.04734 -0.0454,-0.04734 l -0.002,0 c -0.0246,0 -0.0455,0.02083 -0.0473,0.04544 l -0.12686,9.357336 c 0,0.01136 0.006,0.02461 0.0132,0.03408 0.009,0.0076 0.0208,0.01325 0.0341,0.01325 l 1.94266,0 z m -2.90831,19.345182 -0.0814,0 c -0.30106,0 -0.54531,-0.24823 -0.54531,-0.55288 l -0.0398,-1.51664 c -0.002,-0.0248 -0.0227,-0.0454 -0.0473,-0.0454 l -0.002,0 c -0.0265,0 -0.0473,0.0227 -0.0454,0.0492 l 0.0398,1.51285 c 0,0.35596 0.2878,0.64755 0.63998,0.64755 l 0.0814,0 c 0.0265,0 0.0473,-0.0206 0.0473,-0.0473 0,-0.0267 -0.0208,-0.0473 -0.0473,-0.0473 z m -0.009,-49.528364 c -0.009,-0.0095 -0.0208,-0.01515 -0.0341,-0.01515 -0.0114,0 -0.0227,0.0057 -0.0322,0.01325 -0.20828,0.191237 -0.59454,0.90506 -0.93346,1.897218 -0.27834,0.819855 -0.61158,2.078987 -0.61158,3.42143 l 0.51123,24.771756 -1.94645,0 c -0.13065,0 -0.23668,0.106032 -0.23668,0.236679 l 0,0.09467 c 0,0.130647 0.10603,0.236679 0.23668,0.236679 0.0265,0 0.0473,-0.02083 0.0473,-0.04734 0,-0.02651 -0.0208,-0.04734 -0.0473,-0.04734 -0.0776,0 -0.14201,-0.06438 -0.14201,-0.142008 l 0,-0.09467 c 0,-0.07763 0.0644,-0.142007 0.14201,-0.142007 l 1.99378,0 c 0.0133,0 0.0246,-0.0057 0.0341,-0.01515 0.009,-0.0076 0.0133,-0.02083 0.0133,-0.03219 L 256.07527,66.35448 c 0,-2.44442 1.14931,-4.91156 1.51475,-5.248591 0.0189,-0.01893 0.0189,-0.04734 0.002,-0.06816 z m -3.04653,32.833985 c -0.13065,0 -0.23668,0.106032 -0.23668,0.236679 l 0,0.09467 c 0,0.130647 0.10603,0.236679 0.23668,0.236679 0.0265,0 0.0473,-0.02083 0.0473,-0.04734 0,-0.02651 -0.0208,-0.04734 -0.0473,-0.04734 -0.0776,0 -0.14201,-0.06438 -0.14201,-0.142008 l 0,-0.09467 c 0,-0.07763 0.0644,-0.142008 0.14201,-0.142008 l 2.05058,0 c 0.0265,0 0.0473,-0.02083 0.0473,-0.04733 0,-0.02651 -0.0208,-0.04734 -0.0473,-0.04734 l -2.05058,0 z m 0,2.777663 c -0.13065,0 -0.23668,0.106032 -0.23668,0.236679 l 0,0.09467 c 0,0.130647 0.10603,0.236679 0.23668,0.236679 0.0265,0 0.0473,-0.02083 0.0473,-0.04734 0,-0.02651 -0.0208,-0.04734 -0.0473,-0.04734 -0.0776,0 -0.14201,-0.06438 -0.14201,-0.142008 l 0,-0.09467 c 0,-0.07763 0.0644,-0.142008 0.14201,-0.142008 l 2.10739,0 c 0.0265,0 0.0473,-0.02083 0.0473,-0.04734 0,-0.02651 -0.0208,-0.04734 -0.0473,-0.04734 l -2.10739,0 z m 0,2.745475 c -0.13065,0 -0.23668,0.106032 -0.23668,0.236679 l 0,0.09467 c 0,0.130647 0.10603,0.236679 0.23668,0.236679 0.0265,0 0.0473,-0.02083 0.0473,-0.04734 0,-0.02651 -0.0208,-0.04734 -0.0473,-0.04734 -0.0776,0 -0.14201,-0.06438 -0.14201,-0.142007 l 0,-0.09467 c 0,-0.07763 0.0644,-0.142008 0.14201,-0.142008 l 2.16419,0 c 0.0265,0 0.0473,-0.02083 0.0473,-0.04734 0,-0.02651 -0.0208,-0.04734 -0.0473,-0.04734 l -2.16419,0 z m 0,2.807961 c -0.13065,0 -0.23668,0.10603 -0.23668,0.23668 l 0,0.0947 c 0,0.13064 0.10603,0.23668 0.23668,0.23668 0.0265,0 0.0473,-0.0208 0.0473,-0.0473 0,-0.0265 -0.0208,-0.0473 -0.0473,-0.0473 -0.0776,0 -0.14201,-0.0644 -0.14201,-0.142 l 0,-0.0947 c 0,-0.0776 0.0644,-0.14201 0.14201,-0.14201 l 2.22099,0 c 0.0265,0 0.0473,-0.0208 0.0473,-0.0473 0,-0.0265 -0.0208,-0.0473 -0.0473,-0.0473 l -2.22099,0 z m 0,2.71518 c -0.13065,0 -0.23668,0.10603 -0.23668,0.23668 l 0,0.0947 c 0,0.13064 0.10603,0.23668 0.23668,0.23668 0.0265,0 0.0473,-0.0208 0.0473,-0.0473 0,-0.0265 -0.0208,-0.0473 -0.0473,-0.0473 -0.0776,0 -0.14201,-0.0644 -0.14201,-0.142 l 0,-0.0947 c 0,-0.0776 0.0644,-0.14201 0.14201,-0.14201 l 2.2778,0 c 0.0265,0 0.0473,-0.0208 0.0473,-0.0473 0,-0.0265 -0.0208,-0.0473 -0.0473,-0.0473 l -2.2778,0 z m 0,2.68109 c -0.13065,0 -0.23668,0.10623 -0.23668,0.23668 l 0,0.0947 c 0,0.0267 0.0208,0.0473 0.0473,0.0473 0.0265,0 0.0473,-0.0206 0.0473,-0.0473 l 0,-0.0947 c 0,-0.0776 0.0644,-0.142 0.14201,-0.142 l 2.33271,0 c 0.0265,0 0.0473,-0.0206 0.0473,-0.0473 0,-0.0267 -0.0208,-0.0473 -0.0473,-0.0473 l -2.33271,0 z m 4.08224,-0.23667 1.88207,0 c 0.26129,0 0.47335,0.21206 0.47335,0.47335 l 0,0.0947 c 0,0.26129 -0.21206,0.47335 -0.47335,0.47335 l -1.90669,0 c -0.0511,0 -0.0928,0.0417 -0.0947,0.0928 l -0.0303,1.52213 c 0,0.48491 -0.39384,0.87874 -0.87666,0.87874 l -0.0814,0 c -0.48283,0 -0.87666,-0.39383 -0.87666,-0.87666 l -0.0322,-1.52421 c -0.002,-0.0511 -0.0435,-0.0928 -0.0947,-0.0928 l -1.97106,0 c -0.26129,0 -0.47336,-0.21206 -0.47336,-0.47335 l 0,-0.0947 c 0,-0.26129 0.21207,-0.47335 0.47336,-0.47335 l 1.94645,0 c 0.0246,0 0.0492,-0.01 0.0682,-0.0284 0.017,-0.0189 0.0265,-0.0435 0.0265,-0.0682 l -0.0303,-1.45037 c -0.002,-0.0511 -0.0435,-0.0928 -0.0947,-0.0928 l -1.91615,0 c -0.26129,0 -0.47336,-0.21206 -0.47336,-0.47335 l 0,-0.0947 c 0,-0.2613 0.21207,-0.47336 0.47336,-0.47336 l 1.89154,0 c 0.0246,0 0.0492,-0.009 0.0682,-0.0284 0.017,-0.0189 0.0265,-0.0436 0.0265,-0.0682 l -0.0303,-1.48445 c -0.002,-0.0511 -0.0435,-0.0928 -0.0947,-0.0928 l -1.86124,0 c -0.26129,0 -0.47336,-0.21206 -0.47336,-0.47335 l 0,-0.0947 c 0,-0.2613 0.21207,-0.47336 0.47336,-0.47336 l 1.83473,0 c 0.0246,0 0.0492,-0.009 0.0682,-0.0284 0.017,-0.0189 0.0265,-0.0435 0.0265,-0.0682 l -0.0322,-1.57723 c -0.002,-0.0511 -0.0436,-0.0928 -0.0947,-0.0928 l -1.80255,0 c -0.26129,0 -0.47336,-0.212067 -0.47336,-0.473361 l 0,-0.09467 c 0,-0.261294 0.21207,-0.473358 0.47336,-0.473358 l 1.77793,0 c 0.0246,0 0.0492,-0.0095 0.0682,-0.0284 0.017,-0.01893 0.0265,-0.04355 0.0265,-0.06816 l -0.0322,-1.514745 c -0.002,-0.05112 -0.0435,-0.09278 -0.0947,-0.09278 l -1.74574,0 c -0.26129,0 -0.47336,-0.212064 -0.47336,-0.473358 l 0,-0.09467 c 0,-0.261294 0.21207,-0.473358 0.47336,-0.473358 l 1.72113,0 c 0.0246,0 0.0492,-0.0095 0.0682,-0.0284 0.017,-0.01893 0.0265,-0.04355 0.0265,-0.06816 l -0.0322,-1.546933 c -0.002,-0.05112 -0.0435,-0.09278 -0.0947,-0.09278 l -1.68894,0 c -0.26129,0 -0.47336,-0.212064 -0.47336,-0.473358 l 0,-0.09467 c 0,-0.261294 0.21207,-0.473358 0.47336,-0.473358 l 1.66433,0 c 0.0246,0 0.0492,-0.0095 0.0682,-0.0284 0.017,-0.01893 0.0265,-0.04355 0.0265,-0.06816 l -0.0322,-1.514745 c -0.002,-0.05112 -0.0436,-0.09278 -0.0947,-0.09278 l -1.63214,0 c -0.26129,0 -0.47336,-0.212064 -0.47336,-0.473358 l 0,-0.09467 c 0,-0.261294 0.21207,-0.473358 0.47336,-0.473358 l 1.60752,0 c 0.0246,0 0.0492,-0.0095 0.0682,-0.0284 0.017,-0.01893 0.0265,-0.04355 0.0265,-0.06816 l -0.50365,-24.440406 c 0,-2.614828 1.34434,-5.583728 1.77604,-5.583728 l 0.0814,0 c 0.42413,0 1.74006,3.044637 1.74006,5.727629 l -0.48283,24.296505 c 0,0.02461 0.009,0.04923 0.0265,0.06816 0.0189,0.01893 0.0436,0.0284 0.0682,0.0284 l 1.5564,0 c 0.26129,0 0.47335,0.212064 0.47335,0.473358 l 0,0.09467 c 0,0.261294 -0.21206,0.473358 -0.47335,0.473358 l -1.57912,0 c -0.0511,0 -0.0928,0.04166 -0.0947,0.09278 l -0.0303,1.514745 c 0,0.02461 0.009,0.04923 0.0265,0.06816 0.0189,0.01893 0.0435,0.0284 0.0682,0.0284 l 1.60942,0 c 0.26129,0 0.47335,0.212064 0.47335,0.473358 l 0,0.09467 c 0,0.261294 -0.21206,0.473358 -0.47335,0.473358 l -1.63403,0 c -0.0511,0 -0.0928,0.04166 -0.0947,0.09278 l -0.0303,1.546933 c 0,0.02461 0.009,0.04923 0.0265,0.06816 0.0189,0.01893 0.0435,0.0284 0.0682,0.0284 l 1.66433,0 c 0.26129,0 0.47335,0.212064 0.47335,0.473358 l 0,0.09467 c 0,0.261294 -0.21206,0.473358 -0.47335,0.473358 l -1.68894,0 c -0.0511,0 -0.0928,0.04166 -0.0947,0.09278 l -0.0303,1.514745 c 0,0.02461 0.009,0.04923 0.0265,0.06816 0.0189,0.01893 0.0436,0.0284 0.0682,0.0284 l 1.71924,0 c 0.26129,0 0.47335,0.212064 0.47335,0.473358 l 0,0.09467 c 0,0.261294 -0.21206,0.473361 -0.47335,0.473361 l -1.74385,0 c -0.0511,0 -0.0928,0.0416 -0.0947,0.0928 l -0.0322,1.57723 c 0,0.0246 0.009,0.0492 0.0265,0.0682 0.0189,0.0189 0.0435,0.0284 0.0682,0.0284 l 1.77604,0 c 0.26129,0 0.47335,0.21206 0.47335,0.47336 l 0,0.0947 c 0,0.26129 -0.21206,0.47335 -0.47335,0.47335 l -1.80066,0 c -0.0511,0 -0.0928,0.0417 -0.0947,0.0928 l -0.0284,1.48445 c 0,0.0246 0.009,0.0492 0.0265,0.0682 0.0189,0.0189 0.0436,0.0284 0.0682,0.0284 l 1.82906,0 c 0.26129,0 0.47335,0.21206 0.47335,0.47336 l 0,0.0947 c 0,0.26129 -0.21206,0.47335 -0.47335,0.47335 l -1.85367,0 c -0.0511,0 -0.0928,0.0417 -0.0947,0.0928 l -0.0284,1.45037 c 0,0.0246 0.009,0.0492 0.0265,0.0682 0.0189,0.0187 0.0435,0.0284 0.0682,0.0284" /><path
           inkscape:connector-curvature="0"
           id="path16"
           style="fill:#ffffff;fill-opacity:1;fill-rule:nonzero;stroke:none"
           d="m 257.60327,122.23739 c -0.0341,-0.002 -0.0738,-0.002 -0.1155,0.004 -0.0417,0.005 -0.089,0.004 -0.13633,0.0246 -0.0454,0.017 -0.10224,0.0303 -0.14768,0.0665 -0.0246,0.0152 -0.0511,0.0322 -0.0776,0.0473 -0.0246,0.0187 -0.0455,0.0434 -0.0682,0.0661 -0.0985,0.0871 -0.1723,0.21793 -0.22721,0.36354 -0.053,0.14958 -0.0644,0.32775 -0.0644,0.50194 -0.006,0.35767 -0.0114,0.75908 -0.0189,1.19855 -0.008,0.87646 -0.017,1.90081 -0.0284,2.999 -0.004,1.0963 -0.008,2.26644 -0.0133,3.43658 0.006,1.17033 0.009,2.34028 0.0133,3.43847 0.0114,1.09629 0.0208,2.12064 0.0284,2.9973 0.008,0.43909 0.0133,0.84087 0.0189,1.19854 0.006,0.17817 0,0.34271 0.0152,0.50176 0.004,0.0379 0.008,0.0757 0.0114,0.11152 0.009,0.0383 0.0208,0.074 0.0303,0.10812 0.0133,0.0738 0.0511,0.13254 0.0757,0.19123 0.12118,0.23479 0.31242,0.35218 0.44117,0.38816 0.0644,0.0286 0.11929,0.0225 0.15526,0.0286 0.008,0.002 0.0152,0.002 0.0227,0.002 -0.008,-0.002 -0.0152,-0.002 -0.0227,-0.004 -0.0341,-0.008 -0.089,-0.006 -0.15147,-0.036 -0.12686,-0.0417 -0.30295,-0.16643 -0.41087,-0.39402 -0.0227,-0.0585 -0.0568,-0.11721 -0.0682,-0.18537 -0.008,-0.0343 -0.0152,-0.0682 -0.0246,-0.10224 -0.002,-0.0377 -0.004,-0.074 -0.008,-0.11361 -0.008,-0.14977 0.004,-0.31999 0.004,-0.49608 0.006,-0.35767 0.0114,-0.75945 0.017,-1.19854 0.009,-0.87666 0.0189,-1.90101 0.0303,-2.9973 0.004,-1.09819 0.008,-2.26814 0.0114,-3.43847 -0.004,-1.17014 -0.008,-2.34028 -0.0114,-3.43658 -0.0114,-1.09819 -0.0208,-2.12254 -0.0303,-2.999 -0.006,-0.43947 -0.0114,-0.84088 -0.017,-1.19855 -0.008,-0.18025 0,-0.33911 0.0435,-0.4849 0.0473,-0.14201 0.11361,-0.26887 0.2026,-0.35597 0.0227,-0.0208 0.0417,-0.0454 0.0644,-0.0646 0.0246,-0.017 0.0492,-0.0322 0.072,-0.049 0.0435,-0.036 0.0947,-0.0492 0.13822,-0.0682 0.0435,-0.0248 0.0928,-0.0227 0.13254,-0.0303 0.0417,-0.009 0.0795,-0.0115 0.11361,-0.0115 0.13633,-0.004 0.21017,-0.004 0.21017,-0.004 0,0 -0.0738,-0.002 -0.21017,-0.005 z m 0.009,17.89841 -0.33703,0 c -0.41845,0 -0.75927,-0.34082 -0.75927,-0.75926 l 0,-16.53344 c 0,-0.41845 0.34082,-0.75927 0.75927,-0.75927 l 0.33703,0 c 0.41845,0 0.75926,0.34082 0.75926,0.75927 l 0,16.53344 c 0,0.41844 -0.34081,0.75926 -0.75926,0.75926" /><path
           inkscape:connector-curvature="0"
           id="path18"
           style="fill:#ffffff;fill-opacity:1;fill-rule:nonzero;stroke:none"
           d="m 258.1145,120.48199 c -0.0189,0.0513 -0.0473,0.0909 -0.0814,0.11928 -0.0341,0.0303 -0.0757,0.0435 -0.12686,0.0435 -0.0511,0 -0.0947,-0.0132 -0.12686,-0.0435 -0.0341,-0.0284 -0.0606,-0.068 -0.0795,-0.11928 -0.0208,-0.0511 -0.0341,-0.10982 -0.0417,-0.1742 -0.009,-0.0663 -0.0133,-0.13803 -0.0133,-0.21206 0,-0.0757 0.004,-0.14561 0.0133,-0.21396 0.008,-0.0663 0.0208,-0.12497 0.0417,-0.17438 0.0189,-0.049 0.0454,-0.0886 0.0795,-0.1191 0.0322,-0.0284 0.0757,-0.0435 0.12686,-0.0435 0.0511,0 0.0928,0.0151 0.12686,0.0435 0.0341,0.0305 0.0625,0.0701 0.0814,0.1191 0.0189,0.0494 0.0341,0.10811 0.0417,0.17438 0.008,0.0683 0.0133,0.13822 0.0133,0.21396 0,0.074 -0.006,0.14579 -0.0133,0.21206 -0.008,0.0644 -0.0227,0.12308 -0.0417,0.1742 z m 3.64106,-58.151051 c -0.0189,0.13822 -0.0284,0.276441 -0.0568,0.414661 -0.0208,0.136327 -0.0511,0.272654 -0.0833,0.407088 -0.0322,0.134433 -0.0663,0.268867 -0.10603,0.401407 -0.0398,0.13254 -0.0814,0.263187 -0.12686,0.393834 -0.0928,0.2594 -0.19503,0.515013 -0.30863,0.766839 -0.0587,0.124967 -0.11739,0.24804 -0.17988,0.371113 -0.0606,0.117393 -0.12496,0.236679 -0.18934,0.344604 l -0.78009,0 0,0.189343 0.7498,0 c -0.0133,0.229105 -0.0133,0.458211 -0.008,0.687316 l 0,19.526953 c 0.008,0.5188 -0.0208,1.041387 0.017,1.560187 0.0511,1.041387 0.10414,2.082774 0.1723,3.124161 0.0682,-1.041387 0.12118,-2.082774 0.17231,-3.124161 0.0379,-0.5188 0.009,-1.041387 0.017,-1.560187 l 0,-19.526953 c 0.006,-0.249933 0.006,-0.497973 -0.009,-0.747905 0.0511,-0.1155 0.0985,-0.229106 0.1439,-0.346498 0.0511,-0.130647 0.10035,-0.265081 0.1458,-0.397621 0.0909,-0.268867 0.16851,-0.541521 0.23478,-0.814175 0.0341,-0.138221 0.0625,-0.274548 0.089,-0.414661 0.0265,-0.138221 0.0492,-0.276441 0.0644,-0.416555 0.017,-0.140114 0.0303,-0.278335 0.036,-0.420342 0.0114,-0.13822 0.004,-0.280228 0.006,-0.418448 z m -4.15418,-1.751424 -0.0814,0 c -0.64945,0 -1.96538,3.175284 -1.96538,5.774965 l 0.50176,24.345734 -1.51096,0 c -0.36543,0 -0.6627,0.297269 -0.6627,0.662701 l 0,0.09467 c 0,0.365433 0.29727,0.662701 0.6627,0.662701 l 1.53936,0 0.0284,1.325402 -1.56776,0 c -0.36543,0 -0.6627,0.297268 -0.6627,0.662701 l 0,0.09467 c 0,0.365432 0.29727,0.662701 0.6627,0.662701 l 1.59616,0 0.0284,1.35759 -1.62456,0 c -0.36543,0 -0.6627,0.297269 -0.6627,0.662701 l 0,0.09467 c 0,0.365432 0.29727,0.662701 0.6627,0.662701 l 1.65296,0 0.0284,1.325402 -1.68137,0 c -0.36543,0 -0.6627,0.297268 -0.6627,0.662701 l 0,0.09467 c 0,0.365435 0.29727,0.662705 0.6627,0.662705 l 1.70977,0 0.0284,1.38788 -1.73817,0 c -0.36543,0 -0.6627,0.29727 -0.6627,0.66271 l 0,0.0947 c 0,0.36543 0.29727,0.6627 0.6627,0.6627 l 1.76846,0 0.0265,1.2951 -1.79497,0 c -0.36543,0 -0.6627,0.29727 -0.6627,0.66271 l 0,0.0947 c 0,0.36543 0.29727,0.6627 0.6627,0.6627 l 1.82337,0 0.0265,1.26102 -1.84988,0 c -0.36543,0 -0.6627,0.29727 -0.6627,0.6627 l 0,0.0947 c 0,0.36543 0.29727,0.6627 0.6627,0.6627 l 1.87828,0 0.0303,1.42954 c 0,0.58526 0.47904,1.0641 1.066,1.0641 l 0.0814,0 c 0.58696,0 1.066,-0.47884 1.066,-1.066 l 0.0284,-1.42764 1.81391,0 c 0.36543,0 0.6627,-0.29727 0.6627,-0.6627 l 0,-0.0947 c 0,-0.36543 -0.29727,-0.6627 -0.6627,-0.6627 l -1.78551,0 0.0246,-1.26102 1.76089,0 c 0.36543,0 0.6627,-0.29727 0.6627,-0.6627 l 0,-0.0947 c 0,-0.36544 -0.29727,-0.66271 -0.6627,-0.66271 l -1.73249,0 0.0246,-1.2951 1.70788,0 c 0.36543,0 0.6627,-0.29727 0.6627,-0.6627 l 0,-0.0947 c 0,-0.36544 -0.29727,-0.66271 -0.6627,-0.66271 l -1.67948,0 0.0284,-1.38788 1.65108,0 c 0.36543,0 0.6627,-0.29727 0.6627,-0.662705 l 0,-0.09467 c 0,-0.365433 -0.29727,-0.662701 -0.6627,-0.662701 l -1.62267,0 0.0265,-1.325402 1.59617,0 c 0.36543,0 0.6627,-0.297269 0.6627,-0.662701 l 0,-0.09467 c 0,-0.365432 -0.29727,-0.662701 -0.6627,-0.662701 l -1.56776,0 0.0265,-1.35759 1.54126,0 c 0.36543,0 0.6627,-0.297269 0.6627,-0.662701 l 0,-0.09467 c 0,-0.365433 -0.29727,-0.662701 -0.6627,-0.662701 l -1.51285,0 0.0265,-1.325402 1.48635,0 c 0.36543,0 0.6627,-0.297268 0.6627,-0.662701 l 0,-0.09467 c 0,-0.365432 -0.29727,-0.662701 -0.6627,-0.662701 l -1.45984,0 0.48093,-24.201834 c 0,-2.092241 -1.13416,-5.918865 -1.9294,-5.918865 z m -2.85151,4.796061 -0.58128,0 c -0.0417,-0.09846 -0.0833,-0.204491 -0.12118,-0.30863 -0.0436,-0.119286 -0.0833,-0.240465 -0.12118,-0.363538 -0.0776,-0.244253 -0.14012,-0.492292 -0.19313,-0.744119 -0.053,-0.249932 -0.0947,-0.503652 -0.12308,-0.761159 -0.0151,-0.12686 -0.0265,-0.255613 -0.0322,-0.384366 -0.0114,-0.128754 -0.008,-0.257507 -0.0114,-0.388154 -0.009,0.128754 -0.0265,0.257507 -0.0284,0.388154 -0.006,0.130646 -0.009,0.2594 -0.008,0.390046 0.002,0.261294 0.0208,0.520694 0.0549,0.780094 0.0303,0.2594 0.0738,0.5188 0.13065,0.774413 0.0284,0.128754 0.0587,0.255613 0.0928,0.382473 0.0322,0.117393 0.0644,0.230999 0.10414,0.348392 -0.0189,0.516906 -0.053,1.033813 -0.0284,1.548826 l 0.0189,1.565867 0.036,3.131735 0.0719,6.261576 0.0739,6.261576 0.0189,1.565867 0.008,0.783881 c -0.006,0.2594 0.004,0.520693 0.0227,0.781987 0.0644,1.04328 0.13065,2.086561 0.21396,3.127948 0.0568,-1.043281 0.0985,-2.088455 0.13822,-3.131735 0.0133,-0.261294 0.017,-0.522587 0.006,-0.78388 l -0.009,-0.781987 -0.0189,-1.565868 -0.0738,-6.261576 -0.0719,-6.263469 -0.036,-3.129841 -0.0189,-1.565868 c 0.0132,-0.490398 -0.0284,-0.978904 -0.0606,-1.469302 l 0.5472,0 0,-0.189343 z m -0.60211,48.040124 6.3108,3.78119 0.27834,0.16662 0.009,-0.32189 0.10981,-3.81923 0.0284,-0.9541 0.017,-0.47696 c 0,-0.15924 -0.0114,-0.32037 -0.0189,-0.47942 -0.0265,-0.63789 -0.0606,-1.27598 -0.10603,-1.91407 -0.0814,0.6343 -0.15147,1.2705 -0.21585,1.90498 -0.0152,0.15886 -0.036,0.31791 -0.0473,0.47696 l -0.008,0.47714 -0.0284,0.95448 -0.10035,3.49509 -5.94348,-3.55965 0.008,-0.95069 c 0,-0.1759 0.006,-0.35199 0.009,-0.52979 -0.006,-0.17627 -0.0208,-0.35236 -0.0303,-0.52845 -0.0473,-0.70625 -0.0852,-1.41231 -0.1439,-2.11875 -0.0701,0.70644 -0.11739,1.41041 -0.17609,2.11685 -0.0114,0.1759 -0.0303,0.35218 -0.0379,0.52827 0,0.17609 0.004,0.35218 0,0.52827 l -0.008,1.05843 -0.002,0.10982 0.0947,0.0549 z m 0.67974,1.06411 c 0.0776,0.0587 0.17041,0.13046 0.27833,0.21207 0.0549,0.0417 0.11172,0.0852 0.17231,0.13064 0.0606,0.0456 0.13443,0.0795 0.20259,0.12516 0.56803,0.34441 1.32351,0.80471 2.08088,1.26462 0.75548,0.46011 1.51096,0.92021 2.07899,1.26481 0.072,0.0398 0.13444,0.0909 0.20449,0.12308 0.0682,0.0322 0.13254,0.0625 0.19313,0.093 0.12308,0.0564 0.22911,0.10774 0.3181,0.1494 0.17609,0.0812 0.27833,0.12856 0.27833,0.12856 0,0 -0.089,-0.068 -0.24236,-0.18934 -0.0776,-0.0585 -0.1723,-0.12857 -0.28022,-0.20998 -0.053,-0.0418 -0.10982,-0.0852 -0.17041,-0.13046 -0.0606,-0.0473 -0.13444,-0.0795 -0.2026,-0.12516 -0.56803,-0.3465 -1.32351,-0.80641 -2.07899,-1.2667 -0.75737,-0.45821 -1.51285,-0.91851 -2.08088,-1.265 -0.072,-0.0396 -0.13443,-0.0886 -0.20259,-0.12289 -0.0682,-0.0322 -0.13444,-0.0625 -0.19503,-0.0926 -0.12307,-0.0589 -0.2291,-0.10811 -0.3162,-0.14977 -0.17609,-0.0833 -0.28023,-0.12875 -0.28023,-0.12875 0,0 0.0871,0.072 0.24236,0.18934 z m 2.43117,5.10848 0,-0.20828 -0.97701,0 c 0,0.11739 0.0303,0.22172 0.0852,0.31034 0.0568,0.0892 0.13254,0.1651 0.2291,0.23118 0.0473,0.0341 0.0947,0.0663 0.1458,0.0985 0.0492,0.0322 0.0966,0.0661 0.13822,0.10414 0.0417,0.036 0.0776,0.0757 0.10414,0.1191 0.0284,0.0437 0.0417,0.093 0.0435,0.14806 0,0.0261 -0.004,0.0547 -0.009,0.0831 -0.006,0.0303 -0.017,0.0568 -0.036,0.0814 -0.017,0.0265 -0.0417,0.0473 -0.0738,0.0644 -0.0303,0.0169 -0.072,0.0246 -0.12307,0.0246 -0.0454,0 -0.0833,-0.009 -0.1155,-0.0265 -0.0303,-0.0189 -0.0549,-0.0437 -0.0719,-0.0759 -0.0189,-0.032 -0.0322,-0.0699 -0.0417,-0.11342 -0.009,-0.0437 -0.0132,-0.0911 -0.0151,-0.142 l -0.2329,0 c 0,0.0795 0.009,0.15336 0.0303,0.21963 0.0227,0.068 0.053,0.12686 0.0966,0.17609 0.0417,0.049 0.0928,0.0873 0.15337,0.1155 0.0606,0.0282 0.13254,0.0417 0.21207,0.0417 0.0871,0 0.16094,-0.0151 0.21963,-0.0437 0.0587,-0.0282 0.10604,-0.0644 0.14201,-0.10774 0.036,-0.0436 0.0606,-0.0909 0.0757,-0.142 0.0152,-0.0513 0.0227,-0.10036 0.0227,-0.14599 0,-0.0585 -0.009,-0.10982 -0.0265,-0.15507 -0.017,-0.0473 -0.0417,-0.089 -0.072,-0.12894 -0.0303,-0.0377 -0.0644,-0.0737 -0.10224,-0.10774 -0.0379,-0.0322 -0.0776,-0.0625 -0.1174,-0.0907 -0.0417,-0.0286 -0.0833,-0.057 -0.12307,-0.0816 -0.0417,-0.0265 -0.0795,-0.053 -0.11361,-0.0776 -0.036,-0.0265 -0.0663,-0.053 -0.0909,-0.0814 -0.0265,-0.0282 -0.0435,-0.0585 -0.053,-0.089 l 0.69679,0 z m 1.14363,0.50744 c 0,-0.0814 -0.008,-0.16662 -0.0189,-0.25372 -0.0132,-0.0873 -0.0379,-0.16852 -0.0738,-0.24028 -0.0379,-0.074 -0.0871,-0.13273 -0.15147,-0.18006 -0.0663,-0.0473 -0.14959,-0.0701 -0.25183,-0.0701 -0.10225,0 -0.18556,0.0227 -0.24993,0.0701 -0.0644,0.0473 -0.1155,0.10603 -0.15148,0.18006 -0.036,0.0718 -0.0606,0.15299 -0.0738,0.24028 -0.0133,0.0871 -0.0189,0.1723 -0.0189,0.25372 0,0.0814 0.006,0.16662 0.0189,0.25372 0.0132,0.0871 0.0379,0.16662 0.0738,0.24027 0.036,0.0721 0.0871,0.13292 0.15148,0.18026 0.0644,0.0473 0.14768,0.0699 0.24993,0.0699 0.10224,0 0.18556,-0.0225 0.25183,-0.0699 0.0644,-0.0473 0.1136,-0.10812 0.15147,-0.18026 0.036,-0.0737 0.0606,-0.15317 0.0738,-0.24027 0.0114,-0.0871 0.0189,-0.1723 0.0189,-0.25372 z m -0.78956,1.60942 -0.33703,0 c -0.62673,0 -1.13796,0.51103 -1.13796,1.13795 l 0,16.53344 c 0,0.62691 0.51123,1.13795 1.13796,1.13795 l 0.33703,0 c 0.62672,0 1.13795,-0.51104 1.13795,-1.13795 l 0,-16.53344 c 0,-0.62692 -0.51123,-1.13795 -1.13795,-1.13795 z m -3.11848,7.23101 -0.18935,-0.006 c -0.002,0.0738 -0.25561,7.49041 -0.0227,12.03275 0.22532,4.41169 5.33948,7.38438 5.3906,7.41278 l 0.0265,-0.31052 c -0.0492,-0.0284 -5.00813,-2.80606 -5.22776,-7.11173 -0.2329,-4.53476 0.0208,-11.94187 0.0227,-12.0176 z m 6.69517,-10.13364 c 0,0 -1.51285,0.50743 -1.57534,0.82364 -0.0625,0.3162 -0.24236,4.22973 0.0152,6.12146 0.25751,1.89343 0.90127,7.13066 0.84636,10.22263 -0.0549,3.09387 -0.41276,11.67869 -0.59832,13.00409 -2.14715,-0.18367 -6.07034,-4.33975 -6.26726,-7.05303 -0.19502,-2.71329 0.0947,-13.19154 0.0947,-13.19154 1.32161,-1.32918 1.75142,-5.9378 1.62077,-7.64188 -0.13064,-1.7022 -0.58128,-5.3622 -1.72113,-7.18936 0.0606,-0.50555 -0.56045,-67.154314 -0.49607,-71.696655 0.0549,-3.724398 3.70923,-5.94348 4.53098,-5.945335 0.81985,-0.0019 4.42116,1.757047 4.62375,6.867436 0.2026,5.112263 -1.07357,75.678544 -1.07357,75.678544" /><path
           inkscape:connector-curvature="0"
           id="path84"
           style="fill:#ffffff;fill-opacity:1;fill-rule:nonzero;stroke:none"
           d="m 246.88077,101.15385 c -0.0265,0 -0.0473,0.0208 -0.0473,0.0473 0,0.0265 0.0208,0.0473 0.0473,0.0473 l 2.26833,0 c 0.0776,0 0.14201,0.0644 0.14201,0.142 l 0,0.0947 c 0,0.0265 0.0208,0.0473 0.0473,0.0473 0.0265,0 0.0473,-0.0208 0.0473,-0.0473 l 0,-0.0947 c 0,-0.12894 -0.10793,-0.23667 -0.23668,-0.23667 l -2.26833,0 z m 2.26833,-2.586431 c 0.0776,0 0.14201,0.06438 0.14201,0.142008 l 0,0.09467 c 0,0.02651 0.0208,0.04734 0.0473,0.04734 0.0265,0 0.0473,-0.02083 0.0473,-0.04734 l 0,-0.09467 c 0,-0.130647 -0.10603,-0.236679 -0.23668,-0.236679 l -2.21531,0 c -0.0265,0 -0.0473,0.02083 -0.0473,0.04734 0,0.02651 0.0208,0.04734 0.0473,0.04734 l 2.21531,0 z m 0,-2.715179 c 0.0776,0 0.14201,0.06438 0.14201,0.142007 l 0,0.09467 c 0,0.02651 0.0208,0.04734 0.0473,0.04734 0.0265,0 0.0473,-0.02083 0.0473,-0.04734 l 0,-0.09467 c 0,-0.128753 -0.10793,-0.236679 -0.23668,-0.236679 l -2.1623,0 c -0.0265,0 -0.0473,0.02083 -0.0473,0.04734 0,0.02651 0.0208,0.04734 0.0473,0.04734 l 2.1623,0 z m 0,-2.807959 c 0.0776,0 0.14201,0.06438 0.14201,0.142008 l 0,0.09467 c 0,0.02651 0.0208,0.04734 0.0473,0.04734 0.0265,0 0.0473,-0.02083 0.0473,-0.04734 l 0,-0.09467 c 0,-0.130647 -0.10603,-0.236679 -0.23668,-0.236679 l -2.10549,0 c -0.0265,0 -0.0473,0.02083 -0.0473,0.04734 0,0.02651 0.0208,0.04734 0.0473,0.04734 l 2.10549,0 z m 0,-2.745474 c 0.0776,0 0.14201,0.06438 0.14201,0.142007 l 0,0.09467 c 0,0.02651 0.0208,0.04733 0.0473,0.04733 0.0265,0 0.0473,-0.02083 0.0473,-0.04733 l 0,-0.09467 c 0,-0.130647 -0.10603,-0.236679 -0.23668,-0.236679 l -2.05058,0 c -0.0265,0 -0.0473,0.02083 -0.0473,0.04734 0,0.02651 0.0208,0.04734 0.0473,0.04734 l 2.05058,0 z m 0,-2.777663 c 0.0776,0 0.14201,0.06438 0.14201,0.142007 l 0,0.09467 c 0,0.07763 -0.0644,0.142008 -0.14201,0.142008 -0.0265,0 -0.0473,0.02083 -0.0473,0.04734 0,0.02651 0.0208,0.04734 0.0473,0.04734 0.13065,0 0.23668,-0.106221 0.23668,-0.236679 l 0,-0.09467 c 0,-0.128753 -0.10793,-0.236679 -0.23668,-0.236679 l -1.99567,0 c -0.0265,0 -0.0473,0.02083 -0.0473,0.04734 0,0.02651 0.0208,0.04734 0.0473,0.04734 l 1.99567,0 z m 0,-2.745475 c 0.0776,0 0.14201,0.06438 0.14201,0.142007 l 0,0.09467 c 0,0.07763 -0.0644,0.142007 -0.14201,0.142007 -0.0265,0 -0.0473,0.02083 -0.0473,0.04734 0,0.02651 0.0208,0.04734 0.0473,0.04734 0.13065,0 0.23668,-0.106221 0.23668,-0.236678 l 0,-0.09467 c 0,-0.128753 -0.10793,-0.236679 -0.23668,-0.236679 l -1.89532,0 0.12686,-9.308106 c 0.002,-0.02651 -0.0189,-0.04734 -0.0454,-0.04734 l -0.002,0 c -0.0246,0 -0.0454,0.02083 -0.0473,0.04544 l -0.12686,9.357336 c 0,0.01136 0.006,0.02461 0.0132,0.03408 0.009,0.0076 0.0208,0.01325 0.0341,0.01325 l 1.94266,0 z m -2.90831,19.345181 -0.0814,0 c -0.30105,0 -0.5453,-0.24804 -0.5453,-0.55288 l -0.0398,-1.51683 c -0.002,-0.0244 -0.0227,-0.0453 -0.0473,-0.0453 l -0.002,0 c -0.0265,0 -0.0473,0.0227 -0.0454,0.0492 l 0.0398,1.51285 c 0,0.35597 0.28781,0.64755 0.63998,0.64755 l 0.0814,0 c 0.0265,0 0.0473,-0.0208 0.0473,-0.0473 0,-0.0265 -0.0208,-0.0473 -0.0473,-0.0473 z m -0.009,-49.528363 c -0.009,-0.0095 -0.0208,-0.01515 -0.0341,-0.01515 -0.0114,0 -0.0227,0.0057 -0.0322,0.01325 -0.20827,0.191237 -0.59453,0.90506 -0.93346,1.897218 -0.27833,0.819856 -0.61158,2.078987 -0.61158,3.42143 l 0.51123,24.771756 -1.94645,0 c -0.13064,0 -0.23668,0.106032 -0.23668,0.236679 l 0,0.09467 c 0,0.130457 0.10604,0.236678 0.23668,0.236678 0.0265,0 0.0473,-0.02083 0.0473,-0.04734 0,-0.02651 -0.0208,-0.04734 -0.0473,-0.04734 -0.0776,0 -0.142,-0.06438 -0.142,-0.142007 l 0,-0.09467 c 0,-0.07763 0.0644,-0.142007 0.142,-0.142007 l 1.99379,0 c 0.0132,0 0.0246,-0.0057 0.0341,-0.01515 0.009,-0.0076 0.0132,-0.02083 0.0132,-0.03219 L 244.7151,59.909222 c 0,-2.44442 1.14931,-4.91156 1.51474,-5.248591 0.0189,-0.01893 0.0189,-0.04734 0.002,-0.06816 z m -3.04653,32.833985 c -0.13064,0 -0.23668,0.106032 -0.23668,0.236679 l 0,0.09467 c 0,0.130458 0.10604,0.236679 0.23668,0.236679 0.0265,0 0.0473,-0.02083 0.0473,-0.04734 0,-0.02651 -0.0208,-0.04734 -0.0473,-0.04734 -0.0776,0 -0.142,-0.06438 -0.142,-0.142008 l 0,-0.09467 c 0,-0.07763 0.0644,-0.142007 0.142,-0.142007 l 2.05059,0 c 0.0265,0 0.0473,-0.02083 0.0473,-0.04734 0,-0.02651 -0.0208,-0.04734 -0.0473,-0.04734 l -2.05059,0 z m 0,2.777663 c -0.13064,0 -0.23668,0.106032 -0.23668,0.236679 l 0,0.09467 c 0,0.130646 0.10604,0.236678 0.23668,0.236678 0.0265,0 0.0473,-0.02083 0.0473,-0.04734 0,-0.02651 -0.0208,-0.04734 -0.0473,-0.04734 -0.0776,0 -0.142,-0.06438 -0.142,-0.142007 l 0,-0.09467 c 0,-0.07763 0.0644,-0.142007 0.142,-0.142007 l 2.10739,0 c 0.0265,0 0.0473,-0.02083 0.0473,-0.04734 0,-0.02651 -0.0208,-0.04734 -0.0473,-0.04734 l -2.10739,0 z m 0,2.745475 c -0.13064,0 -0.23668,0.106032 -0.23668,0.236679 l 0,0.09467 c 0,0.130647 0.10604,0.236679 0.23668,0.236679 0.0265,0 0.0473,-0.02083 0.0473,-0.04734 0,-0.02651 -0.0208,-0.04734 -0.0473,-0.04734 -0.0776,0 -0.142,-0.06438 -0.142,-0.142008 l 0,-0.09467 c 0,-0.07763 0.0644,-0.142008 0.142,-0.142008 l 2.1642,0 c 0.0265,0 0.0473,-0.02083 0.0473,-0.04734 0,-0.02651 -0.0208,-0.04734 -0.0473,-0.04734 l -2.1642,0 z m 0,2.807958 c -0.13064,0 -0.23668,0.106032 -0.23668,0.236679 l 0,0.09467 c 0,0.130458 0.10604,0.236679 0.23668,0.236679 0.0265,0 0.0473,-0.02083 0.0473,-0.04734 0,-0.02651 -0.0208,-0.04734 -0.0473,-0.04734 -0.0776,0 -0.142,-0.06438 -0.142,-0.142008 l 0,-0.09467 c 0,-0.07763 0.0644,-0.142007 0.142,-0.142007 l 2.221,0 c 0.0265,0 0.0473,-0.02083 0.0473,-0.04734 0,-0.02651 -0.0208,-0.04734 -0.0473,-0.04734 l -2.221,0 z m 0,2.71518 c -0.13064,0 -0.23668,0.106032 -0.23668,0.236679 l 0,0.09467 c 0,0.130647 0.10604,0.236679 0.23668,0.236679 0.0265,0 0.0473,-0.02083 0.0473,-0.04734 0,-0.02651 -0.0208,-0.04734 -0.0473,-0.04734 -0.0776,0 -0.142,-0.06438 -0.142,-0.142008 l 0,-0.09467 c 0,-0.07763 0.0644,-0.142008 0.142,-0.142008 l 2.2778,0 c 0.0265,0 0.0473,-0.02083 0.0473,-0.04734 0,-0.02651 -0.0208,-0.04734 -0.0473,-0.04734 l -2.2778,0 z m 0,2.681102 c -0.13064,0 -0.23668,0.10603 -0.23668,0.23667 l 0,0.0947 c 0,0.0265 0.0208,0.0473 0.0473,0.0473 0.0265,0 0.0473,-0.0208 0.0473,-0.0473 l 0,-0.0947 c 0,-0.0776 0.0644,-0.142 0.142,-0.142 l 2.33271,0 c 0.0265,0 0.0473,-0.0208 0.0473,-0.0473 0,-0.0265 -0.0208,-0.0473 -0.0473,-0.0473 l -2.33271,0 z m 4.08224,-0.23668 1.88207,0 c 0.26129,0 0.47336,0.21206 0.47336,0.47335 l 0,0.0947 c 0,0.26129 -0.21207,0.47335 -0.47336,0.47335 l -1.90668,0 c -0.0511,0 -0.0928,0.0417 -0.0947,0.0926 l -0.0303,1.52251 c 0,0.48472 -0.39383,0.87855 -0.87666,0.87855 l -0.0814,0 c -0.48282,0 -0.87665,-0.39383 -0.87665,-0.87666 l -0.0322,-1.5244 c -0.002,-0.0509 -0.0436,-0.0926 -0.0947,-0.0926 l -1.97107,0 c -0.26129,0 -0.47335,-0.21206 -0.47335,-0.47335 l 0,-0.0947 c 0,-0.26129 0.21206,-0.47335 0.47335,-0.47335 l 1.94645,0 c 0.0246,0 0.0492,-0.009 0.0682,-0.0282 0.0171,-0.0191 0.0265,-0.0437 0.0265,-0.0686 l -0.0303,-1.450176 c -0.002,-0.05112 -0.0435,-0.09278 -0.0947,-0.09278 l -1.91616,0 c -0.26129,0 -0.47335,-0.212064 -0.47335,-0.473358 l 0,-0.09467 c 0,-0.261294 0.21206,-0.473358 0.47335,-0.473358 l 1.89154,0 c 0.0246,0 0.0492,-0.0095 0.0682,-0.02859 0.0171,-0.01874 0.0265,-0.04336 0.0265,-0.06797 l -0.0303,-1.48445 c -0.002,-0.05112 -0.0436,-0.09278 -0.0947,-0.09278 l -1.86125,0 c -0.26129,0 -0.47335,-0.212064 -0.47335,-0.473358 l 0,-0.09467 c 0,-0.261294 0.21206,-0.473358 0.47335,-0.473358 l 1.83474,0 c 0.0246,0 0.0492,-0.0095 0.0682,-0.0284 0.017,-0.01893 0.0265,-0.04355 0.0265,-0.06816 l -0.0322,-1.577228 c -0.002,-0.05112 -0.0436,-0.09278 -0.0947,-0.09278 l -1.80255,0 c -0.26129,0 -0.47335,-0.212064 -0.47335,-0.473358 l 0,-0.09467 c 0,-0.261294 0.21206,-0.473358 0.47335,-0.473358 l 1.77794,0 c 0.0246,0 0.0492,-0.0095 0.0682,-0.0284 0.017,-0.01893 0.0265,-0.04355 0.0265,-0.06816 l -0.0322,-1.514745 c -0.002,-0.05112 -0.0435,-0.09278 -0.0947,-0.09278 l -1.74575,0 c -0.26129,0 -0.47335,-0.212064 -0.47335,-0.473357 l 0,-0.09467 c 0,-0.261293 0.21206,-0.473358 0.47335,-0.473358 l 1.72113,0 c 0.0246,0 0.0492,-0.0095 0.0682,-0.0284 0.017,-0.01893 0.0265,-0.04355 0.0265,-0.06816 l -0.0322,-1.546933 c -0.002,-0.05112 -0.0436,-0.09278 -0.0947,-0.09278 l -1.68894,0 c -0.26129,0 -0.47335,-0.212064 -0.47335,-0.473358 l 0,-0.09467 c 0,-0.261294 0.21206,-0.473358 0.47335,-0.473358 l 1.66433,0 c 0.0246,0 0.0492,-0.0095 0.0682,-0.0284 0.017,-0.01894 0.0265,-0.04355 0.0265,-0.06816 l -0.0322,-1.514745 c -0.002,-0.05112 -0.0435,-0.09278 -0.0947,-0.09278 l -1.63214,0 c -0.26129,0 -0.47335,-0.212064 -0.47335,-0.473357 l 0,-0.09467 c 0,-0.261293 0.21206,-0.473358 0.47335,-0.473358 l 1.60753,0 c 0.0246,0 0.0492,-0.0095 0.0682,-0.0284 0.017,-0.01893 0.0265,-0.04355 0.0265,-0.06816 l -0.50365,-24.440406 c 0,-2.614828 1.34433,-5.583727 1.77603,-5.583727 l 0.0814,0 c 0.42413,0 1.74006,3.044636 1.74006,5.727628 l -0.48282,24.296505 c 0,0.02461 0.009,0.04923 0.0265,0.06816 0.0189,0.01893 0.0436,0.0284 0.0682,0.0284 l 1.5564,0 c 0.26129,0 0.47336,0.212065 0.47336,0.473358 l 0,0.09467 c 0,0.261293 -0.21207,0.473357 -0.47336,0.473357 l -1.57912,0 c -0.0511,0 -0.0928,0.04166 -0.0947,0.09278 l -0.0303,1.514745 c 0,0.02461 0.009,0.04923 0.0265,0.06816 0.0189,0.01893 0.0436,0.0284 0.0682,0.0284 l 1.60942,0 c 0.26129,0 0.47336,0.212064 0.47336,0.473358 l 0,0.09467 c 0,0.261294 -0.21207,0.473358 -0.47336,0.473358 l -1.63403,0 c -0.0511,0 -0.0928,0.04166 -0.0947,0.09278 l -0.0303,1.546933 c 0,0.02461 0.009,0.04923 0.0265,0.06816 0.0189,0.01893 0.0436,0.0284 0.0682,0.0284 l 1.66432,0 c 0.26129,0 0.47336,0.212065 0.47336,0.473358 l 0,0.09467 c 0,0.261293 -0.21207,0.473357 -0.47336,0.473357 l -1.68894,0 c -0.0511,0 -0.0928,0.04166 -0.0947,0.09278 l -0.0303,1.514745 c 0,0.02461 0.009,0.04923 0.0265,0.06816 0.0189,0.01893 0.0435,0.0284 0.0682,0.0284 l 1.71923,0 c 0.26129,0 0.47336,0.212064 0.47336,0.473358 l 0,0.09467 c 0,0.261294 -0.21207,0.473358 -0.47336,0.473358 l -1.74385,0 c -0.0511,0 -0.0928,0.04166 -0.0947,0.09278 l -0.0322,1.577228 c 0,0.02461 0.009,0.04923 0.0265,0.06816 0.0189,0.01893 0.0436,0.0284 0.0682,0.0284 l 1.77604,0 c 0.26129,0 0.47336,0.212064 0.47336,0.473358 l 0,0.09467 c 0,0.261294 -0.21207,0.473358 -0.47336,0.473358 l -1.80065,0 c -0.0511,0 -0.0928,0.04166 -0.0947,0.09278 l -0.0284,1.48445 c 0,0.02461 0.009,0.04923 0.0265,0.06797 0.0189,0.01912 0.0436,0.02859 0.0682,0.02859 l 1.82905,0 c 0.26129,0 0.47336,0.212064 0.47336,0.473358 l 0,0.09467 c 0,0.261294 -0.21207,0.473358 -0.47336,0.473358 l -1.85367,0 c -0.0511,0 -0.0928,0.04166 -0.0947,0.09278 l -0.0284,1.450176 c 0,0.0248 0.009,0.0494 0.0265,0.0686 0.0189,0.0187 0.0436,0.0282 0.0682,0.0282" /><path
           inkscape:connector-curvature="0"
           id="path86"
           style="fill:#ffffff;fill-opacity:1;fill-rule:nonzero;stroke:none"
           d="m 250.39498,55.8857 c -0.0189,0.138221 -0.0284,0.276441 -0.0568,0.414661 -0.0208,0.136327 -0.0511,0.272654 -0.0833,0.407088 -0.0322,0.134434 -0.0663,0.268867 -0.10603,0.401407 -0.0398,0.132541 -0.0814,0.263187 -0.12686,0.393834 -0.0928,0.2594 -0.19502,0.515013 -0.30863,0.76684 -0.0587,0.124966 -0.11739,0.248039 -0.17987,0.371112 -0.0606,0.117393 -0.12497,0.236679 -0.18935,0.344604 l -0.78009,0 0,0.189344 0.7498,0 c -0.0132,0.229105 -0.0132,0.45821 -0.008,0.687315 l 0,19.526953 c 0.008,0.5188 -0.0208,1.041387 0.017,1.560187 0.0511,1.041387 0.10414,2.082774 0.1723,3.124161 0.0682,-1.041387 0.12118,-2.082774 0.1723,-3.124161 0.0379,-0.5188 0.009,-1.041387 0.017,-1.560187 l 0,-19.526953 c 0.006,-0.249933 0.006,-0.497972 -0.009,-0.747905 0.0511,-0.1155 0.0985,-0.229105 0.14391,-0.346498 0.0511,-0.130647 0.10035,-0.26508 0.14579,-0.397621 0.0909,-0.268867 0.16852,-0.541521 0.23479,-0.814175 0.0341,-0.13822 0.0625,-0.274547 0.089,-0.414661 0.0265,-0.138221 0.0492,-0.276441 0.0644,-0.416555 0.017,-0.140114 0.0303,-0.278334 0.036,-0.420342 0.0114,-0.13822 0.004,-0.280227 0.006,-0.418448 z m -4.15419,-1.751424 -0.0814,0 c -0.64944,0 -1.96538,3.175284 -1.96538,5.774965 l 0.50176,24.345734 -1.51096,0 c -0.36543,0 -0.6627,0.297269 -0.6627,0.662701 l 0,0.09467 c 0,0.365432 0.29727,0.6627 0.6627,0.6627 l 1.53936,0 0.0284,1.325402 -1.56776,0 c -0.36543,0 -0.6627,0.297269 -0.6627,0.662701 l 0,0.09467 c 0,0.365433 0.29727,0.662701 0.6627,0.662701 l 1.59617,0 0.0284,1.35759 -1.62457,0 c -0.36543,0 -0.6627,0.297269 -0.6627,0.662701 l 0,0.09467 c 0,0.365432 0.29727,0.6627 0.6627,0.6627 l 1.65297,0 0.0284,1.325402 -1.68137,0 c -0.36543,0 -0.6627,0.297269 -0.6627,0.662701 l 0,0.09467 c 0,0.365433 0.29727,0.662701 0.6627,0.662701 l 1.70977,0 0.0284,1.387885 -1.73817,0 c -0.36543,0 -0.6627,0.297269 -0.6627,0.662701 l 0,0.09467 c 0,0.365433 0.29727,0.662701 0.6627,0.662701 l 1.76847,0 0.0265,1.295107 -1.79498,0 c -0.36543,0 -0.6627,0.297269 -0.6627,0.662701 l 0,0.09467 c 0,0.365432 0.29727,0.662701 0.6627,0.662701 l 1.82338,0 0.0265,1.261019 -1.84989,0 c -0.36543,0 -0.6627,0.29708 -0.6627,0.6627 l 0,0.0947 c 0,0.36543 0.29727,0.6627 0.6627,0.6627 l 1.87829,0 0.0303,1.42954 c 0,0.58507 0.47904,1.06411 1.066,1.06411 l 0.0814,0 c 0.58696,0 1.066,-0.47904 1.066,-1.06601 l 0.0284,-1.42764 1.81391,0 c 0.36543,0 0.6627,-0.29727 0.6627,-0.6627 l 0,-0.0947 c 0,-0.36562 -0.29727,-0.6627 -0.6627,-0.6627 l -1.7855,0 0.0246,-1.261019 1.76089,0 c 0.36543,0 0.6627,-0.297269 0.6627,-0.662701 l 0,-0.09467 c 0,-0.365432 -0.29727,-0.662701 -0.6627,-0.662701 l -1.73249,0 0.0246,-1.295107 1.70787,0 c 0.36543,0 0.6627,-0.297268 0.6627,-0.662701 l 0,-0.09467 c 0,-0.365432 -0.29727,-0.662701 -0.6627,-0.662701 l -1.67947,0 0.0284,-1.387885 1.65107,0 c 0.36543,0 0.6627,-0.297268 0.6627,-0.662701 l 0,-0.09467 c 0,-0.365432 -0.29727,-0.662701 -0.6627,-0.662701 l -1.62267,0 0.0265,-1.325402 1.59616,0 c 0.36543,0 0.6627,-0.297268 0.6627,-0.6627 l 0,-0.09467 c 0,-0.365432 -0.29727,-0.662701 -0.6627,-0.662701 l -1.56776,0 0.0265,-1.35759 1.54125,0 c 0.36543,0 0.6627,-0.297268 0.6627,-0.662701 l 0,-0.09467 c 0,-0.365432 -0.29727,-0.662701 -0.6627,-0.662701 l -1.51285,0 0.0265,-1.325402 1.48634,0 c 0.36543,0 0.6627,-0.297268 0.6627,-0.6627 l 0,-0.09467 c 0,-0.365432 -0.29727,-0.662701 -0.6627,-0.662701 l -1.45983,0 0.48093,-24.201834 c 0,-2.092241 -1.13417,-5.918865 -1.92941,-5.918865 z m -2.85151,4.796061 -0.58128,0 c -0.0417,-0.09846 -0.0833,-0.204491 -0.12118,-0.308629 -0.0436,-0.119286 -0.0833,-0.240466 -0.12118,-0.363539 -0.0776,-0.244253 -0.14011,-0.492292 -0.19313,-0.744118 -0.053,-0.249933 -0.0947,-0.503653 -0.12307,-0.76116 -0.0152,-0.126859 -0.0265,-0.255613 -0.0322,-0.384366 -0.0114,-0.128753 -0.008,-0.257507 -0.0114,-0.388153 -0.009,0.128753 -0.0265,0.257506 -0.0284,0.388153 -0.006,0.130647 -0.009,0.2594 -0.008,0.390047 0.002,0.261293 0.0208,0.520693 0.0549,0.780093 0.0303,0.2594 0.0738,0.5188 0.13065,0.774413 0.0284,0.128754 0.0587,0.255614 0.0928,0.382474 0.0322,0.117392 0.0644,0.230998 0.10414,0.348391 -0.0189,0.516906 -0.053,1.033813 -0.0284,1.548826 l 0.0189,1.565868 0.036,3.131734 0.0719,6.261576 0.0738,6.261576 0.0189,1.565868 0.008,0.78388 c -0.006,0.2594 0.004,0.520694 0.0227,0.781987 0.0644,1.04328 0.13065,2.086561 0.21396,3.127948 0.0568,-1.043281 0.0985,-2.088454 0.13822,-3.131735 0.0132,-0.261293 0.017,-0.522587 0.006,-0.78388 l -0.009,-0.781987 -0.0189,-1.565868 -0.0738,-6.261576 -0.0719,-6.263469 -0.036,-3.129841 -0.0189,-1.565868 c 0.0133,-0.490398 -0.0284,-0.978903 -0.0606,-1.469302 l 0.5472,0 0,-0.189343 z m -0.60211,48.040133 6.31081,3.78118 0.27833,0.16643 0.009,-0.32169 0.10982,-3.81905 0.0284,-0.95429 0.017,-0.47715 c 0,-0.15905 -0.0114,-0.31999 -0.0189,-0.47904 -0.0265,-0.63827 -0.0606,-1.27617 -0.10604,-1.91425 -0.0814,0.63448 -0.15147,1.27049 -0.21585,1.90479 -0.0151,0.15886 -0.036,0.3179 -0.0473,0.47714 l -0.008,0.47734 -0.0284,0.9541 -0.10035,3.49546 -5.94348,-3.55984 0.008,-0.9505 c 0,-0.1759 0.006,-0.35218 0.009,-0.53016 -0.006,-0.17609 -0.0208,-0.35218 -0.0303,-0.52827 -0.0473,-0.70625 -0.0852,-1.4125 -0.1439,-2.11875 -0.0701,0.70625 -0.1174,1.41061 -0.17609,2.11685 -0.0114,0.17609 -0.0303,0.35218 -0.0379,0.52827 0,0.1759 0.004,0.35218 0,0.52827 l -0.008,1.05862 -0.002,0.10963 0.0947,0.0549 z m 0.67975,1.0641 c 0.0776,0.0585 0.1704,0.13065 0.27833,0.21207 0.0549,0.0417 0.11171,0.0852 0.1723,0.13046 0.0606,0.0456 0.13444,0.0795 0.2026,0.12515 0.56803,0.34461 1.32351,0.80471 2.08088,1.26462 0.75548,0.4603 1.51096,0.92059 2.07899,1.26501 0.0719,0.0398 0.13443,0.0907 0.20449,0.12288 0.0682,0.0322 0.13254,0.0625 0.19313,0.093 0.12307,0.0568 0.2291,0.10792 0.31809,0.14977 0.17609,0.0812 0.27834,0.12856 0.27834,0.12856 0,0 -0.089,-0.0682 -0.24236,-0.18934 -0.0776,-0.0587 -0.1723,-0.12857 -0.28023,-0.21017 -0.053,-0.0417 -0.10982,-0.0852 -0.17041,-0.13065 -0.0606,-0.0473 -0.13443,-0.0795 -0.2026,-0.12516 -0.56802,-0.34649 -1.3235,-0.80641 -2.07898,-1.26651 -0.75737,-0.45821 -1.51285,-0.91832 -2.08088,-1.26481 -0.072,-0.04 -0.13444,-0.089 -0.2026,-0.12308 -0.0682,-0.0322 -0.13443,-0.0625 -0.19502,-0.0928 -0.12308,-0.0587 -0.22911,-0.10812 -0.31621,-0.1494 -0.17609,-0.0835 -0.28022,-0.12894 -0.28022,-0.12894 0,0 0.0871,0.072 0.24236,0.18934 z m 1.45983,24.70076 c 0,0.43511 0.22911,0.9505 0.87477,0.97019 0.77252,0.0227 1.04328,-0.50233 1.04328,-0.99405 l 0.0246,-16.31342 c 0,-0.44496 -0.36164,-0.80679 -0.8066,-0.80679 l -0.33703,0 c -0.41466,0 -0.86909,0.49986 -0.86909,0.95504 l 0.0701,16.18903 z m 4.94754,-20.63859 c 0,0 -1.07926,0.47809 -1.32541,0.68637 -0.72139,0.61101 -1.01866,1.23073 -1.13605,3.45551 l -0.21207,16.64534 c 0,0.62673 -0.51123,1.13795 -1.13795,1.13795 l -0.33703,0 c -0.62673,0 -1.13795,-0.51122 -1.13795,-1.13795 l -0.25183,-16.47966 -0.12686,-3.85011 c -0.13065,-1.702 -0.82554,-3.27374 -1.96538,-5.10071 0.0606,-0.50555 -0.56046,-67.154503 -0.49608,-71.696844 0.0549,-3.724359 3.70923,-5.943442 4.53098,-5.945373 0.81986,-0.0019 4.42116,1.757123 4.62376,6.867455 0.2026,5.112282 -1.02813,75.418022 -1.02813,75.418022" /><path
           inkscape:connector-curvature="0"
           id="path88"
           style="fill:#ffffff;fill-opacity:1;fill-rule:nonzero;stroke:none"
           d="m 245.16911,121.06308 c -0.004,1.09649 -0.008,2.26663 -0.0132,3.43677 0.006,1.17014 0.009,2.34028 0.0132,3.43847 0.0114,1.0963 0.0208,2.12064 0.0284,2.9973 0.008,0.43928 0.0132,0.84068 0.0189,1.19854 0.006,0.17798 0,0.34271 0.0151,0.50195 0.004,0.0377 0.008,0.0755 0.0114,0.11152 0.009,0.0379 0.0208,0.0739 0.0303,0.10793 0.0132,0.0737 0.0511,0.13254 0.0757,0.19124 0.12117,0.23478 0.31241,0.35217 0.44116,0.38796 0.0644,0.0286 0.11929,0.0229 0.15527,0.0286 0.008,0.002 0.0151,0.002 0.0227,0.002 -0.008,-0.002 -0.0152,-0.002 -0.0227,-0.004 -0.0341,-0.008 -0.089,-0.005 -0.15148,-0.036 -0.12686,-0.0417 -0.30295,-0.16662 -0.41087,-0.39383 -0.0227,-0.0587 -0.0568,-0.11758 -0.0682,-0.18556 -0.008,-0.0341 -0.0151,-0.068 -0.0246,-0.10224 -0.002,-0.0379 -0.004,-0.0739 -0.008,-0.1138 -0.008,-0.14939 0.004,-0.3198 0.004,-0.49589 0.006,-0.35786 0.0114,-0.75926 0.017,-1.19854 0.009,-0.87666 0.0189,-1.901 0.0303,-2.9973 0.004,-1.09819 0.008,-2.26833 0.0114,-3.43847 -0.004,-1.17014 -0.008,-2.34028 -0.0114,-3.43677 -0.0114,-1.09781 -0.0208,-2.12234 -0.0303,-2.999 -0.006,-0.43947 -0.0114,-0.84069 -0.017,-1.19854 -0.008,-0.17988 0,-0.33893 0.0436,-0.48472 0.0473,-0.14201 0.11361,-0.26887 0.2026,-0.35597 0.0227,-0.0208 0.0417,-0.0454 0.0644,-0.0644 0.0246,-0.017 0.0492,-0.0322 0.072,-0.0492 0.0435,-0.036 0.0947,-0.0492 0.13822,-0.0682 0.0435,-0.0246 0.0928,-0.0227 0.13254,-0.0303 0.0417,-0.009 0.0795,-0.0114 0.1136,-0.0114 0.13633,-0.004 0.21017,-0.004 0.21017,-0.004 0,0 -0.0738,-0.002 -0.21017,-0.006 -0.0341,-0.002 -0.0738,-0.002 -0.1155,0.004 -0.0417,0.006 -0.089,0.004 -0.13632,0.0246 -0.0455,0.017 -0.10225,0.0303 -0.14769,0.0663 -0.0246,0.0152 -0.0511,0.0322 -0.0776,0.0473 -0.0246,0.0189 -0.0454,0.0435 -0.0682,0.0663 -0.0984,0.0871 -0.1723,0.21774 -0.22721,0.36354 -0.053,0.14958 -0.0644,0.32756 -0.0644,0.50176 -0.006,0.35785 -0.0114,0.75907 -0.0189,1.19854 -0.008,0.87666 -0.017,1.90119 -0.0284,2.999 z m 0.55667,-5.37715 0.33703,0 c 0.39194,0 0.71193,0.31942 0.71193,0.71193 l -0.0246,16.31361 c 0,0.21112 -0.0644,0.90014 -0.89938,0.90014 -0.0151,0 -0.0303,-3.8e-4 -0.0473,-7.6e-4 -0.5756,-0.0174 -0.78199,-0.4637 -0.78199,-0.87571 l -0.0701,-16.18903 c 0,-0.40178 0.41277,-0.86018 0.77442,-0.86018" /></g></g><path
       inkscape:connector-curvature="0"
       id="path114"
       style="fill:#ffffff;fill-opacity:1;fill-rule:nonzero;stroke:none"
       d="m 213.75898,90.166456 0,-0.02367 c 0,0.0025 0,0.01136 0,0.02367" /></g></svg>